0
SECTION
2
HEADER
9
$INSUNITS
70
4
9
$ACADVER
1
AC1014
9
$HANDSEED
5
FFFF
0
ENDSEC
0
SECTION
2
TABLES
0
TABLE
2
VPORT
5
8
100
AcDbSymbolTable
0
ENDTAB
0
TABLE
2
LTYPE
5
5
100
AcDbSymbolTable
0
LTYPE
5
14
100
AcDbSymbolTableRecord
100
AcDbLinetypeTableRecord
2
BYBLOCK
70
0
0
LTYPE
5
15
100
AcDbSymbolTableRecord
100
AcDbLinetypeTableRecord
2
BYLAYER
70
0
0
ENDTAB
0
TABLE
2
LAYER
5
2
100
AcDbSymbolTable
70
2
0
LAYER
5
50
100
AcDbSymbolTableRecord
100
AcDbLayerTableRecord
2
0
70
0
6
CONTINUOUS
0
ENDTAB
0
TABLE
2
STYLE
5
3
100
AcDbSymbolTable
70
1
0
STYLE
5
11
100
AcDbSymbolTableRecord
100
AcDbTextStyleTableRecord
2
STANDARD
70
0
0
ENDTAB
0
TABLE
2
VIEW
5
6
100
AcDbSymbolTable
70
0
0
ENDTAB
0
TABLE
2
UCS
5
7
100
AcDbSymbolTable
70
0
0
ENDTAB
0
TABLE
2
APPID
5
9
100
AcDbSymbolTable
70
2
0
APPID
5
12
100
AcDbSymbolTableRecord
100
AcDbRegAppTableRecord
2
ACAD
70
0
0
ENDTAB
0
TABLE
2
DIMSTYLE
5
A
100
AcDbSymbolTable
70
1
0
ENDTAB
0
TABLE
2
BLOCK_RECORD
5
1
100
AcDbSymbolTable
70
1
0
BLOCK_RECORD
5
1F
100
AcDbSymbolTableRecord
100
AcDbBlockTableRecord
2
*MODEL_SPACE
0
BLOCK_RECORD
5
1B
100
AcDbSymbolTableRecord
100
AcDbBlockTableRecord
2
*PAPER_SPACE
0
ENDTAB
0
ENDSEC
0
SECTION
2
BLOCKS
0
BLOCK
5
20
100
AcDbEntity
100
AcDbBlockBegin
2
*MODEL_SPACE
0
ENDBLK
5
21
100
AcDbEntity
100
AcDbBlockEnd
0
BLOCK
5
1C
100
AcDbEntity
100
AcDbBlockBegin
2
*PAPER_SPACE
0
ENDBLK
5
1D
100
AcDbEntity
100
AcDbBlockEnd
0
ENDSEC
0
SECTION
2
ENTITIES
0
CIRCLE
5
100
100
AcDbEntity
8
0
100
AcDbCircle
10
2.0000000000001004
20
-51.966705448272393
30
0
40
1.5999999999999992
210
0
220
0
230
1
0
CIRCLE
5
101
100
AcDbEntity
8
0
100
AcDbCircle
10
91.357491531360751
20
42.971588104184626
30
0
40
1.6000000000000014
210
0
220
0
230
1
0
CIRCLE
5
102
100
AcDbEntity
8
0
100
AcDbCircle
10
-87.357491531360552
20
-51.966705448272393
30
0
40
1.6000000000000014
210
0
220
0
230
1
0
CIRCLE
5
103
100
AcDbEntity
8
0
100
AcDbCircle
10
2.0000000000000999
20
44.971588104184626
30
0
40
1.5999999999999988
210
0
220
0
230
1
0
CIRCLE
5
104
100
AcDbEntity
8
0
100
AcDbCircle
10
91.357491531360751
20
-51.966705448272393
30
0
40
1.6000000000000014
210
0
220
0
230
1
0
CIRCLE
5
105
100
AcDbEntity
8
0
100
AcDbCircle
10
-88.357491531360523
20
42.971588104184626
30
0
40
1.6000000000000014
210
0
220
0
230
1
0
SPLINE
5
106
100
AcDbEntity
8
0
100
AcDbSpline
70
0
71
3
72
11
73
7
74
0
42
0.000000001
43
0.0000000001
44
0.0000000001
40
-1.5707963267948968
40
-1.5707963267948968
40
-1.5707963267948968
40
-1.5707963267948968
40
-0.64760159396884309
40
-0.64760159396884309
40
-0.64760159396884309
40
-2.4870779000298382e-16
40
-2.4870779000298382e-16
40
-2.4870779000298382e-16
40
-2.4870779000298382e-16
10
-93.857491531360523
20
-50.874145776957917
30
0
10
-93.857491531360523
20
-52.294434111073002
30
0
10
-93.168420289070099
20
-53.69483324162205
30
0
10
-92.063425780817013
20
-54.543575005843906
30
0
10
-91.288295486603829
20
-55.138949415851037
30
0
10
-90.32389877309042
20
-55.466705448272378
30
0
10
-89.357491531360523
20
-55.466705448272378
30
0
0
LINE
5
107
100
AcDbEntity
8
0
100
AcDbLine
10
-89.357491531360523
20
-55.466705448272393
30
0
11
93.357491531360751
21
-55.466705448272378
31
0
0
SPLINE
5
108
100
AcDbEntity
8
0
100
AcDbSpline
70
0
71
3
72
11
73
7
74
0
42
0.000000001
43
0.0000000001
44
0.0000000001
40
0
40
0
40
0
40
0
40
0.92319473282605369
40
0.92319473282605369
40
0.92319473282605369
40
1.5707963267948966
40
1.5707963267948966
40
1.5707963267948966
40
1.5707963267948966
10
93.357491531360751
20
-55.466705448272378
30
0
10
94.735162747180681
20
-55.466705448272378
30
0
10
96.100470963124693
20
-54.780216802934014
30
0
10
96.939771265295391
20
-53.653540894333474
30
0
10
97.528522689212679
20
-52.863201555998586
30
0
10
97.857491531360736
20
-51.87044802648731
30
0
10
97.857491531360736
20
-50.874145776957917
30
0
0
LINE
5
109
100
AcDbEntity
8
0
100
AcDbLine
10
97.857491531360736
20
-50.874145776957903
30
0
11
97.857491531360736
21
49.471588104184633
31
0
0
LINE
5
110
100
AcDbEntity
8
0
100
AcDbLine
10
97.857491531360736
20
49.471588104184633
30
0
11
-93.857491531360537
21
49.471588104184619
31
0
0
LINE
5
111
100
AcDbEntity
8
0
100
AcDbLine
10
-93.857491531360537
20
49.471588104184619
30
0
11
-93.857491531360523
21
-50.874145776957917
31
0
0
CIRCLE
5
112
100
AcDbEntity
8
0
100
AcDbCircle
10
-76.357491531360466
20
35.000000000000014
30
0
40
1.749999999999998
210
-0
220
0
230
1
0
LWPOLYLINE
5
113
100
AcDbEntity
8
0
100
AcDbPolyline
90
4
70
1
43
0.0
10
-79.457491531360475
20
38.100000000000016
10
-73.257491531360458
20
38.100000000000016
10
-73.257491531360458
20
31.900000000000013
10
-79.457491531360475
20
31.900000000000013
0
CIRCLE
5
114
100
AcDbEntity
8
0
100
AcDbCircle
10
-58.357491531360452
20
35.000000000000014
30
0
40
1.749999999999998
210
-0
220
0
230
1
0
LWPOLYLINE
5
115
100
AcDbEntity
8
0
100
AcDbPolyline
90
4
70
1
43
0.0
10
-61.457491531360446
20
38.100000000000016
10
-55.257491531360458
20
38.100000000000016
10
-55.257491531360458
20
31.900000000000013
10
-61.457491531360446
20
31.900000000000013
0
CIRCLE
5
116
100
AcDbEntity
8
0
100
AcDbCircle
10
-90.357491531360523
20
8.0000000000000036
30
0
40
1.7499999999999893
210
-0
220
0
230
1
0
LWPOLYLINE
5
117
100
AcDbEntity
8
0
100
AcDbPolyline
90
4
70
1
43
0.0
10
-93.457491531360517
20
11.100000000000003
10
-87.257491531360529
20
11.100000000000003
10
-87.257491531360529
20
4.9000000000000021
10
-93.457491531360517
20
4.9000000000000021
0
CIRCLE
5
118
100
AcDbEntity
8
0
100
AcDbCircle
10
-90.357491531360523
20
-24.000000000000004
30
0
40
1.7500000000000071
210
-0
220
0
230
1
0
LWPOLYLINE
5
119
100
AcDbEntity
8
0
100
AcDbPolyline
90
4
70
1
43
0.0
10
-93.457491531360532
20
-20.900000000000002
10
-87.257491531360515
20
-20.900000000000002
10
-87.257491531360515
20
-27.100000000000005
10
-93.457491531360532
20
-27.100000000000005
0
CIRCLE
5
120
100
AcDbEntity
8
0
100
AcDbCircle
10
-90.357491531360523
20
-40
30
0
40
1.7500000000000071
210
-0
220
0
230
1
0
LWPOLYLINE
5
121
100
AcDbEntity
8
0
100
AcDbPolyline
90
4
70
1
43
0.0
10
-87.257491531360515
20
-36.899999999999991
10
-87.257491531360515
20
-43.100000000000009
10
-93.457491531360532
20
-43.100000000000009
10
-93.457491531360532
20
-36.899999999999991
0
CIRCLE
5
122
100
AcDbEntity
8
0
100
AcDbCircle
10
94.357491531360722
20
-40
30
0
40
1.7500000000000071
210
-0
220
0
230
1
0
LWPOLYLINE
5
123
100
AcDbEntity
8
0
100
AcDbPolyline
90
4
70
1
43
0.0
10
97.457491531360731
20
-43.100000000000009
10
91.257491531360714
20
-43.100000000000009
10
91.257491531360714
20
-36.899999999999991
10
97.457491531360731
20
-36.899999999999991
0
CIRCLE
5
124
100
AcDbEntity
8
0
100
AcDbCircle
10
94.357491531360722
20
-23.999999999999986
30
0
40
1.7500000000000071
210
-0
220
0
230
1
0
LWPOLYLINE
5
125
100
AcDbEntity
8
0
100
AcDbPolyline
90
4
70
1
43
0.0
10
91.257491531360714
20
-20.899999999999984
10
97.457491531360731
20
-20.899999999999984
10
97.457491531360731
20
-27.099999999999987
10
91.257491531360714
20
-27.099999999999987
0
CIRCLE
5
126
100
AcDbEntity
8
0
100
AcDbCircle
10
94.357491531360722
20
-8.0000000000000036
30
0
40
1.7500000000000071
210
-0
220
0
230
1
0
LWPOLYLINE
5
127
100
AcDbEntity
8
0
100
AcDbPolyline
90
4
70
1
43
0.0
10
91.257491531360714
20
-4.9000000000000021
10
97.457491531360731
20
-4.9000000000000021
10
97.457491531360731
20
-11.100000000000003
10
91.257491531360714
20
-11.100000000000003
0
CIRCLE
5
128
100
AcDbEntity
8
0
100
AcDbCircle
10
94.357491531360722
20
7.9999999999999982
30
0
40
1.7499999999999893
210
-0
220
0
230
1
0
LWPOLYLINE
5
129
100
AcDbEntity
8
0
100
AcDbPolyline
90
4
70
1
43
0.0
10
97.457491531360716
20
4.8999999999999977
10
91.257491531360728
20
4.8999999999999977
10
91.257491531360728
20
11.099999999999998
10
97.457491531360716
20
11.099999999999998
0
CIRCLE
5
130
100
AcDbEntity
8
0
100
AcDbCircle
10
94.357491531360722
20
24
30
0
40
1.7499999999999893
210
-0
220
0
230
1
0
LWPOLYLINE
5
131
100
AcDbEntity
8
0
100
AcDbPolyline
90
4
70
1
43
0.0
10
91.257491531360728
20
27.100000000000001
10
97.457491531360716
20
27.100000000000001
10
97.457491531360716
20
20.899999999999999
10
91.257491531360728
20
20.899999999999999
0
LWPOLYLINE
5
132
100
AcDbEntity
8
0
100
AcDbPolyline
90
4
70
1
43
0.0
10
-27.21999999999991
20
-43.406705448272376
10
-26.719999999999914
20
-43.406705448272376
10
-26.719999999999914
20
-43.906705448272376
10
-27.21999999999991
20
-43.906705448272376
0
LWPOLYLINE
5
133
100
AcDbEntity
8
0
100
AcDbPolyline
90
4
70
1
43
0.0
10
-24.179999999999914
20
-43.906705448272376
10
-24.679999999999911
20
-43.906705448272376
10
-24.679999999999911
20
-43.406705448272376
10
-24.179999999999914
20
-43.406705448272376
0
LWPOLYLINE
5
134
100
AcDbEntity
8
0
100
AcDbPolyline
90
4
70
1
43
0.0
10
-19.099999999999916
20
-43.906705448272376
10
-19.599999999999913
20
-43.906705448272376
10
-19.599999999999913
20
-43.406705448272376
10
-19.099999999999916
20
-43.406705448272376
0
LWPOLYLINE
5
135
100
AcDbEntity
8
0
100
AcDbPolyline
90
4
70
1
43
0.0
10
-21.639999999999912
20
-43.906705448272376
10
-22.139999999999912
20
-43.906705448272376
10
-22.139999999999912
20
-43.406705448272376
10
-21.639999999999912
20
-43.406705448272376
0
LWPOLYLINE
5
136
100
AcDbEntity
8
0
100
AcDbPolyline
90
4
70
1
43
0.0
10
-14.019999999999914
20
-43.906705448272376
10
-14.519999999999913
20
-43.906705448272376
10
-14.519999999999913
20
-43.406705448272376
10
-14.019999999999914
20
-43.406705448272376
0
LWPOLYLINE
5
137
100
AcDbEntity
8
0
100
AcDbPolyline
90
4
70
1
43
0.0
10
-16.559999999999913
20
-43.906705448272376
10
-17.059999999999913
20
-43.906705448272376
10
-17.059999999999913
20
-43.406705448272376
10
-16.559999999999913
20
-43.406705448272376
0
LWPOLYLINE
5
138
100
AcDbEntity
8
0
100
AcDbPolyline
90
4
70
1
43
0.0
10
-17.059999999999913
20
-45.946705448272397
10
-16.559999999999913
20
-45.946705448272397
10
-16.559999999999913
20
-46.446705448272397
10
-17.059999999999913
20
-46.446705448272397
0
LWPOLYLINE
5
139
100
AcDbEntity
8
0
100
AcDbPolyline
90
4
70
1
43
0.0
10
-14.519999999999913
20
-45.946705448272397
10
-14.019999999999914
20
-45.946705448272397
10
-14.019999999999914
20
-46.446705448272397
10
-14.519999999999913
20
-46.446705448272397
0
LWPOLYLINE
5
140
100
AcDbEntity
8
0
100
AcDbPolyline
90
4
70
1
43
0.0
10
-22.139999999999912
20
-45.946705448272397
10
-21.639999999999912
20
-45.946705448272397
10
-21.639999999999912
20
-46.446705448272397
10
-22.139999999999912
20
-46.446705448272397
0
LWPOLYLINE
5
141
100
AcDbEntity
8
0
100
AcDbPolyline
90
4
70
1
43
0.0
10
-19.599999999999913
20
-45.946705448272397
10
-19.099999999999916
20
-45.946705448272397
10
-19.099999999999916
20
-46.446705448272397
10
-19.599999999999913
20
-46.446705448272397
0
LWPOLYLINE
5
142
100
AcDbEntity
8
0
100
AcDbPolyline
90
4
70
1
43
0.0
10
-24.679999999999911
20
-45.946705448272397
10
-24.179999999999914
20
-45.946705448272397
10
-24.179999999999914
20
-46.446705448272397
10
-24.679999999999911
20
-46.446705448272397
0
LWPOLYLINE
5
143
100
AcDbEntity
8
0
100
AcDbPolyline
90
4
70
1
43
0.0
10
-26.719999999999914
20
-46.446705448272397
10
-27.21999999999991
20
-46.446705448272397
10
-27.21999999999991
20
-45.946705448272397
10
-26.719999999999914
20
-45.946705448272397
0
LWPOLYLINE
5
144
100
AcDbEntity
8
0
100
AcDbPolyline
90
4
70
1
43
0.0
10
-12.999999999999901
20
-47.466705448272386
10
-12.999999999999901
20
-42.386705448272394
10
-28.239999999999903
20
-42.386705448272394
10
-28.239999999999903
20
-47.466705448272386
0
LWPOLYLINE
5
145
100
AcDbEntity
8
0
100
AcDbPolyline
90
4
70
1
43
0.0
10
26.140000000000111
20
-43.406705448272376
10
26.140000000000111
20
-43.906705448272376
10
25.640000000000111
20
-43.906705448272376
10
25.640000000000111
20
-43.406705448272376
0
LWPOLYLINE
5
146
100
AcDbEntity
8
0
100
AcDbPolyline
90
4
70
1
43
0.0
10
18.020000000000113
20
-43.406705448272376
10
18.520000000000113
20
-43.406705448272376
10
18.520000000000113
20
-43.906705448272376
10
18.020000000000113
20
-43.906705448272376
0
LWPOLYLINE
5
147
100
AcDbEntity
8
0
100
AcDbPolyline
90
4
70
1
43
0.0
10
23.600000000000108
20
-43.406705448272376
10
23.600000000000108
20
-43.906705448272376
10
23.100000000000112
20
-43.906705448272376
10
23.100000000000112
20
-43.406705448272376
0
LWPOLYLINE
5
148
100
AcDbEntity
8
0
100
AcDbPolyline
90
4
70
1
43
0.0
10
28.68000000000011
20
-43.406705448272376
10
28.68000000000011
20
-43.906705448272376
10
28.180000000000113
20
-43.906705448272376
10
28.180000000000113
20
-43.406705448272376
0
LWPOLYLINE
5
149
100
AcDbEntity
8
0
100
AcDbPolyline
90
4
70
1
43
0.0
10
31.220000000000109
20
-43.406705448272376
10
31.220000000000109
20
-43.906705448272376
10
30.720000000000113
20
-43.906705448272376
10
30.720000000000113
20
-43.406705448272376
0
LWPOLYLINE
5
150
100
AcDbEntity
8
0
100
AcDbPolyline
90
4
70
1
43
0.0
10
20.560000000000112
20
-43.906705448272376
10
20.560000000000112
20
-43.406705448272376
10
21.060000000000109
20
-43.406705448272376
10
21.060000000000109
20
-43.906705448272376
0
LWPOLYLINE
5
151
100
AcDbEntity
8
0
100
AcDbPolyline
90
4
70
1
43
0.0
10
20.560000000000112
20
-46.446705448272397
10
20.560000000000112
20
-45.946705448272397
10
21.060000000000109
20
-45.946705448272397
10
21.060000000000109
20
-46.446705448272397
0
LWPOLYLINE
5
152
100
AcDbEntity
8
0
100
AcDbPolyline
90
4
70
1
43
0.0
10
31.220000000000109
20
-45.946705448272397
10
31.220000000000109
20
-46.446705448272397
10
30.720000000000113
20
-46.446705448272397
10
30.720000000000113
20
-45.946705448272397
0
LWPOLYLINE
5
153
100
AcDbEntity
8
0
100
AcDbPolyline
90
4
70
1
43
0.0
10
28.68000000000011
20
-45.946705448272397
10
28.68000000000011
20
-46.446705448272397
10
28.180000000000113
20
-46.446705448272397
10
28.180000000000113
20
-45.946705448272397
0
LWPOLYLINE
5
154
100
AcDbEntity
8
0
100
AcDbPolyline
90
4
70
1
43
0.0
10
23.600000000000108
20
-45.946705448272397
10
23.600000000000108
20
-46.446705448272397
10
23.100000000000112
20
-46.446705448272397
10
23.100000000000112
20
-45.946705448272397
0
LWPOLYLINE
5
155
100
AcDbEntity
8
0
100
AcDbPolyline
90
4
70
1
43
0.0
10
18.520000000000113
20
-46.446705448272397
10
18.020000000000113
20
-46.446705448272397
10
18.020000000000113
20
-45.946705448272397
10
18.520000000000113
20
-45.946705448272397
0
LWPOLYLINE
5
156
100
AcDbEntity
8
0
100
AcDbPolyline
90
4
70
1
43
0.0
10
26.140000000000111
20
-45.946705448272397
10
26.140000000000111
20
-46.446705448272397
10
25.640000000000111
20
-46.446705448272397
10
25.640000000000111
20
-45.946705448272397
0
LWPOLYLINE
5
157
100
AcDbEntity
8
0
100
AcDbPolyline
90
4
70
1
43
0.0
10
17.000000000000099
20
-42.386705448272394
10
17.000000000000099
20
-47.466705448272386
10
32.240000000000101
20
-47.466705448272386
10
32.240000000000101
20
-42.386705448272394
0
CIRCLE
5
158
100
AcDbEntity
8
0
100
AcDbCircle
10
-76.357491531360466
20
44.000000000000014
30
0
40
3.0000000000000031
210
-0
220
0
230
1
0
CIRCLE
5
159
100
AcDbEntity
8
0
100
AcDbCircle
10
-58.357491531360452
20
44.000000000000014
30
0
40
3.0000000000000031
210
-0
220
0
230
1
0
CIRCLE
5
160
100
AcDbEntity
8
0
100
AcDbCircle
10
20.357491531360697
20
44.000000000000043
30
0
40
3.0000000000000031
210
-0
220
0
230
1
0
CIRCLE
5
161
100
AcDbEntity
8
0
100
AcDbCircle
10
30.357491531360697
20
44
30
0
40
3.0000000000000031
210
-0
220
0
230
1
0
CIRCLE
5
162
100
AcDbEntity
8
0
100
AcDbCircle
10
40.357491531360701
20
44
30
0
40
3.0000000000000031
210
-0
220
0
230
1
0
CIRCLE
5
163
100
AcDbEntity
8
0
100
AcDbCircle
10
50.357491531360701
20
44
30
0
40
3.0000000000000031
210
-0
220
0
230
1
0
CIRCLE
5
164
100
AcDbEntity
8
0
100
AcDbCircle
10
60.357491531360708
20
44
30
0
40
3.0000000000000031
210
-0
220
0
230
1
0
CIRCLE
5
165
100
AcDbEntity
8
0
100
AcDbCircle
10
70.357491531360708
20
44
30
0
40
3.0000000000000031
210
-0
220
0
230
1
0
CIRCLE
5
166
100
AcDbEntity
8
0
100
AcDbCircle
10
80.357491531360694
20
43.999999999999986
30
0
40
3.0000000000000031
210
-0
220
0
230
1
0
CIRCLE
5
167
100
AcDbEntity
8
0
100
AcDbCircle
10
86.357491531360722
20
24
30
0
40
3.0000000000000031
210
-0
220
0
230
1
0
CIRCLE
5
168
100
AcDbEntity
8
0
100
AcDbCircle
10
80.357491531360694
20
24
30
0
40
3.0000000000000031
210
-0
220
0
230
1
0
CIRCLE
5
169
100
AcDbEntity
8
0
100
AcDbCircle
10
74.357491531360694
20
24
30
0
40
3.0000000000000031
210
-0
220
0
230
1
0
CIRCLE
5
170
100
AcDbEntity
8
0
100
AcDbCircle
10
68.357491531360679
20
24
30
0
40
3.0000000000000031
210
-0
220
0
230
1
0
CIRCLE
5
171
100
AcDbEntity
8
0
100
AcDbCircle
10
62.357491531360665
20
24
30
0
40
3.0000000000000031
210
-0
220
0
230
1
0
CIRCLE
5
172
100
AcDbEntity
8
0
100
AcDbCircle
10
56.357491531360651
20
24
30
0
40
3.0000000000000031
210
-0
220
0
230
1
0
CIRCLE
5
173
100
AcDbEntity
8
0
100
AcDbCircle
10
50.357491531360637
20
24
30
0
40
3.0000000000000031
210
-0
220
0
230
1
0
CIRCLE
5
174
100
AcDbEntity
8
0
100
AcDbCircle
10
44.357491531360623
20
24
30
0
40
3.0000000000000031
210
-0
220
0
230
1
0
CIRCLE
5
175
100
AcDbEntity
8
0
100
AcDbCircle
10
37.242106980984261
20
20.324347013999208
30
0
40
3.0000000000000031
210
-0
220
0
230
1
0
CIRCLE
5
176
100
AcDbEntity
8
0
100
AcDbCircle
10
31.935856245427019
20
23.12500820939546
30
0
40
3.0000000000000031
210
-0
220
0
230
1
0
CIRCLE
5
177
100
AcDbEntity
8
0
100
AcDbCircle
10
26.000000000000014
20
24.000000000000004
30
0
40
3.0000000000000031
210
-0
220
0
230
1
0
CIRCLE
5
178
100
AcDbEntity
8
0
100
AcDbCircle
10
20.000000000000007
20
24.000000000000004
30
0
40
3.0000000000000031
210
-0
220
0
230
1
0
CIRCLE
5
179
100
AcDbEntity
8
0
100
AcDbCircle
10
14.000000000000002
20
24.000000000000007
30
0
40
3.0000000000000031
210
-0
220
0
230
1
0
CIRCLE
5
180
100
AcDbEntity
8
0
100
AcDbCircle
10
7.9999999999999964
20
24.000000000000004
30
0
40
3.0000000000000031
210
-0
220
0
230
1
0
CIRCLE
5
181
100
AcDbEntity
8
0
100
AcDbCircle
10
1.9999999999999885
20
24.000000000000007
30
0
40
3.0000000000000031
210
-0
220
0
230
1
0
CIRCLE
5
182
100
AcDbEntity
8
0
100
AcDbCircle
10
-4.0000000000000178
20
24.000000000000007
30
0
40
3.0000000000000031
210
-0
220
0
230
1
0
CIRCLE
5
183
100
AcDbEntity
8
0
100
AcDbCircle
10
-10.000000000000025
20
24.000000000000007
30
0
40
3.0000000000000031
210
-0
220
0
230
1
0
CIRCLE
5
184
100
AcDbEntity
8
0
100
AcDbCircle
10
-15.935856245427022
20
23.125008209395457
30
0
40
3.0000000000000031
210
-0
220
0
230
1
0
CIRCLE
5
185
100
AcDbEntity
8
0
100
AcDbCircle
10
-21.242106980984264
20
20.324347013999212
30
0
40
3.0000000000000031
210
-0
220
0
230
1
0
CIRCLE
5
186
100
AcDbEntity
8
0
100
AcDbCircle
10
-25.695917446505891
20
16.303952464056369
30
0
40
3.0000000000000031
210
-0
220
0
230
1
0
CIRCLE
5
187
100
AcDbEntity
8
0
100
AcDbCircle
10
-30.077450805006247
20
12.204908010973599
30
0
40
3.0000000000000031
210
-0
220
0
230
1
0
CIRCLE
5
188
100
AcDbEntity
8
0
100
AcDbCircle
10
-34.357491531360395
20
8.0000000000000053
30
0
40
3.0000000000000031
210
-0
220
0
230
1
0
CIRCLE
5
189
100
AcDbEntity
8
0
100
AcDbCircle
10
-40.357491531360409
20
8.0000000000000053
30
0
40
3.0000000000000031
210
-0
220
0
230
1
0
CIRCLE
5
190
100
AcDbEntity
8
0
100
AcDbCircle
10
-46.357491531360424
20
8.0000000000000053
30
0
40
3.0000000000000031
210
-0
220
0
230
1
0
CIRCLE
5
191
100
AcDbEntity
8
0
100
AcDbCircle
10
-52.357491531360438
20
8.0000000000000071
30
0
40
3.0000000000000031
210
-0
220
0
230
1
0
CIRCLE
5
192
100
AcDbEntity
8
0
100
AcDbCircle
10
-58.357491531360452
20
8.0000000000000071
30
0
40
3.0000000000000031
210
-0
220
0
230
1
0
CIRCLE
5
193
100
AcDbEntity
8
0
100
AcDbCircle
10
-64.357491531360466
20
8.0000000000000053
30
0
40
3.0000000000000031
210
-0
220
0
230
1
0
CIRCLE
5
194
100
AcDbEntity
8
0
100
AcDbCircle
10
-70.357491531360481
20
8.0000000000000053
30
0
40
3.0000000000000031
210
-0
220
0
230
1
0
CIRCLE
5
195
100
AcDbEntity
8
0
100
AcDbCircle
10
-76.357491531360495
20
8.0000000000000036
30
0
40
3.0000000000000031
210
-0
220
0
230
1
0
CIRCLE
5
196
100
AcDbEntity
8
0
100
AcDbCircle
10
-82.357491531360523
20
8.0000000000000036
30
0
40
3.0000000000000031
210
-0
220
0
230
1
0
CIRCLE
5
197
100
AcDbEntity
8
0
100
AcDbCircle
10
-82.357491531360438
20
16.000000000000011
30
0
40
3.0000000000000031
210
-0
220
0
230
1
0
CIRCLE
5
198
100
AcDbEntity
8
0
100
AcDbCircle
10
-76.357491531360438
20
16.000000000000018
30
0
40
3.0000000000000031
210
-0
220
0
230
1
0
CIRCLE
5
199
100
AcDbEntity
8
0
100
AcDbCircle
10
-70.357491531360466
20
16.000000000000018
30
0
40
3.0000000000000031
210
-0
220
0
230
1
0
CIRCLE
5
200
100
AcDbEntity
8
0
100
AcDbCircle
10
-64.357491531360466
20
16.000000000000011
30
0
40
3.0000000000000031
210
-0
220
0
230
1
0
CIRCLE
5
201
100
AcDbEntity
8
0
100
AcDbCircle
10
-58.357491531360452
20
16.000000000000018
30
0
40
3.0000000000000031
210
-0
220
0
230
1
0
CIRCLE
5
202
100
AcDbEntity
8
0
100
AcDbCircle
10
-58.357491531360452
20
24.000000000000025
30
0
40
3.0000000000000031
210
-0
220
0
230
1
0
CIRCLE
5
203
100
AcDbEntity
8
0
100
AcDbCircle
10
-64.357491531360466
20
24.000000000000018
30
0
40
3.0000000000000031
210
-0
220
0
230
1
0
CIRCLE
5
204
100
AcDbEntity
8
0
100
AcDbCircle
10
-70.357491531360466
20
24.000000000000018
30
0
40
3.0000000000000031
210
-0
220
0
230
1
0
CIRCLE
5
205
100
AcDbEntity
8
0
100
AcDbCircle
10
-76.357491531360466
20
24.000000000000014
30
0
40
3.0000000000000031
210
-0
220
0
230
1
0
CIRCLE
5
206
100
AcDbEntity
8
0
100
AcDbCircle
10
-82.357491531360481
20
24.000000000000007
30
0
40
3.0000000000000031
210
-0
220
0
230
1
0
CIRCLE
5
207
100
AcDbEntity
8
0
100
AcDbCircle
10
-82.357491531360481
20
1.6220684023685015e-14
30
0
40
3.0000000000000031
210
-0
220
0
230
1
0
CIRCLE
5
208
100
AcDbEntity
8
0
100
AcDbCircle
10
-76.357491531360452
20
1.1620074824899162e-14
30
0
40
3.0000000000000031
210
-0
220
0
230
1
0
CIRCLE
5
209
100
AcDbEntity
8
0
100
AcDbCircle
10
-70.357491531360466
20
7.0194656261133719e-15
30
0
40
3.0000000000000031
210
-0
220
0
230
1
0
CIRCLE
5
210
100
AcDbEntity
8
0
100
AcDbCircle
10
-64.357491531360452
20
-2.0220356711730756e-15
30
0
40
3.0000000000000031
210
-0
220
0
230
1
0
CIRCLE
5
211
100
AcDbEntity
8
0
100
AcDbCircle
10
-58.357491531360452
20
-2.1817527714582708e-15
30
0
40
3.0000000000000031
210
-0
220
0
230
1
0
CIRCLE
5
212
100
AcDbEntity
8
0
100
AcDbCircle
10
-58.357491531360452
20
-7.9999999999999991
30
0
40
3.0000000000000031
210
-0
220
0
230
1
0
CIRCLE
5
213
100
AcDbEntity
8
0
100
AcDbCircle
10
-64.357491531360452
20
-7.9999999999999991
30
0
40
3.0000000000000031
210
-0
220
0
230
1
0
CIRCLE
5
214
100
AcDbEntity
8
0
100
AcDbCircle
10
-70.357491531360438
20
-7.9999999999999902
30
0
40
3.0000000000000031
210
-0
220
0
230
1
0
CIRCLE
5
215
100
AcDbEntity
8
0
100
AcDbCircle
10
-76.357491531360452
20
-7.9999999999999858
30
0
40
3.0000000000000031
210
-0
220
0
230
1
0
CIRCLE
5
216
100
AcDbEntity
8
0
100
AcDbCircle
10
-82.357491531360438
20
-7.9999999999999813
30
0
40
3.0000000000000031
210
-0
220
0
230
1
0
CIRCLE
5
217
100
AcDbEntity
8
0
100
AcDbCircle
10
-30.077450805006261
20
3.7950919890264192
30
0
40
3.0000000000000031
210
-0
220
0
230
1
0
CIRCLE
5
218
100
AcDbEntity
8
0
100
AcDbCircle
10
-25.695917446505895
20
-0.30395246405635112
30
0
40
3.0000000000000031
210
-0
220
0
230
1
0
CIRCLE
5
219
100
AcDbEntity
8
0
100
AcDbCircle
10
-21.242106980984264
20
-4.324347013999188
30
0
40
3.0000000000000031
210
-0
220
0
230
1
0
CIRCLE
5
220
100
AcDbEntity
8
0
100
AcDbCircle
10
-15.935856245427027
20
-7.1250082093954434
30
0
40
3.0000000000000031
210
-0
220
0
230
1
0
CIRCLE
5
221
100
AcDbEntity
8
0
100
AcDbCircle
10
-10.000000000000025
20
-7.9999999999999973
30
0
40
3.0000000000000031
210
-0
220
0
230
1
0
CIRCLE
5
222
100
AcDbEntity
8
0
100
AcDbCircle
10
-4.0000000000000178
20
-7.9999999999999991
30
0
40
3.0000000000000031
210
-0
220
0
230
1
0
CIRCLE
5
223
100
AcDbEntity
8
0
100
AcDbCircle
10
1.9999999999999885
20
-8
30
0
40
3.0000000000000031
210
-0
220
0
230
1
0
CIRCLE
5
224
100
AcDbEntity
8
0
100
AcDbCircle
10
7.9999999999999964
20
-8.0000000000000036
30
0
40
3.0000000000000031
210
-0
220
0
230
1
0
CIRCLE
5
225
100
AcDbEntity
8
0
100
AcDbCircle
10
14.000000000000002
20
-8.0000000000000053
30
0
40
3.0000000000000031
210
-0
220
0
230
1
0
CIRCLE
5
226
100
AcDbEntity
8
0
100
AcDbCircle
10
20.000000000000007
20
-8.0000000000000018
30
0
40
3.0000000000000031
210
-0
220
0
230
1
0
CIRCLE
5
227
100
AcDbEntity
8
0
100
AcDbCircle
10
26.000000000000014
20
-7.9999999999999964
30
0
40
3.0000000000000031
210
-0
220
0
230
1
0
CIRCLE
5
228
100
AcDbEntity
8
0
100
AcDbCircle
10
31.935856245427011
20
-7.1250082093954505
30
0
40
3.0000000000000031
210
-0
220
0
230
1
0
CIRCLE
5
229
100
AcDbEntity
8
0
100
AcDbCircle
10
37.242106980984254
20
-4.3243470139992022
30
0
40
3.0000000000000031
210
-0
220
0
230
1
0
CIRCLE
5
230
100
AcDbEntity
8
0
100
AcDbCircle
10
41.695917446505888
20
-0.30395246405636317
30
0
40
3.0000000000000031
210
-0
220
0
230
1
0
CIRCLE
5
231
100
AcDbEntity
8
0
100
AcDbCircle
10
46.077450805006244
20
3.7950919890264077
30
0
40
3.0000000000000031
210
-0
220
0
230
1
0
CIRCLE
5
232
100
AcDbEntity
8
0
100
AcDbCircle
10
46.077450805004858
20
12.204908010973291
30
0
40
3.0000000000000031
210
-0
220
0
230
1
0
CIRCLE
5
233
100
AcDbEntity
8
0
100
AcDbCircle
10
41.695917446505888
20
16.303952464056366
30
0
40
3.0000000000000031
210
-0
220
0
230
1
0
CIRCLE
5
234
100
AcDbEntity
8
0
100
AcDbCircle
10
50.357491531360637
20
7.9999999999999982
30
0
40
3.0000000000000031
210
-0
220
0
230
1
0
CIRCLE
5
235
100
AcDbEntity
8
0
100
AcDbCircle
10
56.357491531360651
20
7.9999999999999982
30
0
40
3.0000000000000031
210
-0
220
0
230
1
0
CIRCLE
5
236
100
AcDbEntity
8
0
100
AcDbCircle
10
62.357491531360665
20
7.9999999999999982
30
0
40
3.0000000000000031
210
-0
220
0
230
1
0
CIRCLE
5
237
100
AcDbEntity
8
0
100
AcDbCircle
10
68.357491531360679
20
7.9999999999999982
30
0
40
3.0000000000000031
210
-0
220
0
230
1
0
CIRCLE
5
238
100
AcDbEntity
8
0
100
AcDbCircle
10
74.357491531360694
20
7.9999999999999982
30
0
40
3.0000000000000031
210
-0
220
0
230
1
0
CIRCLE
5
239
100
AcDbEntity
8
0
100
AcDbCircle
10
80.357491531360694
20
7.9999999999999982
30
0
40
3.0000000000000031
210
-0
220
0
230
1
0
CIRCLE
5
240
100
AcDbEntity
8
0
100
AcDbCircle
10
86.357491531360722
20
7.9999999999999982
30
0
40
3.0000000000000031
210
-0
220
0
230
1
0
CIRCLE
5
241
100
AcDbEntity
8
0
100
AcDbCircle
10
86.357491531360722
20
-8.0000000000000036
30
0
40
3.0000000000000031
210
-0
220
0
230
1
0
CIRCLE
5
242
100
AcDbEntity
8
0
100
AcDbCircle
10
80.357491531360694
20
-8.0000000000000036
30
0
40
3.0000000000000031
210
-0
220
0
230
1
0
CIRCLE
5
243
100
AcDbEntity
8
0
100
AcDbCircle
10
74.357491531360694
20
-8.0000000000000018
30
0
40
3.0000000000000031
210
-0
220
0
230
1
0
CIRCLE
5
244
100
AcDbEntity
8
0
100
AcDbCircle
10
68.357491531360679
20
-8
30
0
40
3.0000000000000031
210
-0
220
0
230
1
0
CIRCLE
5
245
100
AcDbEntity
8
0
100
AcDbCircle
10
62.357491531360665
20
-8
30
0
40
3.0000000000000031
210
-0
220
0
230
1
0
CIRCLE
5
246
100
AcDbEntity
8
0
100
AcDbCircle
10
56.357491531360651
20
-7.9999999999999991
30
0
40
3.0000000000000031
210
-0
220
0
230
1
0
CIRCLE
5
247
100
AcDbEntity
8
0
100
AcDbCircle
10
50.357491531360637
20
-7.9999999999999991
30
0
40
3.0000000000000031
210
-0
220
0
230
1
0
CIRCLE
5
248
100
AcDbEntity
8
0
100
AcDbCircle
10
44.357491531360623
20
-7.9999999999999982
30
0
40
3.0000000000000031
210
-0
220
0
230
1
0
CIRCLE
5
249
100
AcDbEntity
8
0
100
AcDbCircle
10
86.000000000000114
20
-23.999999999999986
30
0
40
3.0000000000000031
210
-0
220
0
230
1
0
CIRCLE
5
250
100
AcDbEntity
8
0
100
AcDbCircle
10
80.000000000000114
20
-23.999999999999986
30
0
40
3.0000000000000031
210
-0
220
0
230
1
0
CIRCLE
5
251
100
AcDbEntity
8
0
100
AcDbCircle
10
74.000000000000114
20
-23.999999999999986
30
0
40
3.0000000000000031
210
-0
220
0
230
1
0
CIRCLE
5
252
100
AcDbEntity
8
0
100
AcDbCircle
10
68.000000000000099
20
-23.999999999999986
30
0
40
3.0000000000000031
210
-0
220
0
230
1
0
CIRCLE
5
253
100
AcDbEntity
8
0
100
AcDbCircle
10
62.000000000000085
20
-23.999999999999986
30
0
40
3.0000000000000031
210
-0
220
0
230
1
0
CIRCLE
5
254
100
AcDbEntity
8
0
100
AcDbCircle
10
56.000000000000071
20
-23.999999999999986
30
0
40
3.0000000000000031
210
-0
220
0
230
1
0
CIRCLE
5
255
100
AcDbEntity
8
0
100
AcDbCircle
10
50.000000000000071
20
-23.999999999999986
30
0
40
3.0000000000000031
210
-0
220
0
230
1
0
CIRCLE
5
256
100
AcDbEntity
8
0
100
AcDbCircle
10
44.000000000000043
20
-23.999999999999986
30
0
40
3.0000000000000031
210
-0
220
0
230
1
0
CIRCLE
5
257
100
AcDbEntity
8
0
100
AcDbCircle
10
38.000000000000021
20
-23.999999999999986
30
0
40
3.0000000000000031
210
-0
220
0
230
1
0
CIRCLE
5
258
100
AcDbEntity
8
0
100
AcDbCircle
10
32.000000000000021
20
-23.999999999999986
30
0
40
3.0000000000000031
210
-0
220
0
230
1
0
CIRCLE
5
259
100
AcDbEntity
8
0
100
AcDbCircle
10
26.000000000000018
20
-23.999999999999986
30
0
40
3.0000000000000031
210
-0
220
0
230
1
0
CIRCLE
5
260
100
AcDbEntity
8
0
100
AcDbCircle
10
20.000000000000007
20
-23.999999999999986
30
0
40
3.0000000000000031
210
-0
220
0
230
1
0
CIRCLE
5
261
100
AcDbEntity
8
0
100
AcDbCircle
10
14.000000000000002
20
-23.999999999999989
30
0
40
3.0000000000000031
210
-0
220
0
230
1
0
CIRCLE
5
262
100
AcDbEntity
8
0
100
AcDbCircle
10
7.9999999999999964
20
-23.999999999999989
30
0
40
3.0000000000000031
210
-0
220
0
230
1
0
CIRCLE
5
263
100
AcDbEntity
8
0
100
AcDbCircle
10
1.9999999999999885
20
-23.999999999999993
30
0
40
3.0000000000000031
210
-0
220
0
230
1
0
CIRCLE
5
264
100
AcDbEntity
8
0
100
AcDbCircle
10
-4.0000000000000178
20
-23.999999999999993
30
0
40
3.0000000000000031
210
-0
220
0
230
1
0
CIRCLE
5
265
100
AcDbEntity
8
0
100
AcDbCircle
10
-10.000000000000021
20
-23.999999999999993
30
0
40
3.0000000000000031
210
-0
220
0
230
1
0
CIRCLE
5
266
100
AcDbEntity
8
0
100
AcDbCircle
10
-16.000000000000028
20
-23.999999999999993
30
0
40
3.0000000000000031
210
-0
220
0
230
1
0
CIRCLE
5
267
100
AcDbEntity
8
0
100
AcDbCircle
10
-22.000000000000032
20
-24
30
0
40
3.0000000000000031
210
-0
220
0
230
1
0
CIRCLE
5
268
100
AcDbEntity
8
0
100
AcDbCircle
10
-28.000000000000039
20
-24
30
0
40
3.0000000000000031
210
-0
220
0
230
1
0
CIRCLE
5
269
100
AcDbEntity
8
0
100
AcDbCircle
10
-34.000000000000043
20
-24.000000000000004
30
0
40
3.0000000000000031
210
-0
220
0
230
1
0
CIRCLE
5
270
100
AcDbEntity
8
0
100
AcDbCircle
10
-40.000000000000057
20
-24.000000000000004
30
0
40
3.0000000000000031
210
-0
220
0
230
1
0
CIRCLE
5
271
100
AcDbEntity
8
0
100
AcDbCircle
10
-46.000000000000071
20
-24.000000000000004
30
0
40
3.0000000000000031
210
-0
220
0
230
1
0
CIRCLE
5
272
100
AcDbEntity
8
0
100
AcDbCircle
10
-52.000000000000085
20
-24.000000000000004
30
0
40
3.0000000000000031
210
-0
220
0
230
1
0
CIRCLE
5
273
100
AcDbEntity
8
0
100
AcDbCircle
10
-58.000000000000099
20
-24.000000000000004
30
0
40
3.0000000000000031
210
-0
220
0
230
1
0
CIRCLE
5
274
100
AcDbEntity
8
0
100
AcDbCircle
10
-64.000000000000085
20
-24.000000000000004
30
0
40
3.0000000000000031
210
-0
220
0
230
1
0
CIRCLE
5
275
100
AcDbEntity
8
0
100
AcDbCircle
10
-70.000000000000114
20
-24.000000000000004
30
0
40
3.0000000000000031
210
-0
220
0
230
1
0
CIRCLE
5
276
100
AcDbEntity
8
0
100
AcDbCircle
10
-76.000000000000114
20
-24.000000000000004
30
0
40
3.0000000000000031
210
-0
220
0
230
1
0
CIRCLE
5
277
100
AcDbEntity
8
0
100
AcDbCircle
10
-82.000000000000114
20
-24.000000000000004
30
0
40
3.0000000000000031
210
-0
220
0
230
1
0
CIRCLE
5
278
100
AcDbEntity
8
0
100
AcDbCircle
10
-82.357491531360424
20
-40
30
0
40
3.0000000000000031
210
-0
220
0
230
1
0
CIRCLE
5
279
100
AcDbEntity
8
0
100
AcDbCircle
10
-75.141897148374412
20
-40
30
0
40
3.0000000000000031
210
-0
220
0
230
1
0
CIRCLE
5
280
100
AcDbEntity
8
0
100
AcDbCircle
10
-67.926302765388357
20
-40
30
0
40
3.0000000000000031
210
-0
220
0
230
1
0
CIRCLE
5
281
100
AcDbEntity
8
0
100
AcDbCircle
10
-60.710708382402466
20
-40
30
0
40
3.0000000000000031
210
-0
220
0
230
1
0
CIRCLE
5
282
100
AcDbEntity
8
0
100
AcDbCircle
10
-54.715796453510208
20
-39.752955540772867
30
0
40
3.0000000000000031
210
-0
220
0
230
1
0
CIRCLE
5
283
100
AcDbEntity
8
0
100
AcDbCircle
10
-49.038772713317407
20
-37.81094589783104
30
0
40
3.0000000000000031
210
-0
220
0
230
1
0
CIRCLE
5
284
100
AcDbEntity
8
0
100
AcDbCircle
10
-44.248666357478321
20
-34.197791998569336
30
0
40
3.0000000000000031
210
-0
220
0
230
1
0
CIRCLE
5
285
100
AcDbEntity
8
0
100
AcDbCircle
10
-39.961765433495749
20
-29.999878175256928
30
0
40
3.0000000000000031
210
-0
220
0
230
1
0
CIRCLE
5
286
100
AcDbEntity
8
0
100
AcDbCircle
10
39.699815319169936
20
-29.754183511212766
30
0
40
3.0000000000000031
210
-0
220
0
230
1
0
CIRCLE
5
287
100
AcDbEntity
8
0
100
AcDbCircle
10
43.98708440471556
20
-33.95172133571495
30
0
40
3.0000000000000031
210
-0
220
0
230
1
0
CIRCLE
5
288
100
AcDbEntity
8
0
100
AcDbCircle
10
48.725108164553191
20
-37.632907401538588
30
0
40
3.0000000000000031
210
-0
220
0
230
1
0
CIRCLE
5
289
100
AcDbEntity
8
0
100
AcDbCircle
10
54.36023985577588
20
-39.693317754496917
30
0
40
3.0000000000000031
210
-0
220
0
230
1
0
CIRCLE
5
290
100
AcDbEntity
8
0
100
AcDbCircle
10
60.352396896469294
20
-39.999999999999993
30
0
40
3.0000000000000031
210
-0
220
0
230
1
0
CIRCLE
5
291
100
AcDbEntity
8
0
100
AcDbCircle
10
66.352396896469315
20
-39.999999999999993
30
0
40
3.0000000000000031
210
-0
220
0
230
1
0
CIRCLE
5
292
100
AcDbEntity
8
0
100
AcDbCircle
10
73.02076177476431
20
-39.999999999999993
30
0
40
3.0000000000000031
210
-0
220
0
230
1
0
CIRCLE
5
293
100
AcDbEntity
8
0
100
AcDbCircle
10
79.689126653062516
20
-39.999999999999993
30
0
40
3.0000000000000031
210
-0
220
0
230
1
0
CIRCLE
5
294
100
AcDbEntity
8
0
100
AcDbCircle
10
86.357491531360722
20
-40
30
0
40
3.0000000000000031
210
-0
220
0
230
1
0
CIRCLE
5
295
100
AcDbEntity
8
0
100
AcDbCircle
10
-88.357491531360523
20
42.971588104184626
30
0
40
3.499999999999996
210
0
220
-0
230
1
0
CIRCLE
5
296
100
AcDbEntity
8
0
100
AcDbCircle
10
-88.357491531360523
20
42.971588104184626
30
0
40
3.499999999999996
210
0
220
0
230
1
0
CIRCLE
5
297
100
AcDbEntity
8
0
100
AcDbCircle
10
-87.357491531360552
20
-51.966705448272393
30
0
40
3.499999999999996
210
0
220
-0
230
1
0
CIRCLE
5
298
100
AcDbEntity
8
0
100
AcDbCircle
10
-87.357491531360552
20
-51.966705448272393
30
0
40
3.499999999999996
210
0
220
0
230
1
0
CIRCLE
5
299
100
AcDbEntity
8
0
100
AcDbCircle
10
2.0000000000001004
20
-51.966705448272393
30
0
40
3.5
210
0
220
-0
230
1
0
CIRCLE
5
300
100
AcDbEntity
8
0
100
AcDbCircle
10
2.0000000000001004
20
-51.966705448272393
30
0
40
3.5
210
0
220
0
230
1
0
CIRCLE
5
301
100
AcDbEntity
8
0
100
AcDbCircle
10
91.357491531360751
20
-51.966705448272393
30
0
40
3.499999999999996
210
0
220
-0
230
1
0
CIRCLE
5
302
100
AcDbEntity
8
0
100
AcDbCircle
10
91.357491531360751
20
-51.966705448272393
30
0
40
3.499999999999996
210
0
220
0
230
1
0
CIRCLE
5
303
100
AcDbEntity
8
0
100
AcDbCircle
10
91.357491531360751
20
42.971588104184626
30
0
40
3.499999999999996
210
0
220
-0
230
1
0
CIRCLE
5
304
100
AcDbEntity
8
0
100
AcDbCircle
10
91.357491531360751
20
42.971588104184626
30
0
40
3.499999999999996
210
0
220
0
230
1
0
ENDSEC
0
SECTION
2
OBJECTS
0
DICTIONARY
5
C
100
AcDbDictionary
3
ACAD_GROUP
350
D
3
ACAD_MLINESTYLE
350
17
0
DICTIONARY
5
D
100
AcDbDictionary
0
DICTIONARY
5
1A
330
C
100
AcDbDictionary
0
DICTIONARY
5
17
100
AcDbDictionary
0
ENDSEC
0
EOF
