0
SECTION
2
HEADER
9
$INSUNITS
70
4
9
$ACADVER
1
AC1014
9
$HANDSEED
5
FFFF
0
ENDSEC
0
SECTION
2
TABLES
0
TABLE
2
VPORT
5
8
100
AcDbSymbolTable
0
ENDTAB
0
TABLE
2
LTYPE
5
5
100
AcDbSymbolTable
0
LTYPE
5
14
100
AcDbSymbolTableRecord
100
AcDbLinetypeTableRecord
2
BYBLOCK
70
0
0
LTYPE
5
15
100
AcDbSymbolTableRecord
100
AcDbLinetypeTableRecord
2
BYLAYER
70
0
0
ENDTAB
0
TABLE
2
LAYER
5
2
100
AcDbSymbolTable
70
2
0
LAYER
5
50
100
AcDbSymbolTableRecord
100
AcDbLayerTableRecord
2
0
70
0
6
CONTINUOUS
0
ENDTAB
0
TABLE
2
STYLE
5
3
100
AcDbSymbolTable
70
1
0
STYLE
5
11
100
AcDbSymbolTableRecord
100
AcDbTextStyleTableRecord
2
STANDARD
70
0
0
ENDTAB
0
TABLE
2
VIEW
5
6
100
AcDbSymbolTable
70
0
0
ENDTAB
0
TABLE
2
UCS
5
7
100
AcDbSymbolTable
70
0
0
ENDTAB
0
TABLE
2
APPID
5
9
100
AcDbSymbolTable
70
2
0
APPID
5
12
100
AcDbSymbolTableRecord
100
AcDbRegAppTableRecord
2
ACAD
70
0
0
ENDTAB
0
TABLE
2
DIMSTYLE
5
A
100
AcDbSymbolTable
70
1
0
ENDTAB
0
TABLE
2
BLOCK_RECORD
5
1
100
AcDbSymbolTable
70
1
0
BLOCK_RECORD
5
1F
100
AcDbSymbolTableRecord
100
AcDbBlockTableRecord
2
*MODEL_SPACE
0
BLOCK_RECORD
5
1B
100
AcDbSymbolTableRecord
100
AcDbBlockTableRecord
2
*PAPER_SPACE
0
ENDTAB
0
ENDSEC
0
SECTION
2
BLOCKS
0
BLOCK
5
20
100
AcDbEntity
100
AcDbBlockBegin
2
*MODEL_SPACE
0
ENDBLK
5
21
100
AcDbEntity
100
AcDbBlockEnd
0
BLOCK
5
1C
100
AcDbEntity
100
AcDbBlockBegin
2
*PAPER_SPACE
0
ENDBLK
5
1D
100
AcDbEntity
100
AcDbBlockEnd
0
ENDSEC
0
SECTION
2
ENTITIES
0
CIRCLE
5
100
100
AcDbEntity
8
0
100
AcDbCircle
10
27.453139432701583
20
62.599999985098826
30
0
40
1.6000000000000014
210
0
220
-0
230
1
0
CIRCLE
5
101
100
AcDbEntity
8
0
100
AcDbCircle
10
34.841411219611331
20
-34.999999999999659
30
0
40
1.6000000000000014
210
0
220
-0
230
1
0
CIRCLE
5
102
100
AcDbEntity
8
0
100
AcDbCircle
10
-27.453139432701583
20
62.599999985098826
30
0
40
1.6000000000000014
210
0
220
0
230
1
0
CIRCLE
5
103
100
AcDbEntity
8
0
100
AcDbCircle
10
-34.841411219611331
20
-34.999999999999659
30
0
40
1.6000000000000014
210
0
220
0
230
1
0
ARC
5
104
100
AcDbEntity
8
0
100
AcDbCircle
10
4.4408920985006262e-15
20
0
30
0
40
75.86237919759148
210
0
220
0
230
1
100
AcDbArc
50
226.3775580540474
51
313.62244194595257
0
SPLINE
5
105
100
AcDbEntity
8
0
100
AcDbSpline
70
0
71
3
72
20
73
16
74
0
42
0.000000001
43
0.0000000001
44
0.0000000001
40
0
40
0
40
0
40
0
40
0.20000000000000001
40
0.20000000000000001
40
0.20000000000000001
40
0.40000000000000002
40
0.40000000000000002
40
0.40000000000000002
40
0.59999999999999998
40
0.59999999999999998
40
0.59999999999999998
40
0.80000000000000004
40
0.80000000000000004
40
0.80000000000000004
40
1
40
1
40
1
40
1
10
52.337693517492696
20
-54.916904635896614
30
0
10
52.778586326179379
20
-54.496718668604728
30
0
10
53.151910829951689
20
-54.001569617827663
30
0
10
53.434553121696204
20
-53.462142205316532
30
0
10
53.71719541344072
20
-52.922714792805408
30
0
10
53.91184131075412
20
-52.333869659650567
30
0
10
54.006368915192901
20
-51.732252907072606
30
0
10
54.100896519631675
20
-51.130636154494653
30
0
10
54.096211589824037
20
-50.510495032926592
30
0
10
53.992605322813418
20
-49.910375106229012
30
0
10
53.888999055802799
20
-49.310255179531438
30
0
10
53.68547888164219
20
-48.724418039286199
30
0
10
53.394718978261054
20
-48.189322461807876
30
0
10
53.103959074879938
20
-47.654226884329574
30
0
10
52.723196283871658
20
-47.164774675645376
30
0
10
52.276005470470352
20
-46.751297841626673
30
0
0
SPLINE
5
106
100
AcDbEntity
8
0
100
AcDbSpline
70
0
71
3
72
20
73
16
74
0
42
0.000000001
43
0.0000000001
44
0.0000000001
40
0.040648029477928338
40
0.040648029477928338
40
0.040648029477928338
40
0.040648029477928338
40
0.0821152948825635
40
0.0821152948825635
40
0.0821152948825635
40
0.27639663077222099
40
0.27639663077222099
40
0.27639663077222099
40
0.51214523206651363
40
0.51214523206651363
40
0.51214523206651363
40
0.74332129440154737
40
0.74332129440154737
40
0.74332129440154737
40
0.9438496520093308
40
0.9438496520093308
40
0.9438496520093308
40
0.9438496520093308
10
52.276005470470338
20
-46.75129784162668
30
0
10
50.316325131652171
20
-44.939358960279193
30
0
10
48.484939787713913
20
-43.149684623040258
30
0
10
46.778506228708054
20
-41.380679408677736
30
0
10
38.782623197542691
20
-33.091602637470309
30
0
10
33.567397325655421
20
-25.259743791206716
30
0
10
30.444358477646489
20
-17.669343494270215
30
0
10
26.655546978070809
20
-8.4608138117943099
30
0
10
25.947513865750473
20
0.33225894468319694
30
0
10
26.461266167860661
20
9.08862934116895
30
0
10
26.964825988574628
20
17.671279557719792
30
0
10
28.582096580094507
20
26.272274584604656
30
0
10
29.939400103605678
20
35.576697584874672
30
0
10
31.11675531720487
20
43.647560688922269
30
0
10
32.106301346052312
20
52.280231681573035
30
0
10
32.453139432701562
20
61.796022804169922
30
0
0
SPLINE
5
107
100
AcDbEntity
8
0
100
AcDbSpline
70
0
71
3
72
20
73
16
74
0
42
0.000000001
43
0.0000000001
44
0.0000000001
40
0
40
0
40
0
40
0
40
0.20000000000000001
40
0.20000000000000001
40
0.20000000000000001
40
0.40000000000000002
40
0.40000000000000002
40
0.40000000000000002
40
0.59999999999999998
40
0.59999999999999998
40
0.59999999999999998
40
0.80000000000000004
40
0.80000000000000004
40
0.80000000000000004
40
1
40
1
40
1
40
1
10
32.453139432701576
20
61.79602280416988
30
0
10
32.474961588764529
20
62.394731789523505
30
0
10
32.399379697791012
20
62.999664930166531
30
0
10
32.230941498861689
20
63.574547617674369
30
0
10
32.062503299932366
20
64.149430305182193
30
0
10
31.799651528869461
20
64.699557413320221
30
0
10
31.458213387370321
20
65.191787276193736
30
0
10
31.116775245871182
20
65.684017139067237
30
0
10
30.693593459730483
20
66.122904352057944
30
0
10
30.214126950144994
20
66.482045144172616
30
0
10
29.734660440559487
20
66.841185936287317
30
0
10
29.194472636673932
20
67.12390138544508
30
0
10
28.626106713932231
20
67.313167624169111
30
0
10
28.057740791190508
20
67.502433862893142
30
0
10
27.455962112032513
20
67.599999985098819
30
0
10
26.856855564214527
20
67.599999985098819
30
0
0
LINE
5
108
100
AcDbEntity
8
0
100
AcDbLine
10
26.856855564214527
20
67.599999985098819
30
0
11
-26.856855564214534
21
67.599999985098819
31
0
0
SPLINE
5
109
100
AcDbEntity
8
0
100
AcDbSpline
70
0
71
3
72
20
73
16
74
0
42
0.000000001
43
0.0000000001
44
0.0000000001
40
0
40
0
40
0
40
0
40
0.20000000000000001
40
0.20000000000000001
40
0.20000000000000001
40
0.40000000000000002
40
0.40000000000000002
40
0.40000000000000002
40
0.59999999999999998
40
0.59999999999999998
40
0.59999999999999998
40
0.80000000000000004
40
0.80000000000000004
40
0.80000000000000004
40
1
40
1
40
1
40
1
10
-26.856855564214534
20
67.599999985098819
30
0
10
-27.455962112032523
20
67.599999985098819
30
0
10
-28.057740791190522
20
67.502433862893142
30
0
10
-28.626106713932238
20
67.313167624169111
30
0
10
-29.19447263667394
20
67.12390138544508
30
0
10
-29.734660440559495
20
66.841185936287332
30
0
10
-30.214126950145001
20
66.482045144172616
30
0
10
-30.693593459730494
20
66.122904352057944
30
0
10
-31.116775245871189
20
65.68401713906718
30
0
10
-31.458213387370328
20
65.191787276193708
30
0
10
-31.799651528869472
20
64.699557413320207
30
0
10
-32.062503299932381
20
64.149430305182179
30
0
10
-32.230941498861704
20
63.574547617674369
30
0
10
-32.399379697791026
20
62.999664930166546
30
0
10
-32.474961588764536
20
62.394731789523519
30
0
10
-32.453139432701583
20
61.79602280416988
30
0
0
SPLINE
5
110
100
AcDbEntity
8
0
100
AcDbSpline
70
0
71
3
72
20
73
16
74
0
42
0.000000001
43
0.0000000001
44
0.0000000001
40
-0.9438496520093308
40
-0.9438496520093308
40
-0.9438496520093308
40
-0.9438496520093308
40
-0.91600133485074997
40
-0.91600133485074997
40
-0.91600133485074997
40
-0.71528737326439096
40
-0.71528737326439096
40
-0.71528737326439096
40
-0.48672509451945101
40
-0.48672509451945101
40
-0.48672509451945101
40
-0.23360636657052591
40
-0.23360636657052591
40
-0.23360636657052591
40
-0.040648029477928185
40
-0.040648029477928185
40
-0.040648029477928185
40
-0.040648029477928185
10
-32.453139432701562
20
61.796022804169922
30
0
10
-32.404957611826532
20
60.474114510353175
30
0
10
-32.345168836757964
20
59.168956410770676
30
0
10
-32.27440189618153
20
57.880038179547014
30
0
10
-31.76451007673937
20
48.593090677260037
30
0
10
-30.645784360836554
20
40.157942722368475
30
0
10
-29.438404732023784
20
32.22058172946916
30
0
10
-28.063496409761086
20
23.181880540952697
30
0
10
-26.563062550772017
20
14.746285270696156
30
0
10
-26.339754467431796
20
6.2557486623401104
30
0
10
-26.092312222489376
20
-3.1524080318203218
30
0
10
-27.510468476635879
20
-12.677502533464526
30
0
10
-32.816744891505479
20
-22.722043854185326
30
0
10
-36.862287715775636
20
-30.380073494189624
30
0
10
-43.156091384936907
20
-38.318939462151185
30
0
10
-52.276005470470338
20
-46.751297841626709
30
0
0
SPLINE
5
111
100
AcDbEntity
8
0
100
AcDbSpline
70
0
71
3
72
20
73
16
74
0
42
0.000000001
43
0.0000000001
44
0.0000000001
40
0
40
0
40
0
40
0
40
0.20000000000000001
40
0.20000000000000001
40
0.20000000000000001
40
0.40000000000000002
40
0.40000000000000002
40
0.40000000000000002
40
0.59999999999999998
40
0.59999999999999998
40
0.59999999999999998
40
0.80000000000000004
40
0.80000000000000004
40
0.80000000000000004
40
1
40
1
40
1
40
1
10
-52.276005470470366
20
-46.751297841626709
30
0
10
-52.723196283871673
20
-47.164774675645411
30
0
10
-53.103959074879953
20
-47.654226884329617
30
0
10
-53.394718978261082
20
-48.189322461807933
30
0
10
-53.685478881642197
20
-48.724418039286228
30
0
10
-53.888999055802813
20
-49.31025517953146
30
0
10
-53.992605322813432
20
-49.91037510622904
30
0
10
-54.096211589824051
20
-50.510495032926627
30
0
10
-54.100896519631689
20
-51.130636154494688
30
0
10
-54.006368915192901
20
-51.732252907072649
30
0
10
-53.911841310754134
20
-52.333869659650595
30
0
10
-53.717195413440741
20
-52.922714792805436
30
0
10
-53.434553121696226
20
-53.462142205316553
30
0
10
-53.151910829951689
20
-54.001569617827684
30
0
10
-52.778586326179386
20
-54.496718668604757
30
0
10
-52.337693517492703
20
-54.916904635896636
30
0
0
ENDSEC
0
SECTION
2
OBJECTS
0
DICTIONARY
5
C
100
AcDbDictionary
3
ACAD_GROUP
350
D
3
ACAD_MLINESTYLE
350
17
0
DICTIONARY
5
D
100
AcDbDictionary
0
DICTIONARY
5
1A
330
C
100
AcDbDictionary
0
DICTIONARY
5
17
100
AcDbDictionary
0
ENDSEC
0
EOF
