0
SECTION
2
HEADER
9
$INSUNITS
70
4
9
$ACADVER
1
AC1014
9
$HANDSEED
5
FFFF
0
ENDSEC
0
SECTION
2
TABLES
0
TABLE
2
VPORT
5
8
100
AcDbSymbolTable
0
ENDTAB
0
TABLE
2
LTYPE
5
5
100
AcDbSymbolTable
0
LTYPE
5
14
100
AcDbSymbolTableRecord
100
AcDbLinetypeTableRecord
2
BYBLOCK
70
0
0
LTYPE
5
15
100
AcDbSymbolTableRecord
100
AcDbLinetypeTableRecord
2
BYLAYER
70
0
0
ENDTAB
0
TABLE
2
LAYER
5
2
100
AcDbSymbolTable
70
2
0
LAYER
5
50
100
AcDbSymbolTableRecord
100
AcDbLayerTableRecord
2
0
70
0
6
CONTINUOUS
0
ENDTAB
0
TABLE
2
STYLE
5
3
100
AcDbSymbolTable
70
1
0
STYLE
5
11
100
AcDbSymbolTableRecord
100
AcDbTextStyleTableRecord
2
STANDARD
70
0
0
ENDTAB
0
TABLE
2
VIEW
5
6
100
AcDbSymbolTable
70
0
0
ENDTAB
0
TABLE
2
UCS
5
7
100
AcDbSymbolTable
70
0
0
ENDTAB
0
TABLE
2
APPID
5
9
100
AcDbSymbolTable
70
2
0
APPID
5
12
100
AcDbSymbolTableRecord
100
AcDbRegAppTableRecord
2
ACAD
70
0
0
ENDTAB
0
TABLE
2
DIMSTYLE
5
A
100
AcDbSymbolTable
70
1
0
ENDTAB
0
TABLE
2
BLOCK_RECORD
5
1
100
AcDbSymbolTable
70
1
0
BLOCK_RECORD
5
1F
100
AcDbSymbolTableRecord
100
AcDbBlockTableRecord
2
*MODEL_SPACE
0
BLOCK_RECORD
5
1B
100
AcDbSymbolTableRecord
100
AcDbBlockTableRecord
2
*PAPER_SPACE
0
ENDTAB
0
ENDSEC
0
SECTION
2
BLOCKS
0
BLOCK
5
20
100
AcDbEntity
100
AcDbBlockBegin
2
*MODEL_SPACE
0
ENDBLK
5
21
100
AcDbEntity
100
AcDbBlockEnd
0
BLOCK
5
1C
100
AcDbEntity
100
AcDbBlockBegin
2
*PAPER_SPACE
0
ENDBLK
5
1D
100
AcDbEntity
100
AcDbBlockEnd
0
ENDSEC
0
SECTION
2
ENTITIES
0
LINE
5
100
100
AcDbEntity
8
0
100
AcDbLine
10
-100
20
50
30
0
11
-100
21
-50
31
0
0
LINE
5
101
100
AcDbEntity
8
0
100
AcDbLine
10
100
20
-50
30
0
11
100
21
50
31
0
0
LINE
5
102
100
AcDbEntity
8
0
100
AcDbLine
10
-90
20
-40
30
0
11
-51.999999999999993
21
-40
31
0
0
LINE
5
103
100
AcDbEntity
8
0
100
AcDbLine
10
-100
20
-50
30
0
11
100
21
-50
31
0
0
LINE
5
104
100
AcDbEntity
8
0
100
AcDbLine
10
90
20
-40
30
0
11
51.999999999999993
21
-39.999999999999993
31
0
0
LINE
5
105
100
AcDbEntity
8
0
100
AcDbLine
10
90
20
-2.0000000000000182
30
0
11
25.40000000000002
21
-2.0000000000000089
31
0
0
LINE
5
106
100
AcDbEntity
8
0
100
AcDbLine
10
90
20
16.999999999999986
30
0
11
51.999999999999993
21
16.999999999999986
31
0
0
LINE
5
107
100
AcDbEntity
8
0
100
AcDbLine
10
90
20
35.999999999999986
30
0
11
25.399999999999991
21
35.999999999999986
31
0
0
LINE
5
108
100
AcDbEntity
8
0
100
AcDbLine
10
-90
20
17.000000000000007
30
0
11
-51.999999999999993
21
17.000000000000032
31
0
0
SPLINE
5
109
100
AcDbEntity
8
0
100
AcDbSpline
70
4
71
3
72
8
73
4
74
0
42
0.000000001
43
0.0000000001
44
0.0000000001
40
0
40
0
40
0
40
0
40
1
40
1
40
1
40
1
41
1
41
1
41
1
41
1
10
-51.999999999999993
20
-40
30
0
10
-38.699999999999989
20
-40
30
0
10
-38.699999999999989
20
-21
30
0
10
-25.399999999999991
20
-20.999999999999993
30
0
0
SPLINE
5
110
100
AcDbEntity
8
0
100
AcDbSpline
70
4
71
3
72
8
73
4
74
0
42
0.000000001
43
0.0000000001
44
0.0000000001
40
0
40
0
40
0
40
0
40
1
40
1
40
1
40
1
41
1
41
1
41
1
41
1
10
51.999999999999993
20
-39.999999999999993
30
0
10
38.699999999999989
20
-39.999999999999993
30
0
10
38.700000000000003
20
-20.999999999999986
30
0
10
25.399999999999999
20
-20.999999999999986
30
0
0
SPLINE
5
111
100
AcDbEntity
8
0
100
AcDbSpline
70
4
71
3
72
8
73
4
74
0
42
0.000000001
43
0.0000000001
44
0.0000000001
40
0
40
0
40
0
40
0
40
1
40
1
40
1
40
1
41
1
41
1
41
1
41
1
10
51.999999999999993
20
16.999999999999986
30
0
10
38.699999999999989
20
16.999999999999996
30
0
10
38.700000000000017
20
-2.0000000000000058
30
0
10
25.40000000000002
20
-2.0000000000000089
30
0
0
SPLINE
5
112
100
AcDbEntity
8
0
100
AcDbSpline
70
4
71
3
72
8
73
4
74
0
42
0.000000001
43
0.0000000001
44
0.0000000001
40
0
40
0
40
0
40
0
40
1
40
1
40
1
40
1
41
1
41
1
41
1
41
1
10
51.999999999999993
20
16.999999999999986
30
0
10
38.699999999999989
20
16.999999999999989
30
0
10
38.699999999999989
20
35.999999999999993
30
0
10
25.399999999999991
20
35.999999999999986
30
0
0
LINE
5
113
100
AcDbEntity
8
0
100
AcDbLine
10
-10.199999999999974
20
35.999999999999986
30
0
11
25.399999999999991
21
35.999999999999986
31
0
0
LINE
5
114
100
AcDbEntity
8
0
100
AcDbLine
10
25.40000000000002
20
-2.0000000000000089
30
0
11
13.300000000000015
21
-2.0000000000000147
31
0
0
SPLINE
5
115
100
AcDbEntity
8
0
100
AcDbSpline
70
4
71
3
72
8
73
4
74
0
42
0.000000001
43
0.0000000001
44
0.0000000001
40
0
40
0
40
0
40
0
40
1
40
1
40
1
40
1
41
1
41
1
41
1
41
1
10
13.300000000000017
20
-2.0000000000000151
30
0
10
1.4710455076283324e-14
20
-2.0000000000000084
30
0
10
1.6653345369377348e-14
20
-21.000000000000011
30
0
10
-13.299999999999986
20
-21.000000000000014
30
0
0
LINE
5
116
100
AcDbEntity
8
0
100
AcDbLine
10
-10.199999999999996
20
-1.9999999999999947
30
0
11
13.300000000000015
21
-2.0000000000000147
31
0
0
LINE
5
117
100
AcDbEntity
8
0
100
AcDbLine
10
-90
20
-20.999999999999996
30
0
11
-25.399999999999991
21
-20.999999999999993
31
0
0
LINE
5
118
100
AcDbEntity
8
0
100
AcDbLine
10
25.399999999999999
20
-20.999999999999986
30
0
11
90
21
-20.999999999999982
31
0
0
LINE
5
119
100
AcDbEntity
8
0
100
AcDbLine
10
-25.399999999999991
20
-20.999999999999993
30
0
11
-13.299999999999986
21
-21.000000000000014
31
0
0
LINE
5
120
100
AcDbEntity
8
0
100
AcDbLine
10
-13.299999999999986
20
-21.000000000000014
30
0
11
25.399999999999999
21
-20.999999999999986
31
0
0
LINE
5
121
100
AcDbEntity
8
0
100
AcDbLine
10
-90
20
-1.9999999999999953
30
0
11
-52
21
-1.9999999999999938
31
0
0
LINE
5
122
100
AcDbEntity
8
0
100
AcDbLine
10
-90
20
26.500000000000007
30
0
11
-52
21
26.500000000000007
31
0
0
LINE
5
123
100
AcDbEntity
8
0
100
AcDbLine
10
-90
20
36.000000000000007
30
0
11
-51.999999999999993
21
36.000000000000007
31
0
0
LINE
5
124
100
AcDbEntity
8
0
100
AcDbLine
10
-90
20
7.5000000000000053
30
0
11
-51.999999999999993
21
7.5000000000000053
31
0
0
SPLINE
5
125
100
AcDbEntity
8
0
100
AcDbSpline
70
4
71
3
72
8
73
4
74
0
42
0.000000001
43
0.0000000001
44
0.0000000001
40
0
40
0
40
0
40
0
40
1
40
1
40
1
40
1
41
1
41
1
41
1
41
1
10
-10.199999999999974
20
35.999999999999986
30
0
10
-23.499999999999975
20
36
30
0
10
-23.499999999999993
20
16.999999999999993
30
0
10
-36.79999999999999
20
16.999999999999996
30
0
0
SPLINE
5
126
100
AcDbEntity
8
0
100
AcDbSpline
70
4
71
3
72
8
73
4
74
0
42
0.000000001
43
0.0000000001
44
0.0000000001
40
0
40
0
40
0
40
0
40
1
40
1
40
1
40
1
41
1
41
1
41
1
41
1
10
-10.199999999999996
20
-1.9999999999999947
30
0
10
-23.499999999999996
20
-2.0000000000000093
30
0
10
-23.499999999999993
20
16.999999999999989
30
0
10
-36.79999999999999
20
16.999999999999996
30
0
0
LINE
5
127
100
AcDbEntity
8
0
100
AcDbLine
10
-36.79999999999999
20
16.999999999999996
30
0
11
-51.999999999999993
21
17.000000000000032
31
0
0
ENDSEC
0
SECTION
2
OBJECTS
0
DICTIONARY
5
C
100
AcDbDictionary
3
ACAD_GROUP
350
D
3
ACAD_MLINESTYLE
350
17
0
DICTIONARY
5
D
100
AcDbDictionary
0
DICTIONARY
5
1A
330
C
100
AcDbDictionary
0
DICTIONARY
5
17
100
AcDbDictionary
0
ENDSEC
0
EOF
