%TF.GenerationSoftware,KiCad,Pcbnew,(5.1.6)-1*%
%TF.CreationDate,2020-06-24T17:28:05+01:00*%
%TF.ProjectId,panel-display,70616e65-6c2d-4646-9973-706c61792e6b,rev?*%
%TF.SameCoordinates,Original*%
%TF.FileFunction,Copper,L1,Top*%
%TF.FilePolarity,Positive*%
%FSLAX46Y46*%
G04 Gerber Fmt 4.6, Leading zero omitted, Abs format (unit mm)*
G04 Created by KiCad (PCBNEW (5.1.6)-1) date 2020-06-24 17:28:05*
%MOMM*%
%LPD*%
G01*
G04 APERTURE LIST*
%TA.AperFunction,ComponentPad*%
%ADD10R,2.400000X1.600000*%
%TD*%
%TA.AperFunction,ComponentPad*%
%ADD11O,2.400000X1.600000*%
%TD*%
%TA.AperFunction,ComponentPad*%
%ADD12R,1.600000X2.400000*%
%TD*%
%TA.AperFunction,ComponentPad*%
%ADD13O,1.600000X2.400000*%
%TD*%
%TA.AperFunction,ComponentPad*%
%ADD14O,1.700000X1.700000*%
%TD*%
%TA.AperFunction,ComponentPad*%
%ADD15R,1.700000X1.700000*%
%TD*%
%TA.AperFunction,ComponentPad*%
%ADD16C,0.100000*%
%TD*%
%TA.AperFunction,ComponentPad*%
%ADD17C,1.800000*%
%TD*%
%TA.AperFunction,ComponentPad*%
%ADD18C,1.600000*%
%TD*%
%TA.AperFunction,ComponentPad*%
%ADD19O,1.600000X1.600000*%
%TD*%
%TA.AperFunction,ComponentPad*%
%ADD20C,1.520000*%
%TD*%
%TA.AperFunction,ComponentPad*%
%ADD21R,1.520000X1.520000*%
%TD*%
%TA.AperFunction,ComponentPad*%
%ADD22R,1.800000X1.800000*%
%TD*%
%TA.AperFunction,ComponentPad*%
%ADD23C,2.000000*%
%TD*%
%TA.AperFunction,ViaPad*%
%ADD24C,0.800000*%
%TD*%
%TA.AperFunction,Conductor*%
%ADD25C,0.250000*%
%TD*%
G04 APERTURE END LIST*
D10*
%TO.P,U7,1*%
%TO.N,Net-(U10-Pad15)*%
X105587800Y-86385400D03*
D11*
%TO.P,U7,9*%
%TO.N,Net-(U7-Pad9)*%
X97967800Y-104165400D03*
%TO.P,U7,2*%
%TO.N,Net-(U10-Pad1)*%
X105587800Y-88925400D03*
%TO.P,U7,10*%
%TO.N,/LED33*%
X97967800Y-101625400D03*
%TO.P,U7,3*%
%TO.N,Net-(U10-Pad2)*%
X105587800Y-91465400D03*
%TO.P,U7,11*%
%TO.N,/LED9*%
X97967800Y-99085400D03*
%TO.P,U7,4*%
%TO.N,Net-(U10-Pad3)*%
X105587800Y-94005400D03*
%TO.P,U7,12*%
%TO.N,/LED34*%
X97967800Y-96545400D03*
%TO.P,U7,5*%
%TO.N,Net-(U10-Pad4)*%
X105587800Y-96545400D03*
%TO.P,U7,13*%
%TO.N,/LED10*%
X97967800Y-94005400D03*
%TO.P,U7,6*%
%TO.N,Net-(U10-Pad5)*%
X105587800Y-99085400D03*
%TO.P,U7,14*%
%TO.N,/LED35*%
X97967800Y-91465400D03*
%TO.P,U7,7*%
%TO.N,Net-(U10-Pad6)*%
X105587800Y-101625400D03*
%TO.P,U7,15*%
%TO.N,/LED11*%
X97967800Y-88925400D03*
%TO.P,U7,8*%
%TO.N,GND*%
X105587800Y-104165400D03*
%TO.P,U7,16*%
%TO.N,/LED36*%
X97967800Y-86385400D03*
%TD*%
D12*
%TO.P,U8,1*%
%TO.N,Net-(U11-Pad15)*%
X158242000Y-80264000D03*
D13*
%TO.P,U8,9*%
%TO.N,Net-(U8-Pad9)*%
X176022000Y-87884000D03*
%TO.P,U8,2*%
%TO.N,Net-(U11-Pad1)*%
X160782000Y-80264000D03*
%TO.P,U8,10*%
%TO.N,/LED12*%
X173482000Y-87884000D03*
%TO.P,U8,3*%
%TO.N,Net-(U11-Pad2)*%
X163322000Y-80264000D03*
%TO.P,U8,11*%
%TO.N,/LED40*%
X170942000Y-87884000D03*
%TO.P,U8,4*%
%TO.N,Net-(U11-Pad3)*%
X165862000Y-80264000D03*
%TO.P,U8,12*%
%TO.N,/LED16*%
X168402000Y-87884000D03*
%TO.P,U8,5*%
%TO.N,Net-(U11-Pad4)*%
X168402000Y-80264000D03*
%TO.P,U8,13*%
%TO.N,/LED39*%
X165862000Y-87884000D03*
%TO.P,U8,6*%
%TO.N,Net-(U11-Pad5)*%
X170942000Y-80264000D03*
%TO.P,U8,14*%
%TO.N,/LED15*%
X163322000Y-87884000D03*
%TO.P,U8,7*%
%TO.N,Net-(U11-Pad6)*%
X173482000Y-80264000D03*
%TO.P,U8,15*%
%TO.N,/LED38*%
X160782000Y-87884000D03*
%TO.P,U8,8*%
%TO.N,GND*%
X176022000Y-80264000D03*
%TO.P,U8,16*%
%TO.N,/LED14*%
X158242000Y-87884000D03*
%TD*%
D14*
%TO.P,J1,12*%
%TO.N,/Panel Display Buttons/PB-GS*%
X176453800Y-131495800D03*
%TO.P,J1,11*%
%TO.N,/Panel Display Buttons/PB-PL1*%
X176453800Y-134035800D03*
%TO.P,J1,10*%
%TO.N,/Panel Display Buttons/PB-PL2*%
X173913800Y-131495800D03*
%TO.P,J1,9*%
%TO.N,/Panel Display Buttons/PB-MLE*%
X173913800Y-134035800D03*
%TO.P,J1,8*%
%TO.N,/Panel Display Buttons/PB-SD*%
X171373800Y-131495800D03*
%TO.P,J1,7*%
%TO.N,Net-(J1-Pad7)*%
X171373800Y-134035800D03*
%TO.P,J1,6*%
%TO.N,Net-(J1-Pad6)*%
X168833800Y-131495800D03*
%TO.P,J1,5*%
%TO.N,/Panel Display Buttons/PB-DK*%
X168833800Y-134035800D03*
%TO.P,J1,4*%
%TO.N,/Panel Display Buttons/PB-MLW*%
X166293800Y-131495800D03*
%TO.P,J1,3*%
%TO.N,/Panel Display Buttons/PB-FY*%
X166293800Y-134035800D03*
%TO.P,J1,2*%
%TO.N,/Panel Display Buttons/PB-AUX2*%
X163753800Y-131495800D03*
D15*
%TO.P,J1,1*%
%TO.N,/Panel Display Buttons/PB-AUX1*%
X163753800Y-134035800D03*
%TD*%
D12*
%TO.P,U3,1*%
%TO.N,Net-(U3-Pad1)*%
X212852000Y-140462000D03*
D13*
%TO.P,U3,9*%
%TO.N,Net-(U3-Pad9)*%
X195072000Y-132842000D03*
%TO.P,U3,2*%
%TO.N,Net-(U3-Pad2)*%
X210312000Y-140462000D03*
%TO.P,U3,10*%
%TO.N,/LED19*%
X197612000Y-132842000D03*
%TO.P,U3,3*%
%TO.N,Net-(U3-Pad3)*%
X207772000Y-140462000D03*
%TO.P,U3,11*%
%TO.N,/LED44*%
X200152000Y-132842000D03*
%TO.P,U3,4*%
%TO.N,Net-(U3-Pad4)*%
X205232000Y-140462000D03*
%TO.P,U3,12*%
%TO.N,/LED20*%
X202692000Y-132842000D03*
%TO.P,U3,5*%
%TO.N,Net-(U3-Pad5)*%
X202692000Y-140462000D03*
%TO.P,U3,13*%
%TO.N,/LED28*%
X205232000Y-132842000D03*
%TO.P,U3,6*%
%TO.N,Net-(U3-Pad6)*%
X200152000Y-140462000D03*
%TO.P,U3,14*%
%TO.N,/LED4*%
X207772000Y-132842000D03*
%TO.P,U3,7*%
%TO.N,Net-(U3-Pad7)*%
X197612000Y-140462000D03*
%TO.P,U3,15*%
%TO.N,/LED29*%
X210312000Y-132842000D03*
%TO.P,U3,8*%
%TO.N,GND*%
X195072000Y-140462000D03*
%TO.P,U3,16*%
%TO.N,/LED5*%
X212852000Y-132842000D03*
%TD*%
%TA.AperFunction,ComponentPad*%
D16*
%TO.P,D22,1*%
%TO.N,/LED12*%
G36*
X179763307Y-64714724D02*
G01*
X179074476Y-66377707D01*
X177411493Y-65688876D01*
X178100324Y-64025893D01*
X179763307Y-64714724D01*
G37*
%TD.AperFunction*%
D17*
%TO.P,D22,2*%
%TO.N,Net-(D22-Pad2)*%
X176240746Y-64229784D03*
%TD*%
D12*
%TO.P,U6,1*%
%TO.N,Net-(U3-Pad2)*%
X176530000Y-126492000D03*
D13*
%TO.P,U6,9*%
%TO.N,Net-(U10-Pad14)*%
X158750000Y-118872000D03*
%TO.P,U6,2*%
%TO.N,Net-(U3-Pad3)*%
X173990000Y-126492000D03*
%TO.P,U6,10*%
%TO.N,RST*%
X161290000Y-118872000D03*
%TO.P,U6,3*%
%TO.N,Net-(U3-Pad4)*%
X171450000Y-126492000D03*
%TO.P,U6,11*%
%TO.N,DCLK*%
X163830000Y-118872000D03*
%TO.P,U6,4*%
%TO.N,Net-(U3-Pad5)*%
X168910000Y-126492000D03*
%TO.P,U6,12*%
%TO.N,DLAT*%
X166370000Y-118872000D03*
%TO.P,U6,5*%
%TO.N,Net-(U3-Pad6)*%
X166370000Y-126492000D03*
%TO.P,U6,13*%
%TO.N,GND*%
X168910000Y-118872000D03*
%TO.P,U6,6*%
%TO.N,Net-(U3-Pad7)*%
X163830000Y-126492000D03*
%TO.P,U6,14*%
%TO.N,Net-(U5-Pad9)*%
X171450000Y-118872000D03*
%TO.P,U6,7*%
%TO.N,EX3*%
X161290000Y-126492000D03*
%TO.P,U6,15*%
%TO.N,Net-(U3-Pad1)*%
X173990000Y-118872000D03*
%TO.P,U6,8*%
%TO.N,GND*%
X158750000Y-126492000D03*
%TO.P,U6,16*%
%TO.N,+5V*%
X176530000Y-118872000D03*
%TD*%
D12*
%TO.P,U5,1*%
%TO.N,Net-(U2-Pad2)*%
X135382000Y-69088000D03*
D13*
%TO.P,U5,9*%
%TO.N,Net-(U5-Pad9)*%
X153162000Y-76708000D03*
%TO.P,U5,2*%
%TO.N,Net-(U2-Pad3)*%
X137922000Y-69088000D03*
%TO.P,U5,10*%
%TO.N,RST*%
X150622000Y-76708000D03*
%TO.P,U5,3*%
%TO.N,Net-(U2-Pad4)*%
X140462000Y-69088000D03*
%TO.P,U5,11*%
%TO.N,DCLK*%
X148082000Y-76708000D03*
%TO.P,U5,4*%
%TO.N,Net-(U2-Pad5)*%
X143002000Y-69088000D03*
%TO.P,U5,12*%
%TO.N,DLAT*%
X145542000Y-76708000D03*
%TO.P,U5,5*%
%TO.N,Net-(U2-Pad6)*%
X145542000Y-69088000D03*
%TO.P,U5,13*%
%TO.N,GND*%
X143002000Y-76708000D03*
%TO.P,U5,6*%
%TO.N,Net-(U2-Pad7)*%
X148082000Y-69088000D03*
%TO.P,U5,14*%
%TO.N,Net-(U4-Pad9)*%
X140462000Y-76708000D03*
%TO.P,U5,7*%
%TO.N,EX2*%
X150622000Y-69088000D03*
%TO.P,U5,15*%
%TO.N,Net-(U2-Pad1)*%
X137922000Y-76708000D03*
%TO.P,U5,8*%
%TO.N,GND*%
X153162000Y-69088000D03*
%TO.P,U5,16*%
%TO.N,+5V*%
X135382000Y-76708000D03*
%TD*%
D12*
%TO.P,U4,1*%
%TO.N,Net-(U1-Pad2)*%
X144018000Y-126492000D03*
D13*
%TO.P,U4,9*%
%TO.N,Net-(U4-Pad9)*%
X126238000Y-118872000D03*
%TO.P,U4,2*%
%TO.N,Net-(U1-Pad3)*%
X141478000Y-126492000D03*
%TO.P,U4,10*%
%TO.N,RST*%
X128778000Y-118872000D03*
%TO.P,U4,3*%
%TO.N,Net-(U1-Pad4)*%
X138938000Y-126492000D03*
%TO.P,U4,11*%
%TO.N,DCLK*%
X131318000Y-118872000D03*
%TO.P,U4,4*%
%TO.N,Net-(U1-Pad5)*%
X136398000Y-126492000D03*
%TO.P,U4,12*%
%TO.N,DLAT*%
X133858000Y-118872000D03*
%TO.P,U4,5*%
%TO.N,Net-(U1-Pad6)*%
X133858000Y-126492000D03*
%TO.P,U4,13*%
%TO.N,GND*%
X136398000Y-118872000D03*
%TO.P,U4,6*%
%TO.N,Net-(U1-Pad7)*%
X131318000Y-126492000D03*
%TO.P,U4,14*%
%TO.N,DATA*%
X138938000Y-118872000D03*
%TO.P,U4,7*%
%TO.N,EX1*%
X128778000Y-126492000D03*
%TO.P,U4,15*%
%TO.N,Net-(U1-Pad1)*%
X141478000Y-118872000D03*
%TO.P,U4,8*%
%TO.N,GND*%
X126238000Y-126492000D03*
%TO.P,U4,16*%
%TO.N,+5V*%
X144018000Y-118872000D03*
%TD*%
D12*
%TO.P,U2,1*%
%TO.N,Net-(U2-Pad1)*%
X132842000Y-80264000D03*
D13*
%TO.P,U2,9*%
%TO.N,Net-(U2-Pad9)*%
X150622000Y-87884000D03*
%TO.P,U2,2*%
%TO.N,Net-(U2-Pad2)*%
X135382000Y-80264000D03*
%TO.P,U2,10*%
%TO.N,/LED27*%
X148082000Y-87884000D03*
%TO.P,U2,3*%
%TO.N,Net-(U2-Pad3)*%
X137922000Y-80264000D03*
%TO.P,U2,11*%
%TO.N,/LED3*%
X145542000Y-87884000D03*
%TO.P,U2,4*%
%TO.N,Net-(U2-Pad4)*%
X140462000Y-80264000D03*
%TO.P,U2,12*%
%TO.N,/LED26*%
X143002000Y-87884000D03*
%TO.P,U2,5*%
%TO.N,Net-(U2-Pad5)*%
X143002000Y-80264000D03*
%TO.P,U2,13*%
%TO.N,/LED2*%
X140462000Y-87884000D03*
%TO.P,U2,6*%
%TO.N,Net-(U2-Pad6)*%
X145542000Y-80264000D03*
%TO.P,U2,14*%
%TO.N,/LED48*%
X137922000Y-87884000D03*
%TO.P,U2,7*%
%TO.N,Net-(U2-Pad7)*%
X148082000Y-80264000D03*
%TO.P,U2,15*%
%TO.N,/LED24*%
X135382000Y-87884000D03*
%TO.P,U2,8*%
%TO.N,GND*%
X150622000Y-80264000D03*
%TO.P,U2,16*%
%TO.N,/LED47*%
X132842000Y-87884000D03*
%TD*%
D12*
%TO.P,U1,1*%
%TO.N,Net-(U1-Pad1)*%
X83439000Y-140766800D03*
D13*
%TO.P,U1,9*%
%TO.N,Net-(U1-Pad9)*%
X65659000Y-133146800D03*
%TO.P,U1,2*%
%TO.N,Net-(U1-Pad2)*%
X80899000Y-140766800D03*
%TO.P,U1,10*%
%TO.N,/LED23*%
X68199000Y-133146800D03*
%TO.P,U1,3*%
%TO.N,Net-(U1-Pad3)*%
X78359000Y-140766800D03*
%TO.P,U1,11*%
%TO.N,/LED46*%
X70739000Y-133146800D03*
%TO.P,U1,4*%
%TO.N,Net-(U1-Pad4)*%
X75819000Y-140766800D03*
%TO.P,U1,12*%
%TO.N,/LED22*%
X73279000Y-133146800D03*
%TO.P,U1,5*%
%TO.N,Net-(U1-Pad5)*%
X73279000Y-140766800D03*
%TO.P,U1,13*%
%TO.N,/LED45*%
X75819000Y-133146800D03*
%TO.P,U1,6*%
%TO.N,Net-(U1-Pad6)*%
X70739000Y-140766800D03*
%TO.P,U1,14*%
%TO.N,/LED21*%
X78359000Y-133146800D03*
%TO.P,U1,7*%
%TO.N,Net-(U1-Pad7)*%
X68199000Y-140766800D03*
%TO.P,U1,15*%
%TO.N,/LED25*%
X80899000Y-133146800D03*
%TO.P,U1,8*%
%TO.N,GND*%
X65659000Y-140766800D03*
%TO.P,U1,16*%
%TO.N,/LED1*%
X83439000Y-133146800D03*
%TD*%
D18*
%TO.P,R68,1*%
%TO.N,+12P*%
X140462000Y-57658000D03*
D19*
%TO.P,R68,2*%
%TO.N,Net-(D53-Pad2)*%
X150622000Y-57658000D03*
%TD*%
D18*
%TO.P,R67,1*%
%TO.N,+12P*%
X168148000Y-57658000D03*
D19*
%TO.P,R67,2*%
%TO.N,Net-(D47-Pad2)*%
X157988000Y-57658000D03*
%TD*%
D18*
%TO.P,R66,1*%
%TO.N,+12P*%
X123952000Y-58674000D03*
%TO.P,R66,2*%
%TO.N,Net-(D52-Pad2)*%
%TA.AperFunction,ComponentPad*%
G36*
G01*
X117333480Y-65292520D02*
X117333480Y-65292520D01*
G75*
G02*
X117333480Y-66423890I-565685J-565685D01*
G01*
X117333480Y-66423890D01*
G75*
G02*
X116202110Y-66423890I-565685J565685D01*
G01*
X116202110Y-66423890D01*
G75*
G02*
X116202110Y-65292520I565685J565685D01*
G01*
X116202110Y-65292520D01*
G75*
G02*
X117333480Y-65292520I565685J-565685D01*
G01*
G37*
%TD.AperFunction*%
%TD*%
%TO.P,R65,1*%
%TO.N,+12P*%
X130810000Y-69862700D03*
%TO.P,R65,2*%
%TO.N,Net-(D46-Pad2)*%
%TA.AperFunction,ComponentPad*%
G36*
G01*
X124191480Y-76481220D02*
X124191480Y-76481220D01*
G75*
G02*
X124191480Y-77612590I-565685J-565685D01*
G01*
X124191480Y-77612590D01*
G75*
G02*
X123060110Y-77612590I-565685J565685D01*
G01*
X123060110Y-77612590D01*
G75*
G02*
X123060110Y-76481220I565685J565685D01*
G01*
X123060110Y-76481220D01*
G75*
G02*
X124191480Y-76481220I565685J-565685D01*
G01*
G37*
%TD.AperFunction*%
%TD*%
%TO.P,R64,1*%
%TO.N,+12P*%
X162661600Y-104863900D03*
D19*
%TO.P,R64,2*%
%TO.N,Net-(D105-Pad2)*%
X152501600Y-104863900D03*
%TD*%
D18*
%TO.P,R63,1*%
%TO.N,+12P*%
X128054100Y-105321100D03*
D19*
%TO.P,R63,2*%
%TO.N,Net-(D14-Pad2)*%
X138214100Y-105321100D03*
%TD*%
D18*
%TO.P,R62,1*%
%TO.N,+12P*%
X78486000Y-105410000D03*
D19*
%TO.P,R62,2*%
%TO.N,Net-(D103-Pad2)*%
X88646000Y-105410000D03*
%TD*%
D18*
%TO.P,R61,1*%
%TO.N,+12P*%
X84493100Y-117144800D03*
D19*
%TO.P,R61,2*%
%TO.N,Net-(D95-Pad2)*%
X74333100Y-117144800D03*
%TD*%
D18*
%TO.P,R60,1*%
%TO.N,+12P*%
X205486000Y-88836500D03*
D19*
%TO.P,R60,2*%
%TO.N,Net-(D88-Pad2)*%
X215646000Y-88836500D03*
%TD*%
D18*
%TO.P,R59,1*%
%TO.N,+12P*%
X204724000Y-101346000D03*
D19*
%TO.P,R59,2*%
%TO.N,Net-(D82-Pad2)*%
X194564000Y-101346000D03*
%TD*%
D18*
%TO.P,R58,1*%
%TO.N,+12P*%
X220078300Y-72644000D03*
D19*
%TO.P,R58,2*%
%TO.N,Net-(D81-Pad2)*%
X209918300Y-72644000D03*
%TD*%
D18*
%TO.P,R57,1*%
%TO.N,+12P*%
X182626000Y-49123600D03*
D19*
%TO.P,R57,2*%
%TO.N,Net-(D78-Pad2)*%
X182626000Y-59283600D03*
%TD*%
D18*
%TO.P,R56,1*%
%TO.N,+12P*%
X129540000Y-87630000D03*
%TO.P,R56,2*%
%TO.N,Net-(D67-Pad2)*%
%TA.AperFunction,ComponentPad*%
G36*
G01*
X122921480Y-81011480D02*
X122921480Y-81011480D01*
G75*
G02*
X121790110Y-81011480I-565685J565685D01*
G01*
X121790110Y-81011480D01*
G75*
G02*
X121790110Y-79880110I565685J565685D01*
G01*
X121790110Y-79880110D01*
G75*
G02*
X122921480Y-79880110I565685J-565685D01*
G01*
X122921480Y-79880110D01*
G75*
G02*
X122921480Y-81011480I-565685J-565685D01*
G01*
G37*
%TD.AperFunction*%
%TD*%
%TO.P,R55,1*%
%TO.N,+12P*%
X176225200Y-101104700D03*
D19*
%TO.P,R55,2*%
%TO.N,Net-(D63-Pad2)*%
X166065200Y-101104700D03*
%TD*%
D18*
%TO.P,R54,1*%
%TO.N,+12P*%
X180467000Y-101346000D03*
D19*
%TO.P,R54,2*%
%TO.N,Net-(D71-Pad2)*%
X190627000Y-101346000D03*
%TD*%
D18*
%TO.P,R53,1*%
%TO.N,+12P*%
X201244200Y-68427600D03*
D19*
%TO.P,R53,2*%
%TO.N,Net-(D69-Pad2)*%
X191084200Y-68427600D03*
%TD*%
D18*
%TO.P,R52,1*%
%TO.N,+12P*%
X84175600Y-83807300D03*
D19*
%TO.P,R52,2*%
%TO.N,Net-(D24-Pad2)*%
X94335600Y-83807300D03*
%TD*%
D18*
%TO.P,R51,1*%
%TO.N,+12P*%
X64008000Y-101092000D03*
D19*
%TO.P,R51,2*%
%TO.N,Net-(D41-Pad2)*%
X74168000Y-101092000D03*
%TD*%
D18*
%TO.P,R50,1*%
%TO.N,+12P*%
X57658000Y-62484000D03*
D19*
%TO.P,R50,2*%
%TO.N,Net-(D35-Pad2)*%
X57658000Y-72644000D03*
%TD*%
D18*
%TO.P,R49,1*%
%TO.N,+12P*%
X54356000Y-62484000D03*
D19*
%TO.P,R49,2*%
%TO.N,Net-(D29-Pad2)*%
X54356000Y-72644000D03*
%TD*%
D18*
%TO.P,R48,1*%
%TO.N,+12P*%
X55905400Y-49479200D03*
D19*
%TO.P,R48,2*%
%TO.N,Net-(D21-Pad2)*%
X55905400Y-59639200D03*
%TD*%
D18*
%TO.P,R47,1*%
%TO.N,+12P*%
X60858400Y-48006000D03*
D19*
%TO.P,R47,2*%
%TO.N,Net-(D13-Pad2)*%
X60858400Y-58166000D03*
%TD*%
D18*
%TO.P,R46,1*%
%TO.N,+12P*%
X198691500Y-120967500D03*
D19*
%TO.P,R46,2*%
%TO.N,Net-(D113-Pad2)*%
X208851500Y-120967500D03*
%TD*%
D18*
%TO.P,R45,1*%
%TO.N,+12P*%
X221792800Y-118287800D03*
D19*
%TO.P,R45,2*%
%TO.N,Net-(D134-Pad2)*%
X231952800Y-118287800D03*
%TD*%
D18*
%TO.P,R44,1*%
%TO.N,+12P*%
X166077900Y-104838500D03*
D19*
%TO.P,R44,2*%
%TO.N,Net-(D118-Pad2)*%
X176237900Y-104838500D03*
%TD*%
D18*
%TO.P,R43,1*%
%TO.N,+12P*%
X204724000Y-105029000D03*
D19*
%TO.P,R43,2*%
%TO.N,Net-(D136-Pad2)*%
X194564000Y-105029000D03*
%TD*%
D18*
%TO.P,R42,1*%
%TO.N,+12P*%
X105003600Y-130149600D03*
D19*
%TO.P,R42,2*%
%TO.N,Net-(D106-Pad2)*%
X94843600Y-130149600D03*
%TD*%
D18*
%TO.P,R41,1*%
%TO.N,+12P*%
X131813300Y-100761800D03*
D19*
%TO.P,R41,2*%
%TO.N,Net-(D101-Pad2)*%
X141973300Y-100761800D03*
%TD*%
D18*
%TO.P,R40,1*%
%TO.N,+12P*%
X101854000Y-127000000D03*
D19*
%TO.P,R40,2*%
%TO.N,Net-(D100-Pad2)*%
X112014000Y-127000000D03*
%TD*%
D18*
%TO.P,R39,1*%
%TO.N,+12P*%
X86779100Y-117132100D03*
D19*
%TO.P,R39,2*%
%TO.N,Net-(D99-Pad2)*%
X96939100Y-117132100D03*
%TD*%
D18*
%TO.P,R38,1*%
%TO.N,+12P*%
X64008000Y-105549700D03*
D19*
%TO.P,R38,2*%
%TO.N,Net-(D91-Pad2)*%
X74168000Y-105549700D03*
%TD*%
D18*
%TO.P,R37,1*%
%TO.N,+12P*%
X228346000Y-88836500D03*
D19*
%TO.P,R37,2*%
%TO.N,Net-(D84-Pad2)*%
X218186000Y-88836500D03*
%TD*%
D18*
%TO.P,R36,1*%
%TO.N,+12P*%
X219163900Y-101346000D03*
D19*
%TO.P,R36,2*%
%TO.N,Net-(D86-Pad2)*%
X209003900Y-101346000D03*
%TD*%
D18*
%TO.P,R35,1*%
%TO.N,+12P*%
X208280000Y-84582000D03*
D19*
%TO.P,R35,2*%
%TO.N,Net-(D77-Pad2)*%
X198120000Y-84582000D03*
%TD*%
D18*
%TO.P,R34,1*%
%TO.N,+12P*%
X185166000Y-49098200D03*
D19*
%TO.P,R34,2*%
%TO.N,Net-(D75-Pad2)*%
X185166000Y-59258200D03*
%TD*%
D18*
%TO.P,R33,1*%
%TO.N,+12P*%
X115176300Y-98831400D03*
D19*
%TO.P,R33,2*%
%TO.N,Net-(D60-Pad2)*%
X115176300Y-88671400D03*
%TD*%
D18*
%TO.P,R32,1*%
%TO.N,+12P*%
X162407600Y-100825300D03*
D19*
%TO.P,R32,2*%
%TO.N,Net-(D56-Pad2)*%
X152247600Y-100825300D03*
%TD*%
D18*
%TO.P,R31,1*%
%TO.N,+12P*%
X202526900Y-88861900D03*
D19*
%TO.P,R31,2*%
%TO.N,Net-(D73-Pad2)*%
X192366900Y-88861900D03*
%TD*%
D18*
%TO.P,R30,1*%
%TO.N,+12P*%
X206819500Y-72631300D03*
D19*
%TO.P,R30,2*%
%TO.N,Net-(D72-Pad2)*%
X196659500Y-72631300D03*
%TD*%
D18*
%TO.P,R29,1*%
%TO.N,+12P*%
X84251800Y-75603100D03*
D19*
%TO.P,R29,2*%
%TO.N,Net-(D16-Pad2)*%
X94411800Y-75603100D03*
%TD*%
D18*
%TO.P,R28,1*%
%TO.N,+12P*%
X57912000Y-99060000D03*
D19*
%TO.P,R28,2*%
%TO.N,Net-(D38-Pad2)*%
X57912000Y-88900000D03*
%TD*%
D18*
%TO.P,R27,1*%
%TO.N,+12P*%
X78486000Y-101092000D03*
D19*
%TO.P,R27,2*%
%TO.N,Net-(D32-Pad2)*%
X88646000Y-101092000D03*
%TD*%
D18*
%TO.P,R26,1*%
%TO.N,+12P*%
X53390800Y-49301400D03*
D19*
%TO.P,R26,2*%
%TO.N,Net-(D26-Pad2)*%
X53390800Y-59461400D03*
%TD*%
D18*
%TO.P,R25,1*%
%TO.N,+12P*%
X58470800Y-49403000D03*
D19*
%TO.P,R25,2*%
%TO.N,Net-(D18-Pad2)*%
X58470800Y-59563000D03*
%TD*%
D18*
%TO.P,R24,1*%
%TO.N,+12P*%
X63271400Y-47929800D03*
D19*
%TO.P,R24,2*%
%TO.N,Net-(D10-Pad2)*%
X63271400Y-58089800D03*
%TD*%
D18*
%TO.P,R23,1*%
%TO.N,+12P*%
X217944700Y-117652800D03*
D19*
%TO.P,R23,2*%
%TO.N,Net-(D114-Pad2)*%
X207784700Y-117652800D03*
%TD*%
D18*
%TO.P,R22,1*%
%TO.N,+12P*%
X211836000Y-121412000D03*
D19*
%TO.P,R22,2*%
%TO.N,Net-(D127-Pad2)*%
X221996000Y-121412000D03*
%TD*%
D18*
%TO.P,R21,1*%
%TO.N,+12P*%
X111074200Y-117043200D03*
D19*
%TO.P,R21,2*%
%TO.N,Net-(D109-Pad2)*%
X121234200Y-117043200D03*
%TD*%
D18*
%TO.P,R20,1*%
%TO.N,+12P*%
X204470000Y-116674900D03*
D19*
%TO.P,R20,2*%
%TO.N,Net-(D129-Pad2)*%
X194310000Y-116674900D03*
%TD*%
D18*
%TO.P,R19,1*%
%TO.N,+12P*%
X79883000Y-121285000D03*
D19*
%TO.P,R19,2*%
%TO.N,Net-(D117-Pad2)*%
X69723000Y-121285000D03*
%TD*%
D18*
%TO.P,R18,1*%
%TO.N,+12P*%
X151384000Y-48514000D03*
D19*
%TO.P,R18,2*%
%TO.N,Net-(D7-Pad2)*%
X161544000Y-48514000D03*
%TD*%
D18*
%TO.P,R17,1*%
%TO.N,+12P*%
X151384000Y-45720000D03*
D19*
%TO.P,R17,2*%
%TO.N,Net-(D3-Pad2)*%
X161544000Y-45720000D03*
%TD*%
D18*
%TO.P,R16,1*%
%TO.N,Net-(D2-Pad1)*%
X92976700Y-40563800D03*
D19*
%TO.P,R16,2*%
%TO.N,Net-(Q2-Pad1)*%
X82816700Y-40563800D03*
%TD*%
D18*
%TO.P,R15,1*%
%TO.N,Net-(D1-Pad1)*%
X62636400Y-40754300D03*
D19*
%TO.P,R15,2*%
%TO.N,Net-(Q1-Pad1)*%
X72796400Y-40754300D03*
%TD*%
D18*
%TO.P,R14,1*%
%TO.N,/LED Aux/AUX2*%
X74028300Y-53340000D03*
D19*
%TO.P,R14,2*%
%TO.N,GND*%
X74028300Y-43180000D03*
%TD*%
D18*
%TO.P,R13,1*%
%TO.N,/LED Aux/AUX1*%
X81318100Y-59118500D03*
D19*
%TO.P,R13,2*%
%TO.N,GND*%
X81318100Y-48958500D03*
%TD*%
D18*
%TO.P,R12,1*%
%TO.N,/LED Aux/AUX2*%
X76390500Y-59093100D03*
D19*
%TO.P,R12,2*%
%TO.N,Net-(Q2-Pad2)*%
X76390500Y-48933100D03*
%TD*%
D18*
%TO.P,R11,1*%
%TO.N,/LED Aux/AUX1*%
X78905100Y-59105800D03*
D19*
%TO.P,R11,2*%
%TO.N,Net-(Q1-Pad2)*%
X78905100Y-48945800D03*
%TD*%
D18*
%TO.P,R10,1*%
%TO.N,GND*%
X230886000Y-121412000D03*
D19*
%TO.P,R10,2*%
%TO.N,/Panel Display Buttons/PB-SD*%
X241046000Y-121412000D03*
%TD*%
D18*
%TO.P,R9,1*%
%TO.N,GND*%
X231140000Y-104648000D03*
D19*
%TO.P,R9,2*%
%TO.N,/Panel Display Buttons/PB-MLE*%
X241300000Y-104648000D03*
%TD*%
D18*
%TO.P,R8,1*%
%TO.N,GND*%
X231140000Y-88900000D03*
D19*
%TO.P,R8,2*%
%TO.N,/Panel Display Buttons/PB-PL2*%
X241300000Y-88900000D03*
%TD*%
D18*
%TO.P,R7,1*%
%TO.N,GND*%
X231140000Y-72898000D03*
D19*
%TO.P,R7,2*%
%TO.N,/Panel Display Buttons/PB-PL1*%
X241300000Y-72898000D03*
%TD*%
D18*
%TO.P,R6,1*%
%TO.N,GND*%
X222758000Y-69088000D03*
D19*
%TO.P,R6,2*%
%TO.N,/Panel Display Buttons/PB-GS*%
X232918000Y-69088000D03*
%TD*%
D18*
%TO.P,R5,1*%
%TO.N,GND*%
X65532000Y-121666000D03*
D19*
%TO.P,R5,2*%
%TO.N,/Panel Display Buttons/PB-DK*%
X55372000Y-121666000D03*
%TD*%
D18*
%TO.P,R4,1*%
%TO.N,GND*%
X70866000Y-117094000D03*
D19*
%TO.P,R4,2*%
%TO.N,/Panel Display Buttons/PB-MLW*%
X60706000Y-117094000D03*
%TD*%
D18*
%TO.P,R3,1*%
%TO.N,GND*%
X54610000Y-99060000D03*
D19*
%TO.P,R3,2*%
%TO.N,/Panel Display Buttons/PB-FY*%
X54610000Y-88900000D03*
%TD*%
D18*
%TO.P,R2,1*%
%TO.N,GND*%
X77216000Y-67818000D03*
D19*
%TO.P,R2,2*%
%TO.N,/Panel Display Buttons/PB-AUX2*%
X67056000Y-67818000D03*
%TD*%
D18*
%TO.P,R1,1*%
%TO.N,GND*%
X91948000Y-70866000D03*
D19*
%TO.P,R1,2*%
%TO.N,/Panel Display Buttons/PB-AUX1*%
X91948000Y-60706000D03*
%TD*%
D20*
%TO.P,Q2,2*%
%TO.N,Net-(Q2-Pad2)*%
X78155800Y-41224200D03*
%TO.P,Q2,3*%
%TO.N,GND*%
X80695800Y-41224200D03*
D21*
%TO.P,Q2,1*%
%TO.N,Net-(Q2-Pad1)*%
X75615800Y-41224200D03*
%TD*%
D20*
%TO.P,Q1,2*%
%TO.N,Net-(Q1-Pad2)*%
X78257400Y-45643800D03*
%TO.P,Q1,3*%
%TO.N,GND*%
X80797400Y-45643800D03*
D21*
%TO.P,Q1,1*%
%TO.N,Net-(Q1-Pad1)*%
X75717400Y-45643800D03*
%TD*%
D22*
%TO.P,D144,1*%
%TO.N,/LED42*%
X227126800Y-79857600D03*
D17*
%TO.P,D144,2*%
%TO.N,Net-(D144-Pad2)*%
X224586800Y-79857600D03*
%TD*%
D22*
%TO.P,D142,1*%
%TO.N,/LED18*%
X233095800Y-79832200D03*
D17*
%TO.P,D142,2*%
%TO.N,Net-(D139-Pad1)*%
X230555800Y-79832200D03*
%TD*%
D22*
%TO.P,D141,1*%
%TO.N,Net-(D140-Pad2)*%
X220700600Y-63830200D03*
D17*
%TO.P,D141,2*%
%TO.N,Net-(D141-Pad2)*%
X218160600Y-63830200D03*
%TD*%
D22*
%TO.P,D140,1*%
%TO.N,/LED17*%
X233095800Y-63830200D03*
D17*
%TO.P,D140,2*%
%TO.N,Net-(D140-Pad2)*%
X230555800Y-63830200D03*
%TD*%
D22*
%TO.P,D139,1*%
%TO.N,Net-(D139-Pad1)*%
X221132400Y-79832200D03*
D17*
%TO.P,D139,2*%
%TO.N,Net-(D139-Pad2)*%
X218592400Y-79832200D03*
%TD*%
D22*
%TO.P,D137,1*%
%TO.N,Net-(D132-Pad2)*%
X202768200Y-111836200D03*
D17*
%TO.P,D137,2*%
%TO.N,Net-(D136-Pad1)*%
X200228200Y-111836200D03*
%TD*%
D22*
%TO.P,D136,1*%
%TO.N,Net-(D136-Pad1)*%
X190728600Y-111836200D03*
D17*
%TO.P,D136,2*%
%TO.N,Net-(D136-Pad2)*%
X188188600Y-111836200D03*
%TD*%
D22*
%TO.P,D135,1*%
%TO.N,/LED28*%
X217220800Y-127838200D03*
D17*
%TO.P,D135,2*%
%TO.N,Net-(D134-Pad1)*%
X219760800Y-127838200D03*
%TD*%
D22*
%TO.P,D134,1*%
%TO.N,Net-(D134-Pad1)*%
X230555800Y-127838200D03*
D17*
%TO.P,D134,2*%
%TO.N,Net-(D134-Pad2)*%
X233095800Y-127838200D03*
%TD*%
D22*
%TO.P,D133,1*%
%TO.N,/LED26*%
X226745800Y-111836200D03*
D17*
%TO.P,D133,2*%
%TO.N,Net-(D132-Pad1)*%
X224205800Y-111836200D03*
%TD*%
D22*
%TO.P,D132,1*%
%TO.N,Net-(D132-Pad1)*%
X214757000Y-111810800D03*
D17*
%TO.P,D132,2*%
%TO.N,Net-(D132-Pad2)*%
X212217000Y-111810800D03*
%TD*%
D22*
%TO.P,D131,1*%
%TO.N,Net-(D130-Pad2)*%
X208762600Y-111836200D03*
D17*
%TO.P,D131,2*%
%TO.N,Net-(D129-Pad1)*%
X206222600Y-111836200D03*
%TD*%
D22*
%TO.P,D130,1*%
%TO.N,Net-(D125-Pad2)*%
X220751400Y-111836200D03*
D17*
%TO.P,D130,2*%
%TO.N,Net-(D130-Pad2)*%
X218211400Y-111836200D03*
%TD*%
D22*
%TO.P,D129,1*%
%TO.N,Net-(D129-Pad1)*%
X196748400Y-111836200D03*
D17*
%TO.P,D129,2*%
%TO.N,Net-(D129-Pad2)*%
X194208400Y-111836200D03*
%TD*%
D22*
%TO.P,D127,1*%
%TO.N,Net-(D127-Pad1)*%
X223901000Y-127838200D03*
D17*
%TO.P,D127,2*%
%TO.N,Net-(D127-Pad2)*%
X226441000Y-127838200D03*
%TD*%
D22*
%TO.P,D125,1*%
%TO.N,/LED2*%
X232740200Y-111861600D03*
D17*
%TO.P,D125,2*%
%TO.N,Net-(D125-Pad2)*%
X230200200Y-111861600D03*
%TD*%
%TA.AperFunction,ComponentPad*%
D16*
%TO.P,D124,1*%
%TO.N,/LED29*%
G36*
X183507493Y-115895724D02*
G01*
X185170476Y-115206893D01*
X185859307Y-116869876D01*
X184196324Y-117558707D01*
X183507493Y-115895724D01*
G37*
%TD.AperFunction*%
D17*
%TO.P,D124,2*%
%TO.N,Net-(D123-Pad1)*%
X185655416Y-118729454D03*
%TD*%
%TA.AperFunction,ComponentPad*%
D16*
%TO.P,D123,1*%
%TO.N,Net-(D123-Pad1)*%
G36*
X191970408Y-124587000D02*
G01*
X193243200Y-123314208D01*
X194515992Y-124587000D01*
X193243200Y-125859792D01*
X191970408Y-124587000D01*
G37*
%TD.AperFunction*%
D17*
%TO.P,D123,2*%
%TO.N,Net-(D113-Pad1)*%
X195039251Y-126383051D03*
%TD*%
%TA.AperFunction,ComponentPad*%
D16*
%TO.P,D122,1*%
%TO.N,Net-(D121-Pad2)*%
G36*
X92435076Y-125925693D02*
G01*
X93123907Y-127588676D01*
X91460924Y-128277507D01*
X90772093Y-126614524D01*
X92435076Y-125925693D01*
G37*
%TD.AperFunction*%
D17*
%TO.P,D122,2*%
%TO.N,Net-(D116-Pad1)*%
X89601346Y-128073616D03*
%TD*%
%TA.AperFunction,ComponentPad*%
D16*
%TO.P,D121,1*%
%TO.N,/LED1*%
G36*
X102133400Y-119859808D02*
G01*
X103406192Y-121132600D01*
X102133400Y-122405392D01*
X100860608Y-121132600D01*
X102133400Y-119859808D01*
G37*
%TD.AperFunction*%
D17*
%TO.P,D121,2*%
%TO.N,Net-(D121-Pad2)*%
X100337349Y-122928651D03*
%TD*%
D22*
%TO.P,D120,1*%
%TO.N,/LED27*%
X178765200Y-111836200D03*
D17*
%TO.P,D120,2*%
%TO.N,Net-(D119-Pad1)*%
X176225200Y-111836200D03*
%TD*%
D22*
%TO.P,D119,1*%
%TO.N,Net-(D119-Pad1)*%
X166725600Y-111836200D03*
D17*
%TO.P,D119,2*%
%TO.N,Net-(D118-Pad1)*%
X164185600Y-111836200D03*
%TD*%
D22*
%TO.P,D118,1*%
%TO.N,Net-(D118-Pad1)*%
X154736800Y-111836200D03*
D17*
%TO.P,D118,2*%
%TO.N,Net-(D118-Pad2)*%
X152196800Y-111836200D03*
%TD*%
D22*
%TO.P,D117,1*%
%TO.N,Net-(D116-Pad2)*%
X64414400Y-127838200D03*
D17*
%TO.P,D117,2*%
%TO.N,Net-(D117-Pad2)*%
X61874400Y-127838200D03*
%TD*%
D22*
%TO.P,D116,1*%
%TO.N,Net-(D116-Pad1)*%
X78816200Y-127812800D03*
D17*
%TO.P,D116,2*%
%TO.N,Net-(D116-Pad2)*%
X76276200Y-127812800D03*
%TD*%
%TA.AperFunction,ComponentPad*%
D16*
%TO.P,D115,1*%
%TO.N,/LED5*%
G36*
X187296808Y-120878600D02*
G01*
X188569600Y-119605808D01*
X189842392Y-120878600D01*
X188569600Y-122151392D01*
X187296808Y-120878600D01*
G37*
%TD.AperFunction*%
D17*
%TO.P,D115,2*%
%TO.N,Net-(D114-Pad1)*%
X190365651Y-122674651D03*
%TD*%
%TA.AperFunction,ComponentPad*%
D16*
%TO.P,D114,1*%
%TO.N,Net-(D114-Pad1)*%
G36*
X197477493Y-127512476D02*
G01*
X198166324Y-125849493D01*
X199829307Y-126538324D01*
X199140476Y-128201307D01*
X197477493Y-127512476D01*
G37*
%TD.AperFunction*%
D17*
%TO.P,D114,2*%
%TO.N,Net-(D114-Pad2)*%
X201000054Y-127997416D03*
%TD*%
D22*
%TO.P,D113,1*%
%TO.N,Net-(D113-Pad1)*%
X204546200Y-127838200D03*
D17*
%TO.P,D113,2*%
%TO.N,Net-(D113-Pad2)*%
X207086200Y-127838200D03*
%TD*%
%TA.AperFunction,ComponentPad*%
D16*
%TO.P,D112,1*%
%TO.N,Net-(D111-Pad2)*%
G36*
X97358200Y-123492008D02*
G01*
X98630992Y-124764800D01*
X97358200Y-126037592D01*
X96085408Y-124764800D01*
X97358200Y-123492008D01*
G37*
%TD.AperFunction*%
D17*
%TO.P,D112,2*%
%TO.N,Net-(D104-Pad1)*%
X95562149Y-126560851D03*
%TD*%
D22*
%TO.P,D111,1*%
%TO.N,/LED25*%
X105511600Y-116560600D03*
D17*
%TO.P,D111,2*%
%TO.N,Net-(D111-Pad2)*%
X105511600Y-119100600D03*
%TD*%
D22*
%TO.P,D110,1*%
%TO.N,Net-(D107-Pad2)*%
X160756600Y-111836200D03*
D17*
%TO.P,D110,2*%
%TO.N,Net-(D109-Pad1)*%
X158216600Y-111836200D03*
%TD*%
D22*
%TO.P,D109,1*%
%TO.N,Net-(D109-Pad1)*%
X148742400Y-111836200D03*
D17*
%TO.P,D109,2*%
%TO.N,Net-(D109-Pad2)*%
X146202400Y-111836200D03*
%TD*%
D22*
%TO.P,D108,1*%
%TO.N,/LED3*%
X184734200Y-111836200D03*
D17*
%TO.P,D108,2*%
%TO.N,Net-(D107-Pad1)*%
X182194200Y-111836200D03*
%TD*%
D22*
%TO.P,D107,1*%
%TO.N,Net-(D107-Pad1)*%
X172770800Y-111836200D03*
D17*
%TO.P,D107,2*%
%TO.N,Net-(D107-Pad2)*%
X170230800Y-111836200D03*
%TD*%
D22*
%TO.P,D106,1*%
%TO.N,Net-(D104-Pad2)*%
X71577200Y-127838200D03*
D17*
%TO.P,D106,2*%
%TO.N,Net-(D106-Pad2)*%
X69037200Y-127838200D03*
%TD*%
D22*
%TO.P,D105,1*%
%TO.N,/LED48*%
X146253200Y-101828600D03*
D17*
%TO.P,D105,2*%
%TO.N,Net-(D105-Pad2)*%
X148793200Y-101828600D03*
%TD*%
D22*
%TO.P,D104,1*%
%TO.N,Net-(D104-Pad1)*%
X86029800Y-127838200D03*
D17*
%TO.P,D104,2*%
%TO.N,Net-(D104-Pad2)*%
X83489800Y-127838200D03*
%TD*%
D22*
%TO.P,D103,1*%
%TO.N,Net-(D102-Pad2)*%
X94767400Y-111836200D03*
D17*
%TO.P,D103,2*%
%TO.N,Net-(D103-Pad2)*%
X92227400Y-111836200D03*
%TD*%
D22*
%TO.P,D102,1*%
%TO.N,/LED46*%
X106756200Y-111810800D03*
D17*
%TO.P,D102,2*%
%TO.N,Net-(D102-Pad2)*%
X104216200Y-111810800D03*
%TD*%
D22*
%TO.P,D101,1*%
%TO.N,/LED24*%
X141782800Y-105968800D03*
D17*
%TO.P,D101,2*%
%TO.N,Net-(D101-Pad2)*%
X144322800Y-105968800D03*
%TD*%
D22*
%TO.P,D100,1*%
%TO.N,Net-(D100-Pad1)*%
X112750600Y-111836200D03*
D17*
%TO.P,D100,2*%
%TO.N,Net-(D100-Pad2)*%
X110210600Y-111836200D03*
%TD*%
D22*
%TO.P,D98,1*%
%TO.N,/LED22*%
X100736400Y-111810800D03*
D17*
%TO.P,D98,2*%
%TO.N,Net-(D98-Pad2)*%
X98196400Y-111810800D03*
%TD*%
D22*
%TO.P,D97,1*%
%TO.N,/LED47*%
X142621000Y-111861600D03*
D17*
%TO.P,D97,2*%
%TO.N,Net-(D96-Pad1)*%
X140081000Y-111861600D03*
%TD*%
D22*
%TO.P,D96,1*%
%TO.N,Net-(D96-Pad1)*%
X130759200Y-111836200D03*
D17*
%TO.P,D96,2*%
%TO.N,Net-(D14-Pad1)*%
X128219200Y-111836200D03*
%TD*%
D22*
%TO.P,D95,1*%
%TO.N,Net-(D94-Pad2)*%
X70739000Y-111836200D03*
D17*
%TO.P,D95,2*%
%TO.N,Net-(D95-Pad2)*%
X68199000Y-111836200D03*
%TD*%
D22*
%TO.P,D94,1*%
%TO.N,/LED45*%
X82778600Y-111836200D03*
D17*
%TO.P,D94,2*%
%TO.N,Net-(D94-Pad2)*%
X80238600Y-111836200D03*
%TD*%
D22*
%TO.P,D93,1*%
%TO.N,/LED23*%
X136753600Y-111810800D03*
D17*
%TO.P,D93,2*%
%TO.N,Net-(D92-Pad1)*%
X134213600Y-111810800D03*
%TD*%
D22*
%TO.P,D92,1*%
%TO.N,Net-(D92-Pad1)*%
X124714000Y-111836200D03*
D17*
%TO.P,D92,2*%
%TO.N,Net-(D100-Pad1)*%
X122174000Y-111836200D03*
%TD*%
D22*
%TO.P,D91,1*%
%TO.N,Net-(D90-Pad2)*%
X64770000Y-111861600D03*
D17*
%TO.P,D91,2*%
%TO.N,Net-(D91-Pad2)*%
X62230000Y-111861600D03*
%TD*%
D22*
%TO.P,D90,1*%
%TO.N,/LED21*%
X76758800Y-111836200D03*
D17*
%TO.P,D90,2*%
%TO.N,Net-(D90-Pad2)*%
X74218800Y-111836200D03*
%TD*%
D22*
%TO.P,D89,1*%
%TO.N,/LED44*%
X226999800Y-95834200D03*
D17*
%TO.P,D89,2*%
%TO.N,Net-(D88-Pad1)*%
X224459800Y-95834200D03*
%TD*%
D22*
%TO.P,D88,1*%
%TO.N,Net-(D88-Pad1)*%
X214299800Y-95834200D03*
D17*
%TO.P,D88,2*%
%TO.N,Net-(D88-Pad2)*%
X211759800Y-95834200D03*
%TD*%
D22*
%TO.P,D87,1*%
%TO.N,/LED19*%
X208000600Y-95834200D03*
D17*
%TO.P,D87,2*%
%TO.N,Net-(D86-Pad1)*%
X205460600Y-95834200D03*
%TD*%
D22*
%TO.P,D86,1*%
%TO.N,Net-(D86-Pad1)*%
X195427600Y-95834200D03*
D17*
%TO.P,D86,2*%
%TO.N,Net-(D86-Pad2)*%
X192887600Y-95834200D03*
%TD*%
D22*
%TO.P,D85,1*%
%TO.N,/LED20*%
X233095800Y-95834200D03*
D17*
%TO.P,D85,2*%
%TO.N,Net-(D84-Pad1)*%
X230555800Y-95834200D03*
%TD*%
D22*
%TO.P,D84,1*%
%TO.N,Net-(D84-Pad1)*%
X220700600Y-95834200D03*
D17*
%TO.P,D84,2*%
%TO.N,Net-(D84-Pad2)*%
X218160600Y-95834200D03*
%TD*%
D22*
%TO.P,D83,1*%
%TO.N,/LED43*%
X201701400Y-95834200D03*
D17*
%TO.P,D83,2*%
%TO.N,Net-(D82-Pad1)*%
X199161400Y-95834200D03*
%TD*%
D22*
%TO.P,D82,1*%
%TO.N,Net-(D82-Pad1)*%
X189179200Y-95834200D03*
D17*
%TO.P,D82,2*%
%TO.N,Net-(D82-Pad2)*%
X186639200Y-95834200D03*
%TD*%
D22*
%TO.P,D81,1*%
%TO.N,Net-(D80-Pad2)*%
X203098400Y-79857600D03*
D17*
%TO.P,D81,2*%
%TO.N,Net-(D81-Pad2)*%
X200558400Y-79857600D03*
%TD*%
D22*
%TO.P,D80,1*%
%TO.N,Net-(D144-Pad2)*%
X215087200Y-79832200D03*
D17*
%TO.P,D80,2*%
%TO.N,Net-(D80-Pad2)*%
X212547200Y-79832200D03*
%TD*%
D22*
%TO.P,D79,1*%
%TO.N,Net-(D30-Pad2)*%
X201701400Y-63830200D03*
D17*
%TO.P,D79,2*%
%TO.N,Net-(D78-Pad1)*%
X199161400Y-63830200D03*
%TD*%
D22*
%TO.P,D78,1*%
%TO.N,Net-(D78-Pad1)*%
X189179200Y-63830200D03*
D17*
%TO.P,D78,2*%
%TO.N,Net-(D78-Pad2)*%
X186639200Y-63830200D03*
%TD*%
D22*
%TO.P,D77,1*%
%TO.N,Net-(D76-Pad2)*%
X197129400Y-79832200D03*
D17*
%TO.P,D77,2*%
%TO.N,Net-(D77-Pad2)*%
X194589400Y-79832200D03*
%TD*%
D22*
%TO.P,D76,1*%
%TO.N,Net-(D139-Pad2)*%
X209067400Y-79806800D03*
D17*
%TO.P,D76,2*%
%TO.N,Net-(D76-Pad2)*%
X206527400Y-79806800D03*
%TD*%
D22*
%TO.P,D75,1*%
%TO.N,Net-(D74-Pad2)*%
X195427600Y-63830200D03*
D17*
%TO.P,D75,2*%
%TO.N,Net-(D75-Pad2)*%
X192887600Y-63830200D03*
%TD*%
D22*
%TO.P,D74,1*%
%TO.N,Net-(D141-Pad2)*%
X208000600Y-63830200D03*
D17*
%TO.P,D74,2*%
%TO.N,Net-(D74-Pad2)*%
X205460600Y-63830200D03*
%TD*%
%TA.AperFunction,ComponentPad*%
D16*
%TO.P,D72,1*%
%TO.N,/LED13*%
G36*
X189359792Y-72440800D02*
G01*
X188087000Y-73713592D01*
X186814208Y-72440800D01*
X188087000Y-71168008D01*
X189359792Y-72440800D01*
G37*
%TD.AperFunction*%
D17*
%TO.P,D72,2*%
%TO.N,Net-(D72-Pad2)*%
X186290949Y-70644749D03*
%TD*%
%TA.AperFunction,ComponentPad*%
D16*
%TO.P,D71,1*%
%TO.N,Net-(D70-Pad2)*%
G36*
X183616600Y-89964008D02*
G01*
X184889392Y-91236800D01*
X183616600Y-92509592D01*
X182343808Y-91236800D01*
X183616600Y-89964008D01*
G37*
%TD.AperFunction*%
D17*
%TO.P,D71,2*%
%TO.N,Net-(D71-Pad2)*%
X181820549Y-93032851D03*
%TD*%
%TA.AperFunction,ComponentPad*%
D16*
%TO.P,D70,1*%
%TO.N,/LED38*%
G36*
X192455800Y-81861408D02*
G01*
X193728592Y-83134200D01*
X192455800Y-84406992D01*
X191183008Y-83134200D01*
X192455800Y-81861408D01*
G37*
%TD.AperFunction*%
D17*
%TO.P,D70,2*%
%TO.N,Net-(D70-Pad2)*%
X190659749Y-84930251D03*
%TD*%
%TA.AperFunction,ComponentPad*%
D16*
%TO.P,D69,1*%
%TO.N,Net-(D68-Pad2)*%
G36*
X184889392Y-68402200D02*
G01*
X183616600Y-69674992D01*
X182343808Y-68402200D01*
X183616600Y-67129408D01*
X184889392Y-68402200D01*
G37*
%TD.AperFunction*%
D17*
%TO.P,D69,2*%
%TO.N,Net-(D69-Pad2)*%
X181820549Y-66606149D03*
%TD*%
%TA.AperFunction,ComponentPad*%
D16*
%TO.P,D68,1*%
%TO.N,/LED37*%
G36*
X193728592Y-76530200D02*
G01*
X192455800Y-77802992D01*
X191183008Y-76530200D01*
X192455800Y-75257408D01*
X193728592Y-76530200D01*
G37*
%TD.AperFunction*%
D17*
%TO.P,D68,2*%
%TO.N,Net-(D68-Pad2)*%
X190659749Y-74734149D03*
%TD*%
%TA.AperFunction,ComponentPad*%
D16*
%TO.P,D67,1*%
%TO.N,Net-(D66-Pad2)*%
G36*
X117630192Y-84988400D02*
G01*
X116357400Y-86261192D01*
X115084608Y-84988400D01*
X116357400Y-83715608D01*
X117630192Y-84988400D01*
G37*
%TD.AperFunction*%
D17*
%TO.P,D67,2*%
%TO.N,Net-(D67-Pad2)*%
X114561349Y-83192349D03*
%TD*%
%TA.AperFunction,ComponentPad*%
D16*
%TO.P,D66,1*%
%TO.N,Net-(D61-Pad2)*%
G36*
X126575707Y-92146724D02*
G01*
X125886876Y-93809707D01*
X124223893Y-93120876D01*
X124912724Y-91457893D01*
X126575707Y-92146724D01*
G37*
%TD.AperFunction*%
D17*
%TO.P,D66,2*%
%TO.N,Net-(D66-Pad2)*%
X123053146Y-91661784D03*
%TD*%
%TA.AperFunction,ComponentPad*%
D16*
%TO.P,D64,1*%
%TO.N,/LED39*%
G36*
X173330996Y-94376330D02*
G01*
X173796870Y-96114996D01*
X172058204Y-96580870D01*
X171592330Y-94842204D01*
X173330996Y-94376330D01*
G37*
%TD.AperFunction*%
D17*
%TO.P,D64,2*%
%TO.N,Net-(D63-Pad1)*%
X170241148Y-96136000D03*
%TD*%
D22*
%TO.P,D63,1*%
%TO.N,Net-(D63-Pad1)*%
X160756600Y-95834200D03*
D17*
%TO.P,D63,2*%
%TO.N,Net-(D63-Pad2)*%
X158216600Y-95834200D03*
%TD*%
D22*
%TO.P,D62,1*%
%TO.N,/LED16*%
X142748000Y-95834200D03*
D17*
%TO.P,D62,2*%
%TO.N,Net-(D59-Pad1)*%
X140208000Y-95834200D03*
%TD*%
D22*
%TO.P,D61,1*%
%TO.N,Net-(D61-Pad1)*%
X136728200Y-95834200D03*
D17*
%TO.P,D61,2*%
%TO.N,Net-(D61-Pad2)*%
X134188200Y-95834200D03*
%TD*%
%TA.AperFunction,ComponentPad*%
D16*
%TO.P,D60,1*%
%TO.N,Net-(D59-Pad2)*%
G36*
X121948192Y-89027000D02*
G01*
X120675400Y-90299792D01*
X119402608Y-89027000D01*
X120675400Y-87754208D01*
X121948192Y-89027000D01*
G37*
%TD.AperFunction*%
D17*
%TO.P,D60,2*%
%TO.N,Net-(D60-Pad2)*%
X118879349Y-87230949D03*
%TD*%
D22*
%TO.P,D59,1*%
%TO.N,Net-(D59-Pad1)*%
X130810000Y-94945200D03*
D17*
%TO.P,D59,2*%
%TO.N,Net-(D59-Pad2)*%
X128270000Y-94945200D03*
%TD*%
%TA.AperFunction,ComponentPad*%
D16*
%TO.P,D58,1*%
%TO.N,/LED15*%
G36*
X178308000Y-92783408D02*
G01*
X179580792Y-94056200D01*
X178308000Y-95328992D01*
X177035208Y-94056200D01*
X178308000Y-92783408D01*
G37*
%TD.AperFunction*%
D17*
%TO.P,D58,2*%
%TO.N,Net-(D57-Pad1)*%
X176511949Y-95852251D03*
%TD*%
D22*
%TO.P,D57,1*%
%TO.N,Net-(D57-Pad1)*%
X166725600Y-95834200D03*
D17*
%TO.P,D57,2*%
%TO.N,Net-(D56-Pad1)*%
X164185600Y-95834200D03*
%TD*%
D22*
%TO.P,D56,1*%
%TO.N,Net-(D56-Pad1)*%
X154736800Y-95834200D03*
D17*
%TO.P,D56,2*%
%TO.N,Net-(D56-Pad2)*%
X152196800Y-95834200D03*
%TD*%
D22*
%TO.P,D55,1*%
%TO.N,/LED36*%
X172745400Y-63830200D03*
D17*
%TO.P,D55,2*%
%TO.N,Net-(D54-Pad1)*%
X170205400Y-63830200D03*
%TD*%
D22*
%TO.P,D54,1*%
%TO.N,Net-(D54-Pad1)*%
X160731200Y-63830200D03*
D17*
%TO.P,D54,2*%
%TO.N,Net-(D53-Pad1)*%
X158191200Y-63830200D03*
%TD*%
D22*
%TO.P,D53,1*%
%TO.N,Net-(D53-Pad1)*%
X148767800Y-63830200D03*
D17*
%TO.P,D53,2*%
%TO.N,Net-(D53-Pad2)*%
X146227800Y-63830200D03*
%TD*%
%TA.AperFunction,ComponentPad*%
D16*
%TO.P,D52,1*%
%TO.N,Net-(D51-Pad2)*%
G36*
X116382800Y-73352408D02*
G01*
X117655592Y-74625200D01*
X116382800Y-75897992D01*
X115110008Y-74625200D01*
X116382800Y-73352408D01*
G37*
%TD.AperFunction*%
D17*
%TO.P,D52,2*%
%TO.N,Net-(D52-Pad2)*%
X114586749Y-76421251D03*
%TD*%
%TA.AperFunction,ComponentPad*%
D16*
%TO.P,D51,1*%
%TO.N,Net-(D50-Pad2)*%
G36*
X125886876Y-65829293D02*
G01*
X126575707Y-67492276D01*
X124912724Y-68181107D01*
X124223893Y-66518124D01*
X125886876Y-65829293D01*
G37*
%TD.AperFunction*%
D17*
%TO.P,D51,2*%
%TO.N,Net-(D51-Pad2)*%
X123053146Y-67977216D03*
%TD*%
D22*
%TO.P,D50,1*%
%TO.N,/LED36*%
X136728200Y-63804800D03*
D17*
%TO.P,D50,2*%
%TO.N,Net-(D50-Pad2)*%
X134188200Y-63804800D03*
%TD*%
D22*
%TO.P,D48,1*%
%TO.N,Net-(D22-Pad2)*%
X166751000Y-63855600D03*
D17*
%TO.P,D48,2*%
%TO.N,Net-(D47-Pad1)*%
X164211000Y-63855600D03*
%TD*%
D22*
%TO.P,D47,1*%
%TO.N,Net-(D47-Pad1)*%
X154736800Y-63830200D03*
D17*
%TO.P,D47,2*%
%TO.N,Net-(D47-Pad2)*%
X152196800Y-63830200D03*
%TD*%
%TA.AperFunction,ComponentPad*%
D16*
%TO.P,D46,1*%
%TO.N,Net-(D45-Pad2)*%
G36*
X120700800Y-69313808D02*
G01*
X121973592Y-70586600D01*
X120700800Y-71859392D01*
X119428008Y-70586600D01*
X120700800Y-69313808D01*
G37*
%TD.AperFunction*%
D17*
%TO.P,D46,2*%
%TO.N,Net-(D46-Pad2)*%
X118904749Y-72382651D03*
%TD*%
D22*
%TO.P,D45,1*%
%TO.N,Net-(D44-Pad2)*%
X130784600Y-64719200D03*
D17*
%TO.P,D45,2*%
%TO.N,Net-(D45-Pad2)*%
X128244600Y-64719200D03*
%TD*%
D22*
%TO.P,D44,1*%
%TO.N,/LED12*%
X142773400Y-63855600D03*
D17*
%TO.P,D44,2*%
%TO.N,Net-(D44-Pad2)*%
X140233400Y-63855600D03*
%TD*%
D22*
%TO.P,D43,1*%
%TO.N,/LED34*%
X82397600Y-95834200D03*
D17*
%TO.P,D43,2*%
%TO.N,Net-(D41-Pad1)*%
X79857600Y-95834200D03*
%TD*%
D22*
%TO.P,D41,1*%
%TO.N,Net-(D41-Pad1)*%
X70383400Y-95834200D03*
D17*
%TO.P,D41,2*%
%TO.N,Net-(D41-Pad2)*%
X67843400Y-95834200D03*
%TD*%
D22*
%TO.P,D40,1*%
%TO.N,/LED10*%
X88392000Y-95834200D03*
D17*
%TO.P,D40,2*%
%TO.N,Net-(D39-Pad1)*%
X85852000Y-95834200D03*
%TD*%
D22*
%TO.P,D38,1*%
%TO.N,Net-(D38-Pad1)*%
X64389000Y-95834200D03*
D17*
%TO.P,D38,2*%
%TO.N,Net-(D38-Pad2)*%
X61849000Y-95834200D03*
%TD*%
D22*
%TO.P,D37,1*%
%TO.N,/LED33*%
X82372200Y-87833200D03*
D17*
%TO.P,D37,2*%
%TO.N,Net-(D35-Pad1)*%
X79832200Y-87833200D03*
%TD*%
D22*
%TO.P,D36,1*%
%TO.N,/LED41*%
X226999800Y-63830200D03*
D17*
%TO.P,D36,2*%
%TO.N,Net-(D30-Pad1)*%
X224459800Y-63830200D03*
%TD*%
D22*
%TO.P,D35,1*%
%TO.N,Net-(D35-Pad1)*%
X70408800Y-87807800D03*
D17*
%TO.P,D35,2*%
%TO.N,Net-(D35-Pad2)*%
X67868800Y-87807800D03*
%TD*%
D22*
%TO.P,D34,1*%
%TO.N,/LED9*%
X88392000Y-87833200D03*
D17*
%TO.P,D34,2*%
%TO.N,Net-(D33-Pad1)*%
X85852000Y-87833200D03*
%TD*%
D22*
%TO.P,D33,1*%
%TO.N,Net-(D33-Pad1)*%
X76403200Y-87858600D03*
D17*
%TO.P,D33,2*%
%TO.N,Net-(D32-Pad1)*%
X73863200Y-87858600D03*
%TD*%
D22*
%TO.P,D32,1*%
%TO.N,Net-(D32-Pad1)*%
X64414400Y-87807800D03*
D17*
%TO.P,D32,2*%
%TO.N,Net-(D32-Pad2)*%
X61874400Y-87807800D03*
%TD*%
D22*
%TO.P,D31,1*%
%TO.N,/LED32*%
X82397600Y-79832200D03*
D17*
%TO.P,D31,2*%
%TO.N,Net-(D29-Pad1)*%
X79857600Y-79832200D03*
%TD*%
D22*
%TO.P,D30,1*%
%TO.N,Net-(D30-Pad1)*%
X214299800Y-63830200D03*
D17*
%TO.P,D30,2*%
%TO.N,Net-(D30-Pad2)*%
X211759800Y-63830200D03*
%TD*%
D22*
%TO.P,D29,1*%
%TO.N,Net-(D29-Pad1)*%
X70383400Y-79857600D03*
D17*
%TO.P,D29,2*%
%TO.N,Net-(D29-Pad2)*%
X67843400Y-79857600D03*
%TD*%
D22*
%TO.P,D28,1*%
%TO.N,/LED8*%
X88392000Y-79857600D03*
D17*
%TO.P,D28,2*%
%TO.N,Net-(D27-Pad1)*%
X85852000Y-79857600D03*
%TD*%
D22*
%TO.P,D27,1*%
%TO.N,Net-(D27-Pad1)*%
X76352400Y-79857600D03*
D17*
%TO.P,D27,2*%
%TO.N,Net-(D26-Pad1)*%
X73812400Y-79857600D03*
%TD*%
D22*
%TO.P,D26,1*%
%TO.N,Net-(D26-Pad1)*%
X64389000Y-79857600D03*
D17*
%TO.P,D26,2*%
%TO.N,Net-(D26-Pad2)*%
X61849000Y-79857600D03*
%TD*%
D22*
%TO.P,D25,1*%
%TO.N,/LED35*%
X106375200Y-79857600D03*
D17*
%TO.P,D25,2*%
%TO.N,Net-(D24-Pad1)*%
X103835200Y-79857600D03*
%TD*%
D22*
%TO.P,D24,1*%
%TO.N,Net-(D24-Pad1)*%
X94386400Y-79857600D03*
D17*
%TO.P,D24,2*%
%TO.N,Net-(D24-Pad2)*%
X91846400Y-79857600D03*
%TD*%
D22*
%TO.P,D23,1*%
%TO.N,/LED31*%
X82397600Y-71831200D03*
D17*
%TO.P,D23,2*%
%TO.N,Net-(D21-Pad1)*%
X79857600Y-71831200D03*
%TD*%
D22*
%TO.P,D21,1*%
%TO.N,Net-(D21-Pad1)*%
X70383400Y-71856600D03*
D17*
%TO.P,D21,2*%
%TO.N,Net-(D21-Pad2)*%
X67843400Y-71856600D03*
%TD*%
D22*
%TO.P,D20,1*%
%TO.N,/LED7*%
X88392000Y-71856600D03*
D17*
%TO.P,D20,2*%
%TO.N,Net-(D19-Pad1)*%
X85852000Y-71856600D03*
%TD*%
D22*
%TO.P,D19,1*%
%TO.N,Net-(D19-Pad1)*%
X76403200Y-71831200D03*
D17*
%TO.P,D19,2*%
%TO.N,Net-(D18-Pad1)*%
X73863200Y-71831200D03*
%TD*%
D22*
%TO.P,D18,1*%
%TO.N,Net-(D18-Pad1)*%
X64363600Y-71856600D03*
D17*
%TO.P,D18,2*%
%TO.N,Net-(D18-Pad2)*%
X61823600Y-71856600D03*
%TD*%
D22*
%TO.P,D17,1*%
%TO.N,/LED11*%
X112293400Y-79832200D03*
D17*
%TO.P,D17,2*%
%TO.N,Net-(D16-Pad1)*%
X109753400Y-79832200D03*
%TD*%
D22*
%TO.P,D16,1*%
%TO.N,Net-(D16-Pad1)*%
X100380800Y-79857600D03*
D17*
%TO.P,D16,2*%
%TO.N,Net-(D16-Pad2)*%
X97840800Y-79857600D03*
%TD*%
D22*
%TO.P,D15,1*%
%TO.N,/LED30*%
X82397600Y-63830200D03*
D17*
%TO.P,D15,2*%
%TO.N,Net-(D13-Pad1)*%
X79857600Y-63830200D03*
%TD*%
D22*
%TO.P,D14,1*%
%TO.N,Net-(D14-Pad1)*%
X118770400Y-111810800D03*
D17*
%TO.P,D14,2*%
%TO.N,Net-(D14-Pad2)*%
X116230400Y-111810800D03*
%TD*%
D22*
%TO.P,D13,1*%
%TO.N,Net-(D13-Pad1)*%
X70383400Y-63830200D03*
D17*
%TO.P,D13,2*%
%TO.N,Net-(D13-Pad2)*%
X67843400Y-63830200D03*
%TD*%
D22*
%TO.P,D12,1*%
%TO.N,/LED6*%
X88366600Y-63830200D03*
D17*
%TO.P,D12,2*%
%TO.N,Net-(D11-Pad1)*%
X85826600Y-63830200D03*
%TD*%
D22*
%TO.P,D11,1*%
%TO.N,Net-(D11-Pad1)*%
X76403200Y-63830200D03*
D17*
%TO.P,D11,2*%
%TO.N,Net-(D10-Pad1)*%
X73863200Y-63830200D03*
%TD*%
D22*
%TO.P,D10,1*%
%TO.N,Net-(D10-Pad1)*%
X64389000Y-63830200D03*
D17*
%TO.P,D10,2*%
%TO.N,Net-(D10-Pad2)*%
X61849000Y-63830200D03*
%TD*%
D22*
%TO.P,D6,1*%
%TO.N,GND*%
X197078600Y-43840400D03*
D17*
%TO.P,D6,2*%
%TO.N,Net-(D5-Pad1)*%
X194538600Y-43840400D03*
%TD*%
D22*
%TO.P,D1,1*%
%TO.N,Net-(D1-Pad1)*%
X70383400Y-43815000D03*
D17*
%TO.P,D1,2*%
%TO.N,+12P*%
X67843400Y-43815000D03*
%TD*%
D18*
%TO.P,C4,1*%
%TO.N,GND*%
X133644000Y-41910000D03*
%TO.P,C4,2*%
%TO.N,+5V*%
X136144000Y-41910000D03*
%TD*%
%TO.P,C3,1*%
%TO.N,GND*%
X132842000Y-74208000D03*
%TO.P,C3,2*%
%TO.N,+5V*%
X132842000Y-76708000D03*
%TD*%
%TO.P,C2,1*%
%TO.N,GND*%
X158242000Y-74168000D03*
%TO.P,C2,2*%
%TO.N,+5V*%
X158242000Y-76668000D03*
%TD*%
%TO.P,C1,1*%
%TO.N,GND*%
X146558000Y-121158000D03*
%TO.P,C1,2*%
%TO.N,+5V*%
X146558000Y-118658000D03*
%TD*%
D10*
%TO.P,U13,1*%
%TO.N,EX1*%
X98958400Y-66319400D03*
D11*
%TO.P,U13,9*%
%TO.N,Net-(U13-Pad9)*%
X106578400Y-48539400D03*
%TO.P,U13,2*%
%TO.N,EX2*%
X98958400Y-63779400D03*
%TO.P,U13,10*%
%TO.N,Net-(U13-Pad10)*%
X106578400Y-51079400D03*
%TO.P,U13,3*%
%TO.N,EX3*%
X98958400Y-61239400D03*
%TO.P,U13,11*%
%TO.N,/LED30*%
X106578400Y-53619400D03*
%TO.P,U13,4*%
%TO.N,EX4*%
X98958400Y-58699400D03*
%TO.P,U13,12*%
%TO.N,/LED6*%
X106578400Y-56159400D03*
%TO.P,U13,5*%
%TO.N,EX5*%
X98958400Y-56159400D03*
%TO.P,U13,13*%
%TO.N,/LED31*%
X106578400Y-58699400D03*
%TO.P,U13,6*%
%TO.N,EX6*%
X98958400Y-53619400D03*
%TO.P,U13,14*%
%TO.N,/LED7*%
X106578400Y-61239400D03*
%TO.P,U13,7*%
%TO.N,Net-(U13-Pad7)*%
X98958400Y-51079400D03*
%TO.P,U13,15*%
%TO.N,/LED32*%
X106578400Y-63779400D03*
%TO.P,U13,8*%
%TO.N,GND*%
X98958400Y-48539400D03*
%TO.P,U13,16*%
%TO.N,/LED8*%
X106578400Y-66319400D03*
%TD*%
D12*
%TO.P,U12,1*%
%TO.N,Net-(U12-Pad1)*%
X188976000Y-49631600D03*
D13*
%TO.P,U12,9*%
%TO.N,Net-(U12-Pad9)*%
X206756000Y-57251600D03*
%TO.P,U12,2*%
%TO.N,Net-(U12-Pad2)*%
X191516000Y-49631600D03*
%TO.P,U12,10*%
%TO.N,RST*%
X204216000Y-57251600D03*
%TO.P,U12,3*%
%TO.N,Net-(U12-Pad3)*%
X194056000Y-49631600D03*
%TO.P,U12,11*%
%TO.N,DCLK*%
X201676000Y-57251600D03*
%TO.P,U12,4*%
%TO.N,Net-(U12-Pad4)*%
X196596000Y-49631600D03*
%TO.P,U12,12*%
%TO.N,DLAT*%
X199136000Y-57251600D03*
%TO.P,U12,5*%
%TO.N,Net-(U12-Pad5)*%
X199136000Y-49631600D03*
%TO.P,U12,13*%
%TO.N,GND*%
X196596000Y-57251600D03*
%TO.P,U12,6*%
%TO.N,Net-(U12-Pad6)*%
X201676000Y-49631600D03*
%TO.P,U12,14*%
%TO.N,Net-(U11-Pad9)*%
X194056000Y-57251600D03*
%TO.P,U12,7*%
%TO.N,EX6*%
X204216000Y-49631600D03*
%TO.P,U12,15*%
%TO.N,Net-(U12-Pad15)*%
X191516000Y-57251600D03*
%TO.P,U12,8*%
%TO.N,GND*%
X206756000Y-49631600D03*
%TO.P,U12,16*%
%TO.N,+5V*%
X188976000Y-57251600D03*
%TD*%
D12*
%TO.P,U11,1*%
%TO.N,Net-(U11-Pad1)*%
X160782000Y-69342000D03*
D13*
%TO.P,U11,9*%
%TO.N,Net-(U11-Pad9)*%
X178562000Y-76962000D03*
%TO.P,U11,2*%
%TO.N,Net-(U11-Pad2)*%
X163322000Y-69342000D03*
%TO.P,U11,10*%
%TO.N,RST*%
X176022000Y-76962000D03*
%TO.P,U11,3*%
%TO.N,Net-(U11-Pad3)*%
X165862000Y-69342000D03*
%TO.P,U11,11*%
%TO.N,DCLK*%
X173482000Y-76962000D03*
%TO.P,U11,4*%
%TO.N,Net-(U11-Pad4)*%
X168402000Y-69342000D03*
%TO.P,U11,12*%
%TO.N,DLAT*%
X170942000Y-76962000D03*
%TO.P,U11,5*%
%TO.N,Net-(U11-Pad5)*%
X170942000Y-69342000D03*
%TO.P,U11,13*%
%TO.N,GND*%
X168402000Y-76962000D03*
%TO.P,U11,6*%
%TO.N,Net-(U11-Pad6)*%
X173482000Y-69342000D03*
%TO.P,U11,14*%
%TO.N,Net-(U10-Pad9)*%
X165862000Y-76962000D03*
%TO.P,U11,7*%
%TO.N,EX5*%
X176022000Y-69342000D03*
%TO.P,U11,15*%
%TO.N,Net-(U11-Pad15)*%
X163322000Y-76962000D03*
%TO.P,U11,8*%
%TO.N,GND*%
X178562000Y-69342000D03*
%TO.P,U11,16*%
%TO.N,+5V*%
X160782000Y-76962000D03*
%TD*%
D12*
%TO.P,U10,1*%
%TO.N,Net-(U10-Pad1)*%
X134747000Y-52400200D03*
D13*
%TO.P,U10,9*%
%TO.N,Net-(U10-Pad9)*%
X116967000Y-44780200D03*
%TO.P,U10,2*%
%TO.N,Net-(U10-Pad2)*%
X132207000Y-52400200D03*
%TO.P,U10,10*%
%TO.N,RST*%
X119507000Y-44780200D03*
%TO.P,U10,3*%
%TO.N,Net-(U10-Pad3)*%
X129667000Y-52400200D03*
%TO.P,U10,11*%
%TO.N,DCLK*%
X122047000Y-44780200D03*
%TO.P,U10,4*%
%TO.N,Net-(U10-Pad4)*%
X127127000Y-52400200D03*
%TO.P,U10,12*%
%TO.N,DLAT*%
X124587000Y-44780200D03*
%TO.P,U10,5*%
%TO.N,Net-(U10-Pad5)*%
X124587000Y-52400200D03*
%TO.P,U10,13*%
%TO.N,GND*%
X127127000Y-44780200D03*
%TO.P,U10,6*%
%TO.N,Net-(U10-Pad6)*%
X122047000Y-52400200D03*
%TO.P,U10,14*%
%TO.N,Net-(U10-Pad14)*%
X129667000Y-44780200D03*
%TO.P,U10,7*%
%TO.N,EX4*%
X119507000Y-52400200D03*
%TO.P,U10,15*%
%TO.N,Net-(U10-Pad15)*%
X132207000Y-44780200D03*
%TO.P,U10,8*%
%TO.N,GND*%
X116967000Y-52400200D03*
%TO.P,U10,16*%
%TO.N,+5V*%
X134747000Y-44780200D03*
%TD*%
D12*
%TO.P,U9,1*%
%TO.N,Net-(U12-Pad15)*%
X213791800Y-49631600D03*
D13*
%TO.P,U9,9*%
%TO.N,Net-(U9-Pad9)*%
X231571800Y-57251600D03*
%TO.P,U9,2*%
%TO.N,Net-(U12-Pad1)*%
X216331800Y-49631600D03*
%TO.P,U9,10*%
%TO.N,/LED37*%
X229031800Y-57251600D03*
%TO.P,U9,3*%
%TO.N,Net-(U12-Pad2)*%
X218871800Y-49631600D03*
%TO.P,U9,11*%
%TO.N,/LED13*%
X226491800Y-57251600D03*
%TO.P,U9,4*%
%TO.N,Net-(U12-Pad3)*%
X221411800Y-49631600D03*
%TO.P,U9,12*%
%TO.N,/LED41*%
X223951800Y-57251600D03*
%TO.P,U9,5*%
%TO.N,Net-(U12-Pad4)*%
X223951800Y-49631600D03*
%TO.P,U9,13*%
%TO.N,/LED17*%
X221411800Y-57251600D03*
%TO.P,U9,6*%
%TO.N,Net-(U12-Pad5)*%
X226491800Y-49631600D03*
%TO.P,U9,14*%
%TO.N,/LED42*%
X218871800Y-57251600D03*
%TO.P,U9,7*%
%TO.N,Net-(U12-Pad6)*%
X229031800Y-49631600D03*
%TO.P,U9,15*%
%TO.N,/LED18*%
X216331800Y-57251600D03*
%TO.P,U9,8*%
%TO.N,GND*%
X231571800Y-49631600D03*
%TO.P,U9,16*%
%TO.N,/LED43*%
X213791800Y-57251600D03*
%TD*%
D22*
%TO.P,D128,1*%
%TO.N,/LED4*%
X210566000Y-127838200D03*
D17*
%TO.P,D128,2*%
%TO.N,Net-(D127-Pad1)*%
X213106000Y-127838200D03*
%TD*%
D22*
%TO.P,D99,1*%
%TO.N,Net-(D98-Pad2)*%
X88747600Y-111836200D03*
D17*
%TO.P,D99,2*%
%TO.N,Net-(D99-Pad2)*%
X86207600Y-111836200D03*
%TD*%
%TA.AperFunction,ComponentPad*%
D16*
%TO.P,D73,1*%
%TO.N,/LED14*%
G36*
X188087000Y-85950808D02*
G01*
X189359792Y-87223600D01*
X188087000Y-88496392D01*
X186814208Y-87223600D01*
X188087000Y-85950808D01*
G37*
%TD.AperFunction*%
D17*
%TO.P,D73,2*%
%TO.N,Net-(D73-Pad2)*%
X186290949Y-89019651D03*
%TD*%
D22*
%TO.P,D65,1*%
%TO.N,/LED40*%
X148767800Y-95834200D03*
D17*
%TO.P,D65,2*%
%TO.N,Net-(D61-Pad1)*%
X146227800Y-95834200D03*
%TD*%
D22*
%TO.P,D39,1*%
%TO.N,Net-(D39-Pad1)*%
X76403200Y-95834200D03*
D17*
%TO.P,D39,2*%
%TO.N,Net-(D38-Pad1)*%
X73863200Y-95834200D03*
%TD*%
D18*
%TO.P,C6,1*%
%TO.N,GND*%
X210312000Y-53634000D03*
%TO.P,C6,2*%
%TO.N,+5V*%
X210312000Y-56134000D03*
%TD*%
%TO.P,C5,1*%
%TO.N,GND*%
X179070000Y-121372000D03*
%TO.P,C5,2*%
%TO.N,+5V*%
X179070000Y-118872000D03*
%TD*%
D15*
%TO.P,J2,1*%
%TO.N,+12P*%
X118516400Y-134010400D03*
D14*
%TO.P,J2,2*%
%TO.N,DATA*%
X118516400Y-131470400D03*
%TO.P,J2,3*%
%TO.N,DCLK*%
X121056400Y-134010400D03*
%TO.P,J2,4*%
%TO.N,RST*%
X121056400Y-131470400D03*
%TO.P,J2,5*%
%TO.N,DLAT*%
X123596400Y-134010400D03*
%TO.P,J2,6*%
%TO.N,Net-(J2-Pad6)*%
X123596400Y-131470400D03*
%TO.P,J2,7*%
%TO.N,Net-(J2-Pad7)*%
X126136400Y-134010400D03*
%TO.P,J2,8*%
%TO.N,GND*%
X126136400Y-131470400D03*
%TO.P,J2,9*%
%TO.N,Net-(J2-Pad9)*%
X128676400Y-134010400D03*
%TO.P,J2,10*%
%TO.N,/LED Aux/AUX2*%
X128676400Y-131470400D03*
%TO.P,J2,11*%
%TO.N,/LED Aux/AUX1*%
X131216400Y-134010400D03*
%TO.P,J2,12*%
%TO.N,+5V*%
X131216400Y-131470400D03*
%TD*%
D22*
%TO.P,D2,1*%
%TO.N,Net-(D2-Pad1)*%
X88366600Y-43815000D03*
D17*
%TO.P,D2,2*%
%TO.N,+12P*%
X85826600Y-43815000D03*
%TD*%
%TO.P,D3,2*%
%TO.N,Net-(D3-Pad2)*%
X164566600Y-43840400D03*
D22*
%TO.P,D3,1*%
%TO.N,Net-(D3-Pad1)*%
X167106600Y-43840400D03*
%TD*%
%TO.P,D4,1*%
%TO.N,Net-(D4-Pad1)*%
X177139600Y-43815000D03*
D17*
%TO.P,D4,2*%
%TO.N,Net-(D3-Pad1)*%
X174599600Y-43815000D03*
%TD*%
%TO.P,D5,2*%
%TO.N,Net-(D4-Pad1)*%
X184556400Y-43840400D03*
D22*
%TO.P,D5,1*%
%TO.N,Net-(D5-Pad1)*%
X187096400Y-43840400D03*
%TD*%
%TO.P,D7,1*%
%TO.N,Net-(D7-Pad1)*%
X207111600Y-43840400D03*
D17*
%TO.P,D7,2*%
%TO.N,Net-(D7-Pad2)*%
X204571600Y-43840400D03*
%TD*%
%TO.P,D8,2*%
%TO.N,Net-(D7-Pad1)*%
X214579200Y-43840400D03*
D22*
%TO.P,D8,1*%
%TO.N,Net-(D8-Pad1)*%
X217119200Y-43840400D03*
%TD*%
%TO.P,D9,1*%
%TO.N,GND*%
X227101400Y-43840400D03*
D17*
%TO.P,D9,2*%
%TO.N,Net-(D8-Pad1)*%
X224561400Y-43840400D03*
%TD*%
D23*
%TO.P,SW1,3*%
%TO.N,+5V*%
X90370800Y-50596800D03*
%TO.P,SW1,4*%
%TO.N,/Panel Display Buttons/PB-AUX1*%
X90370800Y-55096800D03*
%TO.P,SW1,1*%
%TO.N,+5V*%
X83870800Y-50596800D03*
%TO.P,SW1,2*%
%TO.N,/Panel Display Buttons/PB-AUX1*%
X83870800Y-55096800D03*
%TD*%
%TO.P,SW2,3*%
%TO.N,+5V*%
X72362200Y-50596800D03*
%TO.P,SW2,4*%
%TO.N,/Panel Display Buttons/PB-AUX2*%
X72362200Y-55096800D03*
%TO.P,SW2,1*%
%TO.N,+5V*%
X65862200Y-50596800D03*
%TO.P,SW2,2*%
%TO.N,/Panel Display Buttons/PB-AUX2*%
X65862200Y-55096800D03*
%TD*%
%TO.P,SW3,2*%
%TO.N,/Panel Display Buttons/PB-FY*%
X57865400Y-83083400D03*
%TO.P,SW3,1*%
%TO.N,+5V*%
X53365400Y-83083400D03*
%TO.P,SW3,4*%
%TO.N,/Panel Display Buttons/PB-FY*%
X57865400Y-76583400D03*
%TO.P,SW3,3*%
%TO.N,+5V*%
X53365400Y-76583400D03*
%TD*%
%TO.P,SW4,2*%
%TO.N,/Panel Display Buttons/PB-MLW*%
X57865400Y-115087400D03*
%TO.P,SW4,1*%
%TO.N,+5V*%
X53365400Y-115087400D03*
%TO.P,SW4,4*%
%TO.N,/Panel Display Buttons/PB-MLW*%
X57865400Y-108587400D03*
%TO.P,SW4,3*%
%TO.N,+5V*%
X53365400Y-108587400D03*
%TD*%
%TO.P,SW5,3*%
%TO.N,+5V*%
X53365400Y-124589400D03*
%TO.P,SW5,4*%
%TO.N,/Panel Display Buttons/PB-DK*%
X57865400Y-124589400D03*
%TO.P,SW5,1*%
%TO.N,+5V*%
X53365400Y-131089400D03*
%TO.P,SW5,2*%
%TO.N,/Panel Display Buttons/PB-DK*%
X57865400Y-131089400D03*
%TD*%
%TO.P,SW6,2*%
%TO.N,/Panel Display Buttons/PB-GS*%
X241482000Y-67056000D03*
%TO.P,SW6,1*%
%TO.N,+5V*%
X236982000Y-67056000D03*
%TO.P,SW6,4*%
%TO.N,/Panel Display Buttons/PB-GS*%
X241482000Y-60556000D03*
%TO.P,SW6,3*%
%TO.N,+5V*%
X236982000Y-60556000D03*
%TD*%
%TO.P,SW7,3*%
%TO.N,+5V*%
X236982000Y-76608800D03*
%TO.P,SW7,4*%
%TO.N,/Panel Display Buttons/PB-PL1*%
X241482000Y-76608800D03*
%TO.P,SW7,1*%
%TO.N,+5V*%
X236982000Y-83108800D03*
%TO.P,SW7,2*%
%TO.N,/Panel Display Buttons/PB-PL1*%
X241482000Y-83108800D03*
%TD*%
%TO.P,SW8,2*%
%TO.N,/Panel Display Buttons/PB-PL2*%
X241482000Y-99060000D03*
%TO.P,SW8,1*%
%TO.N,+5V*%
X236982000Y-99060000D03*
%TO.P,SW8,4*%
%TO.N,/Panel Display Buttons/PB-PL2*%
X241482000Y-92560000D03*
%TO.P,SW8,3*%
%TO.N,+5V*%
X236982000Y-92560000D03*
%TD*%
%TO.P,SW9,2*%
%TO.N,/Panel Display Buttons/PB-MLE*%
X241482000Y-115112800D03*
%TO.P,SW9,1*%
%TO.N,+5V*%
X236982000Y-115112800D03*
%TO.P,SW9,4*%
%TO.N,/Panel Display Buttons/PB-MLE*%
X241482000Y-108612800D03*
%TO.P,SW9,3*%
%TO.N,+5V*%
X236982000Y-108612800D03*
%TD*%
%TO.P,SW10,3*%
%TO.N,+5V*%
X236982000Y-124614800D03*
%TO.P,SW10,4*%
%TO.N,/Panel Display Buttons/PB-SD*%
X241482000Y-124614800D03*
%TO.P,SW10,1*%
%TO.N,+5V*%
X236982000Y-131114800D03*
%TO.P,SW10,2*%
%TO.N,/Panel Display Buttons/PB-SD*%
X241482000Y-131114800D03*
%TD*%
D24*
%TO.N,+12P*%
X188722000Y-67310000D03*
%TO.N,/Panel Display Buttons/PB-DK*%
X136372600Y-138938000D03*
X126766649Y-135749205D03*
%TO.N,/Panel Display Buttons/PB-MLW*%
X136423400Y-140258800D03*
X130479800Y-136499600D03*
%TO.N,/Panel Display Buttons/PB-AUX2*%
X146253200Y-107924600D03*
X66421000Y-98729800D03*
%TO.N,/Panel Display Buttons/PB-AUX1*%
X94742000Y-107848400D03*
X144523504Y-109467177D03*
%TO.N,GND*%
X180086000Y-56642000D03*
X158750000Y-121335800D03*
X102643166Y-108573410D03*
X115556190Y-125349000D03*
X111658400Y-103936800D03*
%TO.N,/LED Aux/AUX2*%
X115062000Y-128955800D03*
X76428600Y-103632000D03*
X111590240Y-106742390D03*
%TO.N,/LED Aux/AUX1*%
X111607600Y-105283000D03*
X77495400Y-103022400D03*
X115556190Y-127863600D03*
%TO.N,+5V*%
X69378990Y-76458660D03*
X179537736Y-50087583D03*
X133604000Y-48514000D03*
X175006000Y-115925600D03*
%TO.N,/LED2*%
X229616000Y-86106000D03*
%TO.N,/LED29*%
X207949497Y-124845660D03*
%TO.N,/LED3*%
X154736800Y-107289600D03*
%TO.N,/LED26*%
X228092000Y-86106000D03*
%TO.N,/LED27*%
X162077400Y-109397800D03*
%TO.N,/LED5*%
X208665660Y-124083660D03*
%TO.N,/LED15*%
X178308000Y-86360000D03*
%TO.N,/LED13*%
X190131122Y-62099042D03*
%TO.N,/LED12*%
X181864000Y-63754000D03*
%TO.N,/LED23*%
X114960400Y-134950200D03*
X116281200Y-114401600D03*
%TO.N,/LED22*%
X70942200Y-119278400D03*
%TO.N,/LED31*%
X85344000Y-66802000D03*
%TO.N,/LED35*%
X103124000Y-88392000D03*
%TO.N,/LED36*%
X99568000Y-71196200D03*
%TO.N,DCLK*%
X176022000Y-58928000D03*
X128270000Y-42164000D03*
X133567010Y-71496272D03*
%TO.N,RST*%
X177292000Y-59690000D03*
X152400000Y-54864000D03*
%TO.N,DLAT*%
X175514000Y-57912000D03*
X138176000Y-46228000D03*
X175564800Y-114427000D03*
X166700200Y-115239800D03*
%TO.N,Net-(U1-Pad1)*%
X136702800Y-137160000D03*
%TO.N,EX1*%
X110921800Y-86106000D03*
X96723200Y-82981800D03*
X118948200Y-124053600D03*
%TO.N,EX2*%
X101092000Y-71628000D03*
%TO.N,Net-(U10-Pad14)*%
X138607800Y-84658200D03*
X125907800Y-74980800D03*
X122148600Y-56667400D03*
X130276600Y-55803800D03*
%TO.N,EX3*%
X108712000Y-116941600D03*
X103657400Y-57251600D03*
%TO.N,Net-(U10-Pad15)*%
X111798098Y-45683010D03*
%TO.N,Net-(U10-Pad1)*%
X111506000Y-50292000D03*
%TO.N,Net-(U10-Pad2)*%
X111760000Y-51562000D03*
%TO.N,Net-(U10-Pad3)*%
X113030000Y-52578000D03*
%TO.N,Net-(U10-Pad4)*%
X114300000Y-53340000D03*
%TO.N,Net-(U10-Pad5)*%
X115567362Y-53949600D03*
%TO.N,Net-(U12-Pad15)*%
X192278000Y-46736000D03*
%TO.N,Net-(U10-Pad9)*%
X175768000Y-55118000D03*
%TO.N,Net-(U11-Pad9)*%
X181610000Y-55118000D03*
%TO.N,EX5*%
X101161579Y-70451059D03*
%TO.N,EX6*%
X104648000Y-44450000D03*
%TO.N,Net-(D35-Pad2)*%
X60198000Y-84836000D03*
%TD*%
D25*
%TO.N,Net-(D1-Pad1)*%
X67322700Y-40754300D02*
X70383400Y-43815000D01*
X62636400Y-40754300D02*
X67322700Y-40754300D01*
%TO.N,+12P*%
X221157800Y-117652800D02*
X221792800Y-118287800D01*
X217944700Y-117652800D02*
X221157800Y-117652800D01*
X207637599Y-119842499D02*
X204470000Y-116674900D01*
X210266499Y-119842499D02*
X207637599Y-119842499D01*
X211836000Y-121412000D02*
X210266499Y-119842499D01*
X200177400Y-120967500D02*
X204470000Y-116674900D01*
X198691500Y-120967500D02*
X200177400Y-120967500D01*
X214185500Y-121412000D02*
X217944700Y-117652800D01*
X211836000Y-121412000D02*
X214185500Y-121412000D01*
X218038899Y-102471001D02*
X219163900Y-101346000D01*
X205849001Y-102471001D02*
X218038899Y-102471001D01*
X204724000Y-101346000D02*
X205849001Y-102471001D01*
X191167001Y-100220999D02*
X181592001Y-100220999D01*
X204724000Y-101346000D02*
X203598999Y-102471001D01*
X193417003Y-102471001D02*
X191167001Y-100220999D01*
X203598999Y-102471001D02*
X193417003Y-102471001D01*
X181592001Y-100220999D02*
X180467000Y-101346000D01*
X176466500Y-101346000D02*
X176225200Y-101104700D01*
X180467000Y-101346000D02*
X176466500Y-101346000D01*
X169811700Y-101104700D02*
X166077900Y-104838500D01*
X176225200Y-101104700D02*
X169811700Y-101104700D01*
X162687000Y-104838500D02*
X162661600Y-104863900D01*
X166077900Y-104838500D02*
X162687000Y-104838500D01*
X202615800Y-68427600D02*
X206819500Y-72631300D01*
X201244200Y-68427600D02*
X202615800Y-68427600D01*
X218503288Y-71068988D02*
X220078300Y-72644000D01*
X208381812Y-71068988D02*
X218503288Y-71068988D01*
X206819500Y-72631300D02*
X208381812Y-71068988D01*
X185140600Y-49123600D02*
X185166000Y-49098200D01*
X182626000Y-49123600D02*
X185140600Y-49123600D01*
X199726601Y-66910001D02*
X201244200Y-68427600D01*
X189121999Y-66910001D02*
X199726601Y-66910001D01*
X188722000Y-67310000D02*
X189121999Y-66910001D01*
X141587001Y-56532999D02*
X140462000Y-57658000D01*
X167022999Y-56532999D02*
X141587001Y-56532999D01*
X168148000Y-57658000D02*
X167022999Y-56532999D01*
X124968000Y-57658000D02*
X123952000Y-58674000D01*
X140462000Y-57658000D02*
X124968000Y-57658000D01*
X168148000Y-57658000D02*
X174301004Y-57658000D01*
X181826001Y-50133003D02*
X181826001Y-49923599D01*
X181826001Y-49923599D02*
X182626000Y-49123600D01*
X174301004Y-57658000D02*
X181826001Y-50133003D01*
X55727600Y-49301400D02*
X55905400Y-49479200D01*
X53390800Y-49301400D02*
X55727600Y-49301400D01*
X58394600Y-49479200D02*
X58470800Y-49403000D01*
X55905400Y-49479200D02*
X58394600Y-49479200D01*
X59867800Y-48006000D02*
X60858400Y-48006000D01*
X58470800Y-49403000D02*
X59867800Y-48006000D01*
X63195200Y-48006000D02*
X63271400Y-47929800D01*
X60858400Y-48006000D02*
X63195200Y-48006000D01*
X67386200Y-43815000D02*
X67843400Y-43815000D01*
X63271400Y-47929800D02*
X67386200Y-43815000D01*
X54356000Y-62484000D02*
X57658000Y-62484000D01*
X75441198Y-43815000D02*
X85826600Y-43815000D01*
X74216197Y-45040001D02*
X75441198Y-43815000D01*
X69068401Y-45040001D02*
X74216197Y-45040001D01*
X67843400Y-43815000D02*
X69068401Y-45040001D01*
X61976000Y-99060000D02*
X64008000Y-101092000D01*
X57912000Y-99060000D02*
X61976000Y-99060000D01*
X77360999Y-102217001D02*
X78486000Y-101092000D01*
X65133001Y-102217001D02*
X77360999Y-102217001D01*
X64008000Y-101092000D02*
X65133001Y-102217001D01*
X87077001Y-72777899D02*
X84251800Y-75603100D01*
X87077001Y-71268599D02*
X87077001Y-72777899D01*
X86414601Y-70606199D02*
X87077001Y-71268599D01*
X78339197Y-70606199D02*
X86414601Y-70606199D01*
X74425997Y-66692999D02*
X78339197Y-70606199D01*
X63074001Y-63242199D02*
X63074001Y-64900203D01*
X62315802Y-62484000D02*
X63074001Y-63242199D01*
X57658000Y-62484000D02*
X62315802Y-62484000D01*
X63074001Y-64900203D02*
X64866797Y-66692999D01*
X64866797Y-66692999D02*
X74425997Y-66692999D01*
X84505800Y-117132100D02*
X84493100Y-117144800D01*
X86779100Y-117132100D02*
X84505800Y-117132100D01*
X108864400Y-134010400D02*
X118516400Y-134010400D01*
X105003600Y-130149600D02*
X108864400Y-134010400D01*
X81484270Y-121285000D02*
X79883000Y-121285000D01*
X84493100Y-117144800D02*
X84493100Y-118276170D01*
X84493100Y-118276170D02*
X81484270Y-121285000D01*
X121666000Y-105321100D02*
X128054100Y-105321100D01*
X115176300Y-98831400D02*
X121666000Y-105321100D01*
%TO.N,Net-(D2-Pad1)*%
X91617800Y-40563800D02*
X88366600Y-43815000D01*
X92976700Y-40563800D02*
X91617800Y-40563800D01*
%TO.N,Net-(D3-Pad1)*%
X167132000Y-43815000D02*
X167106600Y-43840400D01*
X174599600Y-43815000D02*
X167132000Y-43815000D01*
%TO.N,Net-(D4-Pad1)*%
X177165000Y-43840400D02*
X177139600Y-43815000D01*
X184556400Y-43840400D02*
X177165000Y-43840400D01*
%TO.N,Net-(D5-Pad1)*%
X194538600Y-43840400D02*
X187096400Y-43840400D01*
%TO.N,Net-(D7-Pad1)*%
X214579200Y-43840400D02*
X207111600Y-43840400D01*
%TO.N,Net-(D8-Pad1)*%
X224561400Y-43840400D02*
X217119200Y-43840400D01*
%TO.N,Net-(D10-Pad1)*%
X65614001Y-62605199D02*
X64389000Y-63830200D01*
X72638199Y-62605199D02*
X65614001Y-62605199D01*
X73863200Y-63830200D02*
X72638199Y-62605199D01*
%TO.N,Net-(D11-Pad1)*%
X84601599Y-62605199D02*
X77628201Y-62605199D01*
X77628201Y-62605199D02*
X76403200Y-63830200D01*
X85826600Y-63830200D02*
X84601599Y-62605199D01*
%TO.N,Net-(D13-Pad1)*%
X71608401Y-65055201D02*
X70383400Y-63830200D01*
X78632599Y-65055201D02*
X71608401Y-65055201D01*
X79857600Y-63830200D02*
X78632599Y-65055201D01*
%TO.N,Net-(D16-Pad1)*%
X108553799Y-78632599D02*
X109753400Y-79832200D01*
X101605801Y-78632599D02*
X108553799Y-78632599D01*
X100380800Y-79857600D02*
X101605801Y-78632599D01*
%TO.N,Net-(D18-Pad1)*%
X72612799Y-73081601D02*
X73863200Y-71831200D01*
X65588601Y-73081601D02*
X72612799Y-73081601D01*
X64363600Y-71856600D02*
X65588601Y-73081601D01*
%TO.N,Net-(D19-Pad1)*%
X77628201Y-73056201D02*
X84652399Y-73056201D01*
X84652399Y-73056201D02*
X85852000Y-71856600D01*
X76403200Y-71831200D02*
X77628201Y-73056201D01*
%TO.N,Net-(D21-Pad1)*%
X71633801Y-70606199D02*
X77702787Y-70606199D01*
X70383400Y-71856600D02*
X71633801Y-70606199D01*
X77702787Y-70606199D02*
X78927788Y-71831200D01*
X78927788Y-71831200D02*
X79857600Y-71831200D01*
%TO.N,Net-(D24-Pad1)*%
X102610199Y-81082601D02*
X103835200Y-79857600D01*
X95611401Y-81082601D02*
X102610199Y-81082601D01*
X94386400Y-79857600D02*
X95611401Y-81082601D01*
%TO.N,Net-(D26-Pad1)*%
X72587399Y-81082601D02*
X73812400Y-79857600D01*
X65614001Y-81082601D02*
X72587399Y-81082601D01*
X64389000Y-79857600D02*
X65614001Y-81082601D01*
%TO.N,Net-(D27-Pad1)*%
X84652399Y-81057201D02*
X85852000Y-79857600D01*
X77552001Y-81057201D02*
X84652399Y-81057201D01*
X76352400Y-79857600D02*
X77552001Y-81057201D01*
%TO.N,Net-(D29-Pad1)*%
X78657999Y-78632599D02*
X79857600Y-79832200D01*
X71608401Y-78632599D02*
X78657999Y-78632599D01*
X70383400Y-79857600D02*
X71608401Y-78632599D01*
%TO.N,Net-(D32-Pad1)*%
X72688999Y-89032801D02*
X73863200Y-87858600D01*
X65639401Y-89032801D02*
X72688999Y-89032801D01*
X64414400Y-87807800D02*
X65639401Y-89032801D01*
%TO.N,Net-(D33-Pad1)*%
X84626999Y-89058201D02*
X85852000Y-87833200D01*
X77602801Y-89058201D02*
X84626999Y-89058201D01*
X76403200Y-87858600D02*
X77602801Y-89058201D01*
%TO.N,Net-(D35-Pad1)*%
X78632599Y-86633599D02*
X79832200Y-87833200D01*
X71583001Y-86633599D02*
X78632599Y-86633599D01*
X70408800Y-87807800D02*
X71583001Y-86633599D01*
%TO.N,Net-(D38-Pad1)*%
X72638199Y-94609199D02*
X65614001Y-94609199D01*
X65614001Y-94609199D02*
X64389000Y-95834200D01*
X73863200Y-95834200D02*
X72638199Y-94609199D01*
%TO.N,Net-(D39-Pad1)*%
X77628201Y-94609199D02*
X76403200Y-95834200D01*
X84626999Y-94609199D02*
X77628201Y-94609199D01*
X85852000Y-95834200D02*
X84626999Y-94609199D01*
%TO.N,Net-(D41-Pad1)*%
X78632599Y-97059201D02*
X71608401Y-97059201D01*
X71608401Y-97059201D02*
X70383400Y-95834200D01*
X79857600Y-95834200D02*
X78632599Y-97059201D01*
%TO.N,/Panel Display Buttons/PB-GS*%
X239450000Y-69088000D02*
X232918000Y-69088000D01*
X241482000Y-67056000D02*
X239450000Y-69088000D01*
%TO.N,/Panel Display Buttons/PB-SD*%
X237779779Y-134817021D02*
X191398900Y-134817021D01*
X162704990Y-125626006D02*
X162704990Y-127357994D01*
X180645012Y-127445054D02*
X180645012Y-118161011D01*
X179380980Y-116896979D02*
X168894017Y-116896979D01*
X168894017Y-116896979D02*
X167495010Y-118295986D01*
X167495010Y-118295986D02*
X167495010Y-120835986D01*
X180645012Y-118161011D02*
X179380980Y-116896979D01*
X191398900Y-134817021D02*
X191390801Y-134808922D01*
X170198799Y-130320799D02*
X171373800Y-131495800D01*
X191390801Y-134808922D02*
X188008880Y-134808922D01*
X162704990Y-127357994D02*
X165667795Y-130320799D01*
X165667795Y-130320799D02*
X170198799Y-130320799D01*
X188008880Y-134808922D02*
X180645012Y-127445054D01*
X167495010Y-120835986D02*
X162704990Y-125626006D01*
X241482000Y-131114800D02*
X237779779Y-134817021D01*
%TO.N,/Panel Display Buttons/PB-DK*%
X57865400Y-124159400D02*
X57865400Y-124589400D01*
X55372000Y-121666000D02*
X57865400Y-124159400D01*
X142449801Y-132860799D02*
X136372600Y-138938000D01*
X168833800Y-134035800D02*
X167658799Y-132860799D01*
X167658799Y-132860799D02*
X142449801Y-132860799D01*
X57865400Y-131089400D02*
X62825589Y-136049589D01*
X126466265Y-136049589D02*
X126766649Y-135749205D01*
X62825589Y-136049589D02*
X126466265Y-136049589D01*
%TO.N,/Panel Display Buttons/PB-MLW*%
X59872000Y-117094000D02*
X60706000Y-117094000D01*
X57865400Y-115087400D02*
X59872000Y-117094000D01*
X167094798Y-131495800D02*
X168459797Y-132860799D01*
X166293800Y-131495800D02*
X167094798Y-131495800D01*
X169397801Y-132860799D02*
X170008801Y-133471799D01*
X168459797Y-132860799D02*
X169397801Y-132860799D01*
X170008801Y-134599801D02*
X168007402Y-136601200D01*
X170008801Y-133471799D02*
X170008801Y-134599801D01*
X168007402Y-136601200D02*
X140081000Y-136601200D01*
X140081000Y-136601200D02*
X136423400Y-140258800D01*
X130479800Y-136499600D02*
X60172600Y-136499600D01*
X54690401Y-122649403D02*
X54246999Y-122206001D01*
X54246999Y-118705801D02*
X57865400Y-115087400D01*
X54690401Y-131017401D02*
X54690401Y-122649403D01*
X54246999Y-122206001D02*
X54246999Y-118705801D01*
X60172600Y-136499600D02*
X54690401Y-131017401D01*
%TO.N,/Panel Display Buttons/PB-AUX2*%
X65862200Y-55096800D02*
X72362200Y-55096800D01*
X139789112Y-106896112D02*
X139789112Y-104594699D01*
X139789112Y-104594699D02*
X138940501Y-103746088D01*
X138940501Y-103746088D02*
X137376112Y-103746088D01*
X140817600Y-107924600D02*
X139789112Y-106896112D01*
X146253200Y-107924600D02*
X140817600Y-107924600D01*
X131336423Y-97706399D02*
X103877805Y-97706399D01*
X93081196Y-98729800D02*
X66421000Y-98729800D01*
X137376112Y-103746088D02*
X131336423Y-97706399D01*
X103877805Y-97706399D02*
X98833794Y-102750410D01*
X97101806Y-102750410D02*
X93081196Y-98729800D01*
X98833794Y-102750410D02*
X97101806Y-102750410D01*
%TO.N,/Panel Display Buttons/PB-AUX1*%
X83870800Y-55096800D02*
X90370800Y-55096800D01*
X139339101Y-104781099D02*
X139339101Y-107082512D01*
X137674099Y-104196099D02*
X138754101Y-104196099D01*
X141723766Y-109467177D02*
X144523504Y-109467177D01*
X139339101Y-107082512D02*
X141723766Y-109467177D01*
X94742000Y-107848400D02*
X134021798Y-107848400D01*
X138754101Y-104196099D02*
X139339101Y-104781099D01*
X134021798Y-107848400D02*
X137674099Y-104196099D01*
%TO.N,GND*%
X227569400Y-53634000D02*
X231571800Y-49631600D01*
X210312000Y-53634000D02*
X227569400Y-53634000D01*
X227330000Y-69088000D02*
X231140000Y-72898000D01*
X222758000Y-69088000D02*
X227330000Y-69088000D01*
X171410000Y-121372000D02*
X179070000Y-121372000D01*
X168910000Y-118872000D02*
X171410000Y-121372000D01*
X174245010Y-78487010D02*
X176022000Y-80264000D01*
X169927010Y-78487010D02*
X174245010Y-78487010D01*
X168402000Y-76962000D02*
X169927010Y-78487010D01*
X194620979Y-59226621D02*
X196596000Y-57251600D01*
X188323606Y-59226621D02*
X194620979Y-59226621D01*
X185738985Y-56642000D02*
X188323606Y-59226621D01*
X180086000Y-56642000D02*
X185738985Y-56642000D01*
X165608000Y-74168000D02*
X158242000Y-74168000D01*
X168402000Y-76962000D02*
X165608000Y-74168000D01*
X143527021Y-78683021D02*
X143002000Y-78158000D01*
X149041021Y-78683021D02*
X143527021Y-78683021D01*
X143002000Y-78158000D02*
X143002000Y-76708000D01*
X150622000Y-80264000D02*
X149041021Y-78683021D01*
X140502000Y-74208000D02*
X132842000Y-74208000D01*
X143002000Y-76708000D02*
X140502000Y-74208000D01*
X74595799Y-40139199D02*
X79610799Y-40139199D01*
X74028300Y-40706698D02*
X74595799Y-40139199D01*
X79610799Y-40139199D02*
X80695800Y-41224200D01*
X74028300Y-43180000D02*
X74028300Y-40706698D01*
X88900000Y-67818000D02*
X91948000Y-70866000D01*
X77216000Y-67818000D02*
X88900000Y-67818000D01*
X70104000Y-117094000D02*
X70866000Y-117094000D01*
X65532000Y-121666000D02*
X70104000Y-117094000D01*
X136398000Y-118872000D02*
X137923010Y-117346990D01*
X142892990Y-119737994D02*
X144312996Y-121158000D01*
X142233974Y-117346990D02*
X142892990Y-118006006D01*
X142892990Y-118006006D02*
X142892990Y-119737994D01*
X144312996Y-121158000D02*
X146558000Y-121158000D01*
X137923010Y-117346990D02*
X142233974Y-117346990D01*
X146558000Y-121158000D02*
X158572200Y-121158000D01*
X158572200Y-121158000D02*
X158750000Y-121335800D01*
X94373992Y-108553396D02*
X94394006Y-108573410D01*
X70866000Y-117094000D02*
X72041801Y-118269801D01*
X77585814Y-115557088D02*
X81442714Y-115557088D01*
X81442714Y-115557088D02*
X84003601Y-112996201D01*
X87677402Y-108553396D02*
X94373992Y-108553396D01*
X84003601Y-112996201D02*
X84003601Y-112227197D01*
X74873101Y-118269801D02*
X77585814Y-115557088D01*
X94394006Y-108573410D02*
X102643166Y-108573410D01*
X72041801Y-118269801D02*
X74873101Y-118269801D01*
X84003601Y-112227197D02*
X87677402Y-108553396D01*
X116699190Y-126492000D02*
X115556190Y-125349000D01*
X126238000Y-126492000D02*
X116699190Y-126492000D01*
X105816400Y-103936800D02*
X105587800Y-104165400D01*
X111658400Y-103936800D02*
X105816400Y-103936800D01*
%TO.N,/LED Aux/AUX2*%
X128676400Y-131470400D02*
X126161800Y-128955800D01*
X126161800Y-128955800D02*
X115062000Y-128955800D01*
X76828599Y-104031999D02*
X79265588Y-104031999D01*
X82378198Y-107144609D02*
X94423587Y-107144609D01*
X94423587Y-107144609D02*
X94470198Y-107097998D01*
X76428600Y-103632000D02*
X76828599Y-104031999D01*
X94470198Y-107097998D02*
X111234632Y-107097998D01*
X111234632Y-107097998D02*
X111590240Y-106742390D01*
X79265588Y-104031999D02*
X82378198Y-107144609D01*
%TO.N,/LED Aux/AUX1*%
X81305400Y-59105800D02*
X81318100Y-59118500D01*
X78905100Y-59105800D02*
X81305400Y-59105800D01*
X82405001Y-106535001D02*
X78892400Y-103022400D01*
X110598221Y-106292379D02*
X94969606Y-106292379D01*
X94726984Y-106535001D02*
X82405001Y-106535001D01*
X78892400Y-103022400D02*
X77495400Y-103022400D01*
X111607600Y-105283000D02*
X110598221Y-106292379D01*
X94969606Y-106292379D02*
X94726984Y-106535001D01*
X115956189Y-128263599D02*
X115556190Y-127863600D01*
X129851401Y-132645401D02*
X129851401Y-130906399D01*
X131216400Y-134010400D02*
X129851401Y-132645401D01*
X129851401Y-130906399D02*
X127208601Y-128263599D01*
X127208601Y-128263599D02*
X115956189Y-128263599D01*
%TO.N,+5V*%
X190893599Y-55334001D02*
X188976000Y-57251600D01*
X209512001Y-55334001D02*
X190893599Y-55334001D01*
X210312000Y-56134000D02*
X209512001Y-55334001D01*
X211169421Y-55276579D02*
X231702579Y-55276579D01*
X235982001Y-59556001D02*
X236982000Y-60556000D01*
X210312000Y-56134000D02*
X211169421Y-55276579D01*
X231702579Y-55276579D02*
X235982001Y-59556001D01*
X160488000Y-76668000D02*
X160782000Y-76962000D01*
X158242000Y-76668000D02*
X160488000Y-76668000D01*
X132842000Y-76708000D02*
X135382000Y-76708000D01*
X65862200Y-50596800D02*
X72362200Y-50596800D01*
X72362200Y-50596800D02*
X83870800Y-50596800D01*
X83870800Y-50596800D02*
X90370800Y-50596800D01*
X55033139Y-74915661D02*
X67835991Y-74915661D01*
X53365400Y-76583400D02*
X55033139Y-74915661D01*
X67835991Y-74915661D02*
X69378990Y-76458660D01*
X148913992Y-50487582D02*
X179137737Y-50487582D01*
X179137737Y-50487582D02*
X179537736Y-50087583D01*
X143206610Y-44780200D02*
X148913992Y-50487582D01*
X134747000Y-44780200D02*
X143206610Y-44780200D01*
X91013210Y-49954390D02*
X110319610Y-49954390D01*
X90370800Y-50596800D02*
X91013210Y-49954390D01*
X110319610Y-49954390D02*
X111760000Y-48514000D01*
X111760000Y-48514000D02*
X133604000Y-48514000D01*
X144018000Y-118872000D02*
X146344000Y-118872000D01*
X146344000Y-118872000D02*
X146558000Y-118658000D01*
X148297010Y-120397010D02*
X164295994Y-120397010D01*
X164295994Y-120397010D02*
X165201600Y-119491404D01*
X146558000Y-118658000D02*
X148297010Y-120397010D01*
X167325396Y-115925600D02*
X175006000Y-115925600D01*
X165201600Y-119491404D02*
X165201600Y-118049396D01*
X165201600Y-118049396D02*
X167325396Y-115925600D01*
X176530000Y-118872000D02*
X179070000Y-118872000D01*
%TO.N,Net-(Q2-Pad1)*%
X82816700Y-41695170D02*
X82816700Y-40563800D01*
X82202669Y-42309201D02*
X82816700Y-41695170D01*
X76700801Y-42309201D02*
X82202669Y-42309201D01*
X75615800Y-41224200D02*
X76700801Y-42309201D01*
%TO.N,/LED1*%
X102133400Y-123655393D02*
X102133400Y-121132600D01*
X93445190Y-133146800D02*
X99828977Y-126763013D01*
X83439000Y-133146800D02*
X93445190Y-133146800D01*
X99828977Y-126763013D02*
X99828977Y-125959814D01*
X99828977Y-125959814D02*
X102133400Y-123655393D01*
%TO.N,/LED6*%
X89542410Y-62654390D02*
X88366600Y-63830200D01*
X100083410Y-62654390D02*
X89542410Y-62654390D01*
X106578400Y-56159400D02*
X100083410Y-62654390D01*
%TO.N,/LED2*%
X141788979Y-82239021D02*
X181792568Y-82239021D01*
X183455600Y-80575989D02*
X193520188Y-80575989D01*
X225042611Y-81532611D02*
X229616000Y-86106000D01*
X140462000Y-83566000D02*
X141788979Y-82239021D01*
X194476808Y-81532611D02*
X225042611Y-81532611D01*
X140462000Y-87884000D02*
X140462000Y-83566000D01*
X193520188Y-80575989D02*
X194476808Y-81532611D01*
X181792568Y-82239021D02*
X183455600Y-80575989D01*
%TO.N,/LED25*%
X82424010Y-134671810D02*
X84321347Y-134671810D01*
X84321347Y-134671810D02*
X84547599Y-134445558D01*
X92782842Y-134445558D02*
X100278988Y-126949412D01*
X84547599Y-134445558D02*
X92782842Y-134445558D01*
X80899000Y-133146800D02*
X82424010Y-134671810D01*
X106736601Y-116635601D02*
X106661600Y-116560600D01*
X100278988Y-126146214D02*
X106736601Y-119688601D01*
X106736601Y-119688601D02*
X106736601Y-116635601D01*
X106661600Y-116560600D02*
X105511600Y-116560600D01*
X100278988Y-126949412D02*
X100278988Y-126146214D01*
%TO.N,/LED29*%
X189012612Y-123899652D02*
X190953652Y-123899652D01*
X206093035Y-122989198D02*
X207949497Y-124845660D01*
X184683400Y-116382800D02*
X183994570Y-117071630D01*
X190953652Y-123899652D02*
X191864106Y-122989198D01*
X191864106Y-122989198D02*
X206093035Y-122989198D01*
X183994570Y-118881610D02*
X189012612Y-123899652D01*
X183994570Y-117071630D02*
X183994570Y-118881610D01*
%TO.N,/LED3*%
X184734200Y-110686200D02*
X184734200Y-111836200D01*
X175697899Y-103713499D02*
X177761499Y-103713499D01*
X177761499Y-103713499D02*
X184734200Y-110686200D01*
X172121798Y-107289600D02*
X175697899Y-103713499D01*
X154736800Y-107289600D02*
X172121798Y-107289600D01*
%TO.N,/LED26*%
X143002000Y-86434000D02*
X146746969Y-82689031D01*
X143002000Y-87884000D02*
X143002000Y-86434000D01*
X146746969Y-82689031D02*
X181978969Y-82689031D01*
X181978969Y-82689031D02*
X183642000Y-81026000D01*
X223968622Y-81982622D02*
X228092000Y-86106000D01*
X193333788Y-81026000D02*
X194290409Y-81982622D01*
X194290409Y-81982622D02*
X223968622Y-81982622D01*
X183642000Y-81026000D02*
X193333788Y-81026000D01*
%TO.N,/LED27*%
X176326800Y-109397800D02*
X178765200Y-111836200D01*
X162077400Y-109397800D02*
X176326800Y-109397800D01*
%TO.N,/LED5*%
X188569600Y-120878600D02*
X190382602Y-120878600D01*
X192043189Y-122539187D02*
X207121187Y-122539187D01*
X190382602Y-120878600D02*
X192043189Y-122539187D01*
X207121187Y-122539187D02*
X208665660Y-124083660D01*
%TO.N,/LED28*%
X206757010Y-134367010D02*
X205232000Y-132842000D01*
X213317994Y-134367010D02*
X206757010Y-134367010D01*
X217220800Y-130464204D02*
X213317994Y-134367010D01*
X217220800Y-127838200D02*
X217220800Y-130464204D01*
%TO.N,/LED8*%
X95315201Y-78632599D02*
X89617001Y-78632599D01*
X106578400Y-66319400D02*
X104437611Y-68460189D01*
X100951607Y-68460189D02*
X98741398Y-70670398D01*
X98741398Y-75206402D02*
X95315201Y-78632599D01*
X98741398Y-70670398D02*
X98741398Y-75206402D01*
X89617001Y-78632599D02*
X88392000Y-79857600D01*
X104437611Y-68460189D02*
X100951607Y-68460189D01*
%TO.N,/LED7*%
X88526401Y-71991001D02*
X88392000Y-71856600D01*
X106578400Y-61239400D02*
X100384633Y-67433167D01*
X100278800Y-67433167D02*
X99310167Y-68401800D01*
X99310167Y-68507633D02*
X95826799Y-71991001D01*
X95826799Y-71991001D02*
X88526401Y-71991001D01*
X100384633Y-67433167D02*
X100278800Y-67433167D01*
X99310167Y-68401800D02*
X99310167Y-68507633D01*
%TO.N,/LED16*%
X147452801Y-96422201D02*
X146815801Y-97059201D01*
X147452801Y-94818601D02*
X147452801Y-96422201D01*
X168402000Y-87884000D02*
X166876990Y-89409010D01*
X166876990Y-89409010D02*
X154030792Y-89409010D01*
X143973001Y-97059201D02*
X142748000Y-95834200D01*
X154030792Y-89409010D02*
X150585001Y-92854801D01*
X150585001Y-92854801D02*
X149416601Y-92854801D01*
X149416601Y-92854801D02*
X147452801Y-94818601D01*
X146815801Y-97059201D02*
X143973001Y-97059201D01*
%TO.N,/LED15*%
X178306990Y-86358990D02*
X178308000Y-86360000D01*
X163322000Y-87884000D02*
X164847010Y-86358990D01*
X164847010Y-86358990D02*
X178306990Y-86358990D01*
%TO.N,/LED14*%
X190098828Y-87223600D02*
X188087000Y-87223600D01*
X194053602Y-83268826D02*
X190098828Y-87223600D01*
X161167991Y-83508009D02*
X189632578Y-83508009D01*
X194053602Y-82999574D02*
X194053602Y-83268826D01*
X158242000Y-87884000D02*
X158242000Y-86434000D01*
X191604189Y-81536398D02*
X192590426Y-81536398D01*
X158242000Y-86434000D02*
X161167991Y-83508009D01*
X189632578Y-83508009D02*
X191604189Y-81536398D01*
X192590426Y-81536398D02*
X194053602Y-82999574D01*
%TO.N,/LED13*%
X226491800Y-57251600D02*
X226491800Y-55801600D01*
X213325806Y-55726590D02*
X206953354Y-62099042D01*
X226416790Y-55726590D02*
X213325806Y-55726590D01*
X226491800Y-55801600D02*
X226416790Y-55726590D01*
X206953354Y-62099042D02*
X190131122Y-62099042D01*
%TO.N,/LED12*%
X181864000Y-63754000D02*
X180416200Y-65201800D01*
X180416200Y-65201800D02*
X178587400Y-65201800D01*
X177309835Y-65505212D02*
X144423012Y-65505212D01*
X178587400Y-65201800D02*
X177613247Y-65201800D01*
X177613247Y-65201800D02*
X177309835Y-65505212D01*
X144423012Y-65505212D02*
X142773400Y-63855600D01*
%TO.N,/LED11*%
X97967800Y-88925400D02*
X101081370Y-88925400D01*
X101081370Y-88925400D02*
X102531381Y-87475389D01*
X122895796Y-79320794D02*
X113954806Y-79320794D01*
X118042576Y-81570796D02*
X122895796Y-81570796D01*
X113443400Y-79832200D02*
X112293400Y-79832200D01*
X111830972Y-87782400D02*
X118042576Y-81570796D01*
X123480796Y-79905794D02*
X122895796Y-79320794D01*
X113954806Y-79320794D02*
X113443400Y-79832200D01*
X123480796Y-80985796D02*
X123480796Y-79905794D01*
X103227383Y-87475389D02*
X103534394Y-87782400D01*
X103534394Y-87782400D02*
X111830972Y-87782400D01*
X122895796Y-81570796D02*
X123480796Y-80985796D01*
X102531381Y-87475389D02*
X103227383Y-87475389D01*
%TO.N,/LED10*%
X96139000Y-95834200D02*
X97967800Y-94005400D01*
X88392000Y-95834200D02*
X96139000Y-95834200D01*
%TO.N,/LED17*%
X228042210Y-58776610D02*
X233095800Y-63830200D01*
X222936810Y-58776610D02*
X228042210Y-58776610D01*
X221411800Y-57251600D02*
X222936810Y-58776610D01*
%TO.N,/LED23*%
X84694147Y-135571832D02*
X84920399Y-135345580D01*
X84920399Y-135345580D02*
X95173422Y-135345580D01*
X70624033Y-135571832D02*
X84694147Y-135571832D01*
X68199000Y-133146800D02*
X70624033Y-135571832D01*
X95173422Y-135345580D02*
X114565020Y-135345580D01*
X114565020Y-135345580D02*
X114960400Y-134950200D01*
X135053188Y-113511212D02*
X136753600Y-111810800D01*
X116511188Y-113511212D02*
X135053188Y-113511212D01*
X116281200Y-114401600D02*
X116281200Y-113741200D01*
X116281200Y-113741200D02*
X116511188Y-113511212D01*
%TO.N,/LED22*%
X100736400Y-114999802D02*
X100736400Y-111810800D01*
X97479101Y-118257101D02*
X100736400Y-114999802D01*
X96399099Y-118257101D02*
X97479101Y-118257101D01*
X94149097Y-116007099D02*
X96399099Y-118257101D01*
X74500913Y-119278400D02*
X77772214Y-116007099D01*
X70942200Y-119278400D02*
X74500913Y-119278400D01*
X77772214Y-116007099D02*
X94149097Y-116007099D01*
%TO.N,/LED30*%
X83622601Y-65055201D02*
X82397600Y-63830200D01*
X86414601Y-65055201D02*
X83622601Y-65055201D01*
X87051601Y-64418201D02*
X86414601Y-65055201D01*
X97317408Y-52494390D02*
X87051601Y-62760197D01*
X105453390Y-52494390D02*
X97317408Y-52494390D01*
X87051601Y-62760197D02*
X87051601Y-64418201D01*
X106578400Y-53619400D02*
X105453390Y-52494390D01*
%TO.N,/LED31*%
X87090799Y-65055201D02*
X85344000Y-66802000D01*
X106578400Y-58699400D02*
X100222599Y-65055201D01*
X100222599Y-65055201D02*
X87090799Y-65055201D01*
%TO.N,/LED32*%
X94021114Y-74478099D02*
X87751701Y-74478099D01*
X100465200Y-67883178D02*
X99760178Y-68588200D01*
X87751701Y-74478099D02*
X82397600Y-79832200D01*
X106578400Y-63779400D02*
X102474622Y-67883178D01*
X102474622Y-67883178D02*
X100465200Y-67883178D01*
X99760178Y-68588200D02*
X99760178Y-68739035D01*
X99760178Y-68739035D02*
X94021114Y-74478099D01*
%TO.N,/LED34*%
X97453999Y-97059201D02*
X97967800Y-96545400D01*
X83622601Y-97059201D02*
X97453999Y-97059201D01*
X82397600Y-95834200D02*
X83622601Y-97059201D01*
%TO.N,/LED35*%
X100050600Y-91465400D02*
X97967800Y-91465400D01*
X103124000Y-88392000D02*
X100050600Y-91465400D01*
%TO.N,/LED36*%
X137202412Y-62180588D02*
X136728200Y-62654800D01*
X172745400Y-63830200D02*
X172745400Y-62680200D01*
X149781001Y-62180588D02*
X137202412Y-62180588D01*
X149927598Y-62033991D02*
X149781001Y-62180588D01*
X136728200Y-62654800D02*
X136728200Y-63804800D01*
X172099191Y-62033991D02*
X149927598Y-62033991D01*
X172745400Y-62680200D02*
X172099191Y-62033991D01*
X112862003Y-62026801D02*
X105292804Y-69596000D01*
X136728200Y-62654800D02*
X136100201Y-62026801D01*
X105292804Y-69596000D02*
X100602515Y-69596000D01*
X100602515Y-69596000D02*
X99568000Y-70630515D01*
X136100201Y-62026801D02*
X112862003Y-62026801D01*
X99568000Y-70630515D02*
X99568000Y-71196200D01*
%TO.N,/LED37*%
X234320801Y-62540601D02*
X229031800Y-57251600D01*
X234320801Y-64990201D02*
X234320801Y-62540601D01*
X234255801Y-65055201D02*
X234320801Y-64990201D01*
X225125797Y-65055201D02*
X234255801Y-65055201D01*
X221632999Y-72754303D02*
X221632999Y-68547999D01*
X220618301Y-73769001D02*
X221632999Y-72754303D01*
X217288297Y-71518999D02*
X219538299Y-73769001D01*
X208793299Y-72103999D02*
X209378299Y-71518999D01*
X204901800Y-76530200D02*
X208793299Y-72638701D01*
X192455800Y-76530200D02*
X204901800Y-76530200D01*
X208793299Y-72638701D02*
X208793299Y-72103999D01*
X219538299Y-73769001D02*
X220618301Y-73769001D01*
X221632999Y-68547999D02*
X225125797Y-65055201D01*
X209378299Y-71518999D02*
X217288297Y-71518999D01*
%TO.N,/LED38*%
X190642797Y-83134200D02*
X189818978Y-83958020D01*
X164707980Y-83958020D02*
X160782000Y-87884000D01*
X189818978Y-83958020D02*
X164707980Y-83958020D01*
X192455800Y-83134200D02*
X190642797Y-83134200D01*
%TO.N,/LED40*%
X149756814Y-93695186D02*
X148767800Y-94684200D01*
X170942000Y-89334000D02*
X166580814Y-93695186D01*
X170942000Y-87884000D02*
X170942000Y-89334000D01*
X166580814Y-93695186D02*
X149756814Y-93695186D01*
X148767800Y-94684200D02*
X148767800Y-95834200D01*
%TO.N,/LED33*%
X99492810Y-93539406D02*
X99492810Y-100100390D01*
X98833794Y-92880390D02*
X99492810Y-93539406D01*
X97391786Y-92880390D02*
X98833794Y-92880390D01*
X91119595Y-86608199D02*
X97391786Y-92880390D01*
X83597201Y-86608199D02*
X91119595Y-86608199D01*
X99492810Y-100100390D02*
X97967800Y-101625400D01*
X82372200Y-87833200D02*
X83597201Y-86608199D01*
%TO.N,/LED46*%
X70739000Y-133146800D02*
X72714021Y-135121821D01*
X106756200Y-112960800D02*
X106756200Y-111810800D01*
X72714021Y-135121821D02*
X84507747Y-135121821D01*
X84733999Y-134895569D02*
X92969241Y-134895569D01*
X107186612Y-113391212D02*
X106756200Y-112960800D01*
X84507747Y-135121821D02*
X84733999Y-134895569D01*
X100728999Y-127135811D02*
X100728999Y-126332614D01*
X92969241Y-134895569D02*
X100728999Y-127135811D01*
X107186612Y-119875001D02*
X107186612Y-113391212D01*
X100728999Y-126332614D02*
X107186612Y-119875001D01*
%TO.N,Net-(D44-Pad2)*%
X131934600Y-64719200D02*
X130784600Y-64719200D01*
X132695212Y-65479812D02*
X131934600Y-64719200D01*
X138609188Y-65479812D02*
X132695212Y-65479812D01*
X140233400Y-63855600D02*
X138609188Y-65479812D01*
%TO.N,Net-(D50-Pad2)*%
X134188200Y-63804800D02*
X133310223Y-62926823D01*
X128223975Y-62926823D02*
X125399800Y-65750998D01*
X133310223Y-62926823D02*
X128223975Y-62926823D01*
X125399800Y-65750998D02*
X125399800Y-67005200D01*
%TO.N,Net-(D56-Pad1)*%
X155961801Y-97059201D02*
X162960599Y-97059201D01*
X162960599Y-97059201D02*
X164185600Y-95834200D01*
X154736800Y-95834200D02*
X155961801Y-97059201D01*
%TO.N,Net-(D57-Pad1)*%
X175003199Y-97361001D02*
X176511949Y-95852251D01*
X168252401Y-97361001D02*
X175003199Y-97361001D01*
X166725600Y-95834200D02*
X168252401Y-97361001D01*
%TO.N,Net-(D59-Pad2)*%
X124523560Y-94945200D02*
X128270000Y-94945200D01*
X120675400Y-91097040D02*
X124523560Y-94945200D01*
X120675400Y-89027000D02*
X120675400Y-91097040D01*
%TO.N,Net-(D59-Pad1)*%
X131774001Y-97059201D02*
X138982999Y-97059201D01*
X138982999Y-97059201D02*
X140208000Y-95834200D01*
X130810000Y-96095200D02*
X131774001Y-97059201D01*
X130810000Y-94945200D02*
X130810000Y-96095200D01*
%TO.N,Net-(D61-Pad1)*%
X145002799Y-94609199D02*
X146227800Y-95834200D01*
X137953201Y-94609199D02*
X145002799Y-94609199D01*
X136728200Y-95834200D02*
X137953201Y-94609199D01*
%TO.N,Net-(D63-Pad1)*%
X168714347Y-94609199D02*
X170241148Y-96136000D01*
X161981601Y-94609199D02*
X168714347Y-94609199D01*
X160756600Y-95834200D02*
X161981601Y-94609199D01*
%TO.N,Net-(D78-Pad1)*%
X190404201Y-65055201D02*
X189179200Y-63830200D01*
X197936399Y-65055201D02*
X190404201Y-65055201D01*
X199161400Y-63830200D02*
X197936399Y-65055201D01*
%TO.N,Net-(D82-Pad1)*%
X189179200Y-96984200D02*
X189179200Y-95834200D01*
X193107599Y-97224009D02*
X189419009Y-97224009D01*
X193392802Y-97509212D02*
X193107599Y-97224009D01*
X197486389Y-97509212D02*
X193392802Y-97509212D01*
X199161400Y-95834200D02*
X197486389Y-97509212D01*
X189419009Y-97224009D02*
X189179200Y-96984200D01*
%TO.N,Net-(D84-Pad1)*%
X221925601Y-97059201D02*
X220700600Y-95834200D01*
X229330799Y-97059201D02*
X221925601Y-97059201D01*
X230555800Y-95834200D02*
X229330799Y-97059201D01*
%TO.N,Net-(D86-Pad1)*%
X203785588Y-94159188D02*
X197102612Y-94159188D01*
X205460600Y-95834200D02*
X203785588Y-94159188D01*
X197102612Y-94159188D02*
X195427600Y-95834200D01*
%TO.N,Net-(D88-Pad1)*%
X215524801Y-94609199D02*
X214299800Y-95834200D01*
X223234799Y-94609199D02*
X215524801Y-94609199D01*
X224459800Y-95834200D02*
X223234799Y-94609199D01*
%TO.N,Net-(D92-Pad1)*%
X132963199Y-113061201D02*
X134213600Y-111810800D01*
X125939001Y-113061201D02*
X132963199Y-113061201D01*
X124714000Y-111836200D02*
X125939001Y-113061201D01*
%TO.N,Net-(D100-Pad1)*%
X120974399Y-113035801D02*
X122174000Y-111836200D01*
X113950201Y-113035801D02*
X120974399Y-113035801D01*
X112750600Y-111836200D02*
X113950201Y-113035801D01*
%TO.N,Net-(D96-Pad1)*%
X138805199Y-110585799D02*
X140081000Y-111861600D01*
X132009601Y-110585799D02*
X138805199Y-110585799D01*
X130759200Y-111836200D02*
X132009601Y-110585799D01*
%TO.N,Net-(D104-Pad2)*%
X71577200Y-126688200D02*
X72325009Y-125940391D01*
X72325009Y-125940391D02*
X77072201Y-125940391D01*
X77072201Y-125940391D02*
X77300801Y-126168991D01*
X82589801Y-126938201D02*
X83489800Y-127838200D01*
X77300801Y-126168991D02*
X81820591Y-126168991D01*
X81820591Y-126168991D02*
X82589801Y-126938201D01*
X71577200Y-127838200D02*
X71577200Y-126688200D01*
%TO.N,Net-(D104-Pad1)*%
X94601981Y-125600683D02*
X95562149Y-126560851D01*
X88267317Y-125600683D02*
X94601981Y-125600683D01*
X86029800Y-127838200D02*
X88267317Y-125600683D01*
%TO.N,Net-(D107-Pad2)*%
X169005799Y-113061201D02*
X170230800Y-111836200D01*
X161981601Y-113061201D02*
X169005799Y-113061201D01*
X160756600Y-111836200D02*
X161981601Y-113061201D01*
%TO.N,Net-(D107-Pad1)*%
X180969199Y-113061201D02*
X182194200Y-111836200D01*
X173995801Y-113061201D02*
X180969199Y-113061201D01*
X172770800Y-111836200D02*
X173995801Y-113061201D01*
%TO.N,Net-(D109-Pad1)*%
X156991599Y-113061201D02*
X158216600Y-111836200D01*
X149967401Y-113061201D02*
X156991599Y-113061201D01*
X148742400Y-111836200D02*
X149967401Y-113061201D01*
%TO.N,Net-(D113-Pad1)*%
X195897819Y-125524483D02*
X195039251Y-126383051D01*
X202232483Y-125524483D02*
X195897819Y-125524483D01*
X204546200Y-127838200D02*
X202232483Y-125524483D01*
%TO.N,Net-(D116-Pad2)*%
X70501799Y-129939209D02*
X74149791Y-129939209D01*
X64527209Y-129101009D02*
X69663599Y-129101009D01*
X74149791Y-129939209D02*
X76276200Y-127812800D01*
X64414400Y-128988200D02*
X64527209Y-129101009D01*
X69663599Y-129101009D02*
X70501799Y-129939209D01*
X64414400Y-127838200D02*
X64414400Y-128988200D01*
%TO.N,Net-(D116-Pad1)*%
X80066601Y-129063201D02*
X88611761Y-129063201D01*
X88611761Y-129063201D02*
X89601346Y-128073616D01*
X78816200Y-127812800D02*
X80066601Y-129063201D01*
%TO.N,Net-(D118-Pad1)*%
X155961801Y-110611199D02*
X162960599Y-110611199D01*
X162960599Y-110611199D02*
X164185600Y-111836200D01*
X154736800Y-111836200D02*
X155961801Y-110611199D01*
%TO.N,Net-(D119-Pad1)*%
X175000199Y-110611199D02*
X176225200Y-111836200D01*
X167950601Y-110611199D02*
X175000199Y-110611199D01*
X166725600Y-111836200D02*
X167950601Y-110611199D01*
%TO.N,Net-(D125-Pad2)*%
X221976401Y-113061201D02*
X220751400Y-111836200D01*
X229000599Y-113061201D02*
X221976401Y-113061201D01*
X230200200Y-111861600D02*
X229000599Y-113061201D01*
%TO.N,Net-(D127-Pad1)*%
X222675999Y-126613199D02*
X223901000Y-127838200D01*
X214331001Y-126613199D02*
X222675999Y-126613199D01*
X213106000Y-127838200D02*
X214331001Y-126613199D01*
%TO.N,Net-(D129-Pad1)*%
X197973401Y-113061201D02*
X196748400Y-111836200D01*
X204997599Y-113061201D02*
X197973401Y-113061201D01*
X206222600Y-111836200D02*
X204997599Y-113061201D01*
%TO.N,Net-(D130-Pad2)*%
X217011799Y-113035801D02*
X209962201Y-113035801D01*
X209962201Y-113035801D02*
X208762600Y-111836200D01*
X218211400Y-111836200D02*
X217011799Y-113035801D01*
%TO.N,Net-(D132-Pad2)*%
X203993201Y-110611199D02*
X202768200Y-111836200D01*
X211017399Y-110611199D02*
X203993201Y-110611199D01*
X212217000Y-111810800D02*
X211017399Y-110611199D01*
%TO.N,Net-(D132-Pad1)*%
X215956601Y-110611199D02*
X214757000Y-111810800D01*
X222980799Y-110611199D02*
X215956601Y-110611199D01*
X224205800Y-111836200D02*
X222980799Y-110611199D01*
%TO.N,Net-(D134-Pad1)*%
X229330799Y-129063201D02*
X230555800Y-127838200D01*
X220985801Y-129063201D02*
X229330799Y-129063201D01*
X219760800Y-127838200D02*
X220985801Y-129063201D01*
%TO.N,Net-(D136-Pad1)*%
X191953601Y-110611199D02*
X190728600Y-111836200D01*
X199003199Y-110611199D02*
X191953601Y-110611199D01*
X200228200Y-111836200D02*
X199003199Y-110611199D01*
%TO.N,DCLK*%
X176022000Y-58928000D02*
X176816801Y-58133199D01*
X201057578Y-59320022D02*
X201676000Y-58701600D01*
X195800400Y-59320022D02*
X201057578Y-59320022D01*
X176816801Y-58133199D02*
X185706003Y-58133199D01*
X201676000Y-58701600D02*
X201676000Y-57251600D01*
X185706003Y-58133199D02*
X187699446Y-60126643D01*
X194993779Y-60126643D02*
X195800400Y-59320022D01*
X187699446Y-60126643D02*
X194993779Y-60126643D01*
X145076006Y-78233010D02*
X146556990Y-78233010D01*
X144416990Y-77573994D02*
X145076006Y-78233010D01*
X144416990Y-75842006D02*
X144416990Y-77573994D01*
X146556990Y-78233010D02*
X148082000Y-76708000D01*
X169112988Y-72592988D02*
X147666008Y-72592988D01*
X173482000Y-76962000D02*
X169112988Y-72592988D01*
X122047000Y-44780200D02*
X124663200Y-42164000D01*
X124663200Y-42164000D02*
X128270000Y-42164000D01*
X147666008Y-72592988D02*
X146070498Y-74188498D01*
X146070498Y-74188498D02*
X144416990Y-75842006D01*
X146070498Y-74188498D02*
X143378272Y-71496272D01*
X143378272Y-71496272D02*
X133567010Y-71496272D01*
X127652990Y-119737994D02*
X127652990Y-118006006D01*
X128312006Y-120397010D02*
X127652990Y-119737994D01*
X129792990Y-120397010D02*
X128312006Y-120397010D01*
X127652990Y-118006006D02*
X129301596Y-116357400D01*
X131318000Y-118872000D02*
X129792990Y-120397010D01*
X161315400Y-116357400D02*
X163830000Y-118872000D01*
X129301596Y-116357400D02*
X161315400Y-116357400D01*
%TO.N,RST*%
X177292000Y-59690000D02*
X178178654Y-60576654D01*
X202340946Y-60576654D02*
X204216000Y-58701600D01*
X204216000Y-58701600D02*
X204216000Y-57251600D01*
X178178654Y-60576654D02*
X202340946Y-60576654D01*
X155703001Y-81789001D02*
X150622000Y-76708000D01*
X177147010Y-81170990D02*
X176528999Y-81789001D01*
X177147010Y-78487010D02*
X177147010Y-81170990D01*
X176022000Y-76962000D02*
X176022000Y-77362000D01*
X176528999Y-81789001D02*
X155703001Y-81789001D01*
X176022000Y-77362000D02*
X177147010Y-78487010D01*
X119507000Y-44780200D02*
X119507000Y-46230200D01*
X126024596Y-46305210D02*
X126672388Y-46953002D01*
X119582010Y-46305210D02*
X126024596Y-46305210D01*
X143841210Y-46305210D02*
X152400000Y-54864000D01*
X119507000Y-46230200D02*
X119582010Y-46305210D01*
X139171794Y-46305210D02*
X143841210Y-46305210D01*
X126672388Y-46953002D02*
X138524002Y-46953002D01*
X138524002Y-46953002D02*
X139171794Y-46305210D01*
X160675411Y-116807411D02*
X161290000Y-117422000D01*
X161290000Y-117422000D02*
X161290000Y-118872000D01*
X130842589Y-116807411D02*
X160675411Y-116807411D01*
X128778000Y-118872000D02*
X130842589Y-116807411D01*
%TO.N,DLAT*%
X194807378Y-59676632D02*
X195613999Y-58870011D01*
X198967589Y-58870011D02*
X199136000Y-58701600D01*
X185721215Y-57512001D02*
X187885846Y-59676632D01*
X199136000Y-58701600D02*
X199136000Y-57251600D01*
X175913999Y-57512001D02*
X185721215Y-57512001D01*
X175514000Y-57912000D02*
X175913999Y-57512001D01*
X195613999Y-58870011D02*
X198967589Y-58870011D01*
X187885846Y-59676632D02*
X194807378Y-59676632D01*
X149207001Y-73042999D02*
X145542000Y-76708000D01*
X167022999Y-73042999D02*
X149207001Y-73042999D01*
X170942000Y-76962000D02*
X167022999Y-73042999D01*
X124587000Y-44780200D02*
X125135996Y-44780200D01*
X125135996Y-44780200D02*
X126661006Y-46305210D01*
X138098790Y-46305210D02*
X138176000Y-46228000D01*
X126661006Y-46305210D02*
X138098790Y-46305210D01*
X164408999Y-122283001D02*
X166370000Y-120322000D01*
X166370000Y-120322000D02*
X166370000Y-118872000D01*
X137269001Y-122283001D02*
X164408999Y-122283001D01*
X133858000Y-118872000D02*
X137269001Y-122283001D01*
X175564800Y-114427000D02*
X174752000Y-115239800D01*
X174752000Y-115239800D02*
X166700200Y-115239800D01*
%TO.N,Net-(D139-Pad1)*%
X229305399Y-81082601D02*
X230555800Y-79832200D01*
X222382801Y-81082601D02*
X229305399Y-81082601D01*
X221132400Y-79832200D02*
X222382801Y-81082601D01*
%TO.N,Net-(D61-Pad2)*%
X130987800Y-92633800D02*
X134188200Y-95834200D01*
X125399800Y-92633800D02*
X130987800Y-92633800D01*
%TO.N,Net-(D14-Pad1)*%
X126994199Y-110611199D02*
X128219200Y-111836200D01*
X119970001Y-110611199D02*
X126994199Y-110611199D01*
X118770400Y-111810800D02*
X119970001Y-110611199D01*
%TO.N,Net-(D3-Pad2)*%
X162687000Y-45720000D02*
X161544000Y-45720000D01*
X164566600Y-43840400D02*
X162687000Y-45720000D01*
%TO.N,Net-(D7-Pad2)*%
X163008999Y-42589999D02*
X203321199Y-42589999D01*
X160418999Y-45179999D02*
X163008999Y-42589999D01*
X160418999Y-47388999D02*
X160418999Y-45179999D01*
X203321199Y-42589999D02*
X204571600Y-43840400D01*
X161544000Y-48514000D02*
X160418999Y-47388999D01*
%TO.N,Net-(D14-Pad2)*%
X138214100Y-105321100D02*
X135102600Y-108432600D01*
X119608600Y-108432600D02*
X116230400Y-111810800D01*
X135102600Y-108432600D02*
X119608600Y-108432600D01*
%TO.N,Net-(D22-Pad2)*%
X176240746Y-64229784D02*
X175415329Y-65055201D01*
X175415329Y-65055201D02*
X167950601Y-65055201D01*
X167950601Y-65055201D02*
X166751000Y-63855600D01*
%TO.N,Net-(D29-Pad2)*%
X55481001Y-73769001D02*
X68689001Y-73769001D01*
X54356000Y-72644000D02*
X55481001Y-73769001D01*
X68689001Y-73769001D02*
X70104000Y-75184000D01*
X70104000Y-77597000D02*
X67843400Y-79857600D01*
X70104000Y-75184000D02*
X70104000Y-77597000D01*
%TO.N,Net-(D30-Pad1)*%
X223234799Y-65055201D02*
X215524801Y-65055201D01*
X215524801Y-65055201D02*
X214299800Y-63830200D01*
X224459800Y-63830200D02*
X223234799Y-65055201D01*
%TO.N,Net-(D30-Pad2)*%
X202926401Y-65055201D02*
X201701400Y-63830200D01*
X210534799Y-65055201D02*
X202926401Y-65055201D01*
X211759800Y-63830200D02*
X210534799Y-65055201D01*
%TO.N,Net-(D32-Pad2)*%
X63163999Y-89097399D02*
X61874400Y-87807800D01*
X87520999Y-99966999D02*
X66136797Y-99966999D01*
X63163999Y-96994201D02*
X63163999Y-89097399D01*
X66136797Y-99966999D02*
X63163999Y-96994201D01*
X88646000Y-101092000D02*
X87520999Y-99966999D01*
%TO.N,Net-(D47-Pad1)*%
X163011399Y-65055201D02*
X155961801Y-65055201D01*
X155961801Y-65055201D02*
X154736800Y-63830200D01*
X164211000Y-63855600D02*
X163011399Y-65055201D01*
%TO.N,Net-(D53-Pad1)*%
X156966199Y-62605199D02*
X149992801Y-62605199D01*
X158191200Y-63830200D02*
X156966199Y-62605199D01*
X149992801Y-62605199D02*
X148767800Y-63830200D01*
%TO.N,Net-(D54-Pad1)*%
X161930801Y-62630599D02*
X160731200Y-63830200D01*
X169005799Y-62630599D02*
X161930801Y-62630599D01*
X170205400Y-63830200D02*
X169005799Y-62630599D01*
%TO.N,Net-(D72-Pad2)*%
X194672949Y-70644749D02*
X196659500Y-72631300D01*
X186290949Y-70644749D02*
X194672949Y-70644749D01*
%TO.N,Net-(D73-Pad2)*%
X192209149Y-89019651D02*
X192366900Y-88861900D01*
X186290949Y-89019651D02*
X192209149Y-89019651D01*
%TO.N,Net-(D74-Pad2)*%
X204235599Y-62605199D02*
X196652601Y-62605199D01*
X196652601Y-62605199D02*
X195427600Y-63830200D01*
X205460600Y-63830200D02*
X204235599Y-62605199D01*
%TO.N,Net-(D76-Pad2)*%
X205251599Y-81082601D02*
X206527400Y-79806800D01*
X198379801Y-81082601D02*
X205251599Y-81082601D01*
X197129400Y-79832200D02*
X198379801Y-81082601D01*
%TO.N,Net-(D102-Pad2)*%
X94767400Y-111836200D02*
X96357997Y-111836200D01*
X97608398Y-110585799D02*
X102991199Y-110585799D01*
X102991199Y-110585799D02*
X104216200Y-111810800D01*
X96357997Y-111836200D02*
X97608398Y-110585799D01*
%TO.N,Net-(D80-Pad2)*%
X204374201Y-78581799D02*
X211296799Y-78581799D01*
X211296799Y-78581799D02*
X212547200Y-79832200D01*
X203098400Y-79857600D02*
X204374201Y-78581799D01*
%TO.N,Net-(D81-Pad2)*%
X203435789Y-76980211D02*
X200558400Y-79857600D01*
X205582089Y-76980211D02*
X203435789Y-76980211D01*
X209918300Y-72644000D02*
X205582089Y-76980211D01*
%TO.N,Net-(D105-Pad2)*%
X151828500Y-104863900D02*
X152501600Y-104863900D01*
X148793200Y-101828600D02*
X151828500Y-104863900D01*
%TO.N,Net-(D82-Pad2)*%
X190575988Y-99770988D02*
X192988988Y-99770988D01*
X192988988Y-99770988D02*
X194564000Y-101346000D01*
X186639200Y-95834200D02*
X190575988Y-99770988D01*
%TO.N,Net-(D106-Pad2)*%
X70262201Y-129063201D02*
X69037200Y-127838200D01*
X72737201Y-129063201D02*
X70262201Y-129063201D01*
X76864201Y-126587799D02*
X75212603Y-126587799D01*
X78767998Y-130149600D02*
X77501201Y-128882803D01*
X77501201Y-128882803D02*
X77501201Y-127224799D01*
X94843600Y-130149600D02*
X78767998Y-130149600D01*
X75212603Y-126587799D02*
X72737201Y-129063201D01*
X77501201Y-127224799D02*
X76864201Y-126587799D01*
%TO.N,Net-(D109-Pad2)*%
X142034008Y-114731800D02*
X123545600Y-114731800D01*
X146202400Y-111836200D02*
X144929608Y-111836200D01*
X144929608Y-111836200D02*
X142034008Y-114731800D01*
X123545600Y-114731800D02*
X121234200Y-117043200D01*
%TO.N,Net-(D86-Pad2)*%
X204235599Y-95983397D02*
X204235599Y-96577699D01*
X194112601Y-97059201D02*
X197299399Y-97059201D01*
X192887600Y-95834200D02*
X194112601Y-97059201D01*
X198573399Y-94609199D02*
X202861401Y-94609199D01*
X202861401Y-94609199D02*
X204235599Y-95983397D01*
X197936399Y-95246199D02*
X198573399Y-94609199D01*
X197936399Y-96422201D02*
X197936399Y-95246199D01*
X197299399Y-97059201D02*
X197936399Y-96422201D01*
X204235599Y-96577699D02*
X209003900Y-101346000D01*
%TO.N,Net-(D111-Pad2)*%
X101749608Y-119100600D02*
X105511600Y-119100600D01*
X97358200Y-123492008D02*
X101749608Y-119100600D01*
X97358200Y-124764800D02*
X97358200Y-123492008D01*
%TO.N,Net-(D90-Pad2)*%
X72993799Y-110611199D02*
X74218800Y-111836200D01*
X66020401Y-110611199D02*
X72993799Y-110611199D01*
X64770000Y-111861600D02*
X66020401Y-110611199D01*
%TO.N,Net-(D91-Pad2)*%
X68541900Y-105549700D02*
X62230000Y-111861600D01*
X74168000Y-105549700D02*
X68541900Y-105549700D01*
%TO.N,Net-(D117-Pad2)*%
X68427600Y-121285000D02*
X61874400Y-127838200D01*
X69723000Y-121285000D02*
X68427600Y-121285000D01*
%TO.N,Net-(D118-Pad2)*%
X152196800Y-111836200D02*
X155473400Y-108559600D01*
X172516800Y-108559600D02*
X176237900Y-104838500D01*
X155473400Y-108559600D02*
X172516800Y-108559600D01*
%TO.N,Net-(U1-Pad7)*%
X132391401Y-127565401D02*
X132391401Y-135711801D01*
X131318000Y-126492000D02*
X132391401Y-127565401D01*
X132391401Y-135711801D02*
X130772593Y-137330609D01*
X71974056Y-136991744D02*
X68199000Y-140766800D01*
X97925134Y-136991744D02*
X71974056Y-136991744D01*
X130772593Y-137330609D02*
X98263999Y-137330609D01*
X98263999Y-137330609D02*
X97925134Y-136991744D01*
%TO.N,Net-(U1-Pad6)*%
X133858000Y-135534400D02*
X131560980Y-137831420D01*
X98128399Y-137831420D02*
X97738734Y-137441755D01*
X74064045Y-137441755D02*
X70739000Y-140766800D01*
X131560980Y-137831420D02*
X98128399Y-137831420D01*
X97738734Y-137441755D02*
X74064045Y-137441755D01*
X133858000Y-126492000D02*
X133858000Y-135534400D01*
%TO.N,Net-(U1-Pad5)*%
X136398000Y-126492000D02*
X136398000Y-134151362D01*
X136398000Y-134151362D02*
X132267931Y-138281431D01*
X132267931Y-138281431D02*
X97941999Y-138281431D01*
X97941999Y-138281431D02*
X97552334Y-137891766D01*
X97552334Y-137891766D02*
X76154034Y-137891766D01*
X76154034Y-137891766D02*
X73279000Y-140766800D01*
%TO.N,Net-(U1-Pad4)*%
X132454331Y-138731442D02*
X97755599Y-138731442D01*
X97755599Y-138731442D02*
X97365934Y-138341777D01*
X97365934Y-138341777D02*
X78244023Y-138341777D01*
X78244023Y-138341777D02*
X75819000Y-140766800D01*
X138938000Y-126492000D02*
X138938000Y-132247773D01*
X138938000Y-132247773D02*
X132454331Y-138731442D01*
%TO.N,Net-(U1-Pad3)*%
X132640731Y-139181453D02*
X97569199Y-139181453D01*
X141478000Y-130344184D02*
X132640731Y-139181453D01*
X97179534Y-138791788D02*
X80334012Y-138791788D01*
X141478000Y-126492000D02*
X141478000Y-130344184D01*
X97569199Y-139181453D02*
X97179534Y-138791788D01*
X80334012Y-138791788D02*
X78359000Y-140766800D01*
%TO.N,Net-(U1-Pad2)*%
X82424001Y-139241799D02*
X80899000Y-140766800D01*
X97382799Y-139631464D02*
X96993134Y-139241799D01*
X96993134Y-139241799D02*
X82424001Y-139241799D01*
X132827131Y-139631464D02*
X97382799Y-139631464D01*
X144018000Y-126492000D02*
X144018000Y-128440595D01*
X144018000Y-128440595D02*
X132827131Y-139631464D01*
%TO.N,Net-(U1-Pad1)*%
X83439000Y-140766800D02*
X132328202Y-140766800D01*
X132328202Y-140766800D02*
X133096000Y-140766800D01*
X133096000Y-140766800D02*
X136702800Y-137160000D01*
%TO.N,Net-(U3-Pad7)*%
X170366399Y-129851989D02*
X167189989Y-129851989D01*
X167189989Y-129851989D02*
X163830000Y-126492000D01*
X197612000Y-140462000D02*
X195616999Y-138466999D01*
X170835209Y-130320799D02*
X170366399Y-129851989D01*
X195616999Y-138466999D02*
X190594001Y-138466999D01*
X190594001Y-138466999D02*
X190086001Y-137958999D01*
X184656001Y-137958999D02*
X177017801Y-130320799D01*
X190086001Y-137958999D02*
X184656001Y-137958999D01*
X177017801Y-130320799D02*
X170835209Y-130320799D01*
%TO.N,Net-(U3-Pad6)*%
X190780401Y-138016988D02*
X190272401Y-137508988D01*
X200152000Y-140462000D02*
X197706988Y-138016988D01*
X184842401Y-137508988D02*
X176700447Y-129367034D01*
X176700447Y-129367034D02*
X169245034Y-129367034D01*
X197706988Y-138016988D02*
X190780401Y-138016988D01*
X190272401Y-137508988D02*
X184842401Y-137508988D01*
X169245034Y-129367034D02*
X166370000Y-126492000D01*
%TO.N,Net-(U3-Pad5)*%
X190458801Y-137058977D02*
X185028801Y-137058977D01*
X199796977Y-137566977D02*
X190966800Y-137566977D01*
X176886847Y-128917023D02*
X171335023Y-128917023D01*
X185028801Y-137058977D02*
X176886847Y-128917023D01*
X202692000Y-140462000D02*
X199796977Y-137566977D01*
X171335023Y-128917023D02*
X168910000Y-126492000D01*
X190966800Y-137566977D02*
X190458801Y-137058977D01*
%TO.N,Net-(U3-Pad4)*%
X185215201Y-136608966D02*
X190645201Y-136608966D01*
X173425012Y-128467012D02*
X177073247Y-128467012D01*
X201886966Y-137116966D02*
X205232000Y-140462000D01*
X171450000Y-126492000D02*
X173425012Y-128467012D01*
X190645201Y-136608966D02*
X191153200Y-137116966D01*
X177073247Y-128467012D02*
X185215201Y-136608966D01*
X191153200Y-137116966D02*
X201886966Y-137116966D01*
%TO.N,Net-(U3-Pad3)*%
X191339600Y-136666955D02*
X203976955Y-136666955D01*
X203976955Y-136666955D02*
X207772000Y-140462000D01*
X175515001Y-128017001D02*
X177259647Y-128017001D01*
X173990000Y-126492000D02*
X175515001Y-128017001D01*
X185401601Y-136158955D02*
X190831601Y-136158955D01*
X190831601Y-136158955D02*
X191339600Y-136666955D01*
X177259647Y-128017001D02*
X185401601Y-136158955D01*
%TO.N,Net-(U3-Pad2)*%
X176530000Y-126492000D02*
X185746944Y-135708944D01*
X206066944Y-136216944D02*
X210312000Y-140462000D01*
X191018001Y-135708944D02*
X191526000Y-136216944D01*
X191526000Y-136216944D02*
X206066944Y-136216944D01*
X185746944Y-135708944D02*
X191018001Y-135708944D01*
%TO.N,Net-(U3-Pad1)*%
X173990000Y-118872000D02*
X175515010Y-117346990D01*
X191712400Y-135766933D02*
X208156933Y-135766933D01*
X208156933Y-135766933D02*
X212852000Y-140462000D01*
X179194580Y-117346990D02*
X180195001Y-118347411D01*
X186058933Y-135258933D02*
X191204401Y-135258933D01*
X180195001Y-129395001D02*
X186058933Y-135258933D01*
X175515010Y-117346990D02*
X179194580Y-117346990D01*
X180195001Y-118347411D02*
X180195001Y-129395001D01*
X191204401Y-135258933D02*
X191712400Y-135766933D01*
%TO.N,EX1*%
X110921800Y-86106000D02*
X107797600Y-82981800D01*
X107797600Y-82981800D02*
X96723200Y-82981800D01*
X118948200Y-124053600D02*
X126339600Y-124053600D01*
X126339600Y-124053600D02*
X128778000Y-126492000D01*
%TO.N,EX2*%
X107635906Y-78171906D02*
X101092000Y-71628000D01*
X124750796Y-77586906D02*
X124165796Y-78171906D01*
X131444708Y-67562990D02*
X124750796Y-74256902D01*
X124750796Y-74256902D02*
X124750796Y-77586906D01*
X124165796Y-78171906D02*
X107635906Y-78171906D01*
X150622000Y-69088000D02*
X149096990Y-67562990D01*
X149096990Y-67562990D02*
X131444708Y-67562990D01*
%TO.N,Net-(U10-Pad14)*%
X138607800Y-84658200D02*
X134651198Y-84658200D01*
X125907800Y-75914802D02*
X125907800Y-74980800D01*
X134651198Y-84658200D02*
X125907800Y-75914802D01*
X122148600Y-56667400D02*
X129413000Y-56667400D01*
X129413000Y-56667400D02*
X130276600Y-55803800D01*
%TO.N,EX3*%
X161290000Y-126492000D02*
X159764990Y-124966990D01*
X128312006Y-124966990D02*
X121513217Y-118168201D01*
X121513217Y-118168201D02*
X109938601Y-118168201D01*
X159764990Y-124966990D02*
X128312006Y-124966990D01*
X109938601Y-118168201D02*
X108712000Y-116941600D01*
X99669600Y-61239400D02*
X98958400Y-61239400D01*
X103657400Y-57251600D02*
X99669600Y-61239400D01*
%TO.N,Net-(U10-Pad15)*%
X130193316Y-41316516D02*
X116164592Y-41316516D01*
X116164592Y-41316516D02*
X111798098Y-45683010D01*
X132207000Y-44780200D02*
X132207000Y-43330200D01*
X132207000Y-43330200D02*
X130193316Y-41316516D01*
%TO.N,Net-(U10-Pad1)*%
X112833989Y-48964011D02*
X125051047Y-48964011D01*
X134747000Y-50950200D02*
X134747000Y-52400200D01*
X125051047Y-48964011D02*
X125979037Y-49892001D01*
X111506000Y-50292000D02*
X112833989Y-48964011D01*
X133688801Y-49892001D02*
X134747000Y-50950200D01*
X125979037Y-49892001D02*
X133688801Y-49892001D01*
%TO.N,Net-(U10-Pad2)*%
X132207000Y-52400200D02*
X130231979Y-50425179D01*
X124864647Y-49414022D02*
X113907978Y-49414022D01*
X125875804Y-50425179D02*
X124864647Y-49414022D01*
X130231979Y-50425179D02*
X125875804Y-50425179D01*
X113907978Y-49414022D02*
X111760000Y-51562000D01*
%TO.N,Net-(U10-Pad3)*%
X129591990Y-50875190D02*
X125689404Y-50875190D01*
X125689404Y-50875190D02*
X124678247Y-49864033D01*
X115743967Y-49864033D02*
X113030000Y-52578000D01*
X129667000Y-50950200D02*
X129591990Y-50875190D01*
X124678247Y-49864033D02*
X115743967Y-49864033D01*
X129667000Y-52400200D02*
X129667000Y-50950200D01*
%TO.N,Net-(U10-Pad4)*%
X126578004Y-52400200D02*
X124602983Y-50425179D01*
X127127000Y-52400200D02*
X126578004Y-52400200D01*
X114300000Y-52439785D02*
X114300000Y-53340000D01*
X116314606Y-50425179D02*
X114300000Y-52439785D01*
X124602983Y-50425179D02*
X116314606Y-50425179D01*
%TO.N,Net-(U10-Pad5)*%
X116501006Y-50875190D02*
X123061990Y-50875190D01*
X115567362Y-51808834D02*
X116501006Y-50875190D01*
X115567362Y-53949600D02*
X115567362Y-51808834D01*
X123061990Y-50875190D02*
X124587000Y-52400200D01*
%TO.N,Net-(U11-Pad15)*%
X161545010Y-78738990D02*
X163322000Y-76962000D01*
X159767010Y-78738990D02*
X161545010Y-78738990D01*
X158242000Y-80264000D02*
X159767010Y-78738990D01*
%TO.N,Net-(U12-Pad15)*%
X210016735Y-45856535D02*
X213791800Y-49631600D01*
X202818006Y-45856535D02*
X210016735Y-45856535D01*
X202446542Y-46228000D02*
X202818006Y-45856535D01*
X192278000Y-46736000D02*
X192786000Y-46228000D01*
X192786000Y-46228000D02*
X202446542Y-46228000D01*
%TO.N,Net-(U12-Pad1)*%
X191401655Y-45755945D02*
X202282185Y-45755945D01*
X202282185Y-45755945D02*
X202631606Y-45406524D01*
X202631606Y-45406524D02*
X212106724Y-45406524D01*
X212106724Y-45406524D02*
X216331800Y-49631600D01*
X188976000Y-49631600D02*
X188976000Y-48181600D01*
X188976000Y-48181600D02*
X191401655Y-45755945D01*
%TO.N,Net-(U12-Pad2)*%
X191516000Y-49631600D02*
X194469589Y-46678011D01*
X217346792Y-51156608D02*
X218871800Y-49631600D01*
X202632942Y-46678011D02*
X203004407Y-46306546D01*
X212817652Y-51156608D02*
X217346792Y-51156608D01*
X203004407Y-46306546D02*
X207967590Y-46306546D01*
X194469589Y-46678011D02*
X202632942Y-46678011D01*
X207967590Y-46306546D02*
X212817652Y-51156608D01*
%TO.N,Net-(U12-Pad3)*%
X212631252Y-51606619D02*
X219436781Y-51606619D01*
X196559578Y-47128022D02*
X202819342Y-47128022D01*
X203190807Y-46756557D02*
X207781191Y-46756557D01*
X219436781Y-51606619D02*
X221411800Y-49631600D01*
X207781191Y-46756557D02*
X212631252Y-51606619D01*
X202819342Y-47128022D02*
X203190807Y-46756557D01*
X194056000Y-49631600D02*
X196559578Y-47128022D01*
%TO.N,Net-(U12-Pad4)*%
X203377207Y-47206568D02*
X207594792Y-47206568D01*
X196596000Y-49631600D02*
X198649567Y-47578033D01*
X221526770Y-52056630D02*
X223951800Y-49631600D01*
X203005742Y-47578033D02*
X203377207Y-47206568D01*
X207594792Y-47206568D02*
X212444852Y-52056630D01*
X198649567Y-47578033D02*
X203005742Y-47578033D01*
X212444852Y-52056630D02*
X221526770Y-52056630D01*
%TO.N,Net-(U12-Pad5)*%
X200739556Y-48028044D02*
X203192142Y-48028044D01*
X203563607Y-47656579D02*
X207408390Y-47656579D01*
X207408390Y-47656579D02*
X212258452Y-52506641D01*
X199136000Y-49631600D02*
X200739556Y-48028044D01*
X203192142Y-48028044D02*
X203563607Y-47656579D01*
X212258452Y-52506641D02*
X223616759Y-52506641D01*
X223616759Y-52506641D02*
X226491800Y-49631600D01*
%TO.N,Net-(U12-Pad6)*%
X225577400Y-53086000D02*
X212201401Y-53086000D01*
X207221991Y-48106590D02*
X203750007Y-48106590D01*
X203750007Y-48106590D02*
X202224997Y-49631600D01*
X202224997Y-49631600D02*
X201676000Y-49631600D01*
X212201401Y-53086000D02*
X207221991Y-48106590D01*
X229031800Y-49631600D02*
X225577400Y-53086000D01*
%TO.N,EX4*%
X102623410Y-55034390D02*
X98958400Y-58699400D01*
X118322810Y-55034390D02*
X102623410Y-55034390D01*
X119507000Y-53850200D02*
X118322810Y-55034390D01*
X119507000Y-52400200D02*
X119507000Y-53850200D01*
%TO.N,Net-(U10-Pad9)*%
X143218217Y-46755221D02*
X152051998Y-55589002D01*
X152051998Y-55589002D02*
X175296998Y-55589002D01*
X116967000Y-44780200D02*
X116967000Y-46230200D01*
X139358194Y-46755221D02*
X143218217Y-46755221D01*
X175368001Y-55517999D02*
X175768000Y-55118000D01*
X116967000Y-46230200D02*
X118139813Y-47403013D01*
X118139813Y-47403013D02*
X138710402Y-47403013D01*
X175296998Y-55589002D02*
X175368001Y-55517999D01*
X138710402Y-47403013D02*
X139358194Y-46755221D01*
%TO.N,Net-(U11-Pad9)*%
X192530990Y-58776610D02*
X194056000Y-57251600D01*
X188510006Y-58776610D02*
X192530990Y-58776610D01*
X181610000Y-55118000D02*
X184851396Y-55118000D01*
X184851396Y-55118000D02*
X188510006Y-58776610D01*
%TO.N,EX5*%
X176022000Y-69342000D02*
X172635223Y-65955223D01*
X142488021Y-65955223D02*
X141458401Y-64925603D01*
X141458401Y-64925603D02*
X141458401Y-63267599D01*
X141458401Y-63267599D02*
X140821401Y-62630599D01*
X140821401Y-62630599D02*
X139645399Y-62630599D01*
X137953201Y-64322797D02*
X137953201Y-64964801D01*
X172635223Y-65955223D02*
X142488021Y-65955223D01*
X135568199Y-65029801D02*
X135413201Y-64874803D01*
X105074156Y-70451059D02*
X101161579Y-70451059D01*
X134673214Y-62476812D02*
X113048403Y-62476812D01*
X135413201Y-64874803D02*
X135413201Y-63216799D01*
X113048403Y-62476812D02*
X105074156Y-70451059D01*
X135413201Y-63216799D02*
X134673214Y-62476812D01*
X139645399Y-62630599D02*
X137953201Y-64322797D01*
X137888201Y-65029801D02*
X135568199Y-65029801D01*
X137953201Y-64964801D02*
X137888201Y-65029801D01*
%TO.N,EX6*%
X202690990Y-51156610D02*
X204216000Y-49631600D01*
X187916008Y-51156610D02*
X202690990Y-51156610D01*
X178848801Y-47973199D02*
X185706001Y-47973199D01*
X187850999Y-50118197D02*
X187850999Y-51091601D01*
X148953001Y-49639001D02*
X177182999Y-49639001D01*
X185706001Y-47973199D02*
X187850999Y-50118197D01*
X140098999Y-40784999D02*
X148953001Y-49639001D01*
X108313001Y-40784999D02*
X140098999Y-40784999D01*
X187850999Y-51091601D02*
X187916008Y-51156610D01*
X177182999Y-49639001D02*
X178848801Y-47973199D01*
X104648000Y-44450000D02*
X108313001Y-40784999D01*
%TO.N,Net-(D35-Pad2)*%
X64897000Y-84836000D02*
X67868800Y-87807800D01*
X60198000Y-84836000D02*
X64897000Y-84836000D01*
%TO.N,Net-(D45-Pad2)*%
X128244600Y-64719200D02*
X128244600Y-66283018D01*
X128244600Y-66283018D02*
X123941018Y-70586600D01*
X123941018Y-70586600D02*
X120700800Y-70586600D01*
%TO.N,Net-(D46-Pad2)*%
X123569003Y-77046905D02*
X123625795Y-77046905D01*
X118904749Y-72382651D02*
X123569003Y-77046905D01*
%TO.N,Net-(D51-Pad2)*%
X116382800Y-73091598D02*
X116382800Y-74625200D01*
X121497182Y-67977216D02*
X116382800Y-73091598D01*
X123053146Y-67977216D02*
X121497182Y-67977216D01*
%TO.N,Net-(D60-Pad2)*%
X117438898Y-88671400D02*
X118879349Y-87230949D01*
X115176300Y-88671400D02*
X117438898Y-88671400D01*
%TO.N,Net-(D66-Pad2)*%
X118369228Y-84988400D02*
X123053146Y-89672318D01*
X123053146Y-89672318D02*
X123053146Y-91661784D01*
X116357400Y-84988400D02*
X118369228Y-84988400D01*
%TO.N,Net-(D67-Pad2)*%
X117307903Y-80445795D02*
X122355795Y-80445795D01*
X114561349Y-83192349D02*
X117307903Y-80445795D01*
%TO.N,Net-(D68-Pad2)*%
X183616600Y-69783402D02*
X183616600Y-68402200D01*
X188567347Y-74734149D02*
X183616600Y-69783402D01*
X190659749Y-74734149D02*
X188567347Y-74734149D01*
%TO.N,Net-(D69-Pad2)*%
X181820549Y-66606149D02*
X186365739Y-66606149D01*
X188187190Y-68427600D02*
X191084200Y-68427600D01*
X186365739Y-66606149D02*
X188187190Y-68427600D01*
%TO.N,Net-(D70-Pad2)*%
X188567347Y-84930251D02*
X190659749Y-84930251D01*
X183616600Y-89880998D02*
X188567347Y-84930251D01*
X183616600Y-91236800D02*
X183616600Y-89880998D01*
%TO.N,Net-(D141-Pad2)*%
X209225601Y-62605199D02*
X208000600Y-63830200D01*
X216935599Y-62605199D02*
X209225601Y-62605199D01*
X218160600Y-63830200D02*
X216935599Y-62605199D01*
%TO.N,Net-(D139-Pad2)*%
X210317801Y-81057201D02*
X217367399Y-81057201D01*
X217367399Y-81057201D02*
X218592400Y-79832200D01*
X209067400Y-79806800D02*
X210317801Y-81057201D01*
%TO.N,Net-(D144-Pad2)*%
X223336399Y-78607199D02*
X224586800Y-79857600D01*
X216312201Y-78607199D02*
X223336399Y-78607199D01*
X215087200Y-79832200D02*
X216312201Y-78607199D01*
%TO.N,Net-(D94-Pad2)*%
X79013599Y-113061201D02*
X80238600Y-111836200D01*
X71964001Y-113061201D02*
X79013599Y-113061201D01*
X70739000Y-111836200D02*
X71964001Y-113061201D01*
%TO.N,Net-(D95-Pad2)*%
X73507600Y-117144800D02*
X74333100Y-117144800D01*
X68199000Y-111836200D02*
X73507600Y-117144800D01*
%TO.N,Net-(D98-Pad2)*%
X96945999Y-113061201D02*
X98196400Y-111810800D01*
X89972601Y-113061201D02*
X96945999Y-113061201D01*
X88747600Y-111836200D02*
X89972601Y-113061201D01*
%TO.N,Net-(D99-Pad2)*%
X86207600Y-111836200D02*
X89928488Y-115557088D01*
X89928488Y-115557088D02*
X95364088Y-115557088D01*
X95364088Y-115557088D02*
X96939100Y-117132100D01*
%TO.N,Net-(D121-Pad2)*%
X100337349Y-124201443D02*
X100337349Y-122928651D01*
X96748362Y-127790430D02*
X100337349Y-124201443D01*
X92636830Y-127790430D02*
X96748362Y-127790430D01*
X91948000Y-127101600D02*
X92636830Y-127790430D01*
%TO.N,Net-(D140-Pad2)*%
X221925601Y-62605199D02*
X220700600Y-63830200D01*
X229330799Y-62605199D02*
X221925601Y-62605199D01*
X230555800Y-63830200D02*
X229330799Y-62605199D01*
%TD*%
M02*
