M48
; DRILL file {KiCad (5.1.6)-1} date 06/24/20 17:28:11
; FORMAT={-:-/ absolute / inch / decimal}
; #@! TF.CreationDate,2020-06-24T17:28:11+01:00
; #@! TF.GenerationSoftware,Kicad,Pcbnew,(5.1.6)-1
FMAT,2
INCH
T1C0.0157
T2C0.0315
T3C0.0354
T4C0.0394
T5C0.0433
T6C0.1260
%
G90
G05
T1
X2.37Y-3.34
X2.615Y-3.887
X2.7315Y-3.0102
X2.793Y-4.696
X3.009Y-4.08
X3.051Y-4.056
X3.36Y-2.63
X3.73Y-4.246
X3.808Y-3.267
X3.92Y-2.803
X3.98Y-2.82
X3.9827Y-2.7737
X4.0411Y-4.2745
X4.06Y-3.48
X4.081Y-2.254
X4.12Y-1.75
X4.28Y-4.604
X4.367Y-3.39
X4.39Y-1.98
X4.3933Y-4.2025
X4.394Y-4.145
X4.396Y-4.092
X4.4Y-2.03
X4.4015Y-1.7985
X4.45Y-2.07
X4.5Y-2.1
X4.526Y-5.313
X4.53Y-5.077
X4.5495Y-4.935
X4.5495Y-5.034
X4.5499Y-2.124
X4.578Y-4.504
X4.683Y-4.884
X4.809Y-2.231
X4.957Y-2.952
X4.9908Y-5.3445
X5.05Y-1.66
X5.129Y-2.197
X5.137Y-5.374
X5.2585Y-2.8148
X5.26Y-1.91
X5.369Y-5.47
X5.371Y-5.522
X5.382Y-5.4
X5.44Y-1.82
X5.457Y-3.333
X5.6899Y-4.3097
X5.758Y-4.249
X6.0Y-2.16
X6.092Y-4.224
X6.25Y-4.777
X6.381Y-4.307
X6.563Y-4.537
X6.89Y-4.564
X6.91Y-2.28
X6.912Y-4.505
X6.92Y-2.17
X6.93Y-2.32
X6.98Y-2.35
X7.02Y-3.4
X7.0684Y-1.972
X7.09Y-2.23
X7.15Y-2.17
X7.16Y-2.51
X7.43Y-2.65
X7.4855Y-2.4448
X7.57Y-1.84
X8.187Y-4.9152
X8.2152Y-4.8852
X8.98Y-3.39
X9.04Y-3.39
T2
X2.466Y-1.6045
X2.866Y-1.6045
X2.18Y-4.79
X2.58Y-4.79
X3.2605Y-1.597
X3.6605Y-1.597
X8.1805Y-4.632
X8.5805Y-4.632
X7.7425Y-2.8595
X8.1425Y-2.8595
X3.734Y-5.124
X4.134Y-5.124
X4.8672Y-3.0333
X5.15Y-2.7505
X5.77Y-4.6716
X5.77Y-4.77
X5.33Y-2.72
X5.33Y-3.02
X5.43Y-2.72
X5.43Y-3.02
X5.53Y-2.72
X5.53Y-3.02
X5.63Y-2.72
X5.63Y-3.02
X5.73Y-2.72
X5.73Y-3.02
X5.83Y-2.72
X5.83Y-3.02
X5.93Y-2.72
X5.93Y-3.02
X6.03Y-2.72
X6.03Y-3.02
X6.23Y-2.92
X6.23Y-3.0184
X2.396Y-1.89
X2.396Y-2.29
X7.19Y-1.934
X7.19Y-2.334
X7.66Y-3.99
X8.06Y-3.99
X7.523Y-2.694
X7.923Y-2.694
X9.09Y-4.78
X9.49Y-4.78
X9.1Y-3.5
X9.5Y-3.5
X7.29Y-1.933
X7.29Y-2.333
X7.65Y-4.5935
X8.05Y-4.5935
X7.5735Y-3.4985
X7.9735Y-3.4985
X4.01Y-5.0
X4.41Y-5.0
X7.44Y-1.954
X7.44Y-2.254
X7.54Y-1.954
X7.54Y-2.254
X7.64Y-1.954
X7.64Y-2.254
X7.74Y-1.954
X7.74Y-2.254
X7.84Y-1.954
X7.84Y-2.254
X7.94Y-1.954
X7.94Y-2.254
X8.04Y-1.954
X8.04Y-2.254
X8.14Y-1.954
X8.14Y-2.254
X7.68Y-5.23
X7.68Y-5.53
X7.78Y-5.23
X7.78Y-5.53
X7.88Y-5.23
X7.88Y-5.53
X7.98Y-5.23
X7.98Y-5.53
X8.08Y-5.23
X8.08Y-5.53
X8.18Y-5.23
X8.18Y-5.53
X8.28Y-5.23
X8.28Y-5.53
X8.38Y-5.23
X8.38Y-5.53
X2.27Y-2.46
X2.27Y-2.86
X4.97Y-4.68
X4.97Y-4.98
X5.07Y-4.68
X5.07Y-4.98
X5.17Y-4.68
X5.17Y-4.98
X5.27Y-4.68
X5.27Y-4.98
X5.37Y-4.68
X5.37Y-4.98
X5.47Y-4.68
X5.47Y-4.98
X5.57Y-4.68
X5.57Y-4.98
X5.67Y-4.68
X5.67Y-4.98
X5.0415Y-4.1465
X5.4415Y-4.1465
X5.53Y-2.27
X5.93Y-2.27
X5.96Y-1.8
X6.36Y-1.8
X9.1Y-4.12
X9.5Y-4.12
X5.96Y-1.91
X6.36Y-1.91
X2.28Y-3.5
X2.28Y-3.9
X5.994Y-3.9695
X6.394Y-3.9695
X3.4165Y-4.6115
X3.8165Y-4.6115
X5.2616Y-1.65
X5.36Y-1.65
X6.23Y-3.16
X6.23Y-3.46
X6.33Y-3.16
X6.33Y-3.46
X6.43Y-3.16
X6.43Y-3.46
X6.53Y-3.16
X6.53Y-3.46
X6.63Y-3.16
X6.63Y-3.46
X6.73Y-3.16
X6.73Y-3.46
X6.83Y-3.16
X6.83Y-3.46
X6.93Y-3.16
X6.93Y-3.46
X7.66Y-4.135
X8.06Y-4.135
X3.314Y-3.2995
X3.714Y-3.2995
X2.585Y-5.242
X2.585Y-5.542
X2.685Y-5.242
X2.685Y-5.542
X2.785Y-5.242
X2.785Y-5.542
X2.885Y-5.242
X2.885Y-5.542
X2.985Y-5.242
X2.985Y-5.542
X3.085Y-5.242
X3.085Y-5.542
X3.185Y-5.242
X3.185Y-5.542
X3.285Y-5.242
X3.285Y-5.542
X8.09Y-3.4975
X8.49Y-3.4975
X2.64Y-2.67
X3.04Y-2.67
X3.2015Y-1.9275
X3.2015Y-2.3275
X2.491Y-1.887
X2.491Y-2.287
X4.373Y-4.608
X4.773Y-4.608
X4.5345Y-3.491
X4.5345Y-3.891
X6.5385Y-4.1275
X6.9385Y-4.1275
X5.1895Y-3.967
X5.5895Y-3.967
X8.417Y-1.954
X8.417Y-2.254
X8.517Y-1.954
X8.517Y-2.254
X8.617Y-1.954
X8.617Y-2.254
X8.717Y-1.954
X8.717Y-2.254
X8.817Y-1.954
X8.817Y-2.254
X8.917Y-1.954
X8.917Y-2.254
X9.017Y-1.954
X9.017Y-2.254
X9.117Y-1.954
X9.117Y-2.254
X2.9265Y-4.612
X3.3265Y-4.612
X4.605Y-1.763
X4.605Y-2.063
X4.705Y-1.763
X4.705Y-2.063
X4.805Y-1.763
X4.805Y-2.063
X4.905Y-1.763
X4.905Y-2.063
X5.005Y-1.763
X5.005Y-2.063
X5.105Y-1.763
X5.105Y-2.063
X5.205Y-1.763
X5.205Y-2.063
X5.305Y-1.763
X5.305Y-2.063
X7.105Y-3.99
X7.505Y-3.99
X6.004Y-4.1285
X6.404Y-4.1285
X2.981Y-1.797
X3.081Y-1.797
X3.181Y-1.797
X2.977Y-1.623
X3.077Y-1.623
X3.177Y-1.623
X2.39Y-4.61
X2.79Y-4.61
X2.15Y-3.5
X2.15Y-3.9
X2.102Y-1.941
X2.102Y-2.341
X8.34Y-4.78
X8.74Y-4.78
X7.8Y-3.33
X8.2Y-3.33
X7.8225Y-4.7625
X8.2225Y-4.7625
X3.857Y-3.401
X3.857Y-3.501
X3.857Y-3.601
X3.857Y-3.701
X3.857Y-3.801
X3.857Y-3.901
X3.857Y-4.001
X3.857Y-4.101
X4.157Y-3.401
X4.157Y-3.501
X4.157Y-3.601
X4.157Y-3.701
X4.157Y-3.801
X4.157Y-3.901
X4.157Y-4.001
X4.157Y-4.101
X2.201Y-1.948
X2.201Y-2.348
X5.23Y-3.16
X5.23Y-3.46
X5.33Y-3.16
X5.33Y-3.46
X5.43Y-3.16
X5.43Y-3.46
X5.53Y-3.16
X5.53Y-3.46
X5.63Y-3.16
X5.63Y-3.46
X5.73Y-3.16
X5.73Y-3.46
X5.83Y-3.16
X5.83Y-3.46
X5.93Y-3.16
X5.93Y-3.46
X7.05Y-4.68
X7.05Y-4.7784
X3.896Y-1.911
X3.896Y-2.011
X3.896Y-2.111
X3.896Y-2.211
X3.896Y-2.311
X3.896Y-2.411
X3.896Y-2.511
X3.896Y-2.611
X4.196Y-1.911
X4.196Y-2.011
X4.196Y-2.111
X4.196Y-2.211
X4.196Y-2.311
X4.196Y-2.411
X4.196Y-2.511
X4.196Y-2.611
X6.538Y-3.9805
X6.938Y-3.9805
X3.62Y-2.39
X3.62Y-2.79
X8.77Y-2.72
X9.17Y-2.72
X3.0075Y-1.9265
X3.0075Y-2.3265
X2.745Y-4.775
X3.145Y-4.775
X3.09Y-3.98
X3.49Y-3.98
X8.59Y-3.4975
X8.99Y-3.4975
X2.14Y-2.46
X2.14Y-2.86
X6.33Y-2.73
X6.33Y-3.03
X6.43Y-2.73
X6.43Y-3.03
X6.53Y-2.73
X6.53Y-3.03
X6.63Y-2.73
X6.63Y-3.03
X6.73Y-2.73
X6.73Y-3.03
X6.83Y-2.73
X6.83Y-3.03
X6.93Y-2.73
X6.93Y-3.03
X7.03Y-2.73
X7.03Y-3.03
X6.22Y-2.27
X6.62Y-2.27
X3.09Y-4.15
X3.49Y-4.15
X8.2645Y-2.86
X8.6645Y-2.86
X8.2285Y-3.99
X8.6285Y-3.99
X9.1Y-2.87
X9.5Y-2.87
X3.1065Y-1.927
X3.1065Y-2.327
X2.9145Y-1.7
X2.9145Y-2.1
X2.302Y-1.945
X2.302Y-2.345
X3.317Y-2.9765
X3.717Y-2.9765
X2.52Y-4.1555
X2.92Y-4.1555
X2.52Y-3.98
X2.92Y-3.98
X5.23Y-2.9216
X5.23Y-3.02
X4.5972Y-2.5928
X4.88Y-2.31
X8.732Y-4.657
X9.132Y-4.657
X6.25Y-4.68
X6.25Y-4.98
X6.35Y-4.68
X6.35Y-4.98
X6.45Y-4.68
X6.45Y-4.98
X6.55Y-4.68
X6.55Y-4.98
X6.65Y-4.68
X6.65Y-4.98
X6.75Y-4.68
X6.75Y-4.98
X6.85Y-4.68
X6.85Y-4.98
X6.95Y-4.68
X6.95Y-4.98
X4.8172Y-3.1672
X5.1Y-3.45
X8.28Y-2.1116
X8.28Y-2.21
T3
X3.379Y-1.725
X3.479Y-1.725
X4.576Y-4.402
X4.676Y-4.402
X3.38Y-2.829
X3.48Y-2.829
X3.144Y-3.143
X3.244Y-3.143
X2.922Y-4.403
X3.022Y-4.403
X5.757Y-2.513
X5.857Y-2.513
X3.159Y-4.403
X3.259Y-4.403
X5.283Y-3.773
X5.383Y-3.773
X8.837Y-3.773
X8.937Y-3.773
X4.6813Y-2.8497
X4.752Y-2.779
X3.287Y-5.033
X3.387Y-5.033
X6.229Y-3.773
X6.329Y-3.773
X7.409Y-4.403
X7.509Y-4.403
X8.337Y-2.513
X8.437Y-2.513
X7.271Y-4.582
X7.3093Y-4.6744
X4.6803Y-3.4343
X4.751Y-3.505
X3.5276Y-5.0423
X3.62Y-5.004
X6.938Y-4.403
X7.038Y-4.403
X3.631Y-4.403
X3.731Y-4.403
X2.671Y-1.725
X2.771Y-1.725
X7.659Y-1.726
X7.759Y-1.726
X3.144Y-2.513
X3.244Y-2.513
X3.144Y-2.828
X3.244Y-2.828
X8.837Y-2.513
X8.937Y-2.513
X5.515Y-4.404
X5.615Y-4.404
X6.701Y-2.513
X6.801Y-2.513
X7.841Y-3.773
X7.941Y-3.773
X7.5063Y-3.3437
X7.577Y-3.273
X2.45Y-4.404
X2.55Y-4.404
X5.283Y-2.512
X5.383Y-2.512
X8.053Y-5.033
X8.153Y-5.033
X7.594Y-2.513
X7.694Y-2.513
X8.606Y-3.143
X8.706Y-3.143
X2.436Y-3.457
X2.536Y-3.457
X9.077Y-5.033
X9.177Y-5.033
X7.5063Y-2.9423
X7.577Y-3.013
X8.591Y-4.403
X8.691Y-4.403
X9.063Y-4.404
X9.163Y-4.404
X6.229Y-4.403
X6.329Y-4.403
X2.906Y-3.144
X3.006Y-3.144
X3.852Y-3.144
X3.952Y-3.144
X3.616Y-3.144
X3.716Y-3.144
X2.435Y-3.773
X2.535Y-3.773
X4.81Y-4.403
X4.91Y-4.403
X6.9493Y-3.7737
X7.02Y-3.703
X8.589Y-3.773
X8.689Y-3.773
X7.661Y-3.143
X7.761Y-3.143
X5.284Y-4.402
X5.384Y-4.402
X4.5113Y-3.0087
X4.582Y-2.938
X5.992Y-4.403
X6.092Y-4.403
X8.131Y-3.142
X8.231Y-3.142
X9.077Y-2.513
X9.177Y-2.513
X3.143Y-3.458
X3.243Y-3.458
X6.702Y-4.403
X6.802Y-4.403
X7.883Y-4.403
X7.983Y-4.403
X4.339Y-4.403
X4.439Y-4.403
X2.436Y-5.033
X2.536Y-5.033
X8.054Y-1.726
X8.154Y-1.726
X2.435Y-2.513
X2.535Y-2.513
X4.321Y-3.143
X4.421Y-3.143
X4.088Y-3.144
X4.188Y-3.144
X3.38Y-3.773
X3.48Y-3.773
X7.348Y-2.513
X7.448Y-2.513
X9.077Y-3.773
X9.177Y-3.773
X2.908Y-3.459
X3.008Y-3.459
X2.685Y-4.403
X2.785Y-4.403
X2.672Y-3.457
X2.772Y-3.457
X7.608Y-4.905
X7.6787Y-4.9757
X4.8446Y-2.6763
X4.937Y-2.638
X8.589Y-2.513
X8.689Y-2.513
X6.7024Y-3.7849
X6.799Y-3.759
X5.756Y-4.403
X5.856Y-4.403
X8.827Y-4.403
X8.927Y-4.403
X2.718Y-5.033
X2.818Y-5.033
X6.464Y-4.403
X6.564Y-4.403
X6.9386Y-2.5287
X7.031Y-2.567
X8.29Y-5.033
X8.39Y-5.033
X2.908Y-3.773
X3.008Y-3.773
X6.479Y-1.726
X6.579Y-1.726
X2.908Y-2.513
X3.008Y-2.513
X2.671Y-2.829
X2.771Y-2.829
X2.435Y-3.144
X2.535Y-3.144
X5.521Y-2.514
X5.621Y-2.514
X7.841Y-2.513
X7.941Y-2.513
X5.992Y-3.773
X6.092Y-3.773
X7.594Y-3.773
X7.694Y-3.773
X2.671Y-3.773
X2.771Y-3.773
X3.866Y-4.402
X3.966Y-4.402
X3.38Y-3.458
X3.48Y-3.458
X7.646Y-4.403
X7.746Y-4.403
X4.5103Y-3.2753
X4.581Y-3.346
X8.842Y-3.144
X8.942Y-3.144
X3.144Y-3.773
X3.244Y-3.773
X4.154Y-4.589
X4.154Y-4.689
X9.077Y-3.143
X9.177Y-3.143
X3.7623Y-4.9827
X3.833Y-4.912
X8.815Y-5.033
X8.915Y-5.033
X7.3343Y-3.5047
X7.405Y-3.434
X2.671Y-2.513
X2.771Y-2.513
X2.434Y-2.829
X2.534Y-2.829
X3.38Y-3.144
X3.48Y-3.144
X8.368Y-3.143
X8.468Y-3.143
X5.049Y-2.548
X5.149Y-2.548
X7.896Y-3.144
X7.996Y-3.144
X7.1583Y-2.6223
X7.229Y-2.693
X8.089Y-3.773
X8.189Y-3.773
X4.8446Y-3.6087
X4.937Y-3.647
X5.582Y-4.172
X5.682Y-4.172
X6.228Y-2.513
X6.328Y-2.513
X8.552Y-5.033
X8.652Y-5.033
X8.089Y-2.513
X8.189Y-2.513
X5.758Y-4.009
X5.858Y-4.009
X5.52Y-3.773
X5.62Y-3.773
X7.424Y-4.759
X7.4947Y-4.8297
X3.9503Y-4.8397
X4.021Y-4.769
X7.173Y-4.403
X7.273Y-4.403
X8.119Y-4.403
X8.219Y-4.403
X3.394Y-4.403
X3.494Y-4.403
X8.448Y-1.726
X8.548Y-1.726
X7.266Y-1.726
X7.366Y-1.726
X3.379Y-2.513
X3.479Y-2.513
X6.874Y-1.725
X6.974Y-1.725
X2.908Y-2.828
X3.008Y-2.828
X2.671Y-3.144
X2.771Y-3.144
X5.048Y-4.403
X5.148Y-4.403
X5.992Y-2.513
X6.092Y-2.513
X7.348Y-3.773
X7.448Y-3.773
X5.05Y-3.738
X5.15Y-3.738
X8.337Y-3.773
X8.437Y-3.773
X7.3343Y-2.7813
X7.405Y-2.852
X4.103Y-4.402
X4.203Y-4.402
X6.465Y-2.514
X6.565Y-2.514
X6.464Y-3.773
X6.564Y-3.773
X7.821Y-5.001
X7.9134Y-5.0393
X7.1583Y-3.6627
X7.229Y-3.592
X8.355Y-4.402
X8.455Y-4.402
X3.003Y-5.032
X3.103Y-5.032
X8.841Y-1.726
X8.941Y-1.726
X5.757Y-3.773
X5.857Y-3.773
T4
X4.666Y-5.176
X4.666Y-5.276
X4.766Y-5.176
X4.766Y-5.276
X4.866Y-5.176
X4.866Y-5.276
X4.966Y-5.176
X4.966Y-5.276
X5.066Y-5.176
X5.066Y-5.276
X5.166Y-5.176
X5.166Y-5.276
X6.447Y-5.177
X6.447Y-5.277
X6.547Y-5.177
X6.547Y-5.277
X6.647Y-5.177
X6.647Y-5.277
X6.747Y-5.177
X6.747Y-5.277
X6.847Y-5.177
X6.847Y-5.277
X6.947Y-5.177
X6.947Y-5.277
T5
X9.33Y-2.3841
X9.33Y-2.64
X9.5072Y-2.3841
X9.5072Y-2.64
X3.302Y-1.992
X3.302Y-2.1692
X3.5579Y-1.992
X3.5579Y-2.1692
X9.33Y-4.9061
X9.33Y-5.162
X9.5072Y-4.9061
X9.5072Y-5.162
X9.33Y-3.6441
X9.33Y-3.9
X9.5072Y-3.6441
X9.5072Y-3.9
X2.101Y-4.9051
X2.101Y-5.161
X2.2782Y-4.9051
X2.2782Y-5.161
X9.33Y-4.2761
X9.33Y-4.532
X9.5072Y-4.2761
X9.5072Y-4.532
X2.101Y-4.2751
X2.101Y-4.531
X2.2782Y-4.2751
X2.2782Y-4.531
X2.101Y-3.0151
X2.101Y-3.271
X2.2782Y-3.0151
X2.2782Y-3.271
X9.33Y-3.0161
X9.33Y-3.272
X9.5072Y-3.0161
X9.5072Y-3.272
X2.593Y-1.992
X2.593Y-2.1692
X2.8489Y-1.992
X2.8489Y-2.1692
T6
X2.249Y-1.766
X2.287Y-5.504
X9.324Y-5.504
X5.806Y-5.503
X9.324Y-1.766
X5.806Y-1.687
T0
M30
