%TF.GenerationSoftware,KiCad,Pcbnew,(5.1.6)-1*%
%TF.CreationDate,2020-08-11T15:09:08+01:00*%
%TF.ProjectId,panel-display,70616e65-6c2d-4646-9973-706c61792e6b,rev?*%
%TF.SameCoordinates,Original*%
%TF.FileFunction,Soldermask,Top*%
%TF.FilePolarity,Negative*%
%FSLAX46Y46*%
G04 Gerber Fmt 4.6, Leading zero omitted, Abs format (unit mm)*
G04 Created by KiCad (PCBNEW (5.1.6)-1) date 2020-08-11 15:09:08*
%MOMM*%
%LPD*%
G01*
G04 APERTURE LIST*
%TA.AperFunction,Profile*%
%ADD10C,0.200000*%
%TD*%
%ADD11R,2.500000X1.700000*%
%ADD12O,2.500000X1.700000*%
%ADD13R,1.700000X2.500000*%
%ADD14O,1.700000X2.500000*%
%ADD15O,1.800000X1.800000*%
%ADD16R,1.800000X1.800000*%
%ADD17C,0.100000*%
%ADD18C,1.900000*%
%ADD19C,1.700000*%
%ADD20O,1.700000X1.700000*%
%ADD21C,1.620000*%
%ADD22R,1.620000X1.620000*%
%ADD23R,1.900000X1.900000*%
%ADD24C,3.300000*%
%ADD25C,2.100000*%
G04 APERTURE END LIST*
D10*
X51617018Y-38354000D02*
X51617018Y-138699733D01*
X243332000Y-138699733D02*
X243332000Y-38354000D01*
X56117018Y-143292293D02*
X238832000Y-143292293D01*
X242414280Y-141479128D02*
X242572959Y-141251671D01*
X242572959Y-141251671D02*
X242717597Y-141014524D01*
X242717597Y-141014524D02*
X242847851Y-140768669D01*
X242847851Y-140768669D02*
X242963380Y-140515090D01*
X242963380Y-140515090D02*
X243063842Y-140254768D01*
X243063842Y-140254768D02*
X243148893Y-139988689D01*
X243148893Y-139988689D02*
X243218193Y-139717834D01*
X243218193Y-139717834D02*
X243271399Y-139443187D01*
X243271399Y-139443187D02*
X243308169Y-139165731D01*
X243308169Y-139165731D02*
X243328161Y-138886449D01*
X243328161Y-138886449D02*
X243332000Y-138699733D01*
X51617018Y-138699733D02*
X51625026Y-138965674D01*
X51625026Y-138965674D02*
X51648784Y-139230370D01*
X51648784Y-139230370D02*
X51687892Y-139493042D01*
X51687892Y-139493042D02*
X51741950Y-139752911D01*
X51741950Y-139752911D02*
X51810558Y-140009198D01*
X51810558Y-140009198D02*
X51893315Y-140261124D01*
X51893315Y-140261124D02*
X51989822Y-140507910D01*
X51989822Y-140507910D02*
X52099677Y-140748778D01*
X52099677Y-140748778D02*
X52222482Y-140982947D01*
X52222482Y-140982947D02*
X52357836Y-141209640D01*
X52357836Y-141209640D02*
X52505339Y-141428077D01*
X52505339Y-141428077D02*
X52664591Y-141637479D01*
X52664591Y-141637479D02*
X52835191Y-141837068D01*
X52835191Y-141837068D02*
X53016740Y-142026064D01*
X53016740Y-142026064D02*
X53208838Y-142203688D01*
X53208838Y-142203688D02*
X53411084Y-142369163D01*
X53411084Y-142369163D02*
X53633925Y-142529506D01*
X53633925Y-142529506D02*
X53865822Y-142675439D01*
X53865822Y-142675439D02*
X54105847Y-142806664D01*
X54105847Y-142806664D02*
X54353077Y-142922886D01*
X54353077Y-142922886D02*
X54606584Y-143023805D01*
X54606584Y-143023805D02*
X54865443Y-143109125D01*
X54865443Y-143109125D02*
X55128729Y-143178548D01*
X55128729Y-143178548D02*
X55395515Y-143231778D01*
X55395515Y-143231778D02*
X55664876Y-143268516D01*
X55664876Y-143268516D02*
X55935885Y-143288466D01*
X55935885Y-143288466D02*
X56117018Y-143292293D01*
X238832000Y-143292293D02*
X239090043Y-143284308D01*
X239090043Y-143284308D02*
X239347043Y-143260594D01*
X239347043Y-143260594D02*
X239602250Y-143221513D01*
X239602250Y-143221513D02*
X239854909Y-143167424D01*
X239854909Y-143167424D02*
X240104269Y-143098689D01*
X240104269Y-143098689D02*
X240349577Y-143015669D01*
X240349577Y-143015669D02*
X240590081Y-142918723D01*
X240590081Y-142918723D02*
X240825028Y-142808214D01*
X240825028Y-142808214D02*
X241053667Y-142684501D01*
X241053667Y-142684501D02*
X241275243Y-142547946D01*
X241275243Y-142547946D02*
X241489006Y-142398909D01*
X241489006Y-142398909D02*
X241694203Y-142237751D01*
X241694203Y-142237751D02*
X241890081Y-142064833D01*
X241890081Y-142064833D02*
X242075888Y-141880516D01*
X242075888Y-141880516D02*
X242250872Y-141685161D01*
X242250872Y-141685161D02*
X242414280Y-141479128D01*
X243332000Y-38354000D02*
X51617018Y-38354000D01*
D11*
%TO.C,U7*%
X105587800Y-86385400D03*
D12*
X97967800Y-104165400D03*
X105587800Y-88925400D03*
X97967800Y-101625400D03*
X105587800Y-91465400D03*
X97967800Y-99085400D03*
X105587800Y-94005400D03*
X97967800Y-96545400D03*
X105587800Y-96545400D03*
X97967800Y-94005400D03*
X105587800Y-99085400D03*
X97967800Y-91465400D03*
X105587800Y-101625400D03*
X97967800Y-88925400D03*
X105587800Y-104165400D03*
X97967800Y-86385400D03*
%TD*%
D13*
%TO.C,U8*%
X158242000Y-80264000D03*
D14*
X176022000Y-87884000D03*
X160782000Y-80264000D03*
X173482000Y-87884000D03*
X163322000Y-80264000D03*
X170942000Y-87884000D03*
X165862000Y-80264000D03*
X168402000Y-87884000D03*
X168402000Y-80264000D03*
X165862000Y-87884000D03*
X170942000Y-80264000D03*
X163322000Y-87884000D03*
X173482000Y-80264000D03*
X160782000Y-87884000D03*
X176022000Y-80264000D03*
X158242000Y-87884000D03*
%TD*%
D15*
%TO.C,J1*%
X176453800Y-131495800D03*
X176453800Y-134035800D03*
X173913800Y-131495800D03*
X173913800Y-134035800D03*
X171373800Y-131495800D03*
X171373800Y-134035800D03*
X168833800Y-131495800D03*
X168833800Y-134035800D03*
X166293800Y-131495800D03*
X166293800Y-134035800D03*
X163753800Y-131495800D03*
D16*
X163753800Y-134035800D03*
%TD*%
D13*
%TO.C,U3*%
X212852000Y-140462000D03*
D14*
X195072000Y-132842000D03*
X210312000Y-140462000D03*
X197612000Y-132842000D03*
X207772000Y-140462000D03*
X200152000Y-132842000D03*
X205232000Y-140462000D03*
X202692000Y-132842000D03*
X202692000Y-140462000D03*
X205232000Y-132842000D03*
X200152000Y-140462000D03*
X207772000Y-132842000D03*
X197612000Y-140462000D03*
X210312000Y-132842000D03*
X195072000Y-140462000D03*
X212852000Y-132842000D03*
%TD*%
D17*
%TO.C,D22*%
G36*
X179828635Y-64687664D02*
G01*
X179101536Y-66443035D01*
X177346165Y-65715936D01*
X178073264Y-63960565D01*
X179828635Y-64687664D01*
G37*
D18*
X176240746Y-64229784D03*
%TD*%
D13*
%TO.C,U6*%
X176530000Y-126492000D03*
D14*
X158750000Y-118872000D03*
X173990000Y-126492000D03*
X161290000Y-118872000D03*
X171450000Y-126492000D03*
X163830000Y-118872000D03*
X168910000Y-126492000D03*
X166370000Y-118872000D03*
X166370000Y-126492000D03*
X168910000Y-118872000D03*
X163830000Y-126492000D03*
X171450000Y-118872000D03*
X161290000Y-126492000D03*
X173990000Y-118872000D03*
X158750000Y-126492000D03*
X176530000Y-118872000D03*
%TD*%
D13*
%TO.C,U5*%
X135382000Y-69088000D03*
D14*
X153162000Y-76708000D03*
X137922000Y-69088000D03*
X150622000Y-76708000D03*
X140462000Y-69088000D03*
X148082000Y-76708000D03*
X143002000Y-69088000D03*
X145542000Y-76708000D03*
X145542000Y-69088000D03*
X143002000Y-76708000D03*
X148082000Y-69088000D03*
X140462000Y-76708000D03*
X150622000Y-69088000D03*
X137922000Y-76708000D03*
X153162000Y-69088000D03*
X135382000Y-76708000D03*
%TD*%
D13*
%TO.C,U4*%
X144018000Y-126492000D03*
D14*
X126238000Y-118872000D03*
X141478000Y-126492000D03*
X128778000Y-118872000D03*
X138938000Y-126492000D03*
X131318000Y-118872000D03*
X136398000Y-126492000D03*
X133858000Y-118872000D03*
X133858000Y-126492000D03*
X136398000Y-118872000D03*
X131318000Y-126492000D03*
X138938000Y-118872000D03*
X128778000Y-126492000D03*
X141478000Y-118872000D03*
X126238000Y-126492000D03*
X144018000Y-118872000D03*
%TD*%
D13*
%TO.C,U2*%
X132842000Y-80264000D03*
D14*
X150622000Y-87884000D03*
X135382000Y-80264000D03*
X148082000Y-87884000D03*
X137922000Y-80264000D03*
X145542000Y-87884000D03*
X140462000Y-80264000D03*
X143002000Y-87884000D03*
X143002000Y-80264000D03*
X140462000Y-87884000D03*
X145542000Y-80264000D03*
X137922000Y-87884000D03*
X148082000Y-80264000D03*
X135382000Y-87884000D03*
X150622000Y-80264000D03*
X132842000Y-87884000D03*
%TD*%
D13*
%TO.C,U1*%
X83439000Y-140766800D03*
D14*
X65659000Y-133146800D03*
X80899000Y-140766800D03*
X68199000Y-133146800D03*
X78359000Y-140766800D03*
X70739000Y-133146800D03*
X75819000Y-140766800D03*
X73279000Y-133146800D03*
X73279000Y-140766800D03*
X75819000Y-133146800D03*
X70739000Y-140766800D03*
X78359000Y-133146800D03*
X68199000Y-140766800D03*
X80899000Y-133146800D03*
X65659000Y-140766800D03*
X83439000Y-133146800D03*
%TD*%
D19*
%TO.C,R68*%
X140462000Y-57658000D03*
D20*
X150622000Y-57658000D03*
%TD*%
D19*
%TO.C,R67*%
X168148000Y-57658000D03*
D20*
X157988000Y-57658000D03*
%TD*%
D19*
%TO.C,R66*%
X123952000Y-58674000D03*
G36*
G01*
X117368836Y-65257164D02*
X117368836Y-65257164D01*
G75*
G02*
X117368836Y-66459246I-601041J-601041D01*
G01*
X117368836Y-66459246D01*
G75*
G02*
X116166754Y-66459246I-601041J601041D01*
G01*
X116166754Y-66459246D01*
G75*
G02*
X116166754Y-65257164I601041J601041D01*
G01*
X116166754Y-65257164D01*
G75*
G02*
X117368836Y-65257164I601041J-601041D01*
G01*
G37*
%TD*%
%TO.C,R65*%
X130810000Y-69862700D03*
G36*
G01*
X124226836Y-76445864D02*
X124226836Y-76445864D01*
G75*
G02*
X124226836Y-77647946I-601041J-601041D01*
G01*
X124226836Y-77647946D01*
G75*
G02*
X123024754Y-77647946I-601041J601041D01*
G01*
X123024754Y-77647946D01*
G75*
G02*
X123024754Y-76445864I601041J601041D01*
G01*
X123024754Y-76445864D01*
G75*
G02*
X124226836Y-76445864I601041J-601041D01*
G01*
G37*
%TD*%
%TO.C,R64*%
X162661600Y-104863900D03*
D20*
X152501600Y-104863900D03*
%TD*%
D19*
%TO.C,R63*%
X128054100Y-105321100D03*
D20*
X138214100Y-105321100D03*
%TD*%
D19*
%TO.C,R62*%
X78486000Y-105410000D03*
D20*
X88646000Y-105410000D03*
%TD*%
D19*
%TO.C,R61*%
X84493100Y-117144800D03*
D20*
X74333100Y-117144800D03*
%TD*%
D19*
%TO.C,R60*%
X205486000Y-88836500D03*
D20*
X215646000Y-88836500D03*
%TD*%
D19*
%TO.C,R59*%
X204724000Y-101346000D03*
D20*
X194564000Y-101346000D03*
%TD*%
D19*
%TO.C,R58*%
X220078300Y-72644000D03*
D20*
X209918300Y-72644000D03*
%TD*%
D19*
%TO.C,R57*%
X182626000Y-49123600D03*
D20*
X182626000Y-59283600D03*
%TD*%
D19*
%TO.C,R56*%
X129540000Y-87630000D03*
G36*
G01*
X122956836Y-81046836D02*
X122956836Y-81046836D01*
G75*
G02*
X121754754Y-81046836I-601041J601041D01*
G01*
X121754754Y-81046836D01*
G75*
G02*
X121754754Y-79844754I601041J601041D01*
G01*
X121754754Y-79844754D01*
G75*
G02*
X122956836Y-79844754I601041J-601041D01*
G01*
X122956836Y-79844754D01*
G75*
G02*
X122956836Y-81046836I-601041J-601041D01*
G01*
G37*
%TD*%
%TO.C,R55*%
X176225200Y-101104700D03*
D20*
X166065200Y-101104700D03*
%TD*%
D19*
%TO.C,R54*%
X180467000Y-101346000D03*
D20*
X190627000Y-101346000D03*
%TD*%
D19*
%TO.C,R53*%
X201244200Y-68427600D03*
D20*
X191084200Y-68427600D03*
%TD*%
D19*
%TO.C,R52*%
X84175600Y-83807300D03*
D20*
X94335600Y-83807300D03*
%TD*%
D19*
%TO.C,R51*%
X64008000Y-101092000D03*
D20*
X74168000Y-101092000D03*
%TD*%
D19*
%TO.C,R50*%
X57658000Y-62484000D03*
D20*
X57658000Y-72644000D03*
%TD*%
D19*
%TO.C,R49*%
X54356000Y-62484000D03*
D20*
X54356000Y-72644000D03*
%TD*%
D19*
%TO.C,R48*%
X55905400Y-49479200D03*
D20*
X55905400Y-59639200D03*
%TD*%
D19*
%TO.C,R47*%
X60858400Y-48006000D03*
D20*
X60858400Y-58166000D03*
%TD*%
D19*
%TO.C,R46*%
X198691500Y-120967500D03*
D20*
X208851500Y-120967500D03*
%TD*%
D19*
%TO.C,R45*%
X221792800Y-118287800D03*
D20*
X231952800Y-118287800D03*
%TD*%
D19*
%TO.C,R44*%
X166077900Y-104838500D03*
D20*
X176237900Y-104838500D03*
%TD*%
D19*
%TO.C,R43*%
X204724000Y-105029000D03*
D20*
X194564000Y-105029000D03*
%TD*%
D19*
%TO.C,R42*%
X105003600Y-130149600D03*
D20*
X94843600Y-130149600D03*
%TD*%
D19*
%TO.C,R41*%
X131813300Y-100761800D03*
D20*
X141973300Y-100761800D03*
%TD*%
D19*
%TO.C,R40*%
X101854000Y-127000000D03*
D20*
X112014000Y-127000000D03*
%TD*%
D19*
%TO.C,R39*%
X86779100Y-117132100D03*
D20*
X96939100Y-117132100D03*
%TD*%
D19*
%TO.C,R38*%
X64008000Y-105549700D03*
D20*
X74168000Y-105549700D03*
%TD*%
D19*
%TO.C,R37*%
X228346000Y-88836500D03*
D20*
X218186000Y-88836500D03*
%TD*%
D19*
%TO.C,R36*%
X219163900Y-101346000D03*
D20*
X209003900Y-101346000D03*
%TD*%
D19*
%TO.C,R35*%
X208280000Y-84582000D03*
D20*
X198120000Y-84582000D03*
%TD*%
D19*
%TO.C,R34*%
X185166000Y-49098200D03*
D20*
X185166000Y-59258200D03*
%TD*%
D19*
%TO.C,R33*%
X115176300Y-98831400D03*
D20*
X115176300Y-88671400D03*
%TD*%
D19*
%TO.C,R32*%
X162407600Y-100825300D03*
D20*
X152247600Y-100825300D03*
%TD*%
D19*
%TO.C,R31*%
X202526900Y-88861900D03*
D20*
X192366900Y-88861900D03*
%TD*%
D19*
%TO.C,R30*%
X206819500Y-72631300D03*
D20*
X196659500Y-72631300D03*
%TD*%
D19*
%TO.C,R29*%
X84251800Y-75603100D03*
D20*
X94411800Y-75603100D03*
%TD*%
D19*
%TO.C,R28*%
X57912000Y-99060000D03*
D20*
X57912000Y-88900000D03*
%TD*%
D19*
%TO.C,R27*%
X78486000Y-101092000D03*
D20*
X88646000Y-101092000D03*
%TD*%
D19*
%TO.C,R26*%
X53390800Y-49301400D03*
D20*
X53390800Y-59461400D03*
%TD*%
D19*
%TO.C,R25*%
X58470800Y-49403000D03*
D20*
X58470800Y-59563000D03*
%TD*%
D19*
%TO.C,R24*%
X63271400Y-47929800D03*
D20*
X63271400Y-58089800D03*
%TD*%
D19*
%TO.C,R23*%
X217944700Y-117652800D03*
D20*
X207784700Y-117652800D03*
%TD*%
D19*
%TO.C,R22*%
X211836000Y-121412000D03*
D20*
X221996000Y-121412000D03*
%TD*%
D19*
%TO.C,R21*%
X111074200Y-117043200D03*
D20*
X121234200Y-117043200D03*
%TD*%
D19*
%TO.C,R20*%
X204470000Y-116674900D03*
D20*
X194310000Y-116674900D03*
%TD*%
D19*
%TO.C,R19*%
X79883000Y-121285000D03*
D20*
X69723000Y-121285000D03*
%TD*%
D19*
%TO.C,R18*%
X151384000Y-48514000D03*
D20*
X161544000Y-48514000D03*
%TD*%
D19*
%TO.C,R17*%
X151384000Y-45720000D03*
D20*
X161544000Y-45720000D03*
%TD*%
D19*
%TO.C,R16*%
X92976700Y-40563800D03*
D20*
X82816700Y-40563800D03*
%TD*%
D19*
%TO.C,R15*%
X62636400Y-40754300D03*
D20*
X72796400Y-40754300D03*
%TD*%
D19*
%TO.C,R14*%
X74028300Y-53340000D03*
D20*
X74028300Y-43180000D03*
%TD*%
D19*
%TO.C,R13*%
X81318100Y-59118500D03*
D20*
X81318100Y-48958500D03*
%TD*%
D19*
%TO.C,R12*%
X76390500Y-59093100D03*
D20*
X76390500Y-48933100D03*
%TD*%
D19*
%TO.C,R11*%
X78905100Y-59105800D03*
D20*
X78905100Y-48945800D03*
%TD*%
D19*
%TO.C,R10*%
X230886000Y-121412000D03*
D20*
X241046000Y-121412000D03*
%TD*%
D19*
%TO.C,R9*%
X231140000Y-104648000D03*
D20*
X241300000Y-104648000D03*
%TD*%
D19*
%TO.C,R8*%
X231140000Y-88900000D03*
D20*
X241300000Y-88900000D03*
%TD*%
D19*
%TO.C,R7*%
X231140000Y-72898000D03*
D20*
X241300000Y-72898000D03*
%TD*%
D19*
%TO.C,R6*%
X222758000Y-69088000D03*
D20*
X232918000Y-69088000D03*
%TD*%
D19*
%TO.C,R5*%
X65532000Y-121666000D03*
D20*
X55372000Y-121666000D03*
%TD*%
D19*
%TO.C,R4*%
X70866000Y-117094000D03*
D20*
X60706000Y-117094000D03*
%TD*%
D19*
%TO.C,R3*%
X54610000Y-99060000D03*
D20*
X54610000Y-88900000D03*
%TD*%
D19*
%TO.C,R2*%
X77216000Y-67818000D03*
D20*
X67056000Y-67818000D03*
%TD*%
D19*
%TO.C,R1*%
X91948000Y-70866000D03*
D20*
X91948000Y-60706000D03*
%TD*%
D21*
%TO.C,Q2*%
X78155800Y-41224200D03*
X80695800Y-41224200D03*
D22*
X75615800Y-41224200D03*
%TD*%
D21*
%TO.C,Q1*%
X78257400Y-45643800D03*
X80797400Y-45643800D03*
D22*
X75717400Y-45643800D03*
%TD*%
D23*
%TO.C,D144*%
X227126800Y-79857600D03*
D18*
X224586800Y-79857600D03*
%TD*%
D23*
%TO.C,D142*%
X233095800Y-79832200D03*
D18*
X230555800Y-79832200D03*
%TD*%
D23*
%TO.C,D141*%
X220700600Y-63830200D03*
D18*
X218160600Y-63830200D03*
%TD*%
D23*
%TO.C,D140*%
X233095800Y-63830200D03*
D18*
X230555800Y-63830200D03*
%TD*%
D23*
%TO.C,D139*%
X221132400Y-79832200D03*
D18*
X218592400Y-79832200D03*
%TD*%
D23*
%TO.C,D137*%
X202768200Y-111836200D03*
D18*
X200228200Y-111836200D03*
%TD*%
D23*
%TO.C,D136*%
X190728600Y-111836200D03*
D18*
X188188600Y-111836200D03*
%TD*%
D23*
%TO.C,D135*%
X217220800Y-127838200D03*
D18*
X219760800Y-127838200D03*
%TD*%
D23*
%TO.C,D134*%
X230555800Y-127838200D03*
D18*
X233095800Y-127838200D03*
%TD*%
D23*
%TO.C,D133*%
X226745800Y-111836200D03*
D18*
X224205800Y-111836200D03*
%TD*%
D23*
%TO.C,D132*%
X214757000Y-111810800D03*
D18*
X212217000Y-111810800D03*
%TD*%
D23*
%TO.C,D131*%
X208762600Y-111836200D03*
D18*
X206222600Y-111836200D03*
%TD*%
D23*
%TO.C,D130*%
X220751400Y-111836200D03*
D18*
X218211400Y-111836200D03*
%TD*%
D23*
%TO.C,D129*%
X196748400Y-111836200D03*
D18*
X194208400Y-111836200D03*
%TD*%
D23*
%TO.C,D127*%
X223901000Y-127838200D03*
D18*
X226441000Y-127838200D03*
%TD*%
D23*
%TO.C,D125*%
X232740200Y-111861600D03*
D18*
X230200200Y-111861600D03*
%TD*%
D17*
%TO.C,D124*%
G36*
X183442165Y-115868664D02*
G01*
X185197536Y-115141565D01*
X185924635Y-116896936D01*
X184169264Y-117624035D01*
X183442165Y-115868664D01*
G37*
D18*
X185655416Y-118729454D03*
%TD*%
D17*
%TO.C,D123*%
G36*
X191899697Y-124587000D02*
G01*
X193243200Y-123243497D01*
X194586703Y-124587000D01*
X193243200Y-125930503D01*
X191899697Y-124587000D01*
G37*
D18*
X195039251Y-126383051D03*
%TD*%
D17*
%TO.C,D122*%
G36*
X92462136Y-125860365D02*
G01*
X93189235Y-127615736D01*
X91433864Y-128342835D01*
X90706765Y-126587464D01*
X92462136Y-125860365D01*
G37*
D18*
X89601346Y-128073616D03*
%TD*%
D17*
%TO.C,D121*%
G36*
X102133400Y-119789097D02*
G01*
X103476903Y-121132600D01*
X102133400Y-122476103D01*
X100789897Y-121132600D01*
X102133400Y-119789097D01*
G37*
D18*
X100337349Y-122928651D03*
%TD*%
D23*
%TO.C,D120*%
X178765200Y-111836200D03*
D18*
X176225200Y-111836200D03*
%TD*%
D23*
%TO.C,D119*%
X166725600Y-111836200D03*
D18*
X164185600Y-111836200D03*
%TD*%
D23*
%TO.C,D118*%
X154736800Y-111836200D03*
D18*
X152196800Y-111836200D03*
%TD*%
D23*
%TO.C,D117*%
X64414400Y-127838200D03*
D18*
X61874400Y-127838200D03*
%TD*%
D23*
%TO.C,D116*%
X78816200Y-127812800D03*
D18*
X76276200Y-127812800D03*
%TD*%
D17*
%TO.C,D115*%
G36*
X187226097Y-120878600D02*
G01*
X188569600Y-119535097D01*
X189913103Y-120878600D01*
X188569600Y-122222103D01*
X187226097Y-120878600D01*
G37*
D18*
X190365651Y-122674651D03*
%TD*%
D17*
%TO.C,D114*%
G36*
X197412165Y-127539536D02*
G01*
X198139264Y-125784165D01*
X199894635Y-126511264D01*
X199167536Y-128266635D01*
X197412165Y-127539536D01*
G37*
D18*
X201000054Y-127997416D03*
%TD*%
D23*
%TO.C,D113*%
X204546200Y-127838200D03*
D18*
X207086200Y-127838200D03*
%TD*%
D17*
%TO.C,D112*%
G36*
X97358200Y-123421297D02*
G01*
X98701703Y-124764800D01*
X97358200Y-126108303D01*
X96014697Y-124764800D01*
X97358200Y-123421297D01*
G37*
D18*
X95562149Y-126560851D03*
%TD*%
D23*
%TO.C,D111*%
X105511600Y-116560600D03*
D18*
X105511600Y-119100600D03*
%TD*%
D23*
%TO.C,D110*%
X160756600Y-111836200D03*
D18*
X158216600Y-111836200D03*
%TD*%
D23*
%TO.C,D109*%
X148742400Y-111836200D03*
D18*
X146202400Y-111836200D03*
%TD*%
D23*
%TO.C,D108*%
X184734200Y-111836200D03*
D18*
X182194200Y-111836200D03*
%TD*%
D23*
%TO.C,D107*%
X172770800Y-111836200D03*
D18*
X170230800Y-111836200D03*
%TD*%
D23*
%TO.C,D106*%
X71577200Y-127838200D03*
D18*
X69037200Y-127838200D03*
%TD*%
D23*
%TO.C,D105*%
X146253200Y-101828600D03*
D18*
X148793200Y-101828600D03*
%TD*%
D23*
%TO.C,D104*%
X86029800Y-127838200D03*
D18*
X83489800Y-127838200D03*
%TD*%
D23*
%TO.C,D103*%
X94767400Y-111836200D03*
D18*
X92227400Y-111836200D03*
%TD*%
D23*
%TO.C,D102*%
X106756200Y-111810800D03*
D18*
X104216200Y-111810800D03*
%TD*%
D23*
%TO.C,D101*%
X141782800Y-105968800D03*
D18*
X144322800Y-105968800D03*
%TD*%
D23*
%TO.C,D100*%
X112750600Y-111836200D03*
D18*
X110210600Y-111836200D03*
%TD*%
D23*
%TO.C,D98*%
X100736400Y-111810800D03*
D18*
X98196400Y-111810800D03*
%TD*%
D23*
%TO.C,D97*%
X142621000Y-111861600D03*
D18*
X140081000Y-111861600D03*
%TD*%
D23*
%TO.C,D96*%
X130759200Y-111836200D03*
D18*
X128219200Y-111836200D03*
%TD*%
D23*
%TO.C,D95*%
X70739000Y-111836200D03*
D18*
X68199000Y-111836200D03*
%TD*%
D23*
%TO.C,D94*%
X82778600Y-111836200D03*
D18*
X80238600Y-111836200D03*
%TD*%
D23*
%TO.C,D93*%
X136753600Y-111810800D03*
D18*
X134213600Y-111810800D03*
%TD*%
D23*
%TO.C,D92*%
X124714000Y-111836200D03*
D18*
X122174000Y-111836200D03*
%TD*%
D23*
%TO.C,D91*%
X64770000Y-111861600D03*
D18*
X62230000Y-111861600D03*
%TD*%
D23*
%TO.C,D90*%
X76758800Y-111836200D03*
D18*
X74218800Y-111836200D03*
%TD*%
D23*
%TO.C,D89*%
X226999800Y-95834200D03*
D18*
X224459800Y-95834200D03*
%TD*%
D23*
%TO.C,D88*%
X214299800Y-95834200D03*
D18*
X211759800Y-95834200D03*
%TD*%
D23*
%TO.C,D87*%
X208000600Y-95834200D03*
D18*
X205460600Y-95834200D03*
%TD*%
D23*
%TO.C,D86*%
X195427600Y-95834200D03*
D18*
X192887600Y-95834200D03*
%TD*%
D23*
%TO.C,D85*%
X233095800Y-95834200D03*
D18*
X230555800Y-95834200D03*
%TD*%
D23*
%TO.C,D84*%
X220700600Y-95834200D03*
D18*
X218160600Y-95834200D03*
%TD*%
D23*
%TO.C,D83*%
X201701400Y-95834200D03*
D18*
X199161400Y-95834200D03*
%TD*%
D23*
%TO.C,D82*%
X189179200Y-95834200D03*
D18*
X186639200Y-95834200D03*
%TD*%
D23*
%TO.C,D81*%
X203098400Y-79857600D03*
D18*
X200558400Y-79857600D03*
%TD*%
D23*
%TO.C,D80*%
X215087200Y-79832200D03*
D18*
X212547200Y-79832200D03*
%TD*%
D23*
%TO.C,D79*%
X201701400Y-63830200D03*
D18*
X199161400Y-63830200D03*
%TD*%
D23*
%TO.C,D78*%
X189179200Y-63830200D03*
D18*
X186639200Y-63830200D03*
%TD*%
D23*
%TO.C,D77*%
X197129400Y-79832200D03*
D18*
X194589400Y-79832200D03*
%TD*%
D23*
%TO.C,D76*%
X209067400Y-79806800D03*
D18*
X206527400Y-79806800D03*
%TD*%
D23*
%TO.C,D75*%
X195427600Y-63830200D03*
D18*
X192887600Y-63830200D03*
%TD*%
D23*
%TO.C,D74*%
X208000600Y-63830200D03*
D18*
X205460600Y-63830200D03*
%TD*%
D17*
%TO.C,D72*%
G36*
X189430503Y-72440800D02*
G01*
X188087000Y-73784303D01*
X186743497Y-72440800D01*
X188087000Y-71097297D01*
X189430503Y-72440800D01*
G37*
D18*
X186290949Y-70644749D03*
%TD*%
D17*
%TO.C,D71*%
G36*
X183616600Y-89893297D02*
G01*
X184960103Y-91236800D01*
X183616600Y-92580303D01*
X182273097Y-91236800D01*
X183616600Y-89893297D01*
G37*
D18*
X181820549Y-93032851D03*
%TD*%
D17*
%TO.C,D70*%
G36*
X192455800Y-81790697D02*
G01*
X193799303Y-83134200D01*
X192455800Y-84477703D01*
X191112297Y-83134200D01*
X192455800Y-81790697D01*
G37*
D18*
X190659749Y-84930251D03*
%TD*%
D17*
%TO.C,D69*%
G36*
X184960103Y-68402200D02*
G01*
X183616600Y-69745703D01*
X182273097Y-68402200D01*
X183616600Y-67058697D01*
X184960103Y-68402200D01*
G37*
D18*
X181820549Y-66606149D03*
%TD*%
D17*
%TO.C,D68*%
G36*
X193799303Y-76530200D02*
G01*
X192455800Y-77873703D01*
X191112297Y-76530200D01*
X192455800Y-75186697D01*
X193799303Y-76530200D01*
G37*
D18*
X190659749Y-74734149D03*
%TD*%
D17*
%TO.C,D67*%
G36*
X117700903Y-84988400D02*
G01*
X116357400Y-86331903D01*
X115013897Y-84988400D01*
X116357400Y-83644897D01*
X117700903Y-84988400D01*
G37*
D18*
X114561349Y-83192349D03*
%TD*%
D17*
%TO.C,D66*%
G36*
X126641035Y-92119664D02*
G01*
X125913936Y-93875035D01*
X124158565Y-93147936D01*
X124885664Y-91392565D01*
X126641035Y-92119664D01*
G37*
D18*
X123053146Y-91661784D03*
%TD*%
D17*
%TO.C,D64*%
G36*
X173366351Y-94315092D02*
G01*
X173858108Y-96150351D01*
X172022849Y-96642108D01*
X171531092Y-94806849D01*
X173366351Y-94315092D01*
G37*
D18*
X170241148Y-96136000D03*
%TD*%
D23*
%TO.C,D63*%
X160756600Y-95834200D03*
D18*
X158216600Y-95834200D03*
%TD*%
D23*
%TO.C,D62*%
X142748000Y-95834200D03*
D18*
X140208000Y-95834200D03*
%TD*%
D23*
%TO.C,D61*%
X136728200Y-95834200D03*
D18*
X134188200Y-95834200D03*
%TD*%
D17*
%TO.C,D60*%
G36*
X122018903Y-89027000D02*
G01*
X120675400Y-90370503D01*
X119331897Y-89027000D01*
X120675400Y-87683497D01*
X122018903Y-89027000D01*
G37*
D18*
X118879349Y-87230949D03*
%TD*%
D23*
%TO.C,D59*%
X130810000Y-94945200D03*
D18*
X128270000Y-94945200D03*
%TD*%
D17*
%TO.C,D58*%
G36*
X178308000Y-92712697D02*
G01*
X179651503Y-94056200D01*
X178308000Y-95399703D01*
X176964497Y-94056200D01*
X178308000Y-92712697D01*
G37*
D18*
X176511949Y-95852251D03*
%TD*%
D23*
%TO.C,D57*%
X166725600Y-95834200D03*
D18*
X164185600Y-95834200D03*
%TD*%
D23*
%TO.C,D56*%
X154736800Y-95834200D03*
D18*
X152196800Y-95834200D03*
%TD*%
D23*
%TO.C,D55*%
X172745400Y-63830200D03*
D18*
X170205400Y-63830200D03*
%TD*%
D23*
%TO.C,D54*%
X160731200Y-63830200D03*
D18*
X158191200Y-63830200D03*
%TD*%
D23*
%TO.C,D53*%
X148767800Y-63830200D03*
D18*
X146227800Y-63830200D03*
%TD*%
D17*
%TO.C,D52*%
G36*
X116382800Y-73281697D02*
G01*
X117726303Y-74625200D01*
X116382800Y-75968703D01*
X115039297Y-74625200D01*
X116382800Y-73281697D01*
G37*
D18*
X114586749Y-76421251D03*
%TD*%
D17*
%TO.C,D51*%
G36*
X125913936Y-65763965D02*
G01*
X126641035Y-67519336D01*
X124885664Y-68246435D01*
X124158565Y-66491064D01*
X125913936Y-65763965D01*
G37*
D18*
X123053146Y-67977216D03*
%TD*%
D23*
%TO.C,D50*%
X136728200Y-63804800D03*
D18*
X134188200Y-63804800D03*
%TD*%
D23*
%TO.C,D48*%
X166751000Y-63855600D03*
D18*
X164211000Y-63855600D03*
%TD*%
D23*
%TO.C,D47*%
X154736800Y-63830200D03*
D18*
X152196800Y-63830200D03*
%TD*%
D17*
%TO.C,D46*%
G36*
X120700800Y-69243097D02*
G01*
X122044303Y-70586600D01*
X120700800Y-71930103D01*
X119357297Y-70586600D01*
X120700800Y-69243097D01*
G37*
D18*
X118904749Y-72382651D03*
%TD*%
D23*
%TO.C,D45*%
X130784600Y-64719200D03*
D18*
X128244600Y-64719200D03*
%TD*%
D23*
%TO.C,D44*%
X142773400Y-63855600D03*
D18*
X140233400Y-63855600D03*
%TD*%
D23*
%TO.C,D43*%
X82397600Y-95834200D03*
D18*
X79857600Y-95834200D03*
%TD*%
D23*
%TO.C,D41*%
X70383400Y-95834200D03*
D18*
X67843400Y-95834200D03*
%TD*%
D23*
%TO.C,D40*%
X88392000Y-95834200D03*
D18*
X85852000Y-95834200D03*
%TD*%
D23*
%TO.C,D38*%
X64389000Y-95834200D03*
D18*
X61849000Y-95834200D03*
%TD*%
D23*
%TO.C,D37*%
X82372200Y-87833200D03*
D18*
X79832200Y-87833200D03*
%TD*%
D23*
%TO.C,D36*%
X226999800Y-63830200D03*
D18*
X224459800Y-63830200D03*
%TD*%
D23*
%TO.C,D35*%
X70408800Y-87807800D03*
D18*
X67868800Y-87807800D03*
%TD*%
D23*
%TO.C,D34*%
X88392000Y-87833200D03*
D18*
X85852000Y-87833200D03*
%TD*%
D23*
%TO.C,D33*%
X76403200Y-87858600D03*
D18*
X73863200Y-87858600D03*
%TD*%
D23*
%TO.C,D32*%
X64414400Y-87807800D03*
D18*
X61874400Y-87807800D03*
%TD*%
D23*
%TO.C,D31*%
X82397600Y-79832200D03*
D18*
X79857600Y-79832200D03*
%TD*%
D23*
%TO.C,D30*%
X214299800Y-63830200D03*
D18*
X211759800Y-63830200D03*
%TD*%
D23*
%TO.C,D29*%
X70383400Y-79857600D03*
D18*
X67843400Y-79857600D03*
%TD*%
D23*
%TO.C,D28*%
X88392000Y-79857600D03*
D18*
X85852000Y-79857600D03*
%TD*%
D23*
%TO.C,D27*%
X76352400Y-79857600D03*
D18*
X73812400Y-79857600D03*
%TD*%
D23*
%TO.C,D26*%
X64389000Y-79857600D03*
D18*
X61849000Y-79857600D03*
%TD*%
D23*
%TO.C,D25*%
X106375200Y-79857600D03*
D18*
X103835200Y-79857600D03*
%TD*%
D23*
%TO.C,D24*%
X94386400Y-79857600D03*
D18*
X91846400Y-79857600D03*
%TD*%
D23*
%TO.C,D23*%
X82397600Y-71831200D03*
D18*
X79857600Y-71831200D03*
%TD*%
D23*
%TO.C,D21*%
X70383400Y-71856600D03*
D18*
X67843400Y-71856600D03*
%TD*%
D23*
%TO.C,D20*%
X88392000Y-71856600D03*
D18*
X85852000Y-71856600D03*
%TD*%
D23*
%TO.C,D19*%
X76403200Y-71831200D03*
D18*
X73863200Y-71831200D03*
%TD*%
D23*
%TO.C,D18*%
X64363600Y-71856600D03*
D18*
X61823600Y-71856600D03*
%TD*%
D23*
%TO.C,D17*%
X112293400Y-79832200D03*
D18*
X109753400Y-79832200D03*
%TD*%
D23*
%TO.C,D16*%
X100380800Y-79857600D03*
D18*
X97840800Y-79857600D03*
%TD*%
D23*
%TO.C,D15*%
X82397600Y-63830200D03*
D18*
X79857600Y-63830200D03*
%TD*%
D23*
%TO.C,D14*%
X118770400Y-111810800D03*
D18*
X116230400Y-111810800D03*
%TD*%
D23*
%TO.C,D13*%
X70383400Y-63830200D03*
D18*
X67843400Y-63830200D03*
%TD*%
D23*
%TO.C,D12*%
X88366600Y-63830200D03*
D18*
X85826600Y-63830200D03*
%TD*%
D23*
%TO.C,D11*%
X76403200Y-63830200D03*
D18*
X73863200Y-63830200D03*
%TD*%
D23*
%TO.C,D10*%
X64389000Y-63830200D03*
D18*
X61849000Y-63830200D03*
%TD*%
D23*
%TO.C,D6*%
X197078600Y-43840400D03*
D18*
X194538600Y-43840400D03*
%TD*%
D23*
%TO.C,D1*%
X70383400Y-43815000D03*
D18*
X67843400Y-43815000D03*
%TD*%
D19*
%TO.C,C4*%
X133644000Y-41910000D03*
X136144000Y-41910000D03*
%TD*%
%TO.C,C3*%
X132842000Y-74208000D03*
X132842000Y-76708000D03*
%TD*%
%TO.C,C2*%
X158242000Y-74168000D03*
X158242000Y-76668000D03*
%TD*%
%TO.C,C1*%
X146558000Y-121158000D03*
X146558000Y-118658000D03*
%TD*%
D11*
%TO.C,U13*%
X98958400Y-66319400D03*
D12*
X106578400Y-48539400D03*
X98958400Y-63779400D03*
X106578400Y-51079400D03*
X98958400Y-61239400D03*
X106578400Y-53619400D03*
X98958400Y-58699400D03*
X106578400Y-56159400D03*
X98958400Y-56159400D03*
X106578400Y-58699400D03*
X98958400Y-53619400D03*
X106578400Y-61239400D03*
X98958400Y-51079400D03*
X106578400Y-63779400D03*
X98958400Y-48539400D03*
X106578400Y-66319400D03*
%TD*%
D13*
%TO.C,U12*%
X188976000Y-49631600D03*
D14*
X206756000Y-57251600D03*
X191516000Y-49631600D03*
X204216000Y-57251600D03*
X194056000Y-49631600D03*
X201676000Y-57251600D03*
X196596000Y-49631600D03*
X199136000Y-57251600D03*
X199136000Y-49631600D03*
X196596000Y-57251600D03*
X201676000Y-49631600D03*
X194056000Y-57251600D03*
X204216000Y-49631600D03*
X191516000Y-57251600D03*
X206756000Y-49631600D03*
X188976000Y-57251600D03*
%TD*%
D13*
%TO.C,U11*%
X160782000Y-69342000D03*
D14*
X178562000Y-76962000D03*
X163322000Y-69342000D03*
X176022000Y-76962000D03*
X165862000Y-69342000D03*
X173482000Y-76962000D03*
X168402000Y-69342000D03*
X170942000Y-76962000D03*
X170942000Y-69342000D03*
X168402000Y-76962000D03*
X173482000Y-69342000D03*
X165862000Y-76962000D03*
X176022000Y-69342000D03*
X163322000Y-76962000D03*
X178562000Y-69342000D03*
X160782000Y-76962000D03*
%TD*%
D13*
%TO.C,U10*%
X134747000Y-52400200D03*
D14*
X116967000Y-44780200D03*
X132207000Y-52400200D03*
X119507000Y-44780200D03*
X129667000Y-52400200D03*
X122047000Y-44780200D03*
X127127000Y-52400200D03*
X124587000Y-44780200D03*
X124587000Y-52400200D03*
X127127000Y-44780200D03*
X122047000Y-52400200D03*
X129667000Y-44780200D03*
X119507000Y-52400200D03*
X132207000Y-44780200D03*
X116967000Y-52400200D03*
X134747000Y-44780200D03*
%TD*%
D13*
%TO.C,U9*%
X213791800Y-49631600D03*
D14*
X231571800Y-57251600D03*
X216331800Y-49631600D03*
X229031800Y-57251600D03*
X218871800Y-49631600D03*
X226491800Y-57251600D03*
X221411800Y-49631600D03*
X223951800Y-57251600D03*
X223951800Y-49631600D03*
X221411800Y-57251600D03*
X226491800Y-49631600D03*
X218871800Y-57251600D03*
X229031800Y-49631600D03*
X216331800Y-57251600D03*
X231571800Y-49631600D03*
X213791800Y-57251600D03*
%TD*%
D23*
%TO.C,D128*%
X210566000Y-127838200D03*
D18*
X213106000Y-127838200D03*
%TD*%
D23*
%TO.C,D99*%
X88747600Y-111836200D03*
D18*
X86207600Y-111836200D03*
%TD*%
D17*
%TO.C,D73*%
G36*
X188087000Y-85880097D02*
G01*
X189430503Y-87223600D01*
X188087000Y-88567103D01*
X186743497Y-87223600D01*
X188087000Y-85880097D01*
G37*
D18*
X186290949Y-89019651D03*
%TD*%
D23*
%TO.C,D65*%
X148767800Y-95834200D03*
D18*
X146227800Y-95834200D03*
%TD*%
D23*
%TO.C,D39*%
X76403200Y-95834200D03*
D18*
X73863200Y-95834200D03*
%TD*%
D24*
%TO.C,REF\u002A\u002A*%
X58089800Y-139801600D03*
%TD*%
%TO.C,REF\u002A\u002A*%
X147472400Y-139776200D03*
%TD*%
%TO.C,REF\u002A\u002A*%
X236829600Y-139801600D03*
%TD*%
%TO.C,REF\u002A\u002A*%
X57124600Y-44856400D03*
%TD*%
%TO.C,REF\u002A\u002A*%
X147472400Y-42849800D03*
%TD*%
%TO.C,REF\u002A\u002A*%
X236829600Y-44856400D03*
%TD*%
D19*
%TO.C,C6*%
X210312000Y-53634000D03*
X210312000Y-56134000D03*
%TD*%
%TO.C,C5*%
X179070000Y-121372000D03*
X179070000Y-118872000D03*
%TD*%
D16*
%TO.C,J2*%
X118516400Y-134010400D03*
D15*
X118516400Y-131470400D03*
X121056400Y-134010400D03*
X121056400Y-131470400D03*
X123596400Y-134010400D03*
X123596400Y-131470400D03*
X126136400Y-134010400D03*
X126136400Y-131470400D03*
X128676400Y-134010400D03*
X128676400Y-131470400D03*
X131216400Y-134010400D03*
X131216400Y-131470400D03*
%TD*%
D23*
%TO.C,D2*%
X88366600Y-43815000D03*
D18*
X85826600Y-43815000D03*
%TD*%
%TO.C,D3*%
X164566600Y-43840400D03*
D23*
X167106600Y-43840400D03*
%TD*%
%TO.C,D4*%
X177139600Y-43815000D03*
D18*
X174599600Y-43815000D03*
%TD*%
%TO.C,D5*%
X184556400Y-43840400D03*
D23*
X187096400Y-43840400D03*
%TD*%
%TO.C,D7*%
X207111600Y-43840400D03*
D18*
X204571600Y-43840400D03*
%TD*%
%TO.C,D8*%
X214579200Y-43840400D03*
D23*
X217119200Y-43840400D03*
%TD*%
%TO.C,D9*%
X227101400Y-43840400D03*
D18*
X224561400Y-43840400D03*
%TD*%
D25*
%TO.C,SW1*%
X90370800Y-50596800D03*
X90370800Y-55096800D03*
X83870800Y-50596800D03*
X83870800Y-55096800D03*
%TD*%
%TO.C,SW2*%
X72362200Y-50596800D03*
X72362200Y-55096800D03*
X65862200Y-50596800D03*
X65862200Y-55096800D03*
%TD*%
%TO.C,SW3*%
X57865400Y-83083400D03*
X53365400Y-83083400D03*
X57865400Y-76583400D03*
X53365400Y-76583400D03*
%TD*%
%TO.C,SW4*%
X57865400Y-115087400D03*
X53365400Y-115087400D03*
X57865400Y-108587400D03*
X53365400Y-108587400D03*
%TD*%
%TO.C,SW5*%
X53365400Y-124589400D03*
X57865400Y-124589400D03*
X53365400Y-131089400D03*
X57865400Y-131089400D03*
%TD*%
%TO.C,SW6*%
X241482000Y-67056000D03*
X236982000Y-67056000D03*
X241482000Y-60556000D03*
X236982000Y-60556000D03*
%TD*%
%TO.C,SW7*%
X236982000Y-76608800D03*
X241482000Y-76608800D03*
X236982000Y-83108800D03*
X241482000Y-83108800D03*
%TD*%
%TO.C,SW8*%
X241482000Y-99060000D03*
X236982000Y-99060000D03*
X241482000Y-92560000D03*
X236982000Y-92560000D03*
%TD*%
%TO.C,SW9*%
X241482000Y-115112800D03*
X236982000Y-115112800D03*
X241482000Y-108612800D03*
X236982000Y-108612800D03*
%TD*%
%TO.C,SW10*%
X236982000Y-124614800D03*
X241482000Y-124614800D03*
X236982000Y-131114800D03*
X241482000Y-131114800D03*
%TD*%
M02*
