%TF.GenerationSoftware,KiCad,Pcbnew,(5.1.6)-1*%
%TF.CreationDate,2020-08-11T14:57:58+01:00*%
%TF.ProjectId,panel-main,70616e65-6c2d-46d6-9169-6e2e6b696361,rev?*%
%TF.SameCoordinates,Original*%
%TF.FileFunction,Profile,NP*%
%FSLAX46Y46*%
G04 Gerber Fmt 4.6, Leading zero omitted, Abs format (unit mm)*
G04 Created by KiCad (PCBNEW (5.1.6)-1) date 2020-08-11 14:57:58*
%MOMM*%
%LPD*%
G01*
G04 APERTURE LIST*
%TA.AperFunction,Profile*%
%ADD10C,0.200000*%
%TD*%
G04 APERTURE END LIST*
D10*
X50972508Y-38971591D02*
X50972508Y-92309883D01*
X242687490Y-38971591D02*
X50972508Y-38971591D01*
X61372508Y-94309883D02*
G75*
G02*
X63372508Y-96309883I0J-2000000D01*
G01*
X52972508Y-94309883D02*
X61372508Y-94309883D01*
X52972508Y-94309883D02*
G75*
G02*
X50972508Y-92309883I0J2000000D01*
G01*
X55472508Y-143909883D02*
X238187490Y-143909883D01*
X241769770Y-142096719D02*
X241928449Y-141869262D01*
X241928449Y-141869262D02*
X242073087Y-141632115D01*
X242073087Y-141632115D02*
X242203341Y-141386260D01*
X242203341Y-141386260D02*
X242318870Y-141132680D01*
X242318870Y-141132680D02*
X242419332Y-140872359D01*
X242419332Y-140872359D02*
X242504383Y-140606279D01*
X242504383Y-140606279D02*
X242573683Y-140335424D01*
X242573683Y-140335424D02*
X242626889Y-140060777D01*
X242626889Y-140060777D02*
X242663659Y-139783322D01*
X242663659Y-139783322D02*
X242683651Y-139504040D01*
X242683651Y-139504040D02*
X242687490Y-139317324D01*
X242687490Y-139317324D02*
X242687490Y-38971591D01*
X238187490Y-143909883D02*
X238445533Y-143901898D01*
X238445533Y-143901898D02*
X238702533Y-143878184D01*
X238702533Y-143878184D02*
X238957740Y-143839103D01*
X238957740Y-143839103D02*
X239210399Y-143785014D01*
X239210399Y-143785014D02*
X239459759Y-143716279D01*
X239459759Y-143716279D02*
X239705067Y-143633259D01*
X239705067Y-143633259D02*
X239945571Y-143536313D01*
X239945571Y-143536313D02*
X240180518Y-143425804D01*
X240180518Y-143425804D02*
X240409157Y-143302091D01*
X240409157Y-143302091D02*
X240630733Y-143165536D01*
X240630733Y-143165536D02*
X240844496Y-143016499D01*
X240844496Y-143016499D02*
X241049693Y-142855342D01*
X241049693Y-142855342D02*
X241245571Y-142682424D01*
X241245571Y-142682424D02*
X241431378Y-142498107D01*
X241431378Y-142498107D02*
X241606362Y-142302752D01*
X241606362Y-142302752D02*
X241769770Y-142096719D01*
X63372508Y-121509883D02*
G75*
G02*
X61372508Y-123509883I-2000000J0D01*
G01*
X61372508Y-123509883D02*
X52972508Y-123509883D01*
X63372508Y-96309883D02*
X63372508Y-121509883D01*
X52766574Y-142986753D02*
X52989415Y-143147096D01*
X52989415Y-143147096D02*
X53221312Y-143293029D01*
X53221312Y-143293029D02*
X53461337Y-143424254D01*
X53461337Y-143424254D02*
X53708567Y-143540476D01*
X53708567Y-143540476D02*
X53962074Y-143641395D01*
X53962074Y-143641395D02*
X54220933Y-143726715D01*
X54220933Y-143726715D02*
X54484219Y-143796138D01*
X54484219Y-143796138D02*
X54751005Y-143849368D01*
X54751005Y-143849368D02*
X55020366Y-143886106D01*
X55020366Y-143886106D02*
X55291375Y-143906056D01*
X55291375Y-143906056D02*
X55472508Y-143909883D01*
X50972508Y-139317324D02*
X50980516Y-139583265D01*
X50980516Y-139583265D02*
X51004274Y-139847961D01*
X51004274Y-139847961D02*
X51043382Y-140110633D01*
X51043382Y-140110633D02*
X51097440Y-140370501D01*
X51097440Y-140370501D02*
X51166048Y-140626788D01*
X51166048Y-140626788D02*
X51248805Y-140878714D01*
X51248805Y-140878714D02*
X51345312Y-141125500D01*
X51345312Y-141125500D02*
X51455167Y-141366368D01*
X51455167Y-141366368D02*
X51577972Y-141600537D01*
X51577972Y-141600537D02*
X51713326Y-141827230D01*
X51713326Y-141827230D02*
X51860829Y-142045667D01*
X51860829Y-142045667D02*
X52020081Y-142255069D01*
X52020081Y-142255069D02*
X52190681Y-142454658D01*
X52190681Y-142454658D02*
X52372230Y-142643654D01*
X52372230Y-142643654D02*
X52564328Y-142821278D01*
X52564328Y-142821278D02*
X52766574Y-142986753D01*
X50972508Y-125509883D02*
X50972508Y-139317324D01*
X50972508Y-125509883D02*
G75*
G02*
X52972508Y-123509883I2000000J0D01*
G01*
M02*
