%TF.GenerationSoftware,KiCad,Pcbnew,(5.1.6)-1*%
%TF.CreationDate,2020-08-11T14:57:58+01:00*%
%TF.ProjectId,panel-main,70616e65-6c2d-46d6-9169-6e2e6b696361,rev?*%
%TF.SameCoordinates,Original*%
%TF.FileFunction,Legend,Bot*%
%TF.FilePolarity,Positive*%
%FSLAX46Y46*%
G04 Gerber Fmt 4.6, Leading zero omitted, Abs format (unit mm)*
G04 Created by KiCad (PCBNEW (5.1.6)-1) date 2020-08-11 14:57:58*
%MOMM*%
%LPD*%
G01*
G04 APERTURE LIST*
%ADD10C,0.300000*%
%ADD11C,0.250000*%
%TA.AperFunction,Profile*%
%ADD12C,0.200000*%
%TD*%
%ADD13C,0.120000*%
%ADD14C,0.150000*%
G04 APERTURE END LIST*
D10*
X182101190Y-120000142D02*
X181815476Y-120095380D01*
X181720238Y-120190619D01*
X181625000Y-120381095D01*
X181625000Y-120666809D01*
X181720238Y-120857285D01*
X181815476Y-120952523D01*
X182005952Y-121047761D01*
X182767857Y-121047761D01*
X182767857Y-119047761D01*
X182101190Y-119047761D01*
X181910714Y-119143000D01*
X181815476Y-119238238D01*
X181720238Y-119428714D01*
X181720238Y-119619190D01*
X181815476Y-119809666D01*
X181910714Y-119904904D01*
X182101190Y-120000142D01*
X182767857Y-120000142D01*
X180005952Y-120952523D02*
X180196428Y-121047761D01*
X180577380Y-121047761D01*
X180767857Y-120952523D01*
X180863095Y-120762047D01*
X180863095Y-120000142D01*
X180767857Y-119809666D01*
X180577380Y-119714428D01*
X180196428Y-119714428D01*
X180005952Y-119809666D01*
X179910714Y-120000142D01*
X179910714Y-120190619D01*
X180863095Y-120381095D01*
X179053571Y-119714428D02*
X179053571Y-121047761D01*
X179053571Y-119904904D02*
X178958333Y-119809666D01*
X178767857Y-119714428D01*
X178482142Y-119714428D01*
X178291666Y-119809666D01*
X178196428Y-120000142D01*
X178196428Y-121047761D01*
X174672619Y-119143000D02*
X174863095Y-119047761D01*
X175148809Y-119047761D01*
X175434523Y-119143000D01*
X175625000Y-119333476D01*
X175720238Y-119523952D01*
X175815476Y-119904904D01*
X175815476Y-120190619D01*
X175720238Y-120571571D01*
X175625000Y-120762047D01*
X175434523Y-120952523D01*
X175148809Y-121047761D01*
X174958333Y-121047761D01*
X174672619Y-120952523D01*
X174577380Y-120857285D01*
X174577380Y-120190619D01*
X174958333Y-120190619D01*
X173434523Y-121047761D02*
X173625000Y-120952523D01*
X173720238Y-120857285D01*
X173815476Y-120666809D01*
X173815476Y-120095380D01*
X173720238Y-119904904D01*
X173625000Y-119809666D01*
X173434523Y-119714428D01*
X173148809Y-119714428D01*
X172958333Y-119809666D01*
X172863095Y-119904904D01*
X172767857Y-120095380D01*
X172767857Y-120666809D01*
X172863095Y-120857285D01*
X172958333Y-120952523D01*
X173148809Y-121047761D01*
X173434523Y-121047761D01*
X171625000Y-121047761D02*
X171815476Y-120952523D01*
X171910714Y-120762047D01*
X171910714Y-119047761D01*
X170005952Y-121047761D02*
X170005952Y-119047761D01*
X170005952Y-120952523D02*
X170196428Y-121047761D01*
X170577380Y-121047761D01*
X170767857Y-120952523D01*
X170863095Y-120857285D01*
X170958333Y-120666809D01*
X170958333Y-120095380D01*
X170863095Y-119904904D01*
X170767857Y-119809666D01*
X170577380Y-119714428D01*
X170196428Y-119714428D01*
X170005952Y-119809666D01*
X168291666Y-120952523D02*
X168482142Y-121047761D01*
X168863095Y-121047761D01*
X169053571Y-120952523D01*
X169148809Y-120762047D01*
X169148809Y-120000142D01*
X169053571Y-119809666D01*
X168863095Y-119714428D01*
X168482142Y-119714428D01*
X168291666Y-119809666D01*
X168196428Y-120000142D01*
X168196428Y-120190619D01*
X169148809Y-120381095D01*
X167339285Y-119714428D02*
X167339285Y-121047761D01*
X167339285Y-119904904D02*
X167244047Y-119809666D01*
X167053571Y-119714428D01*
X166767857Y-119714428D01*
X166577380Y-119809666D01*
X166482142Y-120000142D01*
X166482142Y-121047761D01*
X183148809Y-124347761D02*
X183815476Y-123395380D01*
X184291666Y-124347761D02*
X184291666Y-122347761D01*
X183529761Y-122347761D01*
X183339285Y-122443000D01*
X183244047Y-122538238D01*
X183148809Y-122728714D01*
X183148809Y-123014428D01*
X183244047Y-123204904D01*
X183339285Y-123300142D01*
X183529761Y-123395380D01*
X184291666Y-123395380D01*
X182005952Y-124347761D02*
X182196428Y-124252523D01*
X182291666Y-124157285D01*
X182386904Y-123966809D01*
X182386904Y-123395380D01*
X182291666Y-123204904D01*
X182196428Y-123109666D01*
X182005952Y-123014428D01*
X181720238Y-123014428D01*
X181529761Y-123109666D01*
X181434523Y-123204904D01*
X181339285Y-123395380D01*
X181339285Y-123966809D01*
X181434523Y-124157285D01*
X181529761Y-124252523D01*
X181720238Y-124347761D01*
X182005952Y-124347761D01*
X179625000Y-123014428D02*
X179625000Y-124633476D01*
X179720238Y-124823952D01*
X179815476Y-124919190D01*
X180005952Y-125014428D01*
X180291666Y-125014428D01*
X180482142Y-124919190D01*
X179625000Y-124252523D02*
X179815476Y-124347761D01*
X180196428Y-124347761D01*
X180386904Y-124252523D01*
X180482142Y-124157285D01*
X180577380Y-123966809D01*
X180577380Y-123395380D01*
X180482142Y-123204904D01*
X180386904Y-123109666D01*
X180196428Y-123014428D01*
X179815476Y-123014428D01*
X179625000Y-123109666D01*
X177910714Y-124252523D02*
X178101190Y-124347761D01*
X178482142Y-124347761D01*
X178672619Y-124252523D01*
X178767857Y-124062047D01*
X178767857Y-123300142D01*
X178672619Y-123109666D01*
X178482142Y-123014428D01*
X178101190Y-123014428D01*
X177910714Y-123109666D01*
X177815476Y-123300142D01*
X177815476Y-123490619D01*
X178767857Y-123681095D01*
X176958333Y-124347761D02*
X176958333Y-123014428D01*
X176958333Y-123395380D02*
X176863095Y-123204904D01*
X176767857Y-123109666D01*
X176577380Y-123014428D01*
X176386904Y-123014428D01*
X173148809Y-122443000D02*
X173339285Y-122347761D01*
X173625000Y-122347761D01*
X173910714Y-122443000D01*
X174101190Y-122633476D01*
X174196428Y-122823952D01*
X174291666Y-123204904D01*
X174291666Y-123490619D01*
X174196428Y-123871571D01*
X174101190Y-124062047D01*
X173910714Y-124252523D01*
X173625000Y-124347761D01*
X173434523Y-124347761D01*
X173148809Y-124252523D01*
X173053571Y-124157285D01*
X173053571Y-123490619D01*
X173434523Y-123490619D01*
X171910714Y-124347761D02*
X172101190Y-124252523D01*
X172196428Y-124157285D01*
X172291666Y-123966809D01*
X172291666Y-123395380D01*
X172196428Y-123204904D01*
X172101190Y-123109666D01*
X171910714Y-123014428D01*
X171625000Y-123014428D01*
X171434523Y-123109666D01*
X171339285Y-123204904D01*
X171244047Y-123395380D01*
X171244047Y-123966809D01*
X171339285Y-124157285D01*
X171434523Y-124252523D01*
X171625000Y-124347761D01*
X171910714Y-124347761D01*
X170101190Y-124347761D02*
X170291666Y-124252523D01*
X170386904Y-124062047D01*
X170386904Y-122347761D01*
X168482142Y-124347761D02*
X168482142Y-122347761D01*
X168482142Y-124252523D02*
X168672619Y-124347761D01*
X169053571Y-124347761D01*
X169244047Y-124252523D01*
X169339285Y-124157285D01*
X169434523Y-123966809D01*
X169434523Y-123395380D01*
X169339285Y-123204904D01*
X169244047Y-123109666D01*
X169053571Y-123014428D01*
X168672619Y-123014428D01*
X168482142Y-123109666D01*
X166767857Y-124252523D02*
X166958333Y-124347761D01*
X167339285Y-124347761D01*
X167529761Y-124252523D01*
X167625000Y-124062047D01*
X167625000Y-123300142D01*
X167529761Y-123109666D01*
X167339285Y-123014428D01*
X166958333Y-123014428D01*
X166767857Y-123109666D01*
X166672619Y-123300142D01*
X166672619Y-123490619D01*
X167625000Y-123681095D01*
X165815476Y-123014428D02*
X165815476Y-124347761D01*
X165815476Y-123204904D02*
X165720238Y-123109666D01*
X165529761Y-123014428D01*
X165244047Y-123014428D01*
X165053571Y-123109666D01*
X164958333Y-123300142D01*
X164958333Y-124347761D01*
X145722285Y-122960000D02*
X145893714Y-122817142D01*
X146150857Y-122817142D01*
X146408000Y-122960000D01*
X146579428Y-123245714D01*
X146665142Y-123531428D01*
X146750857Y-124102857D01*
X146750857Y-124531428D01*
X146665142Y-125102857D01*
X146579428Y-125388571D01*
X146408000Y-125674285D01*
X146150857Y-125817142D01*
X145979428Y-125817142D01*
X145722285Y-125674285D01*
X145636571Y-125531428D01*
X145636571Y-124531428D01*
X145979428Y-124531428D01*
X144522285Y-122817142D02*
X144179428Y-122817142D01*
X144008000Y-122960000D01*
X143836571Y-123245714D01*
X143750857Y-123817142D01*
X143750857Y-124817142D01*
X143836571Y-125388571D01*
X144008000Y-125674285D01*
X144179428Y-125817142D01*
X144522285Y-125817142D01*
X144693714Y-125674285D01*
X144865142Y-125388571D01*
X144950857Y-124817142D01*
X144950857Y-123817142D01*
X144865142Y-123245714D01*
X144693714Y-122960000D01*
X144522285Y-122817142D01*
X142122285Y-125817142D02*
X142979428Y-125817142D01*
X142979428Y-122817142D01*
X141522285Y-125817142D02*
X141522285Y-122817142D01*
X141093714Y-122817142D01*
X140836571Y-122960000D01*
X140665142Y-123245714D01*
X140579428Y-123531428D01*
X140493714Y-124102857D01*
X140493714Y-124531428D01*
X140579428Y-125102857D01*
X140665142Y-125388571D01*
X140836571Y-125674285D01*
X141093714Y-125817142D01*
X141522285Y-125817142D01*
X139722285Y-124245714D02*
X139122285Y-124245714D01*
X138865142Y-125817142D02*
X139722285Y-125817142D01*
X139722285Y-122817142D01*
X138865142Y-122817142D01*
X138093714Y-125817142D02*
X138093714Y-122817142D01*
X137065142Y-125817142D01*
X137065142Y-122817142D01*
X134836571Y-125817142D02*
X134836571Y-122817142D01*
X133808000Y-125817142D02*
X134579428Y-124102857D01*
X133808000Y-122817142D02*
X134836571Y-124531428D01*
X133036571Y-124245714D02*
X132436571Y-124245714D01*
X132179428Y-125817142D02*
X133036571Y-125817142D01*
X133036571Y-122817142D01*
X132179428Y-122817142D01*
X131065142Y-124388571D02*
X131065142Y-125817142D01*
X131665142Y-122817142D02*
X131065142Y-124388571D01*
X130465142Y-122817142D01*
X128493714Y-125817142D02*
X128493714Y-122817142D01*
X127893714Y-124960000D01*
X127293714Y-122817142D01*
X127293714Y-125817142D01*
X126093714Y-122817142D02*
X125750857Y-122817142D01*
X125579428Y-122960000D01*
X125408000Y-123245714D01*
X125322285Y-123817142D01*
X125322285Y-124817142D01*
X125408000Y-125388571D01*
X125579428Y-125674285D01*
X125750857Y-125817142D01*
X126093714Y-125817142D01*
X126265142Y-125674285D01*
X126436571Y-125388571D01*
X126522285Y-124817142D01*
X126522285Y-123817142D01*
X126436571Y-123245714D01*
X126265142Y-122960000D01*
X126093714Y-122817142D01*
X124550857Y-125817142D02*
X124550857Y-122817142D01*
X124122285Y-122817142D01*
X123865142Y-122960000D01*
X123693714Y-123245714D01*
X123608000Y-123531428D01*
X123522285Y-124102857D01*
X123522285Y-124531428D01*
X123608000Y-125102857D01*
X123693714Y-125388571D01*
X123865142Y-125674285D01*
X124122285Y-125817142D01*
X124550857Y-125817142D01*
X122750857Y-124245714D02*
X122150857Y-124245714D01*
X121893714Y-125817142D02*
X122750857Y-125817142D01*
X122750857Y-122817142D01*
X121893714Y-122817142D01*
X120265142Y-125817142D02*
X121122285Y-125817142D01*
X121122285Y-122817142D01*
X117265142Y-125817142D02*
X117865142Y-124388571D01*
X118293714Y-125817142D02*
X118293714Y-122817142D01*
X117608000Y-122817142D01*
X117436571Y-122960000D01*
X117350857Y-123102857D01*
X117265142Y-123388571D01*
X117265142Y-123817142D01*
X117350857Y-124102857D01*
X117436571Y-124245714D01*
X117608000Y-124388571D01*
X118293714Y-124388571D01*
X116579428Y-124960000D02*
X115722285Y-124960000D01*
X116750857Y-125817142D02*
X116150857Y-122817142D01*
X115550857Y-125817142D01*
X114950857Y-125817142D02*
X114950857Y-122817142D01*
X113236571Y-125817142D02*
X114093714Y-125817142D01*
X114093714Y-122817142D01*
X112808000Y-122817142D02*
X112379428Y-125817142D01*
X112036571Y-123674285D01*
X111693714Y-125817142D01*
X111265142Y-122817142D01*
X110665142Y-124960000D02*
X109808000Y-124960000D01*
X110836571Y-125817142D02*
X110236571Y-122817142D01*
X109636571Y-125817142D01*
X108693714Y-124388571D02*
X108693714Y-125817142D01*
X109293714Y-122817142D02*
X108693714Y-124388571D01*
X108093714Y-122817142D01*
D11*
X182961333Y-49691142D02*
X183474666Y-49691142D01*
X183474666Y-50372095D02*
X183474666Y-49072095D01*
X182741333Y-49072095D01*
X181494666Y-49505428D02*
X181494666Y-50372095D01*
X181861333Y-49010190D02*
X182228000Y-49938761D01*
X181274666Y-49938761D01*
X179001333Y-49691142D02*
X178781333Y-49753047D01*
X178708000Y-49814952D01*
X178634666Y-49938761D01*
X178634666Y-50124476D01*
X178708000Y-50248285D01*
X178781333Y-50310190D01*
X178928000Y-50372095D01*
X179514666Y-50372095D01*
X179514666Y-49072095D01*
X179001333Y-49072095D01*
X178854666Y-49134000D01*
X178781333Y-49195904D01*
X178708000Y-49319714D01*
X178708000Y-49443523D01*
X178781333Y-49567333D01*
X178854666Y-49629238D01*
X179001333Y-49691142D01*
X179514666Y-49691142D01*
X177314666Y-49505428D02*
X177314666Y-50372095D01*
X177681333Y-49010190D02*
X178048000Y-49938761D01*
X177094666Y-49938761D01*
X174821333Y-49691142D02*
X175334666Y-49691142D01*
X175334666Y-50372095D02*
X175334666Y-49072095D01*
X174601333Y-49072095D01*
X174161333Y-49072095D02*
X173208000Y-49072095D01*
X173721333Y-49567333D01*
X173501333Y-49567333D01*
X173354666Y-49629238D01*
X173281333Y-49691142D01*
X173208000Y-49814952D01*
X173208000Y-50124476D01*
X173281333Y-50248285D01*
X173354666Y-50310190D01*
X173501333Y-50372095D01*
X173941333Y-50372095D01*
X174088000Y-50310190D01*
X174161333Y-50248285D01*
X170861333Y-49691142D02*
X170641333Y-49753047D01*
X170568000Y-49814952D01*
X170494666Y-49938761D01*
X170494666Y-50124476D01*
X170568000Y-50248285D01*
X170641333Y-50310190D01*
X170788000Y-50372095D01*
X171374666Y-50372095D01*
X171374666Y-49072095D01*
X170861333Y-49072095D01*
X170714666Y-49134000D01*
X170641333Y-49195904D01*
X170568000Y-49319714D01*
X170568000Y-49443523D01*
X170641333Y-49567333D01*
X170714666Y-49629238D01*
X170861333Y-49691142D01*
X171374666Y-49691142D01*
X169981333Y-49072095D02*
X169028000Y-49072095D01*
X169541333Y-49567333D01*
X169321333Y-49567333D01*
X169174666Y-49629238D01*
X169101333Y-49691142D01*
X169028000Y-49814952D01*
X169028000Y-50124476D01*
X169101333Y-50248285D01*
X169174666Y-50310190D01*
X169321333Y-50372095D01*
X169761333Y-50372095D01*
X169908000Y-50310190D01*
X169981333Y-50248285D01*
X166681333Y-49691142D02*
X167194666Y-49691142D01*
X167194666Y-50372095D02*
X167194666Y-49072095D01*
X166461333Y-49072095D01*
X165948000Y-49195904D02*
X165874666Y-49134000D01*
X165728000Y-49072095D01*
X165361333Y-49072095D01*
X165214666Y-49134000D01*
X165141333Y-49195904D01*
X165068000Y-49319714D01*
X165068000Y-49443523D01*
X165141333Y-49629238D01*
X166021333Y-50372095D01*
X165068000Y-50372095D01*
X162721333Y-49691142D02*
X162501333Y-49753047D01*
X162428000Y-49814952D01*
X162354666Y-49938761D01*
X162354666Y-50124476D01*
X162428000Y-50248285D01*
X162501333Y-50310190D01*
X162648000Y-50372095D01*
X163234666Y-50372095D01*
X163234666Y-49072095D01*
X162721333Y-49072095D01*
X162574666Y-49134000D01*
X162501333Y-49195904D01*
X162428000Y-49319714D01*
X162428000Y-49443523D01*
X162501333Y-49567333D01*
X162574666Y-49629238D01*
X162721333Y-49691142D01*
X163234666Y-49691142D01*
X161768000Y-49195904D02*
X161694666Y-49134000D01*
X161548000Y-49072095D01*
X161181333Y-49072095D01*
X161034666Y-49134000D01*
X160961333Y-49195904D01*
X160888000Y-49319714D01*
X160888000Y-49443523D01*
X160961333Y-49629238D01*
X161841333Y-50372095D01*
X160888000Y-50372095D01*
X158541333Y-49691142D02*
X159054666Y-49691142D01*
X159054666Y-50372095D02*
X159054666Y-49072095D01*
X158321333Y-49072095D01*
X156928000Y-50372095D02*
X157808000Y-50372095D01*
X157368000Y-50372095D02*
X157368000Y-49072095D01*
X157514666Y-49257809D01*
X157661333Y-49381619D01*
X157808000Y-49443523D01*
X154581333Y-49691142D02*
X154361333Y-49753047D01*
X154288000Y-49814952D01*
X154214666Y-49938761D01*
X154214666Y-50124476D01*
X154288000Y-50248285D01*
X154361333Y-50310190D01*
X154508000Y-50372095D01*
X155094666Y-50372095D01*
X155094666Y-49072095D01*
X154581333Y-49072095D01*
X154434666Y-49134000D01*
X154361333Y-49195904D01*
X154288000Y-49319714D01*
X154288000Y-49443523D01*
X154361333Y-49567333D01*
X154434666Y-49629238D01*
X154581333Y-49691142D01*
X155094666Y-49691142D01*
X152748000Y-50372095D02*
X153628000Y-50372095D01*
X153188000Y-50372095D02*
X153188000Y-49072095D01*
X153334666Y-49257809D01*
X153481333Y-49381619D01*
X153628000Y-49443523D01*
X184040857Y-48098857D02*
X182898000Y-48098857D01*
X182183714Y-48098857D02*
X181040857Y-48098857D01*
X180326571Y-48098857D02*
X179183714Y-48098857D01*
X178469428Y-48098857D02*
X177326571Y-48098857D01*
X176612285Y-48098857D02*
X175469428Y-48098857D01*
X174755142Y-48098857D02*
X173612285Y-48098857D01*
X171755142Y-48594095D02*
X171755142Y-47294095D01*
X171183714Y-47294095D01*
X171040857Y-47356000D01*
X170969428Y-47417904D01*
X170898000Y-47541714D01*
X170898000Y-47727428D01*
X170969428Y-47851238D01*
X171040857Y-47913142D01*
X171183714Y-47975047D01*
X171755142Y-47975047D01*
X169969428Y-47294095D02*
X169683714Y-47294095D01*
X169540857Y-47356000D01*
X169398000Y-47479809D01*
X169326571Y-47727428D01*
X169326571Y-48160761D01*
X169398000Y-48408380D01*
X169540857Y-48532190D01*
X169683714Y-48594095D01*
X169969428Y-48594095D01*
X170112285Y-48532190D01*
X170255142Y-48408380D01*
X170326571Y-48160761D01*
X170326571Y-47727428D01*
X170255142Y-47479809D01*
X170112285Y-47356000D01*
X169969428Y-47294095D01*
X168683714Y-48594095D02*
X168683714Y-47294095D01*
X167969428Y-48594095D02*
X167969428Y-47294095D01*
X167112285Y-48594095D01*
X167112285Y-47294095D01*
X166612285Y-47294095D02*
X165755142Y-47294095D01*
X166183714Y-48594095D02*
X166183714Y-47294095D01*
X165326571Y-48532190D02*
X165112285Y-48594095D01*
X164755142Y-48594095D01*
X164612285Y-48532190D01*
X164540857Y-48470285D01*
X164469428Y-48346476D01*
X164469428Y-48222666D01*
X164540857Y-48098857D01*
X164612285Y-48036952D01*
X164755142Y-47975047D01*
X165040857Y-47913142D01*
X165183714Y-47851238D01*
X165255142Y-47789333D01*
X165326571Y-47665523D01*
X165326571Y-47541714D01*
X165255142Y-47417904D01*
X165183714Y-47356000D01*
X165040857Y-47294095D01*
X164683714Y-47294095D01*
X164469428Y-47356000D01*
X162683714Y-48098857D02*
X161540857Y-48098857D01*
X160826571Y-48098857D02*
X159683714Y-48098857D01*
X158969428Y-48098857D02*
X157826571Y-48098857D01*
X157112285Y-48098857D02*
X155969428Y-48098857D01*
X155255142Y-48098857D02*
X154112285Y-48098857D01*
X153398000Y-48098857D02*
X152255142Y-48098857D01*
X129823142Y-48594095D02*
X129823142Y-47294095D01*
X129404095Y-47294095D01*
X129299333Y-47356000D01*
X129246952Y-47417904D01*
X129194571Y-47541714D01*
X129194571Y-47727428D01*
X129246952Y-47851238D01*
X129299333Y-47913142D01*
X129404095Y-47975047D01*
X129823142Y-47975047D01*
X128723142Y-48594095D02*
X128723142Y-47294095D01*
X128094571Y-48594095D01*
X128094571Y-47294095D01*
X127727904Y-47294095D02*
X127099333Y-47294095D01*
X127413619Y-48594095D02*
X127413619Y-47294095D01*
X126785047Y-48532190D02*
X126627904Y-48594095D01*
X126366000Y-48594095D01*
X126261238Y-48532190D01*
X126208857Y-48470285D01*
X126156476Y-48346476D01*
X126156476Y-48222666D01*
X126208857Y-48098857D01*
X126261238Y-48036952D01*
X126366000Y-47975047D01*
X126575523Y-47913142D01*
X126680285Y-47851238D01*
X126732666Y-47789333D01*
X126785047Y-47665523D01*
X126785047Y-47541714D01*
X126732666Y-47417904D01*
X126680285Y-47356000D01*
X126575523Y-47294095D01*
X126313619Y-47294095D01*
X126156476Y-47356000D01*
X133441904Y-48860857D02*
X132603809Y-48860857D01*
X133022857Y-49356095D02*
X133022857Y-48365619D01*
X131556190Y-48056095D02*
X132080000Y-48056095D01*
X132132380Y-48675142D01*
X132080000Y-48613238D01*
X131975238Y-48551333D01*
X131713333Y-48551333D01*
X131608571Y-48613238D01*
X131556190Y-48675142D01*
X131503809Y-48798952D01*
X131503809Y-49108476D01*
X131556190Y-49232285D01*
X131608571Y-49294190D01*
X131713333Y-49356095D01*
X131975238Y-49356095D01*
X132080000Y-49294190D01*
X132132380Y-49232285D01*
X131137142Y-48489428D02*
X130875238Y-49356095D01*
X130613333Y-48489428D01*
X128880285Y-50248285D02*
X128932666Y-50310190D01*
X129089809Y-50372095D01*
X129194571Y-50372095D01*
X129351714Y-50310190D01*
X129456476Y-50186380D01*
X129508857Y-50062571D01*
X129561238Y-49814952D01*
X129561238Y-49629238D01*
X129508857Y-49381619D01*
X129456476Y-49257809D01*
X129351714Y-49134000D01*
X129194571Y-49072095D01*
X129089809Y-49072095D01*
X128932666Y-49134000D01*
X128880285Y-49195904D01*
X128199333Y-49072095D02*
X127989809Y-49072095D01*
X127885047Y-49134000D01*
X127780285Y-49257809D01*
X127727904Y-49505428D01*
X127727904Y-49938761D01*
X127780285Y-50186380D01*
X127885047Y-50310190D01*
X127989809Y-50372095D01*
X128199333Y-50372095D01*
X128304095Y-50310190D01*
X128408857Y-50186380D01*
X128461238Y-49938761D01*
X128461238Y-49505428D01*
X128408857Y-49257809D01*
X128304095Y-49134000D01*
X128199333Y-49072095D01*
X127256476Y-50372095D02*
X127256476Y-49072095D01*
X126889809Y-50000666D01*
X126523142Y-49072095D01*
X126523142Y-50372095D01*
X115968857Y-48098857D02*
X114826000Y-48098857D01*
X114111714Y-48098857D02*
X112968857Y-48098857D01*
X112254571Y-48098857D02*
X111111714Y-48098857D01*
X110397428Y-48098857D02*
X109254571Y-48098857D01*
X108540285Y-48098857D02*
X107397428Y-48098857D01*
X106683142Y-48098857D02*
X105540285Y-48098857D01*
X103683142Y-48594095D02*
X103683142Y-47294095D01*
X103111714Y-47294095D01*
X102968857Y-47356000D01*
X102897428Y-47417904D01*
X102825999Y-47541714D01*
X102825999Y-47727428D01*
X102897428Y-47851238D01*
X102968857Y-47913142D01*
X103111714Y-47975047D01*
X103683142Y-47975047D01*
X101897428Y-47294095D02*
X101611714Y-47294095D01*
X101468857Y-47356000D01*
X101325999Y-47479809D01*
X101254571Y-47727428D01*
X101254571Y-48160761D01*
X101325999Y-48408380D01*
X101468857Y-48532190D01*
X101611714Y-48594095D01*
X101897428Y-48594095D01*
X102040285Y-48532190D01*
X102183142Y-48408380D01*
X102254571Y-48160761D01*
X102254571Y-47727428D01*
X102183142Y-47479809D01*
X102040285Y-47356000D01*
X101897428Y-47294095D01*
X100611714Y-48594095D02*
X100611714Y-47294095D01*
X99897428Y-48594095D02*
X99897428Y-47294095D01*
X99040285Y-48594095D01*
X99040285Y-47294095D01*
X98540285Y-47294095D02*
X97683142Y-47294095D01*
X98111714Y-48594095D02*
X98111714Y-47294095D01*
X97254571Y-48532190D02*
X97040285Y-48594095D01*
X96683142Y-48594095D01*
X96540285Y-48532190D01*
X96468857Y-48470285D01*
X96397428Y-48346476D01*
X96397428Y-48222666D01*
X96468857Y-48098857D01*
X96540285Y-48036952D01*
X96683142Y-47975047D01*
X96968857Y-47913142D01*
X97111714Y-47851238D01*
X97183142Y-47789333D01*
X97254571Y-47665523D01*
X97254571Y-47541714D01*
X97183142Y-47417904D01*
X97111714Y-47356000D01*
X96968857Y-47294095D01*
X96611714Y-47294095D01*
X96397428Y-47356000D01*
X94611714Y-48098857D02*
X93468857Y-48098857D01*
X92754571Y-48098857D02*
X91611714Y-48098857D01*
X90897428Y-48098857D02*
X89754571Y-48098857D01*
X89040285Y-48098857D02*
X87897428Y-48098857D01*
X87183142Y-48098857D02*
X86040285Y-48098857D01*
X85325999Y-48098857D02*
X84183142Y-48098857D01*
X145347714Y-50805428D02*
X145669142Y-50805428D01*
X145669142Y-48948285D01*
X145347714Y-48948285D01*
X144126285Y-49134000D02*
X144254857Y-49072095D01*
X144447714Y-49072095D01*
X144640571Y-49134000D01*
X144769142Y-49257809D01*
X144833428Y-49381619D01*
X144897714Y-49629238D01*
X144897714Y-49814952D01*
X144833428Y-50062571D01*
X144769142Y-50186380D01*
X144640571Y-50310190D01*
X144447714Y-50372095D01*
X144319142Y-50372095D01*
X144126285Y-50310190D01*
X144062000Y-50248285D01*
X144062000Y-49814952D01*
X144319142Y-49814952D01*
X143612000Y-50805428D02*
X143290571Y-50805428D01*
X143290571Y-48948285D01*
X143612000Y-48948285D01*
X141169142Y-50805428D02*
X141490571Y-50805428D01*
X141490571Y-48948285D01*
X141169142Y-48948285D01*
X140204857Y-49691142D02*
X140654857Y-49691142D01*
X140654857Y-50372095D02*
X140654857Y-49072095D01*
X140012000Y-49072095D01*
X139626285Y-50805428D02*
X139304857Y-50805428D01*
X139304857Y-48948285D01*
X139626285Y-48948285D01*
X137183428Y-50805428D02*
X137504857Y-50805428D01*
X137504857Y-48948285D01*
X137183428Y-48948285D01*
X136669142Y-49691142D02*
X136219142Y-49691142D01*
X136026285Y-50372095D02*
X136669142Y-50372095D01*
X136669142Y-49072095D01*
X136026285Y-49072095D01*
X135576285Y-50805428D02*
X135254857Y-50805428D01*
X135254857Y-48948285D01*
X135576285Y-48948285D01*
X146074666Y-48594095D02*
X146074666Y-47294095D01*
X146074666Y-47913142D02*
X145446095Y-47913142D01*
X145446095Y-48594095D02*
X145446095Y-47294095D01*
X144974666Y-48222666D02*
X144450857Y-48222666D01*
X145079428Y-48594095D02*
X144712761Y-47294095D01*
X144346095Y-48594095D01*
X143455619Y-48594095D02*
X143979428Y-48594095D01*
X143979428Y-47294095D01*
X142565142Y-48594095D02*
X143088952Y-48594095D01*
X143088952Y-47294095D01*
X141412761Y-48532190D02*
X141255619Y-48594095D01*
X140993714Y-48594095D01*
X140888952Y-48532190D01*
X140836571Y-48470285D01*
X140784190Y-48346476D01*
X140784190Y-48222666D01*
X140836571Y-48098857D01*
X140888952Y-48036952D01*
X140993714Y-47975047D01*
X141203238Y-47913142D01*
X141308000Y-47851238D01*
X141360380Y-47789333D01*
X141412761Y-47665523D01*
X141412761Y-47541714D01*
X141360380Y-47417904D01*
X141308000Y-47356000D01*
X141203238Y-47294095D01*
X140941333Y-47294095D01*
X140784190Y-47356000D01*
X140312761Y-47913142D02*
X139946095Y-47913142D01*
X139788952Y-48594095D02*
X140312761Y-48594095D01*
X140312761Y-47294095D01*
X139788952Y-47294095D01*
X139317523Y-48594095D02*
X139317523Y-47294095D01*
X138688952Y-48594095D01*
X138688952Y-47294095D01*
X138217523Y-48532190D02*
X138060380Y-48594095D01*
X137798476Y-48594095D01*
X137693714Y-48532190D01*
X137641333Y-48470285D01*
X137588952Y-48346476D01*
X137588952Y-48222666D01*
X137641333Y-48098857D01*
X137693714Y-48036952D01*
X137798476Y-47975047D01*
X138008000Y-47913142D01*
X138112761Y-47851238D01*
X138165142Y-47789333D01*
X138217523Y-47665523D01*
X138217523Y-47541714D01*
X138165142Y-47417904D01*
X138112761Y-47356000D01*
X138008000Y-47294095D01*
X137746095Y-47294095D01*
X137588952Y-47356000D01*
X136908000Y-47294095D02*
X136698476Y-47294095D01*
X136593714Y-47356000D01*
X136488952Y-47479809D01*
X136436571Y-47727428D01*
X136436571Y-48160761D01*
X136488952Y-48408380D01*
X136593714Y-48532190D01*
X136698476Y-48594095D01*
X136908000Y-48594095D01*
X137012761Y-48532190D01*
X137117523Y-48408380D01*
X137169904Y-48160761D01*
X137169904Y-47727428D01*
X137117523Y-47479809D01*
X137012761Y-47356000D01*
X136908000Y-47294095D01*
X135336571Y-48594095D02*
X135703238Y-47975047D01*
X135965142Y-48594095D02*
X135965142Y-47294095D01*
X135546095Y-47294095D01*
X135441333Y-47356000D01*
X135388952Y-47417904D01*
X135336571Y-47541714D01*
X135336571Y-47727428D01*
X135388952Y-47851238D01*
X135441333Y-47913142D01*
X135546095Y-47975047D01*
X135965142Y-47975047D01*
X134917523Y-48532190D02*
X134760380Y-48594095D01*
X134498476Y-48594095D01*
X134393714Y-48532190D01*
X134341333Y-48470285D01*
X134288952Y-48346476D01*
X134288952Y-48222666D01*
X134341333Y-48098857D01*
X134393714Y-48036952D01*
X134498476Y-47975047D01*
X134708000Y-47913142D01*
X134812761Y-47851238D01*
X134865142Y-47789333D01*
X134917523Y-47665523D01*
X134917523Y-47541714D01*
X134865142Y-47417904D01*
X134812761Y-47356000D01*
X134708000Y-47294095D01*
X134446095Y-47294095D01*
X134288952Y-47356000D01*
X197052571Y-47356000D02*
X197157333Y-47294095D01*
X197314476Y-47294095D01*
X197471619Y-47356000D01*
X197576380Y-47479809D01*
X197628761Y-47603619D01*
X197681142Y-47851238D01*
X197681142Y-48036952D01*
X197628761Y-48284571D01*
X197576380Y-48408380D01*
X197471619Y-48532190D01*
X197314476Y-48594095D01*
X197209714Y-48594095D01*
X197052571Y-48532190D01*
X197000190Y-48470285D01*
X197000190Y-48036952D01*
X197209714Y-48036952D01*
X196528761Y-48594095D02*
X196528761Y-47294095D01*
X195900190Y-48594095D01*
X195900190Y-47294095D01*
X195376380Y-48594095D02*
X195376380Y-47294095D01*
X195114476Y-47294095D01*
X194957333Y-47356000D01*
X194852571Y-47479809D01*
X194800190Y-47603619D01*
X194747809Y-47851238D01*
X194747809Y-48036952D01*
X194800190Y-48284571D01*
X194852571Y-48408380D01*
X194957333Y-48532190D01*
X195114476Y-48594095D01*
X195376380Y-48594095D01*
X192862095Y-47356000D02*
X192966857Y-47294095D01*
X193124000Y-47294095D01*
X193281142Y-47356000D01*
X193385904Y-47479809D01*
X193438285Y-47603619D01*
X193490666Y-47851238D01*
X193490666Y-48036952D01*
X193438285Y-48284571D01*
X193385904Y-48408380D01*
X193281142Y-48532190D01*
X193124000Y-48594095D01*
X193019238Y-48594095D01*
X192862095Y-48532190D01*
X192809714Y-48470285D01*
X192809714Y-48036952D01*
X193019238Y-48036952D01*
X192338285Y-48594095D02*
X192338285Y-47294095D01*
X191709714Y-48594095D01*
X191709714Y-47294095D01*
X191185904Y-48594095D02*
X191185904Y-47294095D01*
X190924000Y-47294095D01*
X190766857Y-47356000D01*
X190662095Y-47479809D01*
X190609714Y-47603619D01*
X190557333Y-47851238D01*
X190557333Y-48036952D01*
X190609714Y-48284571D01*
X190662095Y-48408380D01*
X190766857Y-48532190D01*
X190924000Y-48594095D01*
X191185904Y-48594095D01*
X188671619Y-47356000D02*
X188776380Y-47294095D01*
X188933523Y-47294095D01*
X189090666Y-47356000D01*
X189195428Y-47479809D01*
X189247809Y-47603619D01*
X189300190Y-47851238D01*
X189300190Y-48036952D01*
X189247809Y-48284571D01*
X189195428Y-48408380D01*
X189090666Y-48532190D01*
X188933523Y-48594095D01*
X188828761Y-48594095D01*
X188671619Y-48532190D01*
X188619238Y-48470285D01*
X188619238Y-48036952D01*
X188828761Y-48036952D01*
X188147809Y-48594095D02*
X188147809Y-47294095D01*
X187519238Y-48594095D01*
X187519238Y-47294095D01*
X186995428Y-48594095D02*
X186995428Y-47294095D01*
X186733523Y-47294095D01*
X186576380Y-47356000D01*
X186471619Y-47479809D01*
X186419238Y-47603619D01*
X186366857Y-47851238D01*
X186366857Y-48036952D01*
X186419238Y-48284571D01*
X186471619Y-48408380D01*
X186576380Y-48532190D01*
X186733523Y-48594095D01*
X186995428Y-48594095D01*
X149174095Y-48118000D02*
X149278857Y-48056095D01*
X149436000Y-48056095D01*
X149593142Y-48118000D01*
X149697904Y-48241809D01*
X149750285Y-48365619D01*
X149802666Y-48613238D01*
X149802666Y-48798952D01*
X149750285Y-49046571D01*
X149697904Y-49170380D01*
X149593142Y-49294190D01*
X149436000Y-49356095D01*
X149331238Y-49356095D01*
X149174095Y-49294190D01*
X149121714Y-49232285D01*
X149121714Y-48798952D01*
X149331238Y-48798952D01*
X148650285Y-49356095D02*
X148650285Y-48056095D01*
X148021714Y-49356095D01*
X148021714Y-48056095D01*
X147497904Y-49356095D02*
X147497904Y-48056095D01*
X147236000Y-48056095D01*
X147078857Y-48118000D01*
X146974095Y-48241809D01*
X146921714Y-48365619D01*
X146869333Y-48613238D01*
X146869333Y-48798952D01*
X146921714Y-49046571D01*
X146974095Y-49170380D01*
X147078857Y-49294190D01*
X147236000Y-49356095D01*
X147497904Y-49356095D01*
X114889333Y-49691142D02*
X115402666Y-49691142D01*
X115402666Y-50372095D02*
X115402666Y-49072095D01*
X114669333Y-49072095D01*
X113862666Y-49629238D02*
X114009333Y-49567333D01*
X114082666Y-49505428D01*
X114156000Y-49381619D01*
X114156000Y-49319714D01*
X114082666Y-49195904D01*
X114009333Y-49134000D01*
X113862666Y-49072095D01*
X113569333Y-49072095D01*
X113422666Y-49134000D01*
X113349333Y-49195904D01*
X113276000Y-49319714D01*
X113276000Y-49381619D01*
X113349333Y-49505428D01*
X113422666Y-49567333D01*
X113569333Y-49629238D01*
X113862666Y-49629238D01*
X114009333Y-49691142D01*
X114082666Y-49753047D01*
X114156000Y-49876857D01*
X114156000Y-50124476D01*
X114082666Y-50248285D01*
X114009333Y-50310190D01*
X113862666Y-50372095D01*
X113569333Y-50372095D01*
X113422666Y-50310190D01*
X113349333Y-50248285D01*
X113276000Y-50124476D01*
X113276000Y-49876857D01*
X113349333Y-49753047D01*
X113422666Y-49691142D01*
X113569333Y-49629238D01*
X110929333Y-49691142D02*
X110709333Y-49753047D01*
X110636000Y-49814952D01*
X110562666Y-49938761D01*
X110562666Y-50124476D01*
X110636000Y-50248285D01*
X110709333Y-50310190D01*
X110856000Y-50372095D01*
X111442666Y-50372095D01*
X111442666Y-49072095D01*
X110929333Y-49072095D01*
X110782666Y-49134000D01*
X110709333Y-49195904D01*
X110636000Y-49319714D01*
X110636000Y-49443523D01*
X110709333Y-49567333D01*
X110782666Y-49629238D01*
X110929333Y-49691142D01*
X111442666Y-49691142D01*
X109682666Y-49629238D02*
X109829333Y-49567333D01*
X109902666Y-49505428D01*
X109976000Y-49381619D01*
X109976000Y-49319714D01*
X109902666Y-49195904D01*
X109829333Y-49134000D01*
X109682666Y-49072095D01*
X109389333Y-49072095D01*
X109242666Y-49134000D01*
X109169333Y-49195904D01*
X109096000Y-49319714D01*
X109096000Y-49381619D01*
X109169333Y-49505428D01*
X109242666Y-49567333D01*
X109389333Y-49629238D01*
X109682666Y-49629238D01*
X109829333Y-49691142D01*
X109902666Y-49753047D01*
X109976000Y-49876857D01*
X109976000Y-50124476D01*
X109902666Y-50248285D01*
X109829333Y-50310190D01*
X109682666Y-50372095D01*
X109389333Y-50372095D01*
X109242666Y-50310190D01*
X109169333Y-50248285D01*
X109096000Y-50124476D01*
X109096000Y-49876857D01*
X109169333Y-49753047D01*
X109242666Y-49691142D01*
X109389333Y-49629238D01*
X106749333Y-49691142D02*
X107262666Y-49691142D01*
X107262666Y-50372095D02*
X107262666Y-49072095D01*
X106529333Y-49072095D01*
X106089333Y-49072095D02*
X105062666Y-49072095D01*
X105722666Y-50372095D01*
X102789333Y-49691142D02*
X102569333Y-49753047D01*
X102496000Y-49814952D01*
X102422666Y-49938761D01*
X102422666Y-50124476D01*
X102496000Y-50248285D01*
X102569333Y-50310190D01*
X102716000Y-50372095D01*
X103302666Y-50372095D01*
X103302666Y-49072095D01*
X102789333Y-49072095D01*
X102642666Y-49134000D01*
X102569333Y-49195904D01*
X102496000Y-49319714D01*
X102496000Y-49443523D01*
X102569333Y-49567333D01*
X102642666Y-49629238D01*
X102789333Y-49691142D01*
X103302666Y-49691142D01*
X101909333Y-49072095D02*
X100882666Y-49072095D01*
X101542666Y-50372095D01*
X98609333Y-49691142D02*
X99122666Y-49691142D01*
X99122666Y-50372095D02*
X99122666Y-49072095D01*
X98389333Y-49072095D01*
X97142666Y-49072095D02*
X97436000Y-49072095D01*
X97582666Y-49134000D01*
X97656000Y-49195904D01*
X97802666Y-49381619D01*
X97876000Y-49629238D01*
X97876000Y-50124476D01*
X97802666Y-50248285D01*
X97729333Y-50310190D01*
X97582666Y-50372095D01*
X97289333Y-50372095D01*
X97142666Y-50310190D01*
X97069333Y-50248285D01*
X96996000Y-50124476D01*
X96996000Y-49814952D01*
X97069333Y-49691142D01*
X97142666Y-49629238D01*
X97289333Y-49567333D01*
X97582666Y-49567333D01*
X97729333Y-49629238D01*
X97802666Y-49691142D01*
X97876000Y-49814952D01*
X94649333Y-49691142D02*
X94429333Y-49753047D01*
X94356000Y-49814952D01*
X94282666Y-49938761D01*
X94282666Y-50124476D01*
X94356000Y-50248285D01*
X94429333Y-50310190D01*
X94576000Y-50372095D01*
X95162666Y-50372095D01*
X95162666Y-49072095D01*
X94649333Y-49072095D01*
X94502666Y-49134000D01*
X94429333Y-49195904D01*
X94356000Y-49319714D01*
X94356000Y-49443523D01*
X94429333Y-49567333D01*
X94502666Y-49629238D01*
X94649333Y-49691142D01*
X95162666Y-49691142D01*
X92962666Y-49072095D02*
X93256000Y-49072095D01*
X93402666Y-49134000D01*
X93476000Y-49195904D01*
X93622666Y-49381619D01*
X93696000Y-49629238D01*
X93696000Y-50124476D01*
X93622666Y-50248285D01*
X93549333Y-50310190D01*
X93402666Y-50372095D01*
X93109333Y-50372095D01*
X92962666Y-50310190D01*
X92889333Y-50248285D01*
X92816000Y-50124476D01*
X92816000Y-49814952D01*
X92889333Y-49691142D01*
X92962666Y-49629238D01*
X93109333Y-49567333D01*
X93402666Y-49567333D01*
X93549333Y-49629238D01*
X93622666Y-49691142D01*
X93696000Y-49814952D01*
X90469333Y-49691142D02*
X90982666Y-49691142D01*
X90982666Y-50372095D02*
X90982666Y-49072095D01*
X90249333Y-49072095D01*
X88929333Y-49072095D02*
X89662666Y-49072095D01*
X89736000Y-49691142D01*
X89662666Y-49629238D01*
X89516000Y-49567333D01*
X89149333Y-49567333D01*
X89002666Y-49629238D01*
X88929333Y-49691142D01*
X88856000Y-49814952D01*
X88856000Y-50124476D01*
X88929333Y-50248285D01*
X89002666Y-50310190D01*
X89149333Y-50372095D01*
X89516000Y-50372095D01*
X89662666Y-50310190D01*
X89736000Y-50248285D01*
X86509333Y-49691142D02*
X86289333Y-49753047D01*
X86216000Y-49814952D01*
X86142666Y-49938761D01*
X86142666Y-50124476D01*
X86216000Y-50248285D01*
X86289333Y-50310190D01*
X86436000Y-50372095D01*
X87022666Y-50372095D01*
X87022666Y-49072095D01*
X86509333Y-49072095D01*
X86362666Y-49134000D01*
X86289333Y-49195904D01*
X86216000Y-49319714D01*
X86216000Y-49443523D01*
X86289333Y-49567333D01*
X86362666Y-49629238D01*
X86509333Y-49691142D01*
X87022666Y-49691142D01*
X84749333Y-49072095D02*
X85482666Y-49072095D01*
X85556000Y-49691142D01*
X85482666Y-49629238D01*
X85336000Y-49567333D01*
X84969333Y-49567333D01*
X84822666Y-49629238D01*
X84749333Y-49691142D01*
X84676000Y-49814952D01*
X84676000Y-50124476D01*
X84749333Y-50248285D01*
X84822666Y-50310190D01*
X84969333Y-50372095D01*
X85336000Y-50372095D01*
X85482666Y-50310190D01*
X85556000Y-50248285D01*
D12*
X50972508Y-38971591D02*
X50972508Y-92309883D01*
X242687490Y-38971591D02*
X50972508Y-38971591D01*
X61372508Y-94309883D02*
G75*
G02*
X63372508Y-96309883I0J-2000000D01*
G01*
X52972508Y-94309883D02*
X61372508Y-94309883D01*
X52972508Y-94309883D02*
G75*
G02*
X50972508Y-92309883I0J2000000D01*
G01*
X55472508Y-143909883D02*
X238187490Y-143909883D01*
X241769770Y-142096719D02*
X241928449Y-141869262D01*
X241928449Y-141869262D02*
X242073087Y-141632115D01*
X242073087Y-141632115D02*
X242203341Y-141386260D01*
X242203341Y-141386260D02*
X242318870Y-141132680D01*
X242318870Y-141132680D02*
X242419332Y-140872359D01*
X242419332Y-140872359D02*
X242504383Y-140606279D01*
X242504383Y-140606279D02*
X242573683Y-140335424D01*
X242573683Y-140335424D02*
X242626889Y-140060777D01*
X242626889Y-140060777D02*
X242663659Y-139783322D01*
X242663659Y-139783322D02*
X242683651Y-139504040D01*
X242683651Y-139504040D02*
X242687490Y-139317324D01*
X242687490Y-139317324D02*
X242687490Y-38971591D01*
X238187490Y-143909883D02*
X238445533Y-143901898D01*
X238445533Y-143901898D02*
X238702533Y-143878184D01*
X238702533Y-143878184D02*
X238957740Y-143839103D01*
X238957740Y-143839103D02*
X239210399Y-143785014D01*
X239210399Y-143785014D02*
X239459759Y-143716279D01*
X239459759Y-143716279D02*
X239705067Y-143633259D01*
X239705067Y-143633259D02*
X239945571Y-143536313D01*
X239945571Y-143536313D02*
X240180518Y-143425804D01*
X240180518Y-143425804D02*
X240409157Y-143302091D01*
X240409157Y-143302091D02*
X240630733Y-143165536D01*
X240630733Y-143165536D02*
X240844496Y-143016499D01*
X240844496Y-143016499D02*
X241049693Y-142855342D01*
X241049693Y-142855342D02*
X241245571Y-142682424D01*
X241245571Y-142682424D02*
X241431378Y-142498107D01*
X241431378Y-142498107D02*
X241606362Y-142302752D01*
X241606362Y-142302752D02*
X241769770Y-142096719D01*
X63372508Y-121509883D02*
G75*
G02*
X61372508Y-123509883I-2000000J0D01*
G01*
X61372508Y-123509883D02*
X52972508Y-123509883D01*
X63372508Y-96309883D02*
X63372508Y-121509883D01*
X52766574Y-142986753D02*
X52989415Y-143147096D01*
X52989415Y-143147096D02*
X53221312Y-143293029D01*
X53221312Y-143293029D02*
X53461337Y-143424254D01*
X53461337Y-143424254D02*
X53708567Y-143540476D01*
X53708567Y-143540476D02*
X53962074Y-143641395D01*
X53962074Y-143641395D02*
X54220933Y-143726715D01*
X54220933Y-143726715D02*
X54484219Y-143796138D01*
X54484219Y-143796138D02*
X54751005Y-143849368D01*
X54751005Y-143849368D02*
X55020366Y-143886106D01*
X55020366Y-143886106D02*
X55291375Y-143906056D01*
X55291375Y-143906056D02*
X55472508Y-143909883D01*
X50972508Y-139317324D02*
X50980516Y-139583265D01*
X50980516Y-139583265D02*
X51004274Y-139847961D01*
X51004274Y-139847961D02*
X51043382Y-140110633D01*
X51043382Y-140110633D02*
X51097440Y-140370501D01*
X51097440Y-140370501D02*
X51166048Y-140626788D01*
X51166048Y-140626788D02*
X51248805Y-140878714D01*
X51248805Y-140878714D02*
X51345312Y-141125500D01*
X51345312Y-141125500D02*
X51455167Y-141366368D01*
X51455167Y-141366368D02*
X51577972Y-141600537D01*
X51577972Y-141600537D02*
X51713326Y-141827230D01*
X51713326Y-141827230D02*
X51860829Y-142045667D01*
X51860829Y-142045667D02*
X52020081Y-142255069D01*
X52020081Y-142255069D02*
X52190681Y-142454658D01*
X52190681Y-142454658D02*
X52372230Y-142643654D01*
X52372230Y-142643654D02*
X52564328Y-142821278D01*
X52564328Y-142821278D02*
X52766574Y-142986753D01*
X50972508Y-125509883D02*
X50972508Y-139317324D01*
X50972508Y-125509883D02*
G75*
G02*
X52972508Y-123509883I2000000J0D01*
G01*
D13*
%TO.C,J11*%
X65091000Y-94301000D02*
X70291000Y-94301000D01*
X65091000Y-99441000D02*
X65091000Y-94301000D01*
X70291000Y-102041000D02*
X70291000Y-94301000D01*
X65091000Y-99441000D02*
X67691000Y-99441000D01*
X67691000Y-99441000D02*
X67691000Y-102041000D01*
X67691000Y-102041000D02*
X70291000Y-102041000D01*
X65091000Y-100711000D02*
X65091000Y-102041000D01*
X65091000Y-102041000D02*
X66421000Y-102041000D01*
%TO.C,C9*%
X211020000Y-59242000D02*
G75*
G03*
X211020000Y-59242000I-9090000J0D01*
G01*
X210980000Y-59242000D02*
X192880000Y-59242000D01*
X210980000Y-59202000D02*
X192880000Y-59202000D01*
X210980000Y-59162000D02*
X192880000Y-59162000D01*
X210980000Y-59122000D02*
X192880000Y-59122000D01*
X210979000Y-59082000D02*
X192881000Y-59082000D01*
X210978000Y-59042000D02*
X192882000Y-59042000D01*
X210977000Y-59002000D02*
X192883000Y-59002000D01*
X210976000Y-58962000D02*
X192884000Y-58962000D01*
X210975000Y-58922000D02*
X192885000Y-58922000D01*
X210973000Y-58882000D02*
X192887000Y-58882000D01*
X210972000Y-58842000D02*
X192888000Y-58842000D01*
X210970000Y-58802000D02*
X192890000Y-58802000D01*
X210968000Y-58762000D02*
X192892000Y-58762000D01*
X210966000Y-58722000D02*
X192894000Y-58722000D01*
X210963000Y-58682000D02*
X192897000Y-58682000D01*
X210961000Y-58642000D02*
X192899000Y-58642000D01*
X210958000Y-58602000D02*
X192902000Y-58602000D01*
X210955000Y-58562000D02*
X192905000Y-58562000D01*
X210952000Y-58521000D02*
X192908000Y-58521000D01*
X210949000Y-58481000D02*
X192911000Y-58481000D01*
X210945000Y-58441000D02*
X192915000Y-58441000D01*
X210942000Y-58401000D02*
X192918000Y-58401000D01*
X210938000Y-58361000D02*
X192922000Y-58361000D01*
X210934000Y-58321000D02*
X192926000Y-58321000D01*
X210930000Y-58281000D02*
X192930000Y-58281000D01*
X210925000Y-58241000D02*
X192935000Y-58241000D01*
X210921000Y-58201000D02*
X192939000Y-58201000D01*
X210916000Y-58161000D02*
X192944000Y-58161000D01*
X210911000Y-58121000D02*
X192949000Y-58121000D01*
X210906000Y-58081000D02*
X192954000Y-58081000D01*
X210901000Y-58041000D02*
X192959000Y-58041000D01*
X210896000Y-58001000D02*
X192964000Y-58001000D01*
X210890000Y-57961000D02*
X192970000Y-57961000D01*
X210884000Y-57921000D02*
X192976000Y-57921000D01*
X210878000Y-57881000D02*
X192982000Y-57881000D01*
X210872000Y-57841000D02*
X192988000Y-57841000D01*
X210866000Y-57801000D02*
X192994000Y-57801000D01*
X210859000Y-57761000D02*
X193001000Y-57761000D01*
X210853000Y-57721000D02*
X193007000Y-57721000D01*
X210846000Y-57681000D02*
X193014000Y-57681000D01*
X210839000Y-57641000D02*
X193021000Y-57641000D01*
X210831000Y-57601000D02*
X193029000Y-57601000D01*
X210824000Y-57561000D02*
X193036000Y-57561000D01*
X210816000Y-57521000D02*
X193044000Y-57521000D01*
X210808000Y-57481000D02*
X193052000Y-57481000D01*
X210800000Y-57441000D02*
X193060000Y-57441000D01*
X210792000Y-57401000D02*
X193068000Y-57401000D01*
X210784000Y-57361000D02*
X193076000Y-57361000D01*
X210775000Y-57321000D02*
X193085000Y-57321000D01*
X210767000Y-57281000D02*
X193093000Y-57281000D01*
X210758000Y-57241000D02*
X193102000Y-57241000D01*
X210749000Y-57201000D02*
X193111000Y-57201000D01*
X210739000Y-57161000D02*
X193121000Y-57161000D01*
X210730000Y-57121000D02*
X193130000Y-57121000D01*
X210720000Y-57081000D02*
X193140000Y-57081000D01*
X210710000Y-57041000D02*
X193150000Y-57041000D01*
X210700000Y-57001000D02*
X193160000Y-57001000D01*
X210690000Y-56961000D02*
X193170000Y-56961000D01*
X210679000Y-56921000D02*
X193181000Y-56921000D01*
X210669000Y-56881000D02*
X193191000Y-56881000D01*
X210658000Y-56841000D02*
X203310000Y-56841000D01*
X200550000Y-56841000D02*
X193202000Y-56841000D01*
X210647000Y-56801000D02*
X203310000Y-56801000D01*
X200550000Y-56801000D02*
X193213000Y-56801000D01*
X210636000Y-56761000D02*
X203310000Y-56761000D01*
X200550000Y-56761000D02*
X193224000Y-56761000D01*
X210624000Y-56721000D02*
X203310000Y-56721000D01*
X200550000Y-56721000D02*
X193236000Y-56721000D01*
X210613000Y-56681000D02*
X203310000Y-56681000D01*
X200550000Y-56681000D02*
X193247000Y-56681000D01*
X210601000Y-56641000D02*
X203310000Y-56641000D01*
X200550000Y-56641000D02*
X193259000Y-56641000D01*
X210589000Y-56601000D02*
X203310000Y-56601000D01*
X200550000Y-56601000D02*
X193271000Y-56601000D01*
X210576000Y-56561000D02*
X203310000Y-56561000D01*
X200550000Y-56561000D02*
X193284000Y-56561000D01*
X210564000Y-56521000D02*
X203310000Y-56521000D01*
X200550000Y-56521000D02*
X193296000Y-56521000D01*
X210551000Y-56481000D02*
X203310000Y-56481000D01*
X200550000Y-56481000D02*
X193309000Y-56481000D01*
X210539000Y-56441000D02*
X203310000Y-56441000D01*
X200550000Y-56441000D02*
X193321000Y-56441000D01*
X210525000Y-56401000D02*
X203310000Y-56401000D01*
X200550000Y-56401000D02*
X193335000Y-56401000D01*
X210512000Y-56361000D02*
X203310000Y-56361000D01*
X200550000Y-56361000D02*
X193348000Y-56361000D01*
X210499000Y-56321000D02*
X203310000Y-56321000D01*
X200550000Y-56321000D02*
X193361000Y-56321000D01*
X210485000Y-56281000D02*
X203310000Y-56281000D01*
X200550000Y-56281000D02*
X193375000Y-56281000D01*
X210471000Y-56241000D02*
X203310000Y-56241000D01*
X200550000Y-56241000D02*
X193389000Y-56241000D01*
X210457000Y-56201000D02*
X203310000Y-56201000D01*
X200550000Y-56201000D02*
X193403000Y-56201000D01*
X210443000Y-56161000D02*
X203310000Y-56161000D01*
X200550000Y-56161000D02*
X193417000Y-56161000D01*
X210428000Y-56121000D02*
X203310000Y-56121000D01*
X200550000Y-56121000D02*
X193432000Y-56121000D01*
X210414000Y-56081000D02*
X203310000Y-56081000D01*
X200550000Y-56081000D02*
X193446000Y-56081000D01*
X210399000Y-56041000D02*
X203310000Y-56041000D01*
X200550000Y-56041000D02*
X193461000Y-56041000D01*
X210383000Y-56001000D02*
X203310000Y-56001000D01*
X200550000Y-56001000D02*
X193477000Y-56001000D01*
X210368000Y-55961000D02*
X203310000Y-55961000D01*
X200550000Y-55961000D02*
X193492000Y-55961000D01*
X210353000Y-55921000D02*
X203310000Y-55921000D01*
X200550000Y-55921000D02*
X193507000Y-55921000D01*
X210337000Y-55881000D02*
X203310000Y-55881000D01*
X200550000Y-55881000D02*
X193523000Y-55881000D01*
X210321000Y-55841000D02*
X203310000Y-55841000D01*
X200550000Y-55841000D02*
X193539000Y-55841000D01*
X210304000Y-55801000D02*
X203310000Y-55801000D01*
X200550000Y-55801000D02*
X193556000Y-55801000D01*
X210288000Y-55761000D02*
X203310000Y-55761000D01*
X200550000Y-55761000D02*
X193572000Y-55761000D01*
X210271000Y-55721000D02*
X203310000Y-55721000D01*
X200550000Y-55721000D02*
X193589000Y-55721000D01*
X210254000Y-55681000D02*
X203310000Y-55681000D01*
X200550000Y-55681000D02*
X193606000Y-55681000D01*
X210237000Y-55641000D02*
X203310000Y-55641000D01*
X200550000Y-55641000D02*
X193623000Y-55641000D01*
X210220000Y-55601000D02*
X203310000Y-55601000D01*
X200550000Y-55601000D02*
X193640000Y-55601000D01*
X210202000Y-55561000D02*
X203310000Y-55561000D01*
X200550000Y-55561000D02*
X193658000Y-55561000D01*
X210184000Y-55521000D02*
X203310000Y-55521000D01*
X200550000Y-55521000D02*
X193676000Y-55521000D01*
X210166000Y-55481000D02*
X203310000Y-55481000D01*
X200550000Y-55481000D02*
X193694000Y-55481000D01*
X210148000Y-55441000D02*
X203310000Y-55441000D01*
X200550000Y-55441000D02*
X193712000Y-55441000D01*
X210130000Y-55401000D02*
X203310000Y-55401000D01*
X200550000Y-55401000D02*
X193730000Y-55401000D01*
X210111000Y-55361000D02*
X203310000Y-55361000D01*
X200550000Y-55361000D02*
X193749000Y-55361000D01*
X210092000Y-55321000D02*
X203310000Y-55321000D01*
X200550000Y-55321000D02*
X193768000Y-55321000D01*
X210073000Y-55281000D02*
X203310000Y-55281000D01*
X200550000Y-55281000D02*
X193787000Y-55281000D01*
X210053000Y-55241000D02*
X203310000Y-55241000D01*
X200550000Y-55241000D02*
X193807000Y-55241000D01*
X210033000Y-55201000D02*
X203310000Y-55201000D01*
X200550000Y-55201000D02*
X193827000Y-55201000D01*
X210013000Y-55161000D02*
X203310000Y-55161000D01*
X200550000Y-55161000D02*
X193847000Y-55161000D01*
X209993000Y-55121000D02*
X203310000Y-55121000D01*
X200550000Y-55121000D02*
X193867000Y-55121000D01*
X209973000Y-55081000D02*
X203310000Y-55081000D01*
X200550000Y-55081000D02*
X193887000Y-55081000D01*
X209952000Y-55041000D02*
X203310000Y-55041000D01*
X200550000Y-55041000D02*
X193908000Y-55041000D01*
X209931000Y-55001000D02*
X203310000Y-55001000D01*
X200550000Y-55001000D02*
X193929000Y-55001000D01*
X209910000Y-54961000D02*
X203310000Y-54961000D01*
X200550000Y-54961000D02*
X193950000Y-54961000D01*
X209888000Y-54921000D02*
X203310000Y-54921000D01*
X200550000Y-54921000D02*
X193972000Y-54921000D01*
X209867000Y-54881000D02*
X203310000Y-54881000D01*
X200550000Y-54881000D02*
X193993000Y-54881000D01*
X209845000Y-54841000D02*
X203310000Y-54841000D01*
X200550000Y-54841000D02*
X194015000Y-54841000D01*
X209822000Y-54801000D02*
X203310000Y-54801000D01*
X200550000Y-54801000D02*
X194038000Y-54801000D01*
X209800000Y-54761000D02*
X203310000Y-54761000D01*
X200550000Y-54761000D02*
X194060000Y-54761000D01*
X209777000Y-54721000D02*
X203310000Y-54721000D01*
X200550000Y-54721000D02*
X194083000Y-54721000D01*
X209754000Y-54681000D02*
X203310000Y-54681000D01*
X200550000Y-54681000D02*
X194106000Y-54681000D01*
X209731000Y-54641000D02*
X203310000Y-54641000D01*
X200550000Y-54641000D02*
X194129000Y-54641000D01*
X209707000Y-54601000D02*
X203310000Y-54601000D01*
X200550000Y-54601000D02*
X194153000Y-54601000D01*
X209683000Y-54561000D02*
X203310000Y-54561000D01*
X200550000Y-54561000D02*
X194177000Y-54561000D01*
X209659000Y-54521000D02*
X203310000Y-54521000D01*
X200550000Y-54521000D02*
X194201000Y-54521000D01*
X209635000Y-54481000D02*
X203310000Y-54481000D01*
X200550000Y-54481000D02*
X194225000Y-54481000D01*
X209610000Y-54441000D02*
X203310000Y-54441000D01*
X200550000Y-54441000D02*
X194250000Y-54441000D01*
X209585000Y-54401000D02*
X203310000Y-54401000D01*
X200550000Y-54401000D02*
X194275000Y-54401000D01*
X209560000Y-54361000D02*
X203310000Y-54361000D01*
X200550000Y-54361000D02*
X194300000Y-54361000D01*
X209534000Y-54321000D02*
X203310000Y-54321000D01*
X200550000Y-54321000D02*
X194326000Y-54321000D01*
X209508000Y-54281000D02*
X203310000Y-54281000D01*
X200550000Y-54281000D02*
X194352000Y-54281000D01*
X209482000Y-54241000D02*
X203310000Y-54241000D01*
X200550000Y-54241000D02*
X194378000Y-54241000D01*
X209455000Y-54201000D02*
X203310000Y-54201000D01*
X200550000Y-54201000D02*
X194405000Y-54201000D01*
X209429000Y-54161000D02*
X203310000Y-54161000D01*
X200550000Y-54161000D02*
X194431000Y-54161000D01*
X209401000Y-54121000D02*
X203310000Y-54121000D01*
X200550000Y-54121000D02*
X194459000Y-54121000D01*
X209374000Y-54081000D02*
X194486000Y-54081000D01*
X209346000Y-54041000D02*
X194514000Y-54041000D01*
X209318000Y-54001000D02*
X194542000Y-54001000D01*
X209290000Y-53961000D02*
X194570000Y-53961000D01*
X209261000Y-53921000D02*
X194599000Y-53921000D01*
X209232000Y-53881000D02*
X194628000Y-53881000D01*
X209203000Y-53841000D02*
X194657000Y-53841000D01*
X209173000Y-53801000D02*
X194687000Y-53801000D01*
X209143000Y-53761000D02*
X194717000Y-53761000D01*
X209113000Y-53721000D02*
X194747000Y-53721000D01*
X209082000Y-53681000D02*
X194778000Y-53681000D01*
X209051000Y-53641000D02*
X194809000Y-53641000D01*
X209019000Y-53601000D02*
X194841000Y-53601000D01*
X208987000Y-53561000D02*
X194873000Y-53561000D01*
X208955000Y-53521000D02*
X194905000Y-53521000D01*
X208923000Y-53481000D02*
X194937000Y-53481000D01*
X208890000Y-53441000D02*
X194970000Y-53441000D01*
X208856000Y-53401000D02*
X195004000Y-53401000D01*
X208823000Y-53361000D02*
X195037000Y-53361000D01*
X208788000Y-53321000D02*
X195072000Y-53321000D01*
X208754000Y-53281000D02*
X195106000Y-53281000D01*
X208719000Y-53241000D02*
X195141000Y-53241000D01*
X208684000Y-53201000D02*
X195176000Y-53201000D01*
X208648000Y-53161000D02*
X195212000Y-53161000D01*
X208612000Y-53121000D02*
X195248000Y-53121000D01*
X208575000Y-53081000D02*
X195285000Y-53081000D01*
X208538000Y-53041000D02*
X195322000Y-53041000D01*
X208500000Y-53001000D02*
X195360000Y-53001000D01*
X208462000Y-52961000D02*
X195398000Y-52961000D01*
X208424000Y-52921000D02*
X195436000Y-52921000D01*
X208385000Y-52881000D02*
X195475000Y-52881000D01*
X208346000Y-52841000D02*
X195514000Y-52841000D01*
X208306000Y-52801000D02*
X195554000Y-52801000D01*
X208265000Y-52761000D02*
X195595000Y-52761000D01*
X208224000Y-52721000D02*
X195636000Y-52721000D01*
X208183000Y-52681000D02*
X195677000Y-52681000D01*
X208141000Y-52641000D02*
X195719000Y-52641000D01*
X208098000Y-52601000D02*
X195762000Y-52601000D01*
X208055000Y-52561000D02*
X195805000Y-52561000D01*
X208012000Y-52521000D02*
X195848000Y-52521000D01*
X207968000Y-52481000D02*
X195892000Y-52481000D01*
X207923000Y-52441000D02*
X195937000Y-52441000D01*
X207877000Y-52401000D02*
X195983000Y-52401000D01*
X207831000Y-52361000D02*
X196029000Y-52361000D01*
X207785000Y-52321000D02*
X196075000Y-52321000D01*
X207737000Y-52281000D02*
X196123000Y-52281000D01*
X207689000Y-52241000D02*
X196171000Y-52241000D01*
X207641000Y-52201000D02*
X196219000Y-52201000D01*
X207592000Y-52161000D02*
X196268000Y-52161000D01*
X207541000Y-52121000D02*
X196319000Y-52121000D01*
X207491000Y-52081000D02*
X196369000Y-52081000D01*
X207439000Y-52041000D02*
X196421000Y-52041000D01*
X207387000Y-52001000D02*
X196473000Y-52001000D01*
X207334000Y-51961000D02*
X196526000Y-51961000D01*
X207280000Y-51921000D02*
X196580000Y-51921000D01*
X207225000Y-51881000D02*
X196635000Y-51881000D01*
X207170000Y-51841000D02*
X196690000Y-51841000D01*
X207113000Y-51801000D02*
X196747000Y-51801000D01*
X207056000Y-51761000D02*
X196804000Y-51761000D01*
X206997000Y-51721000D02*
X196863000Y-51721000D01*
X206938000Y-51681000D02*
X196922000Y-51681000D01*
X206877000Y-51641000D02*
X196983000Y-51641000D01*
X206816000Y-51601000D02*
X197044000Y-51601000D01*
X206753000Y-51561000D02*
X197107000Y-51561000D01*
X206689000Y-51521000D02*
X197171000Y-51521000D01*
X206624000Y-51481000D02*
X197236000Y-51481000D01*
X206558000Y-51441000D02*
X197302000Y-51441000D01*
X206491000Y-51401000D02*
X197369000Y-51401000D01*
X206422000Y-51361000D02*
X197438000Y-51361000D01*
X206352000Y-51321000D02*
X197508000Y-51321000D01*
X206280000Y-51281000D02*
X197580000Y-51281000D01*
X206207000Y-51241000D02*
X197653000Y-51241000D01*
X206132000Y-51201000D02*
X197728000Y-51201000D01*
X206055000Y-51161000D02*
X197805000Y-51161000D01*
X205976000Y-51121000D02*
X197884000Y-51121000D01*
X205896000Y-51081000D02*
X197964000Y-51081000D01*
X205813000Y-51042000D02*
X198047000Y-51042000D01*
X205729000Y-51002000D02*
X198131000Y-51002000D01*
X205641000Y-50962000D02*
X198219000Y-50962000D01*
X205552000Y-50922000D02*
X198308000Y-50922000D01*
X205460000Y-50882000D02*
X198400000Y-50882000D01*
X205364000Y-50842000D02*
X198496000Y-50842000D01*
X205266000Y-50802000D02*
X198594000Y-50802000D01*
X205164000Y-50762000D02*
X198696000Y-50762000D01*
X205059000Y-50722000D02*
X198801000Y-50722000D01*
X204949000Y-50682000D02*
X198911000Y-50682000D01*
X204835000Y-50642000D02*
X199025000Y-50642000D01*
X204715000Y-50602000D02*
X199145000Y-50602000D01*
X204590000Y-50562000D02*
X199270000Y-50562000D01*
X204458000Y-50522000D02*
X199402000Y-50522000D01*
X204318000Y-50482000D02*
X199542000Y-50482000D01*
X204168000Y-50442000D02*
X199692000Y-50442000D01*
X204008000Y-50402000D02*
X199852000Y-50402000D01*
X203833000Y-50362000D02*
X200027000Y-50362000D01*
X203640000Y-50322000D02*
X200220000Y-50322000D01*
X203422000Y-50282000D02*
X200438000Y-50282000D01*
X203166000Y-50242000D02*
X200694000Y-50242000D01*
X202843000Y-50202000D02*
X201017000Y-50202000D01*
X202317000Y-50162000D02*
X201543000Y-50162000D01*
X201930000Y-66192000D02*
X201930000Y-64392000D01*
X202830000Y-65292000D02*
X201030000Y-65292000D01*
%TO.C,C15*%
X148418000Y-129020000D02*
X148418000Y-127520000D01*
X147668000Y-128270000D02*
X149168000Y-128270000D01*
X157949000Y-128549000D02*
X157949000Y-127991000D01*
X157909000Y-128942000D02*
X157909000Y-127598000D01*
X157869000Y-129183000D02*
X157869000Y-127357000D01*
X157829000Y-129374000D02*
X157829000Y-127166000D01*
X157789000Y-129535000D02*
X157789000Y-127005000D01*
X157749000Y-129677000D02*
X157749000Y-126863000D01*
X157709000Y-129806000D02*
X157709000Y-126734000D01*
X157669000Y-129924000D02*
X157669000Y-126616000D01*
X157629000Y-130033000D02*
X157629000Y-126507000D01*
X157589000Y-130136000D02*
X157589000Y-126404000D01*
X157549000Y-130232000D02*
X157549000Y-126308000D01*
X157509000Y-130323000D02*
X157509000Y-126217000D01*
X157469000Y-130410000D02*
X157469000Y-126130000D01*
X157429000Y-130492000D02*
X157429000Y-126048000D01*
X157389000Y-130571000D02*
X157389000Y-125969000D01*
X157349000Y-130647000D02*
X157349000Y-125893000D01*
X157309000Y-130719000D02*
X157309000Y-125821000D01*
X157269000Y-130789000D02*
X157269000Y-125751000D01*
X157229000Y-130857000D02*
X157229000Y-125683000D01*
X157189000Y-130922000D02*
X157189000Y-125618000D01*
X157149000Y-130985000D02*
X157149000Y-125555000D01*
X157109000Y-131047000D02*
X157109000Y-125493000D01*
X157069000Y-131106000D02*
X157069000Y-125434000D01*
X157029000Y-131164000D02*
X157029000Y-125376000D01*
X156989000Y-131219000D02*
X156989000Y-125321000D01*
X156949000Y-131274000D02*
X156949000Y-125266000D01*
X156909000Y-131327000D02*
X156909000Y-125213000D01*
X156869000Y-131378000D02*
X156869000Y-125162000D01*
X156829000Y-131428000D02*
X156829000Y-125112000D01*
X156789000Y-131477000D02*
X156789000Y-125063000D01*
X156749000Y-131525000D02*
X156749000Y-125015000D01*
X156709000Y-131572000D02*
X156709000Y-124968000D01*
X156669000Y-131617000D02*
X156669000Y-124923000D01*
X156629000Y-131661000D02*
X156629000Y-124879000D01*
X156589000Y-131705000D02*
X156589000Y-124835000D01*
X156549000Y-131747000D02*
X156549000Y-124793000D01*
X156509000Y-127089000D02*
X156509000Y-124752000D01*
X156509000Y-131788000D02*
X156509000Y-129451000D01*
X156469000Y-127089000D02*
X156469000Y-124711000D01*
X156469000Y-131829000D02*
X156469000Y-129451000D01*
X156429000Y-127089000D02*
X156429000Y-124672000D01*
X156429000Y-131868000D02*
X156429000Y-129451000D01*
X156389000Y-127089000D02*
X156389000Y-124633000D01*
X156389000Y-131907000D02*
X156389000Y-129451000D01*
X156349000Y-127089000D02*
X156349000Y-124595000D01*
X156349000Y-131945000D02*
X156349000Y-129451000D01*
X156309000Y-127089000D02*
X156309000Y-124558000D01*
X156309000Y-131982000D02*
X156309000Y-129451000D01*
X156269000Y-127089000D02*
X156269000Y-124522000D01*
X156269000Y-132018000D02*
X156269000Y-129451000D01*
X156229000Y-127089000D02*
X156229000Y-124486000D01*
X156229000Y-132054000D02*
X156229000Y-129451000D01*
X156189000Y-127089000D02*
X156189000Y-124451000D01*
X156189000Y-132089000D02*
X156189000Y-129451000D01*
X156149000Y-127089000D02*
X156149000Y-124417000D01*
X156149000Y-132123000D02*
X156149000Y-129451000D01*
X156109000Y-127089000D02*
X156109000Y-124384000D01*
X156109000Y-132156000D02*
X156109000Y-129451000D01*
X156069000Y-127089000D02*
X156069000Y-124351000D01*
X156069000Y-132189000D02*
X156069000Y-129451000D01*
X156029000Y-127089000D02*
X156029000Y-124319000D01*
X156029000Y-132221000D02*
X156029000Y-129451000D01*
X155989000Y-127089000D02*
X155989000Y-124288000D01*
X155989000Y-132252000D02*
X155989000Y-129451000D01*
X155949000Y-127089000D02*
X155949000Y-124257000D01*
X155949000Y-132283000D02*
X155949000Y-129451000D01*
X155909000Y-127089000D02*
X155909000Y-124227000D01*
X155909000Y-132313000D02*
X155909000Y-129451000D01*
X155869000Y-127089000D02*
X155869000Y-124198000D01*
X155869000Y-132342000D02*
X155869000Y-129451000D01*
X155829000Y-127089000D02*
X155829000Y-124169000D01*
X155829000Y-132371000D02*
X155829000Y-129451000D01*
X155789000Y-127089000D02*
X155789000Y-124140000D01*
X155789000Y-132400000D02*
X155789000Y-129451000D01*
X155749000Y-127089000D02*
X155749000Y-124113000D01*
X155749000Y-132427000D02*
X155749000Y-129451000D01*
X155709000Y-127089000D02*
X155709000Y-124085000D01*
X155709000Y-132455000D02*
X155709000Y-129451000D01*
X155669000Y-127089000D02*
X155669000Y-124059000D01*
X155669000Y-132481000D02*
X155669000Y-129451000D01*
X155629000Y-127089000D02*
X155629000Y-124033000D01*
X155629000Y-132507000D02*
X155629000Y-129451000D01*
X155589000Y-127089000D02*
X155589000Y-124007000D01*
X155589000Y-132533000D02*
X155589000Y-129451000D01*
X155549000Y-127089000D02*
X155549000Y-123982000D01*
X155549000Y-132558000D02*
X155549000Y-129451000D01*
X155509000Y-127089000D02*
X155509000Y-123958000D01*
X155509000Y-132582000D02*
X155509000Y-129451000D01*
X155469000Y-127089000D02*
X155469000Y-123934000D01*
X155469000Y-132606000D02*
X155469000Y-129451000D01*
X155429000Y-127089000D02*
X155429000Y-123910000D01*
X155429000Y-132630000D02*
X155429000Y-129451000D01*
X155389000Y-127089000D02*
X155389000Y-123887000D01*
X155389000Y-132653000D02*
X155389000Y-129451000D01*
X155349000Y-127089000D02*
X155349000Y-123865000D01*
X155349000Y-132675000D02*
X155349000Y-129451000D01*
X155309000Y-127089000D02*
X155309000Y-123842000D01*
X155309000Y-132698000D02*
X155309000Y-129451000D01*
X155269000Y-127089000D02*
X155269000Y-123821000D01*
X155269000Y-132719000D02*
X155269000Y-129451000D01*
X155229000Y-127089000D02*
X155229000Y-123800000D01*
X155229000Y-132740000D02*
X155229000Y-129451000D01*
X155189000Y-127089000D02*
X155189000Y-123779000D01*
X155189000Y-132761000D02*
X155189000Y-129451000D01*
X155149000Y-127089000D02*
X155149000Y-123759000D01*
X155149000Y-132781000D02*
X155149000Y-129451000D01*
X155109000Y-127089000D02*
X155109000Y-123739000D01*
X155109000Y-132801000D02*
X155109000Y-129451000D01*
X155069000Y-127089000D02*
X155069000Y-123720000D01*
X155069000Y-132820000D02*
X155069000Y-129451000D01*
X155029000Y-127089000D02*
X155029000Y-123701000D01*
X155029000Y-132839000D02*
X155029000Y-129451000D01*
X154989000Y-127089000D02*
X154989000Y-123682000D01*
X154989000Y-132858000D02*
X154989000Y-129451000D01*
X154949000Y-127089000D02*
X154949000Y-123664000D01*
X154949000Y-132876000D02*
X154949000Y-129451000D01*
X154909000Y-127089000D02*
X154909000Y-123646000D01*
X154909000Y-132894000D02*
X154909000Y-129451000D01*
X154869000Y-127089000D02*
X154869000Y-123629000D01*
X154869000Y-132911000D02*
X154869000Y-129451000D01*
X154829000Y-127089000D02*
X154829000Y-123612000D01*
X154829000Y-132928000D02*
X154829000Y-129451000D01*
X154789000Y-127089000D02*
X154789000Y-123596000D01*
X154789000Y-132944000D02*
X154789000Y-129451000D01*
X154749000Y-127089000D02*
X154749000Y-123579000D01*
X154749000Y-132961000D02*
X154749000Y-129451000D01*
X154709000Y-127089000D02*
X154709000Y-123564000D01*
X154709000Y-132976000D02*
X154709000Y-129451000D01*
X154669000Y-127089000D02*
X154669000Y-123548000D01*
X154669000Y-132992000D02*
X154669000Y-129451000D01*
X154629000Y-127089000D02*
X154629000Y-123533000D01*
X154629000Y-133007000D02*
X154629000Y-129451000D01*
X154589000Y-127089000D02*
X154589000Y-123519000D01*
X154589000Y-133021000D02*
X154589000Y-129451000D01*
X154549000Y-127089000D02*
X154549000Y-123505000D01*
X154549000Y-133035000D02*
X154549000Y-129451000D01*
X154509000Y-127089000D02*
X154509000Y-123491000D01*
X154509000Y-133049000D02*
X154509000Y-129451000D01*
X154469000Y-127089000D02*
X154469000Y-123478000D01*
X154469000Y-133062000D02*
X154469000Y-129451000D01*
X154429000Y-127089000D02*
X154429000Y-123464000D01*
X154429000Y-133076000D02*
X154429000Y-129451000D01*
X154389000Y-127089000D02*
X154389000Y-123452000D01*
X154389000Y-133088000D02*
X154389000Y-129451000D01*
X154349000Y-127089000D02*
X154349000Y-123439000D01*
X154349000Y-133101000D02*
X154349000Y-129451000D01*
X154309000Y-127089000D02*
X154309000Y-123427000D01*
X154309000Y-133113000D02*
X154309000Y-129451000D01*
X154269000Y-127089000D02*
X154269000Y-123416000D01*
X154269000Y-133124000D02*
X154269000Y-129451000D01*
X154229000Y-127089000D02*
X154229000Y-123405000D01*
X154229000Y-133135000D02*
X154229000Y-129451000D01*
X154189000Y-127089000D02*
X154189000Y-123394000D01*
X154189000Y-133146000D02*
X154189000Y-129451000D01*
X154149000Y-133157000D02*
X154149000Y-123383000D01*
X154109000Y-133167000D02*
X154109000Y-123373000D01*
X154069000Y-133177000D02*
X154069000Y-123363000D01*
X154029000Y-133187000D02*
X154029000Y-123353000D01*
X153989000Y-133196000D02*
X153989000Y-123344000D01*
X153949000Y-133205000D02*
X153949000Y-123335000D01*
X153909000Y-133213000D02*
X153909000Y-123327000D01*
X153869000Y-133221000D02*
X153869000Y-123319000D01*
X153829000Y-133229000D02*
X153829000Y-123311000D01*
X153789000Y-133237000D02*
X153789000Y-123303000D01*
X153749000Y-133244000D02*
X153749000Y-123296000D01*
X153709000Y-133251000D02*
X153709000Y-123289000D01*
X153669000Y-133257000D02*
X153669000Y-123283000D01*
X153629000Y-133263000D02*
X153629000Y-123277000D01*
X153589000Y-133269000D02*
X153589000Y-123271000D01*
X153548000Y-133275000D02*
X153548000Y-123265000D01*
X153508000Y-133280000D02*
X153508000Y-123260000D01*
X153468000Y-133285000D02*
X153468000Y-123255000D01*
X153428000Y-133290000D02*
X153428000Y-123250000D01*
X153388000Y-133294000D02*
X153388000Y-123246000D01*
X153348000Y-133298000D02*
X153348000Y-123242000D01*
X153308000Y-133301000D02*
X153308000Y-123239000D01*
X153268000Y-133305000D02*
X153268000Y-123235000D01*
X153228000Y-133308000D02*
X153228000Y-123232000D01*
X153188000Y-133310000D02*
X153188000Y-123230000D01*
X153148000Y-133313000D02*
X153148000Y-123227000D01*
X153108000Y-133315000D02*
X153108000Y-123225000D01*
X153068000Y-133317000D02*
X153068000Y-123223000D01*
X153028000Y-133318000D02*
X153028000Y-123222000D01*
X152988000Y-133319000D02*
X152988000Y-123221000D01*
X152948000Y-133320000D02*
X152948000Y-123220000D01*
X152908000Y-133320000D02*
X152908000Y-123220000D01*
X152868000Y-133320000D02*
X152868000Y-123220000D01*
X157766437Y-129653264D02*
G75*
G02*
X147968643Y-129650000I-4898437J1383264D01*
G01*
X157766437Y-126886736D02*
G75*
G03*
X147968643Y-126890000I-4898437J-1383264D01*
G01*
X157766437Y-126886736D02*
G75*
G02*
X157767357Y-129650000I-4898437J-1383264D01*
G01*
%TO.C,J3*%
X171263000Y-141538000D02*
X171263000Y-138878000D01*
X184023000Y-141538000D02*
X171263000Y-141538000D01*
X184023000Y-138878000D02*
X171263000Y-138878000D01*
X184023000Y-141538000D02*
X184023000Y-138878000D01*
X185293000Y-141538000D02*
X186623000Y-141538000D01*
X186623000Y-141538000D02*
X186623000Y-140208000D01*
%TO.C,C2*%
X77430000Y-49500000D02*
X77430000Y-39400000D01*
X77470000Y-49500000D02*
X77470000Y-39400000D01*
X77510000Y-49500000D02*
X77510000Y-39400000D01*
X77550000Y-49499000D02*
X77550000Y-39401000D01*
X77590000Y-49498000D02*
X77590000Y-39402000D01*
X77630000Y-49497000D02*
X77630000Y-39403000D01*
X77670000Y-49495000D02*
X77670000Y-39405000D01*
X77710000Y-49493000D02*
X77710000Y-39407000D01*
X77750000Y-49490000D02*
X77750000Y-39410000D01*
X77790000Y-49488000D02*
X77790000Y-39412000D01*
X77830000Y-49485000D02*
X77830000Y-39415000D01*
X77870000Y-49481000D02*
X77870000Y-39419000D01*
X77910000Y-49478000D02*
X77910000Y-39422000D01*
X77950000Y-49474000D02*
X77950000Y-39426000D01*
X77990000Y-49470000D02*
X77990000Y-39430000D01*
X78030000Y-49465000D02*
X78030000Y-39435000D01*
X78070000Y-49460000D02*
X78070000Y-39440000D01*
X78110000Y-49455000D02*
X78110000Y-39445000D01*
X78151000Y-49449000D02*
X78151000Y-39451000D01*
X78191000Y-49443000D02*
X78191000Y-39457000D01*
X78231000Y-49437000D02*
X78231000Y-39463000D01*
X78271000Y-49431000D02*
X78271000Y-39469000D01*
X78311000Y-49424000D02*
X78311000Y-39476000D01*
X78351000Y-49417000D02*
X78351000Y-39483000D01*
X78391000Y-49409000D02*
X78391000Y-39491000D01*
X78431000Y-49401000D02*
X78431000Y-39499000D01*
X78471000Y-49393000D02*
X78471000Y-39507000D01*
X78511000Y-49385000D02*
X78511000Y-39515000D01*
X78551000Y-49376000D02*
X78551000Y-39524000D01*
X78591000Y-49367000D02*
X78591000Y-39533000D01*
X78631000Y-49357000D02*
X78631000Y-39543000D01*
X78671000Y-49347000D02*
X78671000Y-39553000D01*
X78711000Y-49337000D02*
X78711000Y-39563000D01*
X78751000Y-49326000D02*
X78751000Y-45631000D01*
X78751000Y-43269000D02*
X78751000Y-39574000D01*
X78791000Y-49315000D02*
X78791000Y-45631000D01*
X78791000Y-43269000D02*
X78791000Y-39585000D01*
X78831000Y-49304000D02*
X78831000Y-45631000D01*
X78831000Y-43269000D02*
X78831000Y-39596000D01*
X78871000Y-49293000D02*
X78871000Y-45631000D01*
X78871000Y-43269000D02*
X78871000Y-39607000D01*
X78911000Y-49281000D02*
X78911000Y-45631000D01*
X78911000Y-43269000D02*
X78911000Y-39619000D01*
X78951000Y-49268000D02*
X78951000Y-45631000D01*
X78951000Y-43269000D02*
X78951000Y-39632000D01*
X78991000Y-49256000D02*
X78991000Y-45631000D01*
X78991000Y-43269000D02*
X78991000Y-39644000D01*
X79031000Y-49242000D02*
X79031000Y-45631000D01*
X79031000Y-43269000D02*
X79031000Y-39658000D01*
X79071000Y-49229000D02*
X79071000Y-45631000D01*
X79071000Y-43269000D02*
X79071000Y-39671000D01*
X79111000Y-49215000D02*
X79111000Y-45631000D01*
X79111000Y-43269000D02*
X79111000Y-39685000D01*
X79151000Y-49201000D02*
X79151000Y-45631000D01*
X79151000Y-43269000D02*
X79151000Y-39699000D01*
X79191000Y-49187000D02*
X79191000Y-45631000D01*
X79191000Y-43269000D02*
X79191000Y-39713000D01*
X79231000Y-49172000D02*
X79231000Y-45631000D01*
X79231000Y-43269000D02*
X79231000Y-39728000D01*
X79271000Y-49156000D02*
X79271000Y-45631000D01*
X79271000Y-43269000D02*
X79271000Y-39744000D01*
X79311000Y-49141000D02*
X79311000Y-45631000D01*
X79311000Y-43269000D02*
X79311000Y-39759000D01*
X79351000Y-49124000D02*
X79351000Y-45631000D01*
X79351000Y-43269000D02*
X79351000Y-39776000D01*
X79391000Y-49108000D02*
X79391000Y-45631000D01*
X79391000Y-43269000D02*
X79391000Y-39792000D01*
X79431000Y-49091000D02*
X79431000Y-45631000D01*
X79431000Y-43269000D02*
X79431000Y-39809000D01*
X79471000Y-49074000D02*
X79471000Y-45631000D01*
X79471000Y-43269000D02*
X79471000Y-39826000D01*
X79511000Y-49056000D02*
X79511000Y-45631000D01*
X79511000Y-43269000D02*
X79511000Y-39844000D01*
X79551000Y-49038000D02*
X79551000Y-45631000D01*
X79551000Y-43269000D02*
X79551000Y-39862000D01*
X79591000Y-49019000D02*
X79591000Y-45631000D01*
X79591000Y-43269000D02*
X79591000Y-39881000D01*
X79631000Y-49000000D02*
X79631000Y-45631000D01*
X79631000Y-43269000D02*
X79631000Y-39900000D01*
X79671000Y-48981000D02*
X79671000Y-45631000D01*
X79671000Y-43269000D02*
X79671000Y-39919000D01*
X79711000Y-48961000D02*
X79711000Y-45631000D01*
X79711000Y-43269000D02*
X79711000Y-39939000D01*
X79751000Y-48941000D02*
X79751000Y-45631000D01*
X79751000Y-43269000D02*
X79751000Y-39959000D01*
X79791000Y-48920000D02*
X79791000Y-45631000D01*
X79791000Y-43269000D02*
X79791000Y-39980000D01*
X79831000Y-48899000D02*
X79831000Y-45631000D01*
X79831000Y-43269000D02*
X79831000Y-40001000D01*
X79871000Y-48878000D02*
X79871000Y-45631000D01*
X79871000Y-43269000D02*
X79871000Y-40022000D01*
X79911000Y-48855000D02*
X79911000Y-45631000D01*
X79911000Y-43269000D02*
X79911000Y-40045000D01*
X79951000Y-48833000D02*
X79951000Y-45631000D01*
X79951000Y-43269000D02*
X79951000Y-40067000D01*
X79991000Y-48810000D02*
X79991000Y-45631000D01*
X79991000Y-43269000D02*
X79991000Y-40090000D01*
X80031000Y-48786000D02*
X80031000Y-45631000D01*
X80031000Y-43269000D02*
X80031000Y-40114000D01*
X80071000Y-48762000D02*
X80071000Y-45631000D01*
X80071000Y-43269000D02*
X80071000Y-40138000D01*
X80111000Y-48738000D02*
X80111000Y-45631000D01*
X80111000Y-43269000D02*
X80111000Y-40162000D01*
X80151000Y-48713000D02*
X80151000Y-45631000D01*
X80151000Y-43269000D02*
X80151000Y-40187000D01*
X80191000Y-48687000D02*
X80191000Y-45631000D01*
X80191000Y-43269000D02*
X80191000Y-40213000D01*
X80231000Y-48661000D02*
X80231000Y-45631000D01*
X80231000Y-43269000D02*
X80231000Y-40239000D01*
X80271000Y-48635000D02*
X80271000Y-45631000D01*
X80271000Y-43269000D02*
X80271000Y-40265000D01*
X80311000Y-48607000D02*
X80311000Y-45631000D01*
X80311000Y-43269000D02*
X80311000Y-40293000D01*
X80351000Y-48580000D02*
X80351000Y-45631000D01*
X80351000Y-43269000D02*
X80351000Y-40320000D01*
X80391000Y-48551000D02*
X80391000Y-45631000D01*
X80391000Y-43269000D02*
X80391000Y-40349000D01*
X80431000Y-48522000D02*
X80431000Y-45631000D01*
X80431000Y-43269000D02*
X80431000Y-40378000D01*
X80471000Y-48493000D02*
X80471000Y-45631000D01*
X80471000Y-43269000D02*
X80471000Y-40407000D01*
X80511000Y-48463000D02*
X80511000Y-45631000D01*
X80511000Y-43269000D02*
X80511000Y-40437000D01*
X80551000Y-48432000D02*
X80551000Y-45631000D01*
X80551000Y-43269000D02*
X80551000Y-40468000D01*
X80591000Y-48401000D02*
X80591000Y-45631000D01*
X80591000Y-43269000D02*
X80591000Y-40499000D01*
X80631000Y-48369000D02*
X80631000Y-45631000D01*
X80631000Y-43269000D02*
X80631000Y-40531000D01*
X80671000Y-48336000D02*
X80671000Y-45631000D01*
X80671000Y-43269000D02*
X80671000Y-40564000D01*
X80711000Y-48303000D02*
X80711000Y-45631000D01*
X80711000Y-43269000D02*
X80711000Y-40597000D01*
X80751000Y-48269000D02*
X80751000Y-45631000D01*
X80751000Y-43269000D02*
X80751000Y-40631000D01*
X80791000Y-48234000D02*
X80791000Y-45631000D01*
X80791000Y-43269000D02*
X80791000Y-40666000D01*
X80831000Y-48198000D02*
X80831000Y-45631000D01*
X80831000Y-43269000D02*
X80831000Y-40702000D01*
X80871000Y-48162000D02*
X80871000Y-45631000D01*
X80871000Y-43269000D02*
X80871000Y-40738000D01*
X80911000Y-48125000D02*
X80911000Y-45631000D01*
X80911000Y-43269000D02*
X80911000Y-40775000D01*
X80951000Y-48087000D02*
X80951000Y-45631000D01*
X80951000Y-43269000D02*
X80951000Y-40813000D01*
X80991000Y-48048000D02*
X80991000Y-45631000D01*
X80991000Y-43269000D02*
X80991000Y-40852000D01*
X81031000Y-48009000D02*
X81031000Y-45631000D01*
X81031000Y-43269000D02*
X81031000Y-40891000D01*
X81071000Y-47968000D02*
X81071000Y-45631000D01*
X81071000Y-43269000D02*
X81071000Y-40932000D01*
X81111000Y-47927000D02*
X81111000Y-40973000D01*
X81151000Y-47885000D02*
X81151000Y-41015000D01*
X81191000Y-47841000D02*
X81191000Y-41059000D01*
X81231000Y-47797000D02*
X81231000Y-41103000D01*
X81271000Y-47752000D02*
X81271000Y-41148000D01*
X81311000Y-47705000D02*
X81311000Y-41195000D01*
X81351000Y-47657000D02*
X81351000Y-41243000D01*
X81391000Y-47608000D02*
X81391000Y-41292000D01*
X81431000Y-47558000D02*
X81431000Y-41342000D01*
X81471000Y-47507000D02*
X81471000Y-41393000D01*
X81511000Y-47454000D02*
X81511000Y-41446000D01*
X81551000Y-47399000D02*
X81551000Y-41501000D01*
X81591000Y-47344000D02*
X81591000Y-41556000D01*
X81631000Y-47286000D02*
X81631000Y-41614000D01*
X81671000Y-47227000D02*
X81671000Y-41673000D01*
X81711000Y-47165000D02*
X81711000Y-41735000D01*
X81751000Y-47102000D02*
X81751000Y-41798000D01*
X81791000Y-47037000D02*
X81791000Y-41863000D01*
X81831000Y-46969000D02*
X81831000Y-41931000D01*
X81871000Y-46899000D02*
X81871000Y-42001000D01*
X81911000Y-46827000D02*
X81911000Y-42073000D01*
X81951000Y-46751000D02*
X81951000Y-42149000D01*
X81991000Y-46672000D02*
X81991000Y-42228000D01*
X82031000Y-46590000D02*
X82031000Y-42310000D01*
X82071000Y-46503000D02*
X82071000Y-42397000D01*
X82111000Y-46412000D02*
X82111000Y-42488000D01*
X82151000Y-46316000D02*
X82151000Y-42584000D01*
X82191000Y-46213000D02*
X82191000Y-42687000D01*
X82231000Y-46104000D02*
X82231000Y-42796000D01*
X82271000Y-45986000D02*
X82271000Y-42914000D01*
X82311000Y-45857000D02*
X82311000Y-43043000D01*
X82351000Y-45715000D02*
X82351000Y-43185000D01*
X82391000Y-45554000D02*
X82391000Y-43346000D01*
X82431000Y-45363000D02*
X82431000Y-43537000D01*
X82471000Y-45122000D02*
X82471000Y-43778000D01*
X82511000Y-44729000D02*
X82511000Y-44171000D01*
X72230000Y-44450000D02*
X73730000Y-44450000D01*
X72980000Y-45200000D02*
X72980000Y-43700000D01*
X82328437Y-45833264D02*
G75*
G02*
X72530643Y-45830000I-4898437J1383264D01*
G01*
X82328437Y-43066736D02*
G75*
G03*
X72530643Y-43070000I-4898437J-1383264D01*
G01*
X82328437Y-43066736D02*
G75*
G02*
X82329357Y-45830000I-4898437J-1383264D01*
G01*
%TO.C,C1*%
X66000000Y-49500000D02*
X66000000Y-39400000D01*
X66040000Y-49500000D02*
X66040000Y-39400000D01*
X66080000Y-49500000D02*
X66080000Y-39400000D01*
X66120000Y-49499000D02*
X66120000Y-39401000D01*
X66160000Y-49498000D02*
X66160000Y-39402000D01*
X66200000Y-49497000D02*
X66200000Y-39403000D01*
X66240000Y-49495000D02*
X66240000Y-39405000D01*
X66280000Y-49493000D02*
X66280000Y-39407000D01*
X66320000Y-49490000D02*
X66320000Y-39410000D01*
X66360000Y-49488000D02*
X66360000Y-39412000D01*
X66400000Y-49485000D02*
X66400000Y-39415000D01*
X66440000Y-49481000D02*
X66440000Y-39419000D01*
X66480000Y-49478000D02*
X66480000Y-39422000D01*
X66520000Y-49474000D02*
X66520000Y-39426000D01*
X66560000Y-49470000D02*
X66560000Y-39430000D01*
X66600000Y-49465000D02*
X66600000Y-39435000D01*
X66640000Y-49460000D02*
X66640000Y-39440000D01*
X66680000Y-49455000D02*
X66680000Y-39445000D01*
X66721000Y-49449000D02*
X66721000Y-39451000D01*
X66761000Y-49443000D02*
X66761000Y-39457000D01*
X66801000Y-49437000D02*
X66801000Y-39463000D01*
X66841000Y-49431000D02*
X66841000Y-39469000D01*
X66881000Y-49424000D02*
X66881000Y-39476000D01*
X66921000Y-49417000D02*
X66921000Y-39483000D01*
X66961000Y-49409000D02*
X66961000Y-39491000D01*
X67001000Y-49401000D02*
X67001000Y-39499000D01*
X67041000Y-49393000D02*
X67041000Y-39507000D01*
X67081000Y-49385000D02*
X67081000Y-39515000D01*
X67121000Y-49376000D02*
X67121000Y-39524000D01*
X67161000Y-49367000D02*
X67161000Y-39533000D01*
X67201000Y-49357000D02*
X67201000Y-39543000D01*
X67241000Y-49347000D02*
X67241000Y-39553000D01*
X67281000Y-49337000D02*
X67281000Y-39563000D01*
X67321000Y-49326000D02*
X67321000Y-45631000D01*
X67321000Y-43269000D02*
X67321000Y-39574000D01*
X67361000Y-49315000D02*
X67361000Y-45631000D01*
X67361000Y-43269000D02*
X67361000Y-39585000D01*
X67401000Y-49304000D02*
X67401000Y-45631000D01*
X67401000Y-43269000D02*
X67401000Y-39596000D01*
X67441000Y-49293000D02*
X67441000Y-45631000D01*
X67441000Y-43269000D02*
X67441000Y-39607000D01*
X67481000Y-49281000D02*
X67481000Y-45631000D01*
X67481000Y-43269000D02*
X67481000Y-39619000D01*
X67521000Y-49268000D02*
X67521000Y-45631000D01*
X67521000Y-43269000D02*
X67521000Y-39632000D01*
X67561000Y-49256000D02*
X67561000Y-45631000D01*
X67561000Y-43269000D02*
X67561000Y-39644000D01*
X67601000Y-49242000D02*
X67601000Y-45631000D01*
X67601000Y-43269000D02*
X67601000Y-39658000D01*
X67641000Y-49229000D02*
X67641000Y-45631000D01*
X67641000Y-43269000D02*
X67641000Y-39671000D01*
X67681000Y-49215000D02*
X67681000Y-45631000D01*
X67681000Y-43269000D02*
X67681000Y-39685000D01*
X67721000Y-49201000D02*
X67721000Y-45631000D01*
X67721000Y-43269000D02*
X67721000Y-39699000D01*
X67761000Y-49187000D02*
X67761000Y-45631000D01*
X67761000Y-43269000D02*
X67761000Y-39713000D01*
X67801000Y-49172000D02*
X67801000Y-45631000D01*
X67801000Y-43269000D02*
X67801000Y-39728000D01*
X67841000Y-49156000D02*
X67841000Y-45631000D01*
X67841000Y-43269000D02*
X67841000Y-39744000D01*
X67881000Y-49141000D02*
X67881000Y-45631000D01*
X67881000Y-43269000D02*
X67881000Y-39759000D01*
X67921000Y-49124000D02*
X67921000Y-45631000D01*
X67921000Y-43269000D02*
X67921000Y-39776000D01*
X67961000Y-49108000D02*
X67961000Y-45631000D01*
X67961000Y-43269000D02*
X67961000Y-39792000D01*
X68001000Y-49091000D02*
X68001000Y-45631000D01*
X68001000Y-43269000D02*
X68001000Y-39809000D01*
X68041000Y-49074000D02*
X68041000Y-45631000D01*
X68041000Y-43269000D02*
X68041000Y-39826000D01*
X68081000Y-49056000D02*
X68081000Y-45631000D01*
X68081000Y-43269000D02*
X68081000Y-39844000D01*
X68121000Y-49038000D02*
X68121000Y-45631000D01*
X68121000Y-43269000D02*
X68121000Y-39862000D01*
X68161000Y-49019000D02*
X68161000Y-45631000D01*
X68161000Y-43269000D02*
X68161000Y-39881000D01*
X68201000Y-49000000D02*
X68201000Y-45631000D01*
X68201000Y-43269000D02*
X68201000Y-39900000D01*
X68241000Y-48981000D02*
X68241000Y-45631000D01*
X68241000Y-43269000D02*
X68241000Y-39919000D01*
X68281000Y-48961000D02*
X68281000Y-45631000D01*
X68281000Y-43269000D02*
X68281000Y-39939000D01*
X68321000Y-48941000D02*
X68321000Y-45631000D01*
X68321000Y-43269000D02*
X68321000Y-39959000D01*
X68361000Y-48920000D02*
X68361000Y-45631000D01*
X68361000Y-43269000D02*
X68361000Y-39980000D01*
X68401000Y-48899000D02*
X68401000Y-45631000D01*
X68401000Y-43269000D02*
X68401000Y-40001000D01*
X68441000Y-48878000D02*
X68441000Y-45631000D01*
X68441000Y-43269000D02*
X68441000Y-40022000D01*
X68481000Y-48855000D02*
X68481000Y-45631000D01*
X68481000Y-43269000D02*
X68481000Y-40045000D01*
X68521000Y-48833000D02*
X68521000Y-45631000D01*
X68521000Y-43269000D02*
X68521000Y-40067000D01*
X68561000Y-48810000D02*
X68561000Y-45631000D01*
X68561000Y-43269000D02*
X68561000Y-40090000D01*
X68601000Y-48786000D02*
X68601000Y-45631000D01*
X68601000Y-43269000D02*
X68601000Y-40114000D01*
X68641000Y-48762000D02*
X68641000Y-45631000D01*
X68641000Y-43269000D02*
X68641000Y-40138000D01*
X68681000Y-48738000D02*
X68681000Y-45631000D01*
X68681000Y-43269000D02*
X68681000Y-40162000D01*
X68721000Y-48713000D02*
X68721000Y-45631000D01*
X68721000Y-43269000D02*
X68721000Y-40187000D01*
X68761000Y-48687000D02*
X68761000Y-45631000D01*
X68761000Y-43269000D02*
X68761000Y-40213000D01*
X68801000Y-48661000D02*
X68801000Y-45631000D01*
X68801000Y-43269000D02*
X68801000Y-40239000D01*
X68841000Y-48635000D02*
X68841000Y-45631000D01*
X68841000Y-43269000D02*
X68841000Y-40265000D01*
X68881000Y-48607000D02*
X68881000Y-45631000D01*
X68881000Y-43269000D02*
X68881000Y-40293000D01*
X68921000Y-48580000D02*
X68921000Y-45631000D01*
X68921000Y-43269000D02*
X68921000Y-40320000D01*
X68961000Y-48551000D02*
X68961000Y-45631000D01*
X68961000Y-43269000D02*
X68961000Y-40349000D01*
X69001000Y-48522000D02*
X69001000Y-45631000D01*
X69001000Y-43269000D02*
X69001000Y-40378000D01*
X69041000Y-48493000D02*
X69041000Y-45631000D01*
X69041000Y-43269000D02*
X69041000Y-40407000D01*
X69081000Y-48463000D02*
X69081000Y-45631000D01*
X69081000Y-43269000D02*
X69081000Y-40437000D01*
X69121000Y-48432000D02*
X69121000Y-45631000D01*
X69121000Y-43269000D02*
X69121000Y-40468000D01*
X69161000Y-48401000D02*
X69161000Y-45631000D01*
X69161000Y-43269000D02*
X69161000Y-40499000D01*
X69201000Y-48369000D02*
X69201000Y-45631000D01*
X69201000Y-43269000D02*
X69201000Y-40531000D01*
X69241000Y-48336000D02*
X69241000Y-45631000D01*
X69241000Y-43269000D02*
X69241000Y-40564000D01*
X69281000Y-48303000D02*
X69281000Y-45631000D01*
X69281000Y-43269000D02*
X69281000Y-40597000D01*
X69321000Y-48269000D02*
X69321000Y-45631000D01*
X69321000Y-43269000D02*
X69321000Y-40631000D01*
X69361000Y-48234000D02*
X69361000Y-45631000D01*
X69361000Y-43269000D02*
X69361000Y-40666000D01*
X69401000Y-48198000D02*
X69401000Y-45631000D01*
X69401000Y-43269000D02*
X69401000Y-40702000D01*
X69441000Y-48162000D02*
X69441000Y-45631000D01*
X69441000Y-43269000D02*
X69441000Y-40738000D01*
X69481000Y-48125000D02*
X69481000Y-45631000D01*
X69481000Y-43269000D02*
X69481000Y-40775000D01*
X69521000Y-48087000D02*
X69521000Y-45631000D01*
X69521000Y-43269000D02*
X69521000Y-40813000D01*
X69561000Y-48048000D02*
X69561000Y-45631000D01*
X69561000Y-43269000D02*
X69561000Y-40852000D01*
X69601000Y-48009000D02*
X69601000Y-45631000D01*
X69601000Y-43269000D02*
X69601000Y-40891000D01*
X69641000Y-47968000D02*
X69641000Y-45631000D01*
X69641000Y-43269000D02*
X69641000Y-40932000D01*
X69681000Y-47927000D02*
X69681000Y-40973000D01*
X69721000Y-47885000D02*
X69721000Y-41015000D01*
X69761000Y-47841000D02*
X69761000Y-41059000D01*
X69801000Y-47797000D02*
X69801000Y-41103000D01*
X69841000Y-47752000D02*
X69841000Y-41148000D01*
X69881000Y-47705000D02*
X69881000Y-41195000D01*
X69921000Y-47657000D02*
X69921000Y-41243000D01*
X69961000Y-47608000D02*
X69961000Y-41292000D01*
X70001000Y-47558000D02*
X70001000Y-41342000D01*
X70041000Y-47507000D02*
X70041000Y-41393000D01*
X70081000Y-47454000D02*
X70081000Y-41446000D01*
X70121000Y-47399000D02*
X70121000Y-41501000D01*
X70161000Y-47344000D02*
X70161000Y-41556000D01*
X70201000Y-47286000D02*
X70201000Y-41614000D01*
X70241000Y-47227000D02*
X70241000Y-41673000D01*
X70281000Y-47165000D02*
X70281000Y-41735000D01*
X70321000Y-47102000D02*
X70321000Y-41798000D01*
X70361000Y-47037000D02*
X70361000Y-41863000D01*
X70401000Y-46969000D02*
X70401000Y-41931000D01*
X70441000Y-46899000D02*
X70441000Y-42001000D01*
X70481000Y-46827000D02*
X70481000Y-42073000D01*
X70521000Y-46751000D02*
X70521000Y-42149000D01*
X70561000Y-46672000D02*
X70561000Y-42228000D01*
X70601000Y-46590000D02*
X70601000Y-42310000D01*
X70641000Y-46503000D02*
X70641000Y-42397000D01*
X70681000Y-46412000D02*
X70681000Y-42488000D01*
X70721000Y-46316000D02*
X70721000Y-42584000D01*
X70761000Y-46213000D02*
X70761000Y-42687000D01*
X70801000Y-46104000D02*
X70801000Y-42796000D01*
X70841000Y-45986000D02*
X70841000Y-42914000D01*
X70881000Y-45857000D02*
X70881000Y-43043000D01*
X70921000Y-45715000D02*
X70921000Y-43185000D01*
X70961000Y-45554000D02*
X70961000Y-43346000D01*
X71001000Y-45363000D02*
X71001000Y-43537000D01*
X71041000Y-45122000D02*
X71041000Y-43778000D01*
X71081000Y-44729000D02*
X71081000Y-44171000D01*
X60800000Y-44450000D02*
X62300000Y-44450000D01*
X61550000Y-45200000D02*
X61550000Y-43700000D01*
X70898437Y-45833264D02*
G75*
G02*
X61100643Y-45830000I-4898437J1383264D01*
G01*
X70898437Y-43066736D02*
G75*
G03*
X61100643Y-43070000I-4898437J-1383264D01*
G01*
X70898437Y-43066736D02*
G75*
G02*
X70899357Y-45830000I-4898437J-1383264D01*
G01*
%TD*%
%TO.C,J11*%
D14*
X68500523Y-102493380D02*
X68500523Y-103207666D01*
X68548142Y-103350523D01*
X68643380Y-103445761D01*
X68786238Y-103493380D01*
X68881476Y-103493380D01*
X67500523Y-103493380D02*
X68071952Y-103493380D01*
X67786238Y-103493380D02*
X67786238Y-102493380D01*
X67881476Y-102636238D01*
X67976714Y-102731476D01*
X68071952Y-102779095D01*
X66548142Y-103493380D02*
X67119571Y-103493380D01*
X66833857Y-103493380D02*
X66833857Y-102493380D01*
X66929095Y-102636238D01*
X67024333Y-102731476D01*
X67119571Y-102779095D01*
X70143380Y-93753380D02*
X70476714Y-93277190D01*
X70714809Y-93753380D02*
X70714809Y-92753380D01*
X70333857Y-92753380D01*
X70238619Y-92801000D01*
X70191000Y-92848619D01*
X70143380Y-92943857D01*
X70143380Y-93086714D01*
X70191000Y-93181952D01*
X70238619Y-93229571D01*
X70333857Y-93277190D01*
X70714809Y-93277190D01*
X69714809Y-93229571D02*
X69381476Y-93229571D01*
X69238619Y-93753380D02*
X69714809Y-93753380D01*
X69714809Y-92753380D01*
X69238619Y-92753380D01*
X68952904Y-92753380D02*
X68619571Y-93753380D01*
X68286238Y-92753380D01*
X67952904Y-93229571D02*
X67619571Y-93229571D01*
X67476714Y-93753380D02*
X67952904Y-93753380D01*
X67952904Y-92753380D01*
X67476714Y-92753380D01*
X66476714Y-93753380D02*
X66810047Y-93277190D01*
X67048142Y-93753380D02*
X67048142Y-92753380D01*
X66667190Y-92753380D01*
X66571952Y-92801000D01*
X66524333Y-92848619D01*
X66476714Y-92943857D01*
X66476714Y-93086714D01*
X66524333Y-93181952D01*
X66571952Y-93229571D01*
X66667190Y-93277190D01*
X67048142Y-93277190D01*
X66095761Y-93705761D02*
X65952904Y-93753380D01*
X65714809Y-93753380D01*
X65619571Y-93705761D01*
X65571952Y-93658142D01*
X65524333Y-93562904D01*
X65524333Y-93467666D01*
X65571952Y-93372428D01*
X65619571Y-93324809D01*
X65714809Y-93277190D01*
X65905285Y-93229571D01*
X66000523Y-93181952D01*
X66048142Y-93134333D01*
X66095761Y-93039095D01*
X66095761Y-92943857D01*
X66048142Y-92848619D01*
X66000523Y-92801000D01*
X65905285Y-92753380D01*
X65667190Y-92753380D01*
X65524333Y-92801000D01*
X65095761Y-93229571D02*
X64762428Y-93229571D01*
X64619571Y-93753380D02*
X65095761Y-93753380D01*
X65095761Y-92753380D01*
X64619571Y-92753380D01*
%TO.C,C9*%
X213018666Y-60047142D02*
X213066285Y-60094761D01*
X213209142Y-60142380D01*
X213304380Y-60142380D01*
X213447238Y-60094761D01*
X213542476Y-59999523D01*
X213590095Y-59904285D01*
X213637714Y-59713809D01*
X213637714Y-59570952D01*
X213590095Y-59380476D01*
X213542476Y-59285238D01*
X213447238Y-59190000D01*
X213304380Y-59142380D01*
X213209142Y-59142380D01*
X213066285Y-59190000D01*
X213018666Y-59237619D01*
X212542476Y-60142380D02*
X212352000Y-60142380D01*
X212256761Y-60094761D01*
X212209142Y-60047142D01*
X212113904Y-59904285D01*
X212066285Y-59713809D01*
X212066285Y-59332857D01*
X212113904Y-59237619D01*
X212161523Y-59190000D01*
X212256761Y-59142380D01*
X212447238Y-59142380D01*
X212542476Y-59190000D01*
X212590095Y-59237619D01*
X212637714Y-59332857D01*
X212637714Y-59570952D01*
X212590095Y-59666190D01*
X212542476Y-59713809D01*
X212447238Y-59761428D01*
X212256761Y-59761428D01*
X212161523Y-59713809D01*
X212113904Y-59666190D01*
X212066285Y-59570952D01*
X215225047Y-64301714D02*
X215225047Y-64968380D01*
X215463142Y-63920761D02*
X215701238Y-64635047D01*
X215082190Y-64635047D01*
X214796476Y-63968380D02*
X214129809Y-63968380D01*
X214558380Y-64968380D01*
X213558380Y-63968380D02*
X213463142Y-63968380D01*
X213367904Y-64016000D01*
X213320285Y-64063619D01*
X213272666Y-64158857D01*
X213225047Y-64349333D01*
X213225047Y-64587428D01*
X213272666Y-64777904D01*
X213320285Y-64873142D01*
X213367904Y-64920761D01*
X213463142Y-64968380D01*
X213558380Y-64968380D01*
X213653619Y-64920761D01*
X213701238Y-64873142D01*
X213748857Y-64777904D01*
X213796476Y-64587428D01*
X213796476Y-64349333D01*
X213748857Y-64158857D01*
X213701238Y-64063619D01*
X213653619Y-64016000D01*
X213558380Y-63968380D01*
X212606000Y-63968380D02*
X212510761Y-63968380D01*
X212415523Y-64016000D01*
X212367904Y-64063619D01*
X212320285Y-64158857D01*
X212272666Y-64349333D01*
X212272666Y-64587428D01*
X212320285Y-64777904D01*
X212367904Y-64873142D01*
X212415523Y-64920761D01*
X212510761Y-64968380D01*
X212606000Y-64968380D01*
X212701238Y-64920761D01*
X212748857Y-64873142D01*
X212796476Y-64777904D01*
X212844095Y-64587428D01*
X212844095Y-64349333D01*
X212796476Y-64158857D01*
X212748857Y-64063619D01*
X212701238Y-64016000D01*
X212606000Y-63968380D01*
X211415523Y-64301714D02*
X211415523Y-64968380D01*
X211844095Y-64301714D02*
X211844095Y-64825523D01*
X211796476Y-64920761D01*
X211701238Y-64968380D01*
X211558380Y-64968380D01*
X211463142Y-64920761D01*
X211415523Y-64873142D01*
X210606000Y-64444571D02*
X210939333Y-64444571D01*
X210939333Y-64968380D02*
X210939333Y-63968380D01*
X210463142Y-63968380D01*
%TO.C,C15*%
X153510857Y-134937142D02*
X153558476Y-134984761D01*
X153701333Y-135032380D01*
X153796571Y-135032380D01*
X153939428Y-134984761D01*
X154034666Y-134889523D01*
X154082285Y-134794285D01*
X154129904Y-134603809D01*
X154129904Y-134460952D01*
X154082285Y-134270476D01*
X154034666Y-134175238D01*
X153939428Y-134080000D01*
X153796571Y-134032380D01*
X153701333Y-134032380D01*
X153558476Y-134080000D01*
X153510857Y-134127619D01*
X152558476Y-135032380D02*
X153129904Y-135032380D01*
X152844190Y-135032380D02*
X152844190Y-134032380D01*
X152939428Y-134175238D01*
X153034666Y-134270476D01*
X153129904Y-134318095D01*
X151653714Y-134032380D02*
X152129904Y-134032380D01*
X152177523Y-134508571D01*
X152129904Y-134460952D01*
X152034666Y-134413333D01*
X151796571Y-134413333D01*
X151701333Y-134460952D01*
X151653714Y-134508571D01*
X151606095Y-134603809D01*
X151606095Y-134841904D01*
X151653714Y-134937142D01*
X151701333Y-134984761D01*
X151796571Y-135032380D01*
X152034666Y-135032380D01*
X152129904Y-134984761D01*
X152177523Y-134937142D01*
X154510857Y-121745714D02*
X154510857Y-122412380D01*
X154748952Y-121364761D02*
X154987047Y-122079047D01*
X154368000Y-122079047D01*
X154082285Y-121412380D02*
X153415619Y-121412380D01*
X153844190Y-122412380D01*
X152844190Y-121412380D02*
X152748952Y-121412380D01*
X152653714Y-121460000D01*
X152606095Y-121507619D01*
X152558476Y-121602857D01*
X152510857Y-121793333D01*
X152510857Y-122031428D01*
X152558476Y-122221904D01*
X152606095Y-122317142D01*
X152653714Y-122364761D01*
X152748952Y-122412380D01*
X152844190Y-122412380D01*
X152939428Y-122364761D01*
X152987047Y-122317142D01*
X153034666Y-122221904D01*
X153082285Y-122031428D01*
X153082285Y-121793333D01*
X153034666Y-121602857D01*
X152987047Y-121507619D01*
X152939428Y-121460000D01*
X152844190Y-121412380D01*
X151653714Y-121745714D02*
X151653714Y-122412380D01*
X152082285Y-121745714D02*
X152082285Y-122269523D01*
X152034666Y-122364761D01*
X151939428Y-122412380D01*
X151796571Y-122412380D01*
X151701333Y-122364761D01*
X151653714Y-122317142D01*
X150844190Y-121888571D02*
X151177523Y-121888571D01*
X151177523Y-122412380D02*
X151177523Y-121412380D01*
X150701333Y-121412380D01*
%TO.C,J3*%
X185880333Y-141946380D02*
X185880333Y-142660666D01*
X185927952Y-142803523D01*
X186023190Y-142898761D01*
X186166047Y-142946380D01*
X186261285Y-142946380D01*
X185499380Y-141946380D02*
X184880333Y-141946380D01*
X185213666Y-142327333D01*
X185070809Y-142327333D01*
X184975571Y-142374952D01*
X184927952Y-142422571D01*
X184880333Y-142517809D01*
X184880333Y-142755904D01*
X184927952Y-142851142D01*
X184975571Y-142898761D01*
X185070809Y-142946380D01*
X185356523Y-142946380D01*
X185451761Y-142898761D01*
X185499380Y-142851142D01*
X174577190Y-142946380D02*
X174577190Y-141946380D01*
X173529571Y-142851142D02*
X173577190Y-142898761D01*
X173720047Y-142946380D01*
X173815285Y-142946380D01*
X173958142Y-142898761D01*
X174053380Y-142803523D01*
X174101000Y-142708285D01*
X174148619Y-142517809D01*
X174148619Y-142374952D01*
X174101000Y-142184476D01*
X174053380Y-142089238D01*
X173958142Y-141994000D01*
X173815285Y-141946380D01*
X173720047Y-141946380D01*
X173577190Y-141994000D01*
X173529571Y-142041619D01*
X173148619Y-142898761D02*
X173005761Y-142946380D01*
X172767666Y-142946380D01*
X172672428Y-142898761D01*
X172624809Y-142851142D01*
X172577190Y-142755904D01*
X172577190Y-142660666D01*
X172624809Y-142565428D01*
X172672428Y-142517809D01*
X172767666Y-142470190D01*
X172958142Y-142422571D01*
X173053380Y-142374952D01*
X173101000Y-142327333D01*
X173148619Y-142232095D01*
X173148619Y-142136857D01*
X173101000Y-142041619D01*
X173053380Y-141994000D01*
X172958142Y-141946380D01*
X172720047Y-141946380D01*
X172577190Y-141994000D01*
X172148619Y-142946380D02*
X172148619Y-141946380D01*
X171767666Y-141946380D01*
X171672428Y-141994000D01*
X171624809Y-142041619D01*
X171577190Y-142136857D01*
X171577190Y-142279714D01*
X171624809Y-142374952D01*
X171672428Y-142422571D01*
X171767666Y-142470190D01*
X172148619Y-142470190D01*
%TO.C,C2*%
X72048666Y-47855142D02*
X72096285Y-47902761D01*
X72239142Y-47950380D01*
X72334380Y-47950380D01*
X72477238Y-47902761D01*
X72572476Y-47807523D01*
X72620095Y-47712285D01*
X72667714Y-47521809D01*
X72667714Y-47378952D01*
X72620095Y-47188476D01*
X72572476Y-47093238D01*
X72477238Y-46998000D01*
X72334380Y-46950380D01*
X72239142Y-46950380D01*
X72096285Y-46998000D01*
X72048666Y-47045619D01*
X71667714Y-47045619D02*
X71620095Y-46998000D01*
X71524857Y-46950380D01*
X71286761Y-46950380D01*
X71191523Y-46998000D01*
X71143904Y-47045619D01*
X71096285Y-47140857D01*
X71096285Y-47236095D01*
X71143904Y-47378952D01*
X71715333Y-47950380D01*
X71096285Y-47950380D01*
X74032857Y-49061714D02*
X74032857Y-49728380D01*
X74270952Y-48680761D02*
X74509047Y-49395047D01*
X73890000Y-49395047D01*
X73604285Y-48728380D02*
X72937619Y-48728380D01*
X73366190Y-49728380D01*
X72366190Y-48728380D02*
X72270952Y-48728380D01*
X72175714Y-48776000D01*
X72128095Y-48823619D01*
X72080476Y-48918857D01*
X72032857Y-49109333D01*
X72032857Y-49347428D01*
X72080476Y-49537904D01*
X72128095Y-49633142D01*
X72175714Y-49680761D01*
X72270952Y-49728380D01*
X72366190Y-49728380D01*
X72461428Y-49680761D01*
X72509047Y-49633142D01*
X72556666Y-49537904D01*
X72604285Y-49347428D01*
X72604285Y-49109333D01*
X72556666Y-48918857D01*
X72509047Y-48823619D01*
X72461428Y-48776000D01*
X72366190Y-48728380D01*
X71175714Y-49061714D02*
X71175714Y-49728380D01*
X71604285Y-49061714D02*
X71604285Y-49585523D01*
X71556666Y-49680761D01*
X71461428Y-49728380D01*
X71318571Y-49728380D01*
X71223333Y-49680761D01*
X71175714Y-49633142D01*
X70366190Y-49204571D02*
X70699523Y-49204571D01*
X70699523Y-49728380D02*
X70699523Y-48728380D01*
X70223333Y-48728380D01*
%TO.C,C1*%
X60364666Y-47347142D02*
X60412285Y-47394761D01*
X60555142Y-47442380D01*
X60650380Y-47442380D01*
X60793238Y-47394761D01*
X60888476Y-47299523D01*
X60936095Y-47204285D01*
X60983714Y-47013809D01*
X60983714Y-46870952D01*
X60936095Y-46680476D01*
X60888476Y-46585238D01*
X60793238Y-46490000D01*
X60650380Y-46442380D01*
X60555142Y-46442380D01*
X60412285Y-46490000D01*
X60364666Y-46537619D01*
X59412285Y-47442380D02*
X59983714Y-47442380D01*
X59698000Y-47442380D02*
X59698000Y-46442380D01*
X59793238Y-46585238D01*
X59888476Y-46680476D01*
X59983714Y-46728095D01*
X62094857Y-48807714D02*
X62094857Y-49474380D01*
X62332952Y-48426761D02*
X62571047Y-49141047D01*
X61952000Y-49141047D01*
X61666285Y-48474380D02*
X60999619Y-48474380D01*
X61428190Y-49474380D01*
X60428190Y-48474380D02*
X60332952Y-48474380D01*
X60237714Y-48522000D01*
X60190095Y-48569619D01*
X60142476Y-48664857D01*
X60094857Y-48855333D01*
X60094857Y-49093428D01*
X60142476Y-49283904D01*
X60190095Y-49379142D01*
X60237714Y-49426761D01*
X60332952Y-49474380D01*
X60428190Y-49474380D01*
X60523428Y-49426761D01*
X60571047Y-49379142D01*
X60618666Y-49283904D01*
X60666285Y-49093428D01*
X60666285Y-48855333D01*
X60618666Y-48664857D01*
X60571047Y-48569619D01*
X60523428Y-48522000D01*
X60428190Y-48474380D01*
X59237714Y-48807714D02*
X59237714Y-49474380D01*
X59666285Y-48807714D02*
X59666285Y-49331523D01*
X59618666Y-49426761D01*
X59523428Y-49474380D01*
X59380571Y-49474380D01*
X59285333Y-49426761D01*
X59237714Y-49379142D01*
X58428190Y-48950571D02*
X58761523Y-48950571D01*
X58761523Y-49474380D02*
X58761523Y-48474380D01*
X58285333Y-48474380D01*
%TD*%
M02*
