%TF.GenerationSoftware,KiCad,Pcbnew,(5.1.6)-1*%
%TF.CreationDate,2020-08-11T14:57:58+01:00*%
%TF.ProjectId,panel-main,70616e65-6c2d-46d6-9169-6e2e6b696361,rev?*%
%TF.SameCoordinates,Original*%
%TF.FileFunction,Copper,L1,Top*%
%TF.FilePolarity,Positive*%
%FSLAX46Y46*%
G04 Gerber Fmt 4.6, Leading zero omitted, Abs format (unit mm)*
G04 Created by KiCad (PCBNEW (5.1.6)-1) date 2020-08-11 14:57:58*
%MOMM*%
%LPD*%
G01*
G04 APERTURE LIST*
%TA.AperFunction,Profile*%
%ADD10C,0.200000*%
%TD*%
%TA.AperFunction,SMDPad,CuDef*%
%ADD11R,3.000000X6.000000*%
%TD*%
%TA.AperFunction,SMDPad,CuDef*%
%ADD12R,5.500000X2.800000*%
%TD*%
%TA.AperFunction,ComponentPad*%
%ADD13C,1.600000*%
%TD*%
%TA.AperFunction,ComponentPad*%
%ADD14O,1.600000X1.600000*%
%TD*%
%TA.AperFunction,ComponentPad*%
%ADD15R,1.700000X1.700000*%
%TD*%
%TA.AperFunction,ComponentPad*%
%ADD16O,1.700000X1.700000*%
%TD*%
%TA.AperFunction,ComponentPad*%
%ADD17R,2.400000X2.400000*%
%TD*%
%TA.AperFunction,ComponentPad*%
%ADD18O,2.400000X2.400000*%
%TD*%
%TA.AperFunction,ComponentPad*%
%ADD19C,2.400000*%
%TD*%
%TA.AperFunction,ComponentPad*%
%ADD20R,1.600000X1.600000*%
%TD*%
%TA.AperFunction,ComponentPad*%
%ADD21R,1.800000X1.800000*%
%TD*%
%TA.AperFunction,ComponentPad*%
%ADD22O,1.800000X1.800000*%
%TD*%
%TA.AperFunction,ComponentPad*%
%ADD23C,1.520000*%
%TD*%
%TA.AperFunction,ComponentPad*%
%ADD24R,1.520000X1.520000*%
%TD*%
%TA.AperFunction,ComponentPad*%
%ADD25C,1.800000*%
%TD*%
%TA.AperFunction,ComponentPad*%
%ADD26R,2.000000X2.000000*%
%TD*%
%TA.AperFunction,ComponentPad*%
%ADD27C,2.000000*%
%TD*%
%TA.AperFunction,ComponentPad*%
%ADD28C,1.500000*%
%TD*%
%TA.AperFunction,ComponentPad*%
%ADD29R,1.600000X2.400000*%
%TD*%
%TA.AperFunction,ComponentPad*%
%ADD30O,1.600000X2.400000*%
%TD*%
%TA.AperFunction,ComponentPad*%
%ADD31R,2.400000X1.600000*%
%TD*%
%TA.AperFunction,ComponentPad*%
%ADD32O,2.400000X1.600000*%
%TD*%
%TA.AperFunction,ViaPad*%
%ADD33C,0.800000*%
%TD*%
%TA.AperFunction,ViaPad*%
%ADD34C,1.200000*%
%TD*%
%TA.AperFunction,Conductor*%
%ADD35C,0.800000*%
%TD*%
%TA.AperFunction,Conductor*%
%ADD36C,0.250000*%
%TD*%
%TA.AperFunction,Conductor*%
%ADD37C,0.600000*%
%TD*%
%TA.AperFunction,Conductor*%
%ADD38C,0.700000*%
%TD*%
G04 APERTURE END LIST*
D10*
X50972508Y-38971591D02*
X50972508Y-92309883D01*
X242687490Y-38971591D02*
X50972508Y-38971591D01*
X61372508Y-94309883D02*
G75*
G02*
X63372508Y-96309883I0J-2000000D01*
G01*
X52972508Y-94309883D02*
X61372508Y-94309883D01*
X52972508Y-94309883D02*
G75*
G02*
X50972508Y-92309883I0J2000000D01*
G01*
X55472508Y-143909883D02*
X238187490Y-143909883D01*
X241769770Y-142096719D02*
X241928449Y-141869262D01*
X241928449Y-141869262D02*
X242073087Y-141632115D01*
X242073087Y-141632115D02*
X242203341Y-141386260D01*
X242203341Y-141386260D02*
X242318870Y-141132680D01*
X242318870Y-141132680D02*
X242419332Y-140872359D01*
X242419332Y-140872359D02*
X242504383Y-140606279D01*
X242504383Y-140606279D02*
X242573683Y-140335424D01*
X242573683Y-140335424D02*
X242626889Y-140060777D01*
X242626889Y-140060777D02*
X242663659Y-139783322D01*
X242663659Y-139783322D02*
X242683651Y-139504040D01*
X242683651Y-139504040D02*
X242687490Y-139317324D01*
X242687490Y-139317324D02*
X242687490Y-38971591D01*
X238187490Y-143909883D02*
X238445533Y-143901898D01*
X238445533Y-143901898D02*
X238702533Y-143878184D01*
X238702533Y-143878184D02*
X238957740Y-143839103D01*
X238957740Y-143839103D02*
X239210399Y-143785014D01*
X239210399Y-143785014D02*
X239459759Y-143716279D01*
X239459759Y-143716279D02*
X239705067Y-143633259D01*
X239705067Y-143633259D02*
X239945571Y-143536313D01*
X239945571Y-143536313D02*
X240180518Y-143425804D01*
X240180518Y-143425804D02*
X240409157Y-143302091D01*
X240409157Y-143302091D02*
X240630733Y-143165536D01*
X240630733Y-143165536D02*
X240844496Y-143016499D01*
X240844496Y-143016499D02*
X241049693Y-142855342D01*
X241049693Y-142855342D02*
X241245571Y-142682424D01*
X241245571Y-142682424D02*
X241431378Y-142498107D01*
X241431378Y-142498107D02*
X241606362Y-142302752D01*
X241606362Y-142302752D02*
X241769770Y-142096719D01*
X63372508Y-121509883D02*
G75*
G02*
X61372508Y-123509883I-2000000J0D01*
G01*
X61372508Y-123509883D02*
X52972508Y-123509883D01*
X63372508Y-96309883D02*
X63372508Y-121509883D01*
X52766574Y-142986753D02*
X52989415Y-143147096D01*
X52989415Y-143147096D02*
X53221312Y-143293029D01*
X53221312Y-143293029D02*
X53461337Y-143424254D01*
X53461337Y-143424254D02*
X53708567Y-143540476D01*
X53708567Y-143540476D02*
X53962074Y-143641395D01*
X53962074Y-143641395D02*
X54220933Y-143726715D01*
X54220933Y-143726715D02*
X54484219Y-143796138D01*
X54484219Y-143796138D02*
X54751005Y-143849368D01*
X54751005Y-143849368D02*
X55020366Y-143886106D01*
X55020366Y-143886106D02*
X55291375Y-143906056D01*
X55291375Y-143906056D02*
X55472508Y-143909883D01*
X50972508Y-139317324D02*
X50980516Y-139583265D01*
X50980516Y-139583265D02*
X51004274Y-139847961D01*
X51004274Y-139847961D02*
X51043382Y-140110633D01*
X51043382Y-140110633D02*
X51097440Y-140370501D01*
X51097440Y-140370501D02*
X51166048Y-140626788D01*
X51166048Y-140626788D02*
X51248805Y-140878714D01*
X51248805Y-140878714D02*
X51345312Y-141125500D01*
X51345312Y-141125500D02*
X51455167Y-141366368D01*
X51455167Y-141366368D02*
X51577972Y-141600537D01*
X51577972Y-141600537D02*
X51713326Y-141827230D01*
X51713326Y-141827230D02*
X51860829Y-142045667D01*
X51860829Y-142045667D02*
X52020081Y-142255069D01*
X52020081Y-142255069D02*
X52190681Y-142454658D01*
X52190681Y-142454658D02*
X52372230Y-142643654D01*
X52372230Y-142643654D02*
X52564328Y-142821278D01*
X52564328Y-142821278D02*
X52766574Y-142986753D01*
X50972508Y-125509883D02*
X50972508Y-139317324D01*
X50972508Y-125509883D02*
G75*
G02*
X52972508Y-123509883I2000000J0D01*
G01*
D11*
%TO.P,J1,2*%
%TO.N,+12V*%
X205740000Y-43688000D03*
%TO.P,J1,1*%
%TO.N,GND*%
X201676000Y-43688000D03*
%TD*%
%TO.P,J9,3*%
%TO.N,Net-(J9-Pad3)*%
X196088000Y-43688000D03*
%TO.P,J9,2*%
%TO.N,/Feed Relays/AUX[2]*%
X192024000Y-43688000D03*
%TO.P,J9,1*%
%TO.N,/Feed Relays/AUX[1]*%
X187960000Y-43688000D03*
%TD*%
%TO.P,J6,8*%
%TO.N,GND*%
X114300000Y-43688000D03*
%TO.P,J6,7*%
X110236000Y-43688000D03*
%TO.P,J6,6*%
%TO.N,/Feed Relays/FEED[D-]*%
X106172000Y-43688000D03*
%TO.P,J6,5*%
%TO.N,/Feed Relays/FEED[D+]*%
X102108000Y-43688000D03*
%TO.P,J6,4*%
%TO.N,/Feed Relays/FEED[C-]*%
X98044000Y-43688000D03*
%TO.P,J6,3*%
%TO.N,/Feed Relays/FEED[C+]*%
X93980000Y-43688000D03*
%TO.P,J6,2*%
%TO.N,/Feed Relays/FEED[A-]*%
X89916000Y-43688000D03*
%TO.P,J6,1*%
%TO.N,/Feed Relays/FEED[A+]*%
X85852000Y-43688000D03*
%TD*%
%TO.P,J7,8*%
%TO.N,GND*%
X148336000Y-43688000D03*
%TO.P,J7,7*%
X144272000Y-43688000D03*
%TO.P,J7,6*%
%TO.N,/Feed Relays/AUX[2]*%
X140208000Y-43688000D03*
%TO.P,J7,5*%
%TO.N,/Feed Relays/AUX[1]*%
X136144000Y-43688000D03*
%TO.P,J7,4*%
%TO.N,/Feed Relays/FEED[H+]*%
X132080000Y-43688000D03*
%TO.P,J7,3*%
%TO.N,/Feed Relays/FEED[G+]*%
X128016000Y-43688000D03*
%TO.P,J7,2*%
%TO.N,/Feed Relays/FEED[F+]*%
X123952000Y-43688000D03*
%TO.P,J7,1*%
%TO.N,/Feed Relays/FEED[E+]*%
X119888000Y-43688000D03*
%TD*%
%TO.P,J8,8*%
%TO.N,/Points Control/POINTS[COM]*%
X182372000Y-43688000D03*
%TO.P,J8,7*%
%TO.N,/Feed Relays/FEED[I-]*%
X178308000Y-43688000D03*
%TO.P,J8,6*%
%TO.N,/Feed Relays/FEED[D-]*%
X174244000Y-43688000D03*
%TO.P,J8,5*%
%TO.N,/Feed Relays/FEED[C-]*%
X170180000Y-43688000D03*
%TO.P,J8,4*%
%TO.N,/Feed Relays/FEED[C+]*%
X166116000Y-43688000D03*
%TO.P,J8,3*%
%TO.N,/Feed Relays/FEED[B-]*%
X162052000Y-43688000D03*
%TO.P,J8,2*%
%TO.N,/Feed Relays/FEED[B+]*%
X157988000Y-43688000D03*
%TO.P,J8,1*%
%TO.N,/Feed Relays/FEED[A+]*%
X153924000Y-43688000D03*
%TD*%
D12*
%TO.P,J2,3*%
%TO.N,/TFEED[+]*%
X66707200Y-111167200D03*
%TO.P,J2,2*%
%TO.N,/TFEED[-]*%
X66707200Y-106667200D03*
%TD*%
D13*
%TO.P,R41,1*%
%TO.N,Net-(Q9-Pad1)*%
X232283000Y-97536000D03*
D14*
%TO.P,R41,2*%
%TO.N,/Points Control/CHARGE-PUMP*%
X232283000Y-107696000D03*
%TD*%
D15*
%TO.P,J11,1*%
%TO.N,/TFEED[+]*%
X66421000Y-100711000D03*
D16*
%TO.P,J11,2*%
%TO.N,/TFEED[-]*%
X68961000Y-100711000D03*
%TO.P,J11,3*%
%TO.N,TRACK-*%
X66421000Y-98171000D03*
%TO.P,J11,4*%
%TO.N,TRACK+*%
X68961000Y-98171000D03*
%TO.P,J11,5*%
%TO.N,/TFEED[-]*%
X66421000Y-95631000D03*
%TO.P,J11,6*%
%TO.N,/TFEED[+]*%
X68961000Y-95631000D03*
%TD*%
D13*
%TO.P,R7,1*%
%TO.N,Net-(Q8-Pad1)*%
X186182000Y-73152000D03*
D14*
%TO.P,R7,2*%
%TO.N,GND*%
X186182000Y-83312000D03*
%TD*%
D17*
%TO.P,D4,1*%
%TO.N,/Points Control/POINTS[COM]*%
X212471000Y-80645000D03*
D18*
%TO.P,D4,2*%
%TO.N,Net-(C8-Pad1)*%
X212471000Y-93345000D03*
%TD*%
D17*
%TO.P,D3,1*%
%TO.N,Net-(C8-Pad1)*%
X208153000Y-80645000D03*
D18*
%TO.P,D3,2*%
%TO.N,Net-(C7-Pad1)*%
X208153000Y-93345000D03*
%TD*%
D17*
%TO.P,D2,1*%
%TO.N,Net-(C7-Pad1)*%
X203835000Y-80645000D03*
D18*
%TO.P,D2,2*%
%TO.N,Net-(C6-Pad1)*%
X203835000Y-93345000D03*
%TD*%
D17*
%TO.P,D1,1*%
%TO.N,Net-(C6-Pad1)*%
X199517000Y-80645000D03*
D18*
%TO.P,D1,2*%
%TO.N,+12V*%
X199517000Y-93345000D03*
%TD*%
D17*
%TO.P,C9,1*%
%TO.N,/Points Control/POINTS[COM]*%
X201930000Y-62992000D03*
D19*
%TO.P,C9,2*%
%TO.N,GND*%
X201930000Y-55492000D03*
%TD*%
D20*
%TO.P,C8,1*%
%TO.N,Net-(C8-Pad1)*%
X208407000Y-75438000D03*
D13*
%TO.P,C8,2*%
%TO.N,Net-(C6-Pad2)*%
X208407000Y-72938000D03*
%TD*%
D20*
%TO.P,C7,1*%
%TO.N,Net-(C7-Pad1)*%
X217170000Y-75565000D03*
D13*
%TO.P,C7,2*%
%TO.N,GND*%
X217170000Y-73065000D03*
%TD*%
D20*
%TO.P,C6,1*%
%TO.N,Net-(C6-Pad1)*%
X199517000Y-75438000D03*
D13*
%TO.P,C6,2*%
%TO.N,Net-(C6-Pad2)*%
X199517000Y-72938000D03*
%TD*%
%TO.P,C3,1*%
%TO.N,+5V*%
X209550000Y-110236000D03*
%TO.P,C3,2*%
%TO.N,GND*%
X214550000Y-110236000D03*
%TD*%
%TO.P,R40,1*%
%TO.N,GND*%
X211836000Y-107696000D03*
D14*
%TO.P,R40,2*%
%TO.N,Net-(D7-Pad1)*%
X211836000Y-97536000D03*
%TD*%
D13*
%TO.P,R39,1*%
%TO.N,GND*%
X214757000Y-107696000D03*
D14*
%TO.P,R39,2*%
%TO.N,Net-(D6-Pad1)*%
X214757000Y-97536000D03*
%TD*%
D13*
%TO.P,R38,1*%
%TO.N,GND*%
X217678000Y-107696000D03*
D14*
%TO.P,R38,2*%
%TO.N,Net-(D5-Pad1)*%
X217678000Y-97536000D03*
%TD*%
D13*
%TO.P,R37,1*%
%TO.N,/Points Control/PF8*%
X98298000Y-129286000D03*
D14*
%TO.P,R37,2*%
%TO.N,Net-(Q19-Pad1)*%
X98298000Y-119126000D03*
%TD*%
D13*
%TO.P,R36,1*%
%TO.N,/Points Control/PB8*%
X62992000Y-133096000D03*
D14*
%TO.P,R36,2*%
%TO.N,Net-(Q18-Pad1)*%
X52832000Y-133096000D03*
%TD*%
D13*
%TO.P,R35,1*%
%TO.N,/Points Control/PF7*%
X53340000Y-65532000D03*
D14*
%TO.P,R35,2*%
%TO.N,Net-(Q17-Pad1)*%
X53340000Y-75692000D03*
%TD*%
D13*
%TO.P,R34,1*%
%TO.N,/Points Control/PB7*%
X78486000Y-117602000D03*
D14*
%TO.P,R34,2*%
%TO.N,Net-(Q16-Pad1)*%
X88646000Y-117602000D03*
%TD*%
D13*
%TO.P,R33,1*%
%TO.N,/Points Control/PF6*%
X97790000Y-141732000D03*
D14*
%TO.P,R33,2*%
%TO.N,Net-(Q15-Pad1)*%
X97790000Y-131572000D03*
%TD*%
D13*
%TO.P,R32,1*%
%TO.N,/Points Control/PB6*%
X75692000Y-116840000D03*
D14*
%TO.P,R32,2*%
%TO.N,Net-(Q14-Pad1)*%
X65532000Y-116840000D03*
%TD*%
D13*
%TO.P,R31,1*%
%TO.N,/Points Control/PF5*%
X106172000Y-119126000D03*
D14*
%TO.P,R31,2*%
%TO.N,Net-(Q13-Pad1)*%
X106172000Y-129286000D03*
%TD*%
D13*
%TO.P,R30,1*%
%TO.N,/Points Control/PB5*%
X53340000Y-62484000D03*
D14*
%TO.P,R30,2*%
%TO.N,Net-(Q12-Pad1)*%
X53340000Y-52324000D03*
%TD*%
D13*
%TO.P,R29,1*%
%TO.N,/Points Control/PF4*%
X192786000Y-80264000D03*
D14*
%TO.P,R29,2*%
%TO.N,Net-(Q11-Pad1)*%
X192786000Y-90424000D03*
%TD*%
D13*
%TO.P,R28,1*%
%TO.N,/Points Control/PB4*%
X195580000Y-80264000D03*
D14*
%TO.P,R28,2*%
%TO.N,Net-(Q10-Pad1)*%
X195580000Y-90424000D03*
%TD*%
D13*
%TO.P,R27,1*%
%TO.N,/Points Control/PF3*%
X188976000Y-83312000D03*
D14*
%TO.P,R27,2*%
%TO.N,Net-(Q8-Pad1)*%
X188976000Y-73152000D03*
%TD*%
D13*
%TO.P,R26,1*%
%TO.N,/Points Control/PB3*%
X195580000Y-102870000D03*
D14*
%TO.P,R26,2*%
%TO.N,Net-(Q7-Pad1)*%
X195580000Y-92710000D03*
%TD*%
D13*
%TO.P,R25,1*%
%TO.N,/Points Control/PF2*%
X192786000Y-102870000D03*
D14*
%TO.P,R25,2*%
%TO.N,Net-(Q5-Pad1)*%
X192786000Y-92710000D03*
%TD*%
D13*
%TO.P,R24,1*%
%TO.N,/Points Control/PB2*%
X157988000Y-106934000D03*
D14*
%TO.P,R24,2*%
%TO.N,Net-(Q4-Pad1)*%
X157988000Y-96774000D03*
%TD*%
D13*
%TO.P,R23,1*%
%TO.N,+12V*%
X226441000Y-97536000D03*
D14*
%TO.P,R23,2*%
%TO.N,Net-(Q3-Pad3)*%
X226441000Y-107696000D03*
%TD*%
D13*
%TO.P,R22,1*%
%TO.N,/Points Control/PF1*%
X110998000Y-131572000D03*
D14*
%TO.P,R22,2*%
%TO.N,Net-(Q2-Pad1)*%
X110998000Y-141732000D03*
%TD*%
D13*
%TO.P,R21,1*%
%TO.N,/Points Control/PB1*%
X110236000Y-94996000D03*
D14*
%TO.P,R21,2*%
%TO.N,Net-(Q1-Pad1)*%
X120396000Y-94996000D03*
%TD*%
D13*
%TO.P,R20,1*%
%TO.N,Net-(Q3-Pad2)*%
X229362000Y-97536000D03*
D14*
%TO.P,R20,2*%
%TO.N,/Points Control/CHARGE-PUMP*%
X229362000Y-107696000D03*
%TD*%
D13*
%TO.P,R19,1*%
%TO.N,GND*%
X220599000Y-107696000D03*
D14*
%TO.P,R19,2*%
%TO.N,/CHG-LVL*%
X220599000Y-97536000D03*
%TD*%
D13*
%TO.P,R18,1*%
%TO.N,/CHG-LVL*%
X223520000Y-97536000D03*
D14*
%TO.P,R18,2*%
%TO.N,/Points Control/POINTS[COM]*%
X223520000Y-107696000D03*
%TD*%
D21*
%TO.P,Q9,1*%
%TO.N,Net-(Q9-Pad1)*%
X233680000Y-68580000D03*
D22*
%TO.P,Q9,2*%
%TO.N,Net-(C6-Pad2)*%
X236220000Y-68580000D03*
%TO.P,Q9,3*%
%TO.N,GND*%
X238760000Y-68580000D03*
%TD*%
D21*
%TO.P,Q6,1*%
%TO.N,Net-(Q3-Pad3)*%
X238760000Y-72390000D03*
D22*
%TO.P,Q6,2*%
%TO.N,+12V*%
X236220000Y-72390000D03*
%TO.P,Q6,3*%
%TO.N,Net-(C6-Pad2)*%
X233680000Y-72390000D03*
%TD*%
D23*
%TO.P,Q3,2*%
%TO.N,Net-(Q3-Pad2)*%
X228219000Y-70739000D03*
%TO.P,Q3,3*%
%TO.N,Net-(Q3-Pad3)*%
X228219000Y-73279000D03*
D24*
%TO.P,Q3,1*%
%TO.N,GND*%
X228219000Y-68199000D03*
%TD*%
D21*
%TO.P,D7,1*%
%TO.N,Net-(D7-Pad1)*%
X194056000Y-106172000D03*
D25*
%TO.P,D7,2*%
%TO.N,Net-(D7-Pad2)*%
X194056000Y-108712000D03*
%TD*%
D21*
%TO.P,D6,1*%
%TO.N,Net-(D6-Pad1)*%
X200152000Y-106172000D03*
D25*
%TO.P,D6,2*%
%TO.N,Net-(D6-Pad2)*%
X200152000Y-108712000D03*
%TD*%
D21*
%TO.P,D5,1*%
%TO.N,Net-(D5-Pad1)*%
X206248000Y-106172000D03*
D25*
%TO.P,D5,2*%
%TO.N,Net-(D5-Pad2)*%
X206248000Y-108712000D03*
%TD*%
D26*
%TO.P,C15,1*%
%TO.N,+5V*%
X150368000Y-128270000D03*
D27*
%TO.P,C15,2*%
%TO.N,GND*%
X155368000Y-128270000D03*
%TD*%
D13*
%TO.P,C14,1*%
%TO.N,+5V*%
X156718000Y-114300000D03*
%TO.P,C14,2*%
%TO.N,GND*%
X156718000Y-119300000D03*
%TD*%
%TO.P,C13,1*%
%TO.N,+5V*%
X66294000Y-141732000D03*
%TO.P,C13,2*%
%TO.N,GND*%
X71294000Y-141732000D03*
%TD*%
%TO.P,C12,1*%
%TO.N,+5V*%
X105918000Y-113030000D03*
%TO.P,C12,2*%
%TO.N,GND*%
X105918000Y-108030000D03*
%TD*%
D21*
%TO.P,U1,1*%
%TO.N,+12V*%
X228600000Y-46990000D03*
D22*
%TO.P,U1,2*%
%TO.N,GND*%
X228600000Y-44450000D03*
%TO.P,U1,3*%
%TO.N,+5V*%
X228600000Y-41910000D03*
%TD*%
D21*
%TO.P,Q19,1*%
%TO.N,Net-(Q19-Pad1)*%
X107950000Y-91440000D03*
D22*
%TO.P,Q19,2*%
%TO.N,/Points Control/POINTS[F8]-COIL*%
X110490000Y-91440000D03*
%TO.P,Q19,3*%
%TO.N,GND*%
X113030000Y-91440000D03*
%TD*%
D21*
%TO.P,Q18,1*%
%TO.N,Net-(Q18-Pad1)*%
X101600000Y-95250000D03*
D22*
%TO.P,Q18,2*%
%TO.N,/Points Control/POINTS[B8]-COIL*%
X99060000Y-95250000D03*
%TO.P,Q18,3*%
%TO.N,GND*%
X96520000Y-95250000D03*
%TD*%
D21*
%TO.P,Q17,1*%
%TO.N,Net-(Q17-Pad1)*%
X96520000Y-91440000D03*
D22*
%TO.P,Q17,2*%
%TO.N,/Points Control/POINTS[F7]-COIL*%
X99060000Y-91440000D03*
%TO.P,Q17,3*%
%TO.N,GND*%
X101600000Y-91440000D03*
%TD*%
D21*
%TO.P,Q16,1*%
%TO.N,Net-(Q16-Pad1)*%
X90170000Y-95250000D03*
D22*
%TO.P,Q16,2*%
%TO.N,/Points Control/POINTS[B7]-COIL*%
X87630000Y-95250000D03*
%TO.P,Q16,3*%
%TO.N,GND*%
X85090000Y-95250000D03*
%TD*%
D21*
%TO.P,Q15,1*%
%TO.N,Net-(Q15-Pad1)*%
X85090000Y-91440000D03*
D22*
%TO.P,Q15,2*%
%TO.N,/Points Control/POINTS[F6]-COIL*%
X87630000Y-91440000D03*
%TO.P,Q15,3*%
%TO.N,GND*%
X90170000Y-91440000D03*
%TD*%
D21*
%TO.P,Q14,1*%
%TO.N,Net-(Q14-Pad1)*%
X78740000Y-95250000D03*
D22*
%TO.P,Q14,2*%
%TO.N,/Points Control/POINTS[B6]-COIL*%
X76200000Y-95250000D03*
%TO.P,Q14,3*%
%TO.N,GND*%
X73660000Y-95250000D03*
%TD*%
D21*
%TO.P,Q13,1*%
%TO.N,Net-(Q13-Pad1)*%
X73660000Y-91440000D03*
D22*
%TO.P,Q13,2*%
%TO.N,/Points Control/POINTS[F5]-COIL*%
X76200000Y-91440000D03*
%TO.P,Q13,3*%
%TO.N,GND*%
X78740000Y-91440000D03*
%TD*%
D21*
%TO.P,Q12,1*%
%TO.N,Net-(Q12-Pad1)*%
X62230000Y-91440000D03*
D22*
%TO.P,Q12,2*%
%TO.N,/Points Control/POINTS[B5]-COIL*%
X64770000Y-91440000D03*
%TO.P,Q12,3*%
%TO.N,GND*%
X67310000Y-91440000D03*
%TD*%
D21*
%TO.P,Q11,1*%
%TO.N,Net-(Q11-Pad1)*%
X176530000Y-91440000D03*
D22*
%TO.P,Q11,2*%
%TO.N,/Points Control/POINTS[F4]-COIL*%
X179070000Y-91440000D03*
%TO.P,Q11,3*%
%TO.N,GND*%
X181610000Y-91440000D03*
%TD*%
D21*
%TO.P,Q10,1*%
%TO.N,Net-(Q10-Pad1)*%
X181610000Y-95250000D03*
D22*
%TO.P,Q10,2*%
%TO.N,/Points Control/POINTS[B4]-COIL*%
X179070000Y-95250000D03*
%TO.P,Q10,3*%
%TO.N,GND*%
X176530000Y-95250000D03*
%TD*%
D21*
%TO.P,Q8,1*%
%TO.N,Net-(Q8-Pad1)*%
X165100000Y-91440000D03*
D22*
%TO.P,Q8,2*%
%TO.N,/Points Control/POINTS[F3]-COIL*%
X167640000Y-91440000D03*
%TO.P,Q8,3*%
%TO.N,GND*%
X170180000Y-91440000D03*
%TD*%
D21*
%TO.P,Q7,1*%
%TO.N,Net-(Q7-Pad1)*%
X170180000Y-95250000D03*
D22*
%TO.P,Q7,2*%
%TO.N,/Points Control/POINTS[B3]-COIL*%
X167640000Y-95250000D03*
%TO.P,Q7,3*%
%TO.N,GND*%
X165100000Y-95250000D03*
%TD*%
D21*
%TO.P,Q5,1*%
%TO.N,Net-(Q5-Pad1)*%
X153670000Y-91440000D03*
D22*
%TO.P,Q5,2*%
%TO.N,/Points Control/POINTS[F2]-COIL*%
X156210000Y-91440000D03*
%TO.P,Q5,3*%
%TO.N,GND*%
X158750000Y-91440000D03*
%TD*%
D21*
%TO.P,Q4,1*%
%TO.N,Net-(Q4-Pad1)*%
X142240000Y-91440000D03*
D22*
%TO.P,Q4,2*%
%TO.N,/Points Control/POINTS[B2]-COIL*%
X144780000Y-91440000D03*
%TO.P,Q4,3*%
%TO.N,GND*%
X147320000Y-91440000D03*
%TD*%
D21*
%TO.P,Q2,1*%
%TO.N,Net-(Q2-Pad1)*%
X130810000Y-91440000D03*
D22*
%TO.P,Q2,2*%
%TO.N,/Points Control/POINTS[F1]-COIL*%
X133350000Y-91440000D03*
%TO.P,Q2,3*%
%TO.N,GND*%
X135890000Y-91440000D03*
%TD*%
D21*
%TO.P,Q1,1*%
%TO.N,Net-(Q1-Pad1)*%
X119380000Y-91440000D03*
D22*
%TO.P,Q1,2*%
%TO.N,/Points Control/POINTS[B1]-COIL*%
X121920000Y-91440000D03*
%TO.P,Q1,3*%
%TO.N,GND*%
X124460000Y-91440000D03*
%TD*%
D28*
%TO.P,Y1,1*%
%TO.N,Net-(C4-Pad1)*%
X217424000Y-134112000D03*
%TO.P,Y1,2*%
%TO.N,Net-(C5-Pad1)*%
X222304000Y-134112000D03*
%TD*%
D29*
%TO.P,U8,1*%
%TO.N,MCLR*%
X189230000Y-128270000D03*
D30*
%TO.P,U8,21*%
%TO.N,/PB6*%
X237490000Y-113030000D03*
%TO.P,U8,2*%
%TO.N,/HALL[G]*%
X191770000Y-128270000D03*
%TO.P,U8,22*%
%TO.N,/PB5*%
X234950000Y-113030000D03*
%TO.P,U8,3*%
%TO.N,/HALL[F]*%
X194310000Y-128270000D03*
%TO.P,U8,23*%
%TO.N,/PB9*%
X232410000Y-113030000D03*
%TO.P,U8,4*%
%TO.N,/HALL[E]*%
X196850000Y-128270000D03*
%TO.P,U8,24*%
%TO.N,/PB10*%
X229870000Y-113030000D03*
%TO.P,U8,5*%
%TO.N,/CHG-LVL*%
X199390000Y-128270000D03*
%TO.P,U8,25*%
%TO.N,/AUX1-LED*%
X227330000Y-113030000D03*
%TO.P,U8,6*%
%TO.N,Net-(U8-Pad6)*%
X201930000Y-128270000D03*
%TO.P,U8,26*%
%TO.N,/AUX2-LED*%
X224790000Y-113030000D03*
%TO.P,U8,7*%
%TO.N,Net-(U8-Pad7)*%
X204470000Y-128270000D03*
%TO.P,U8,27*%
%TO.N,/PB4*%
X222250000Y-113030000D03*
%TO.P,U8,8*%
%TO.N,Net-(U8-Pad8)*%
X207010000Y-128270000D03*
%TO.P,U8,28*%
%TO.N,/PB3*%
X219710000Y-113030000D03*
%TO.P,U8,9*%
%TO.N,Net-(U8-Pad9)*%
X209550000Y-128270000D03*
%TO.P,U8,29*%
%TO.N,/PB2*%
X217170000Y-113030000D03*
%TO.P,U8,10*%
%TO.N,Net-(U8-Pad10)*%
X212090000Y-128270000D03*
%TO.P,U8,30*%
%TO.N,/PB1*%
X214630000Y-113030000D03*
%TO.P,U8,11*%
%TO.N,+5V*%
X214630000Y-128270000D03*
%TO.P,U8,31*%
%TO.N,GND*%
X212090000Y-113030000D03*
%TO.P,U8,12*%
X217170000Y-128270000D03*
%TO.P,U8,32*%
%TO.N,+5V*%
X209550000Y-113030000D03*
%TO.P,U8,13*%
%TO.N,Net-(C4-Pad1)*%
X219710000Y-128270000D03*
%TO.P,U8,33*%
%TO.N,Net-(U8-Pad33)*%
X207010000Y-113030000D03*
%TO.P,U8,14*%
%TO.N,Net-(C5-Pad1)*%
X222250000Y-128270000D03*
%TO.P,U8,34*%
%TO.N,Net-(U8-Pad34)*%
X204470000Y-113030000D03*
%TO.P,U8,15*%
%TO.N,/Feed Relays/DATA[IN]*%
X224790000Y-128270000D03*
%TO.P,U8,35*%
%TO.N,Net-(U8-Pad35)*%
X201930000Y-113030000D03*
%TO.P,U8,16*%
%TO.N,DCLK*%
X227330000Y-128270000D03*
%TO.P,U8,36*%
%TO.N,Net-(D5-Pad2)*%
X199390000Y-113030000D03*
%TO.P,U8,17*%
%TO.N,DLAT*%
X229870000Y-128270000D03*
%TO.P,U8,37*%
%TO.N,Net-(D6-Pad2)*%
X196850000Y-113030000D03*
%TO.P,U8,18*%
%TO.N,/Points Control/CHARGE-PUMP*%
X232410000Y-128270000D03*
%TO.P,U8,38*%
%TO.N,Net-(D7-Pad2)*%
X194310000Y-113030000D03*
%TO.P,U8,19*%
%TO.N,/PB8*%
X234950000Y-128270000D03*
%TO.P,U8,39*%
%TO.N,ICSPCLK*%
X191770000Y-113030000D03*
%TO.P,U8,20*%
%TO.N,/PB7*%
X237490000Y-128270000D03*
%TO.P,U8,40*%
%TO.N,ICSPDAT*%
X189230000Y-113030000D03*
%TD*%
D29*
%TO.P,U7,1*%
%TO.N,Net-(U4-Pad7)*%
X113030000Y-107950000D03*
D30*
%TO.P,U7,9*%
%TO.N,+12V*%
X130810000Y-100330000D03*
%TO.P,U7,2*%
%TO.N,Net-(U5-Pad15)*%
X115570000Y-107950000D03*
%TO.P,U7,10*%
%TO.N,Net-(U7-Pad10)*%
X128270000Y-100330000D03*
%TO.P,U7,3*%
%TO.N,Net-(U5-Pad1)*%
X118110000Y-107950000D03*
%TO.P,U7,11*%
%TO.N,Net-(U7-Pad11)*%
X125730000Y-100330000D03*
%TO.P,U7,4*%
%TO.N,Net-(U5-Pad2)*%
X120650000Y-107950000D03*
%TO.P,U7,12*%
%TO.N,Net-(K9-Pad8)*%
X123190000Y-100330000D03*
%TO.P,U7,5*%
%TO.N,Net-(U5-Pad3)*%
X123190000Y-107950000D03*
%TO.P,U7,13*%
%TO.N,Net-(K6-Pad8)*%
X120650000Y-100330000D03*
%TO.P,U7,6*%
%TO.N,Net-(U5-Pad4)*%
X125730000Y-107950000D03*
%TO.P,U7,14*%
%TO.N,Net-(U7-Pad14)*%
X118110000Y-100330000D03*
%TO.P,U7,7*%
%TO.N,Net-(U5-Pad5)*%
X128270000Y-107950000D03*
%TO.P,U7,15*%
%TO.N,Net-(K4-Pad8)*%
X115570000Y-100330000D03*
%TO.P,U7,8*%
%TO.N,GND*%
X130810000Y-107950000D03*
%TO.P,U7,16*%
%TO.N,Net-(K2-Pad8)*%
X113030000Y-100330000D03*
%TD*%
D29*
%TO.P,U6,1*%
%TO.N,Net-(U4-Pad15)*%
X135890000Y-107950000D03*
D30*
%TO.P,U6,9*%
%TO.N,+12V*%
X153670000Y-100330000D03*
%TO.P,U6,2*%
%TO.N,Net-(U4-Pad1)*%
X138430000Y-107950000D03*
%TO.P,U6,10*%
%TO.N,Net-(K11-Pad8)*%
X151130000Y-100330000D03*
%TO.P,U6,3*%
%TO.N,Net-(U4-Pad2)*%
X140970000Y-107950000D03*
%TO.P,U6,11*%
%TO.N,Net-(K10-Pad8)*%
X148590000Y-100330000D03*
%TO.P,U6,4*%
%TO.N,Net-(U4-Pad3)*%
X143510000Y-107950000D03*
%TO.P,U6,12*%
%TO.N,Net-(K8-Pad8)*%
X146050000Y-100330000D03*
%TO.P,U6,5*%
%TO.N,Net-(U4-Pad4)*%
X146050000Y-107950000D03*
%TO.P,U6,13*%
%TO.N,Net-(K7-Pad8)*%
X143510000Y-100330000D03*
%TO.P,U6,6*%
%TO.N,Net-(U4-Pad5)*%
X148590000Y-107950000D03*
%TO.P,U6,14*%
%TO.N,Net-(K5-Pad8)*%
X140970000Y-100330000D03*
%TO.P,U6,7*%
%TO.N,Net-(U4-Pad6)*%
X151130000Y-107950000D03*
%TO.P,U6,15*%
%TO.N,Net-(K3-Pad8)*%
X138430000Y-100330000D03*
%TO.P,U6,8*%
%TO.N,GND*%
X153670000Y-107950000D03*
%TO.P,U6,16*%
%TO.N,Net-(K1-Pad8)*%
X135890000Y-100330000D03*
%TD*%
D29*
%TO.P,U5,1*%
%TO.N,Net-(U5-Pad1)*%
X113030000Y-120650000D03*
D30*
%TO.P,U5,9*%
%TO.N,/Points Control/DATA[IN]*%
X130810000Y-113030000D03*
%TO.P,U5,2*%
%TO.N,Net-(U5-Pad2)*%
X115570000Y-120650000D03*
%TO.P,U5,10*%
%TO.N,+5V*%
X128270000Y-113030000D03*
%TO.P,U5,3*%
%TO.N,Net-(U5-Pad3)*%
X118110000Y-120650000D03*
%TO.P,U5,11*%
%TO.N,DCLK*%
X125730000Y-113030000D03*
%TO.P,U5,4*%
%TO.N,Net-(U5-Pad4)*%
X120650000Y-120650000D03*
%TO.P,U5,12*%
%TO.N,DLAT*%
X123190000Y-113030000D03*
%TO.P,U5,5*%
%TO.N,Net-(U5-Pad5)*%
X123190000Y-120650000D03*
%TO.P,U5,13*%
%TO.N,GND*%
X120650000Y-113030000D03*
%TO.P,U5,6*%
%TO.N,/Feed Relays/SR1-SPARE5*%
X125730000Y-120650000D03*
%TO.P,U5,14*%
%TO.N,Net-(U4-Pad9)*%
X118110000Y-113030000D03*
%TO.P,U5,7*%
%TO.N,/Feed Relays/SR1-SPARE6*%
X128270000Y-120650000D03*
%TO.P,U5,15*%
%TO.N,Net-(U5-Pad15)*%
X115570000Y-113030000D03*
%TO.P,U5,8*%
%TO.N,GND*%
X130810000Y-120650000D03*
%TO.P,U5,16*%
%TO.N,+5V*%
X113030000Y-113030000D03*
%TD*%
D29*
%TO.P,U4,1*%
%TO.N,Net-(U4-Pad1)*%
X135890000Y-120650000D03*
D30*
%TO.P,U4,9*%
%TO.N,Net-(U4-Pad9)*%
X153670000Y-113030000D03*
%TO.P,U4,2*%
%TO.N,Net-(U4-Pad2)*%
X138430000Y-120650000D03*
%TO.P,U4,10*%
%TO.N,+5V*%
X151130000Y-113030000D03*
%TO.P,U4,3*%
%TO.N,Net-(U4-Pad3)*%
X140970000Y-120650000D03*
%TO.P,U4,11*%
%TO.N,DCLK*%
X148590000Y-113030000D03*
%TO.P,U4,4*%
%TO.N,Net-(U4-Pad4)*%
X143510000Y-120650000D03*
%TO.P,U4,12*%
%TO.N,DLAT*%
X146050000Y-113030000D03*
%TO.P,U4,5*%
%TO.N,Net-(U4-Pad5)*%
X146050000Y-120650000D03*
%TO.P,U4,13*%
%TO.N,GND*%
X143510000Y-113030000D03*
%TO.P,U4,6*%
%TO.N,Net-(U4-Pad6)*%
X148590000Y-120650000D03*
%TO.P,U4,14*%
%TO.N,/Feed Relays/DATA[IN]*%
X140970000Y-113030000D03*
%TO.P,U4,7*%
%TO.N,Net-(U4-Pad7)*%
X151130000Y-120650000D03*
%TO.P,U4,15*%
%TO.N,Net-(U4-Pad15)*%
X138430000Y-113030000D03*
%TO.P,U4,8*%
%TO.N,GND*%
X153670000Y-120650000D03*
%TO.P,U4,16*%
%TO.N,+5V*%
X135890000Y-113030000D03*
%TD*%
D31*
%TO.P,U3,1*%
%TO.N,/Points Control/PF2*%
X83820000Y-120650000D03*
D32*
%TO.P,U3,9*%
%TO.N,/Points Control/DATA[OUT]*%
X91440000Y-138430000D03*
%TO.P,U3,2*%
%TO.N,/Points Control/PF3*%
X83820000Y-123190000D03*
%TO.P,U3,10*%
%TO.N,+5V*%
X91440000Y-135890000D03*
%TO.P,U3,3*%
%TO.N,/Points Control/PF4*%
X83820000Y-125730000D03*
%TO.P,U3,11*%
%TO.N,DCLK*%
X91440000Y-133350000D03*
%TO.P,U3,4*%
%TO.N,/Points Control/PF5*%
X83820000Y-128270000D03*
%TO.P,U3,12*%
%TO.N,DLAT*%
X91440000Y-130810000D03*
%TO.P,U3,5*%
%TO.N,/Points Control/PF6*%
X83820000Y-130810000D03*
%TO.P,U3,13*%
%TO.N,GND*%
X91440000Y-128270000D03*
%TO.P,U3,6*%
%TO.N,/Points Control/PF7*%
X83820000Y-133350000D03*
%TO.P,U3,14*%
%TO.N,Net-(U2-Pad9)*%
X91440000Y-125730000D03*
%TO.P,U3,7*%
%TO.N,/Points Control/PF8*%
X83820000Y-135890000D03*
%TO.P,U3,15*%
%TO.N,/Points Control/PF1*%
X91440000Y-123190000D03*
%TO.P,U3,8*%
%TO.N,GND*%
X83820000Y-138430000D03*
%TO.P,U3,16*%
%TO.N,+5V*%
X91440000Y-120650000D03*
%TD*%
D31*
%TO.P,U2,1*%
%TO.N,/Points Control/PB2*%
X66040000Y-120650000D03*
D32*
%TO.P,U2,9*%
%TO.N,Net-(U2-Pad9)*%
X73660000Y-138430000D03*
%TO.P,U2,2*%
%TO.N,/Points Control/PB3*%
X66040000Y-123190000D03*
%TO.P,U2,10*%
%TO.N,+5V*%
X73660000Y-135890000D03*
%TO.P,U2,3*%
%TO.N,/Points Control/PB4*%
X66040000Y-125730000D03*
%TO.P,U2,11*%
%TO.N,DCLK*%
X73660000Y-133350000D03*
%TO.P,U2,4*%
%TO.N,/Points Control/PB5*%
X66040000Y-128270000D03*
%TO.P,U2,12*%
%TO.N,DLAT*%
X73660000Y-130810000D03*
%TO.P,U2,5*%
%TO.N,/Points Control/PB6*%
X66040000Y-130810000D03*
%TO.P,U2,13*%
%TO.N,GND*%
X73660000Y-128270000D03*
%TO.P,U2,6*%
%TO.N,/Points Control/PB7*%
X66040000Y-133350000D03*
%TO.P,U2,14*%
%TO.N,/Points Control/DATA[IN]*%
X73660000Y-125730000D03*
%TO.P,U2,7*%
%TO.N,/Points Control/PB8*%
X66040000Y-135890000D03*
%TO.P,U2,15*%
%TO.N,/Points Control/PB1*%
X73660000Y-123190000D03*
%TO.P,U2,8*%
%TO.N,GND*%
X66040000Y-138430000D03*
%TO.P,U2,16*%
%TO.N,+5V*%
X73660000Y-120650000D03*
%TD*%
D13*
%TO.P,R1,1*%
%TO.N,MCLR*%
X194310000Y-140970000D03*
D14*
%TO.P,R1,2*%
%TO.N,+5V*%
X204470000Y-140970000D03*
%TD*%
D15*
%TO.P,J3,1*%
%TO.N,MCLR*%
X185293000Y-140208000D03*
D16*
%TO.P,J3,2*%
%TO.N,+5V*%
X182753000Y-140208000D03*
%TO.P,J3,3*%
%TO.N,GND*%
X180213000Y-140208000D03*
%TO.P,J3,4*%
%TO.N,ICSPDAT*%
X177673000Y-140208000D03*
%TO.P,J3,5*%
%TO.N,ICSPCLK*%
X175133000Y-140208000D03*
%TO.P,J3,6*%
%TO.N,Net-(J3-Pad6)*%
X172593000Y-140208000D03*
%TD*%
D17*
%TO.P,D20,1*%
%TO.N,+5V*%
X138430000Y-141224000D03*
D18*
%TO.P,D20,2*%
%TO.N,GND*%
X128270000Y-141224000D03*
%TD*%
D17*
%TO.P,D19,1*%
%TO.N,+12V*%
X114808000Y-137414000D03*
D18*
%TO.P,D19,2*%
%TO.N,GND*%
X124968000Y-137414000D03*
%TD*%
D13*
%TO.P,C5,1*%
%TO.N,Net-(C5-Pad1)*%
X222250000Y-138430000D03*
%TO.P,C5,2*%
%TO.N,GND*%
X219750000Y-138430000D03*
%TD*%
%TO.P,C4,1*%
%TO.N,Net-(C4-Pad1)*%
X215138000Y-138430000D03*
%TO.P,C4,2*%
%TO.N,GND*%
X217638000Y-138430000D03*
%TD*%
D26*
%TO.P,C2,1*%
%TO.N,+5V*%
X74930000Y-44450000D03*
D27*
%TO.P,C2,2*%
%TO.N,GND*%
X79930000Y-44450000D03*
%TD*%
D26*
%TO.P,C1,1*%
%TO.N,+12V*%
X63500000Y-44450000D03*
D27*
%TO.P,C1,2*%
%TO.N,GND*%
X68500000Y-44450000D03*
%TD*%
D13*
%TO.P,R17,1*%
%TO.N,Net-(Q19-Pad1)*%
X101092000Y-119126000D03*
D14*
%TO.P,R17,2*%
%TO.N,GND*%
X101092000Y-129286000D03*
%TD*%
D13*
%TO.P,R16,1*%
%TO.N,Net-(Q18-Pad1)*%
X62992000Y-130556000D03*
D14*
%TO.P,R16,2*%
%TO.N,GND*%
X52832000Y-130556000D03*
%TD*%
D13*
%TO.P,R15,1*%
%TO.N,Net-(Q17-Pad1)*%
X56388000Y-91948000D03*
D14*
%TO.P,R15,2*%
%TO.N,GND*%
X56388000Y-81788000D03*
%TD*%
D13*
%TO.P,R14,1*%
%TO.N,Net-(Q16-Pad1)*%
X62992000Y-128016000D03*
D14*
%TO.P,R14,2*%
%TO.N,GND*%
X52832000Y-128016000D03*
%TD*%
D13*
%TO.P,R13,1*%
%TO.N,Net-(Q15-Pad1)*%
X101092000Y-131572000D03*
D14*
%TO.P,R13,2*%
%TO.N,GND*%
X101092000Y-141732000D03*
%TD*%
D13*
%TO.P,R12,1*%
%TO.N,Net-(Q14-Pad1)*%
X62992000Y-125476000D03*
D14*
%TO.P,R12,2*%
%TO.N,GND*%
X52832000Y-125476000D03*
%TD*%
D13*
%TO.P,R11,1*%
%TO.N,Net-(Q13-Pad1)*%
X104394000Y-131572000D03*
D14*
%TO.P,R11,2*%
%TO.N,GND*%
X104394000Y-141732000D03*
%TD*%
D13*
%TO.P,R10,1*%
%TO.N,Net-(Q12-Pad1)*%
X53086000Y-91948000D03*
D14*
%TO.P,R10,2*%
%TO.N,GND*%
X53086000Y-81788000D03*
%TD*%
D13*
%TO.P,R9,1*%
%TO.N,Net-(Q11-Pad1)*%
X189738000Y-95758000D03*
D14*
%TO.P,R9,2*%
%TO.N,GND*%
X189738000Y-85598000D03*
%TD*%
D13*
%TO.P,R8,1*%
%TO.N,Net-(Q10-Pad1)*%
X186182000Y-95758000D03*
D14*
%TO.P,R8,2*%
%TO.N,GND*%
X186182000Y-85598000D03*
%TD*%
D13*
%TO.P,R6,1*%
%TO.N,Net-(Q7-Pad1)*%
X189738000Y-98044000D03*
D14*
%TO.P,R6,2*%
%TO.N,GND*%
X189738000Y-108204000D03*
%TD*%
D13*
%TO.P,R5,1*%
%TO.N,Net-(Q5-Pad1)*%
X186182000Y-98044000D03*
D14*
%TO.P,R5,2*%
%TO.N,GND*%
X186182000Y-108204000D03*
%TD*%
D13*
%TO.P,R4,1*%
%TO.N,Net-(Q4-Pad1)*%
X160528000Y-96774000D03*
D14*
%TO.P,R4,2*%
%TO.N,GND*%
X160528000Y-106934000D03*
%TD*%
D13*
%TO.P,R3,1*%
%TO.N,Net-(Q2-Pad1)*%
X115316000Y-141224000D03*
D14*
%TO.P,R3,2*%
%TO.N,GND*%
X125476000Y-141224000D03*
%TD*%
D13*
%TO.P,R2,1*%
%TO.N,Net-(Q1-Pad1)*%
X107696000Y-131572000D03*
D14*
%TO.P,R2,2*%
%TO.N,GND*%
X107696000Y-141732000D03*
%TD*%
D15*
%TO.P,J5,1*%
%TO.N,+12V*%
X117858540Y-132321300D03*
D16*
%TO.P,J5,2*%
%TO.N,/Points Control/DATA[OUT]*%
X117858540Y-129781300D03*
%TO.P,J5,3*%
%TO.N,DCLK*%
X120398540Y-132321300D03*
%TO.P,J5,4*%
%TO.N,+5V*%
X120398540Y-129781300D03*
%TO.P,J5,5*%
%TO.N,DLAT*%
X122938540Y-132321300D03*
%TO.P,J5,6*%
%TO.N,GND*%
X122938540Y-129781300D03*
%TO.P,J5,7*%
X125478540Y-132321300D03*
%TO.P,J5,8*%
X125478540Y-129781300D03*
%TO.P,J5,9*%
X128018540Y-132321300D03*
%TO.P,J5,10*%
%TO.N,/AUX2-LED*%
X128018540Y-129781300D03*
%TO.P,J5,11*%
%TO.N,/AUX1-LED*%
X130558540Y-132321300D03*
%TO.P,J5,12*%
%TO.N,+5V*%
X130558540Y-129781300D03*
%TD*%
D15*
%TO.P,J4,1*%
%TO.N,/PB1*%
X163113720Y-132344160D03*
D16*
%TO.P,J4,2*%
%TO.N,/PB2*%
X163113720Y-129804160D03*
%TO.P,J4,3*%
%TO.N,/PB3*%
X165653720Y-132344160D03*
%TO.P,J4,4*%
%TO.N,/PB4*%
X165653720Y-129804160D03*
%TO.P,J4,5*%
%TO.N,/PB5*%
X168193720Y-132344160D03*
%TO.P,J4,6*%
%TO.N,Net-(J4-Pad6)*%
X168193720Y-129804160D03*
%TO.P,J4,7*%
%TO.N,Net-(J4-Pad7)*%
X170733720Y-132344160D03*
%TO.P,J4,8*%
%TO.N,/PB10*%
X170733720Y-129804160D03*
%TO.P,J4,9*%
%TO.N,/PB9*%
X173273720Y-132344160D03*
%TO.P,J4,10*%
%TO.N,/PB8*%
X173273720Y-129804160D03*
%TO.P,J4,11*%
%TO.N,/PB7*%
X175813720Y-132344160D03*
%TO.P,J4,12*%
%TO.N,/PB6*%
X175813720Y-129804160D03*
%TD*%
D27*
%TO.P,K1,4*%
%TO.N,/Feed Relays/FEED[A+]*%
X184150000Y-52070000D03*
%TO.P,K1,5*%
%TO.N,/Feed Relays/FEED[A-]*%
X191770000Y-52070000D03*
%TO.P,K1,6*%
%TO.N,TRACK-*%
X191770000Y-57150000D03*
%TO.P,K1,3*%
%TO.N,TRACK+*%
X184150000Y-57150000D03*
%TO.P,K1,2*%
%TO.N,Net-(K1-Pad2)*%
X184150000Y-62230000D03*
%TO.P,K1,7*%
%TO.N,Net-(K1-Pad7)*%
X191770000Y-62230000D03*
%TO.P,K1,8*%
%TO.N,Net-(K1-Pad8)*%
X191770000Y-69850000D03*
%TO.P,K1,1*%
%TO.N,+12V*%
X184150000Y-69850000D03*
%TD*%
%TO.P,K2,4*%
%TO.N,/Feed Relays/FEED[H+]*%
X107950000Y-52070000D03*
%TO.P,K2,5*%
X115570000Y-52070000D03*
%TO.P,K2,6*%
%TO.N,TRACK+*%
X115570000Y-57150000D03*
%TO.P,K2,3*%
X107950000Y-57150000D03*
%TO.P,K2,2*%
%TO.N,Net-(K2-Pad2)*%
X107950000Y-62230000D03*
%TO.P,K2,7*%
%TO.N,Net-(K2-Pad7)*%
X115570000Y-62230000D03*
%TO.P,K2,8*%
%TO.N,Net-(K2-Pad8)*%
X115570000Y-69850000D03*
%TO.P,K2,1*%
%TO.N,+12V*%
X107950000Y-69850000D03*
%TD*%
%TO.P,K3,4*%
%TO.N,/Feed Relays/FEED[B+]*%
X95250000Y-52070000D03*
%TO.P,K3,5*%
%TO.N,/Feed Relays/FEED[B-]*%
X102870000Y-52070000D03*
%TO.P,K3,6*%
%TO.N,TRACK-*%
X102870000Y-57150000D03*
%TO.P,K3,3*%
%TO.N,TRACK+*%
X95250000Y-57150000D03*
%TO.P,K3,2*%
%TO.N,Net-(K3-Pad2)*%
X95250000Y-62230000D03*
%TO.P,K3,7*%
%TO.N,Net-(K3-Pad7)*%
X102870000Y-62230000D03*
%TO.P,K3,8*%
%TO.N,Net-(K3-Pad8)*%
X102870000Y-69850000D03*
%TO.P,K3,1*%
%TO.N,+12V*%
X95250000Y-69850000D03*
%TD*%
%TO.P,K4,4*%
%TO.N,/Feed Relays/FEED[I-]*%
X82550000Y-52070000D03*
%TO.P,K4,5*%
X90170000Y-52070000D03*
%TO.P,K4,6*%
%TO.N,TRACK-*%
X90170000Y-57150000D03*
%TO.P,K4,3*%
X82550000Y-57150000D03*
%TO.P,K4,2*%
%TO.N,Net-(K4-Pad2)*%
X82550000Y-62230000D03*
%TO.P,K4,7*%
%TO.N,Net-(K4-Pad7)*%
X90170000Y-62230000D03*
%TO.P,K4,8*%
%TO.N,Net-(K4-Pad8)*%
X90170000Y-69850000D03*
%TO.P,K4,1*%
%TO.N,+12V*%
X82550000Y-69850000D03*
%TD*%
%TO.P,K5,4*%
%TO.N,/Feed Relays/FEED[C+]*%
X171450000Y-52070000D03*
%TO.P,K5,5*%
%TO.N,/Feed Relays/FEED[C-]*%
X179070000Y-52070000D03*
%TO.P,K5,6*%
%TO.N,TRACK-*%
X179070000Y-57150000D03*
%TO.P,K5,3*%
%TO.N,TRACK+*%
X171450000Y-57150000D03*
%TO.P,K5,2*%
%TO.N,Net-(K5-Pad2)*%
X171450000Y-62230000D03*
%TO.P,K5,7*%
%TO.N,Net-(K5-Pad7)*%
X179070000Y-62230000D03*
%TO.P,K5,8*%
%TO.N,Net-(K5-Pad8)*%
X179070000Y-69850000D03*
%TO.P,K5,1*%
%TO.N,+12V*%
X171450000Y-69850000D03*
%TD*%
%TO.P,K6,4*%
%TO.N,/Feed Relays/AUX[1]*%
X69850000Y-52070000D03*
%TO.P,K6,5*%
X77470000Y-52070000D03*
%TO.P,K6,6*%
%TO.N,+12V*%
X77470000Y-57150000D03*
%TO.P,K6,3*%
X69850000Y-57150000D03*
%TO.P,K6,2*%
%TO.N,Net-(K6-Pad2)*%
X69850000Y-62230000D03*
%TO.P,K6,7*%
%TO.N,Net-(K6-Pad7)*%
X77470000Y-62230000D03*
%TO.P,K6,8*%
%TO.N,Net-(K6-Pad8)*%
X77470000Y-69850000D03*
%TO.P,K6,1*%
%TO.N,+12V*%
X69850000Y-69850000D03*
%TD*%
%TO.P,K7,4*%
%TO.N,/Feed Relays/FEED[D+]*%
X158750000Y-52070000D03*
%TO.P,K7,5*%
%TO.N,/Feed Relays/FEED[D-]*%
X166370000Y-52070000D03*
%TO.P,K7,6*%
%TO.N,TRACK-*%
X166370000Y-57150000D03*
%TO.P,K7,3*%
%TO.N,TRACK+*%
X158750000Y-57150000D03*
%TO.P,K7,2*%
%TO.N,Net-(K7-Pad2)*%
X158750000Y-62230000D03*
%TO.P,K7,7*%
%TO.N,Net-(K7-Pad7)*%
X166370000Y-62230000D03*
%TO.P,K7,8*%
%TO.N,Net-(K7-Pad8)*%
X166370000Y-69850000D03*
%TO.P,K7,1*%
%TO.N,+12V*%
X158750000Y-69850000D03*
%TD*%
%TO.P,K8,4*%
%TO.N,/Feed Relays/FEED[E+]*%
X146050000Y-52070000D03*
%TO.P,K8,5*%
X153670000Y-52070000D03*
%TO.P,K8,6*%
%TO.N,TRACK+*%
X153670000Y-57150000D03*
%TO.P,K8,3*%
X146050000Y-57150000D03*
%TO.P,K8,2*%
%TO.N,Net-(K8-Pad2)*%
X146050000Y-62230000D03*
%TO.P,K8,7*%
%TO.N,Net-(K8-Pad7)*%
X153670000Y-62230000D03*
%TO.P,K8,8*%
%TO.N,Net-(K8-Pad8)*%
X153670000Y-69850000D03*
%TO.P,K8,1*%
%TO.N,+12V*%
X146050000Y-69850000D03*
%TD*%
%TO.P,K9,4*%
%TO.N,/Feed Relays/AUX[2]*%
X57150000Y-52070000D03*
%TO.P,K9,5*%
X64770000Y-52070000D03*
%TO.P,K9,6*%
%TO.N,+12V*%
X64770000Y-57150000D03*
%TO.P,K9,3*%
X57150000Y-57150000D03*
%TO.P,K9,2*%
%TO.N,Net-(K9-Pad2)*%
X57150000Y-62230000D03*
%TO.P,K9,7*%
%TO.N,Net-(K9-Pad7)*%
X64770000Y-62230000D03*
%TO.P,K9,8*%
%TO.N,Net-(K9-Pad8)*%
X64770000Y-69850000D03*
%TO.P,K9,1*%
%TO.N,+12V*%
X57150000Y-69850000D03*
%TD*%
%TO.P,K10,4*%
%TO.N,/Feed Relays/FEED[F+]*%
X133350000Y-52070000D03*
%TO.P,K10,5*%
X140970000Y-52070000D03*
%TO.P,K10,6*%
%TO.N,TRACK+*%
X140970000Y-57150000D03*
%TO.P,K10,3*%
X133350000Y-57150000D03*
%TO.P,K10,2*%
%TO.N,Net-(K10-Pad2)*%
X133350000Y-62230000D03*
%TO.P,K10,7*%
%TO.N,Net-(K10-Pad7)*%
X140970000Y-62230000D03*
%TO.P,K10,8*%
%TO.N,Net-(K10-Pad8)*%
X140970000Y-69850000D03*
%TO.P,K10,1*%
%TO.N,+12V*%
X133350000Y-69850000D03*
%TD*%
%TO.P,K11,4*%
%TO.N,/Feed Relays/FEED[G+]*%
X120650000Y-52070000D03*
%TO.P,K11,5*%
X128270000Y-52070000D03*
%TO.P,K11,6*%
%TO.N,TRACK+*%
X128270000Y-57150000D03*
%TO.P,K11,3*%
X120650000Y-57150000D03*
%TO.P,K11,2*%
%TO.N,Net-(K11-Pad2)*%
X120650000Y-62230000D03*
%TO.P,K11,7*%
%TO.N,Net-(K11-Pad7)*%
X128270000Y-62230000D03*
%TO.P,K11,8*%
%TO.N,Net-(K11-Pad8)*%
X128270000Y-69850000D03*
%TO.P,K11,1*%
%TO.N,+12V*%
X120650000Y-69850000D03*
%TD*%
D33*
%TO.N,+12V*%
X109728000Y-137414000D03*
D34*
X110004010Y-102130010D03*
X231140000Y-95758000D03*
X184150000Y-91567000D03*
X154649927Y-103341990D03*
%TO.N,GND*%
X151130000Y-43688000D03*
X117094000Y-43942000D03*
X58674000Y-92964000D03*
X78486000Y-138430000D03*
X68834000Y-128270000D03*
X201676000Y-48006000D03*
X156083000Y-141605000D03*
X88350754Y-128759980D03*
D33*
%TO.N,+5V*%
X225044000Y-109220000D03*
X92546010Y-114554000D03*
D34*
%TO.N,/Points Control/POINTS[B1]-COIL*%
X148923053Y-97737021D03*
%TO.N,/Points Control/POINTS[F1]-COIL*%
X152613971Y-96937010D03*
%TO.N,/Points Control/POINTS[B2]-COIL*%
X144780000Y-88646000D03*
X161544000Y-88138000D03*
%TO.N,/Points Control/POINTS[B3]-COIL*%
X162454980Y-97790000D03*
X172987728Y-65869925D03*
X164549010Y-65830022D03*
%TO.N,/Points Control/POINTS[B5]-COIL*%
X84166545Y-87572990D03*
%TO.N,/Points Control/POINTS[F5]-COIL*%
X76200000Y-86322968D03*
X85769276Y-86499443D03*
%TO.N,/Points Control/POINTS[B6]-COIL*%
X91911990Y-97750011D03*
%TO.N,/Points Control/POINTS[F6]-COIL*%
X95248012Y-93218000D03*
%TO.N,/Points Control/POINTS[B7]-COIL*%
X102616000Y-98382010D03*
%TO.N,/Points Control/POINTS[F7]-COIL*%
X105918000Y-88392000D03*
X99060000Y-88392000D03*
%TO.N,/Points Control/POINTS[B8]-COIL*%
X106591192Y-95559271D03*
%TO.N,TRACK+*%
X94107000Y-99060000D03*
%TO.N,TRACK-*%
X62611000Y-59944000D03*
D33*
%TO.N,ICSPCLK*%
X192405000Y-137160000D03*
%TO.N,ICSPDAT*%
X177673000Y-115189000D03*
%TO.N,/PB6*%
X237490000Y-126238000D03*
%TO.N,/PB9*%
X231688871Y-132311989D03*
%TO.N,/PB10*%
X228600000Y-131318000D03*
%TO.N,/PB5*%
X233426000Y-132842000D03*
%TO.N,/PB4*%
X222250000Y-125984000D03*
%TO.N,/PB3*%
X219710000Y-125222000D03*
%TO.N,/PB2*%
X217170000Y-124460000D03*
%TO.N,/PB1*%
X214630000Y-124169010D03*
%TO.N,/Points Control/DATA[OUT]*%
X113792000Y-134713978D03*
%TO.N,DCLK*%
X148626926Y-110229967D03*
X75438000Y-142494000D03*
X113030000Y-140462000D03*
X88900000Y-133604000D03*
X88900000Y-142494000D03*
X227330000Y-136144000D03*
X153157340Y-138180660D03*
%TO.N,DLAT*%
X146050000Y-109764990D03*
X77216000Y-140970000D03*
X93980000Y-140716000D03*
X94898683Y-132697001D03*
X150622000Y-136906000D03*
X229870000Y-134112000D03*
%TO.N,/AUX1-LED*%
X160020000Y-132334000D03*
X160020000Y-122682000D03*
%TO.N,/AUX2-LED*%
X160782000Y-130810000D03*
X160782000Y-121920000D03*
D34*
%TO.N,/Feed Relays/FEED[D-]*%
X170097074Y-47488004D03*
X107442000Y-47752000D03*
X163666990Y-79248000D03*
X106934000Y-79338990D03*
%TO.N,/Feed Relays/FEED[D+]*%
X102616000Y-47488002D03*
X104394000Y-78740000D03*
X159766000Y-78338979D03*
%TO.N,/Feed Relays/FEED[C-]*%
X99060000Y-47488002D03*
X99314000Y-50292000D03*
X174918906Y-48522979D03*
%TO.N,/Feed Relays/FEED[C+]*%
X93980000Y-47498000D03*
X93980000Y-76200000D03*
X169418000Y-77470000D03*
X170628456Y-49369989D03*
%TO.N,/Feed Relays/FEED[A-]*%
X90300861Y-47864002D03*
X90289188Y-64631308D03*
X189311869Y-62273916D03*
%TO.N,/Feed Relays/FEED[A+]*%
X151384000Y-45466000D03*
X85852000Y-47498000D03*
X150285885Y-57598596D03*
X84497990Y-59944000D03*
X149536010Y-59997310D03*
%TO.N,/Feed Relays/FEED[E+]*%
X146050000Y-49269985D03*
%TO.N,/Feed Relays/FEED[F+]*%
X132484701Y-48269978D03*
%TO.N,/Feed Relays/FEED[G+]*%
X130555652Y-47487641D03*
%TO.N,/Feed Relays/FEED[H+]*%
X133888521Y-47976726D03*
X114046000Y-65278000D03*
X134826979Y-65907438D03*
%TO.N,/Feed Relays/AUX[1]*%
X187960000Y-47488002D03*
X75855010Y-64008000D03*
X187960000Y-66929000D03*
X135726990Y-67086270D03*
X135726990Y-47755876D03*
%TO.N,/Feed Relays/AUX[2]*%
X67564000Y-85598000D03*
X138430000Y-48006000D03*
X137831010Y-85761010D03*
D33*
%TO.N,/HALL[G]*%
X143637000Y-86868000D03*
X173863000Y-87249000D03*
X179324000Y-128651000D03*
%TO.N,/HALL[F]*%
X142494000Y-105918000D03*
X191897000Y-106172000D03*
%TO.N,/HALL[E]*%
X137922000Y-105283000D03*
X195453000Y-104394000D03*
D34*
%TO.N,/Feed Relays/FEED[B+]*%
X156680993Y-55483712D03*
X159088010Y-48369978D03*
%TO.N,/Feed Relays/FEED[B-]*%
X163152010Y-47513825D03*
X162646595Y-55545863D03*
%TO.N,/Feed Relays/FEED[I-]*%
X177318918Y-49048918D03*
X176816677Y-83910990D03*
X79749989Y-83820000D03*
D33*
%TO.N,Net-(K1-Pad8)*%
X189103000Y-80989010D03*
X135926990Y-81440575D03*
%TO.N,Net-(K3-Pad8)*%
X139192000Y-71374000D03*
%TO.N,Net-(K4-Pad8)*%
X112545595Y-72012903D03*
%TO.N,Net-(K5-Pad8)*%
X176784000Y-86106000D03*
X139482990Y-86360000D03*
%TO.N,Net-(K6-Pad8)*%
X123296169Y-72128924D03*
%TO.N,Net-(K7-Pad8)*%
X163830000Y-102108000D03*
%TO.N,Net-(K8-Pad8)*%
X151539495Y-102068784D03*
%TO.N,Net-(K9-Pad8)*%
X126744979Y-71900011D03*
%TO.N,Net-(K10-Pad8)*%
X141695010Y-97790000D03*
%TO.N,Net-(K11-Pad8)*%
X128270000Y-96774000D03*
%TO.N,/Points Control/PB1*%
X72517000Y-93853000D03*
%TO.N,/Points Control/PF1*%
X110236000Y-123317000D03*
%TO.N,/Points Control/PB2*%
X158039661Y-117931339D03*
%TO.N,/Points Control/PF2*%
X83820000Y-104267000D03*
%TO.N,/Points Control/PB3*%
X195580000Y-117983000D03*
%TO.N,/Points Control/PF3*%
X86803875Y-84531138D03*
%TO.N,/Points Control/PB4*%
X89154000Y-124460000D03*
X92837000Y-82386010D03*
%TO.N,/Points Control/PF4*%
X83058000Y-80899000D03*
%TO.N,/Points Control/PB5*%
X77343000Y-67183000D03*
X79375000Y-127635000D03*
%TO.N,/Points Control/PF5*%
X106172000Y-126619000D03*
%TO.N,/Points Control/PB6*%
X76581000Y-128651000D03*
%TO.N,/Points Control/PF6*%
X98175660Y-133989660D03*
%TO.N,/Points Control/PB7*%
X78486000Y-129794000D03*
%TO.N,/Points Control/PF7*%
X59944000Y-79629000D03*
X82296000Y-79629000D03*
%TO.N,/Points Control/PF8*%
X96393000Y-134747000D03*
%TO.N,Net-(U2-Pad9)*%
X92202000Y-141732000D03*
X73509845Y-141845165D03*
%TO.N,/Points Control/DATA[IN]*%
X128940231Y-124905381D03*
%TO.N,Net-(U4-Pad7)*%
X112340586Y-123350031D03*
%TO.N,/Feed Relays/DATA[IN]*%
X140462000Y-134620000D03*
X224790000Y-134366000D03*
%TO.N,Net-(U4-Pad9)*%
X118110000Y-115316000D03*
D34*
%TO.N,/Points Control/POINTS[COM]*%
X185039000Y-43688000D03*
X125603000Y-64516000D03*
X185665110Y-64769098D03*
X201930000Y-82677000D03*
D33*
%TO.N,Net-(Q1-Pad1)*%
X108966000Y-96774000D03*
%TO.N,Net-(Q2-Pad1)*%
X131191000Y-103378000D03*
X112172048Y-103541990D03*
%TO.N,Net-(Q8-Pad1)*%
X165481000Y-72390000D03*
%TO.N,Net-(Q13-Pad1)*%
X104267000Y-120523000D03*
X73405912Y-118799980D03*
%TO.N,Net-(Q14-Pad1)*%
X78359000Y-115570000D03*
%TO.N,Net-(Q15-Pad1)*%
X85979000Y-130556000D03*
%TO.N,Net-(Q16-Pad1)*%
X65532000Y-118745000D03*
%TO.N,Net-(Q17-Pad1)*%
X96520000Y-88773000D03*
%TO.N,Net-(Q18-Pad1)*%
X101473000Y-136652000D03*
%TO.N,/CHG-LVL*%
X218567000Y-123444000D03*
X199390000Y-123444000D03*
D34*
%TO.N,/TFEED[+]*%
X70866000Y-103378000D03*
%TD*%
D35*
%TO.N,+12V*%
X207328001Y-42099999D02*
X221931999Y-42099999D01*
X205740000Y-43688000D02*
X207328001Y-42099999D01*
X226822000Y-46990000D02*
X228600000Y-46990000D01*
X221931999Y-42099999D02*
X226822000Y-46990000D01*
X182549999Y-68249999D02*
X173050001Y-68249999D01*
X173050001Y-68249999D02*
X171450000Y-69850000D01*
X184150000Y-69850000D02*
X182549999Y-68249999D01*
X147650001Y-68249999D02*
X146050000Y-69850000D01*
X157149999Y-68249999D02*
X147650001Y-68249999D01*
X158750000Y-69850000D02*
X157149999Y-68249999D01*
X122250001Y-68249999D02*
X120650000Y-69850000D01*
X131749999Y-68249999D02*
X122250001Y-68249999D01*
X133350000Y-69850000D02*
X131749999Y-68249999D01*
X119049999Y-68249999D02*
X109550001Y-68249999D01*
X109550001Y-68249999D02*
X107950000Y-69850000D01*
X120650000Y-69850000D02*
X119049999Y-68249999D01*
X96850001Y-68249999D02*
X95250000Y-69850000D01*
X106349999Y-68249999D02*
X96850001Y-68249999D01*
X107950000Y-69850000D02*
X106349999Y-68249999D01*
X71450001Y-68249999D02*
X69850000Y-69850000D01*
X80949999Y-68249999D02*
X71450001Y-68249999D01*
X82550000Y-69850000D02*
X80949999Y-68249999D01*
X58750001Y-68249999D02*
X57150000Y-69850000D01*
X68249999Y-68249999D02*
X58750001Y-68249999D01*
X69850000Y-69850000D02*
X68249999Y-68249999D01*
X69850000Y-57150000D02*
X77470000Y-57150000D01*
X69850000Y-57150000D02*
X64770000Y-57150000D01*
X64770000Y-57150000D02*
X57150000Y-57150000D01*
X84150001Y-68249999D02*
X82550000Y-69850000D01*
X95250000Y-69850000D02*
X93649999Y-68249999D01*
X93649999Y-68249999D02*
X84150001Y-68249999D01*
X130810000Y-100330000D02*
X130810000Y-100730000D01*
X129409990Y-102130010D02*
X110004010Y-102130010D01*
X130810000Y-100730000D02*
X129409990Y-102130010D01*
X109728000Y-137414000D02*
X114808000Y-137414000D01*
X160350001Y-68249999D02*
X158750000Y-69850000D01*
X169849999Y-68249999D02*
X160350001Y-68249999D01*
X171450000Y-69850000D02*
X169849999Y-68249999D01*
X226441000Y-97536000D02*
X228219000Y-95758000D01*
X228219000Y-95758000D02*
X231140000Y-95758000D01*
X224050001Y-95145001D02*
X226441000Y-97536000D01*
X201317001Y-95145001D02*
X224050001Y-95145001D01*
X199517000Y-93345000D02*
X201317001Y-95145001D01*
X184150000Y-91567000D02*
X186572320Y-91567000D01*
X199517000Y-92288998D02*
X199517000Y-93345000D01*
X196252001Y-89023999D02*
X199517000Y-92288998D01*
X189115321Y-89023999D02*
X196252001Y-89023999D01*
X186572320Y-91567000D02*
X189115321Y-89023999D01*
X134021989Y-103541989D02*
X154449928Y-103541989D01*
X154449928Y-103541989D02*
X154649927Y-103341990D01*
X130810000Y-100330000D02*
X134021989Y-103541989D01*
X144449999Y-68249999D02*
X136364214Y-68249999D01*
X146050000Y-69850000D02*
X144449999Y-68249999D01*
X134764213Y-69850000D02*
X133350000Y-69850000D01*
X136364214Y-68249999D02*
X134764213Y-69850000D01*
%TO.N,GND*%
X217638000Y-138430000D02*
X219750000Y-138430000D01*
X186182000Y-108204000D02*
X189738000Y-108204000D01*
X189738000Y-85598000D02*
X186182000Y-85598000D01*
X137390001Y-89939999D02*
X135890000Y-91440000D01*
X145819999Y-89939999D02*
X137390001Y-89939999D01*
X147320000Y-91440000D02*
X145819999Y-89939999D01*
X125960001Y-89939999D02*
X124460000Y-91440000D01*
X134389999Y-89939999D02*
X125960001Y-89939999D01*
X135890000Y-91440000D02*
X134389999Y-89939999D01*
X114530001Y-89939999D02*
X113030000Y-91440000D01*
X122959999Y-89939999D02*
X114530001Y-89939999D01*
X124460000Y-91440000D02*
X122959999Y-89939999D01*
X111529999Y-89939999D02*
X103100001Y-89939999D01*
X103100001Y-89939999D02*
X101600000Y-91440000D01*
X113030000Y-91440000D02*
X111529999Y-89939999D01*
X180109999Y-89939999D02*
X171680001Y-89939999D01*
X171680001Y-89939999D02*
X170180000Y-91440000D01*
X181610000Y-91440000D02*
X180109999Y-89939999D01*
X160250001Y-89939999D02*
X158750000Y-91440000D01*
X168679999Y-89939999D02*
X160250001Y-89939999D01*
X170180000Y-91440000D02*
X168679999Y-89939999D01*
X128270000Y-141224000D02*
X125476000Y-141224000D01*
X125478540Y-132321300D02*
X128018540Y-132321300D01*
X125478540Y-129781300D02*
X122938540Y-129781300D01*
X148336000Y-43688000D02*
X151130000Y-43688000D01*
X148336000Y-43688000D02*
X144272000Y-43688000D01*
X110236000Y-43688000D02*
X114300000Y-43688000D01*
X114300000Y-43688000D02*
X116840000Y-43688000D01*
X116840000Y-43688000D02*
X117094000Y-43942000D01*
X68500000Y-44450000D02*
X73114012Y-49064012D01*
X79930000Y-44450000D02*
X79930000Y-49026024D01*
X79930000Y-49026024D02*
X79967988Y-49064012D01*
X73114012Y-49064012D02*
X79967988Y-49064012D01*
X79967988Y-49064012D02*
X108659988Y-49064012D01*
X108659988Y-49064012D02*
X110236000Y-47488000D01*
X110236000Y-47488000D02*
X110236000Y-43688000D01*
X53086000Y-81788000D02*
X56388000Y-81788000D01*
X67310000Y-91440000D02*
X65786000Y-92964000D01*
X65786000Y-92964000D02*
X58674000Y-92964000D01*
X148820001Y-89939999D02*
X147320000Y-91440000D01*
X157249999Y-89939999D02*
X148820001Y-89939999D01*
X158750000Y-91440000D02*
X157249999Y-89939999D01*
X128430032Y-110329968D02*
X130810000Y-107950000D01*
X120650000Y-113030000D02*
X123350032Y-110329968D01*
X123350032Y-110329968D02*
X128430032Y-110329968D01*
X143510000Y-113030000D02*
X145310010Y-111229990D01*
X150390010Y-111229990D02*
X153670000Y-107950000D01*
X145310010Y-111229990D02*
X150390010Y-111229990D01*
X101092000Y-141732000D02*
X104394000Y-141732000D01*
X104394000Y-141732000D02*
X107696000Y-141732000D01*
X75973999Y-140192001D02*
X77736000Y-138430000D01*
X66040000Y-138430000D02*
X66040000Y-140030000D01*
X66040000Y-140030000D02*
X66202001Y-140192001D01*
X78486000Y-138430000D02*
X83820000Y-138430000D01*
X77736000Y-138430000D02*
X78486000Y-138430000D01*
X68834000Y-128270000D02*
X73660000Y-128270000D01*
X71294000Y-140256002D02*
X71358001Y-140192001D01*
X71294000Y-141732000D02*
X71294000Y-140256002D01*
X66202001Y-140192001D02*
X71358001Y-140192001D01*
X71358001Y-140192001D02*
X75973999Y-140192001D01*
X117370010Y-109750010D02*
X120650000Y-113030000D01*
X107638010Y-109750010D02*
X117370010Y-109750010D01*
X105918000Y-108030000D02*
X107638010Y-109750010D01*
X91824001Y-127885999D02*
X91440000Y-128270000D01*
X99691999Y-127885999D02*
X91824001Y-127885999D01*
X101092000Y-129286000D02*
X99691999Y-127885999D01*
X201930000Y-43942000D02*
X201676000Y-43688000D01*
X201676000Y-55238000D02*
X201930000Y-55492000D01*
X201676000Y-43688000D02*
X201676000Y-48006000D01*
X201676000Y-48006000D02*
X201676000Y-55238000D01*
X230100001Y-70080001D02*
X228219000Y-68199000D01*
X237259999Y-70080001D02*
X230100001Y-70080001D01*
X238760000Y-68580000D02*
X237259999Y-70080001D01*
X222036000Y-68199000D02*
X217170000Y-73065000D01*
X228219000Y-68199000D02*
X222036000Y-68199000D01*
X220599000Y-107696000D02*
X217678000Y-107696000D01*
X217678000Y-107696000D02*
X214757000Y-107696000D01*
X214757000Y-107696000D02*
X211836000Y-107696000D01*
X210017998Y-107696000D02*
X211836000Y-107696000D01*
X207501997Y-110212001D02*
X210017998Y-107696000D01*
X191746001Y-110212001D02*
X207501997Y-110212001D01*
X189738000Y-108204000D02*
X191746001Y-110212001D01*
X178216001Y-142204999D02*
X180213000Y-140208000D01*
X156682999Y-142204999D02*
X178216001Y-142204999D01*
X156083000Y-141605000D02*
X156682999Y-142204999D01*
X201930000Y-57825000D02*
X217170000Y-73065000D01*
X201930000Y-55492000D02*
X201930000Y-57825000D01*
X159127999Y-108334001D02*
X160528000Y-106934000D01*
X154054001Y-108334001D02*
X159127999Y-108334001D01*
X153670000Y-107950000D02*
X154054001Y-108334001D01*
X90950020Y-128759980D02*
X88350754Y-128759980D01*
X91440000Y-128270000D02*
X90950020Y-128759980D01*
X155368000Y-120650000D02*
X153670000Y-120650000D01*
X156718000Y-119300000D02*
X155368000Y-120650000D01*
X94462003Y-89939999D02*
X92962002Y-91440000D01*
X92962002Y-91440000D02*
X90170000Y-91440000D01*
X100099999Y-89939999D02*
X94462003Y-89939999D01*
X101600000Y-91440000D02*
X100099999Y-89939999D01*
X82313228Y-91440000D02*
X78740000Y-91440000D01*
X83813229Y-89939999D02*
X82313228Y-91440000D01*
X88669999Y-89939999D02*
X83813229Y-89939999D01*
X90170000Y-91440000D02*
X88669999Y-89939999D01*
X70346000Y-91440000D02*
X67310000Y-91440000D01*
X71846001Y-89939999D02*
X70346000Y-91440000D01*
X76920002Y-89939999D02*
X71846001Y-89939999D01*
X78420003Y-91440000D02*
X76920002Y-89939999D01*
X78740000Y-91440000D02*
X78420003Y-91440000D01*
D36*
%TO.N,+5V*%
X134364990Y-114555010D02*
X135890000Y-113030000D01*
X129795010Y-114555010D02*
X134364990Y-114555010D01*
X128270000Y-113030000D02*
X129795010Y-114555010D01*
X149604990Y-114555010D02*
X151130000Y-113030000D01*
X137415010Y-114555010D02*
X149604990Y-114555010D01*
X135890000Y-113030000D02*
X137415010Y-114555010D01*
X114555010Y-114555010D02*
X113030000Y-113030000D01*
X126744990Y-114555010D02*
X114555010Y-114555010D01*
X128270000Y-113030000D02*
X126744990Y-114555010D01*
X113030000Y-113030000D02*
X111506000Y-114554000D01*
X121573541Y-128606299D02*
X129383539Y-128606299D01*
X129383539Y-128606299D02*
X130558540Y-129781300D01*
X120398540Y-129781300D02*
X121573541Y-128606299D01*
X105918000Y-113030000D02*
X105918000Y-114554000D01*
X111506000Y-114554000D02*
X105918000Y-114554000D01*
X156718000Y-113168630D02*
X156718000Y-114300000D01*
X155054360Y-111504990D02*
X156718000Y-113168630D01*
X152655010Y-111504990D02*
X155054360Y-111504990D01*
X151130000Y-113030000D02*
X152655010Y-111504990D01*
X208024990Y-111504990D02*
X209550000Y-113030000D01*
X182546012Y-111504990D02*
X208024990Y-111504990D01*
X179751002Y-114300000D02*
X182546012Y-111504990D01*
X156718000Y-114300000D02*
X179751002Y-114300000D01*
X210675001Y-109110999D02*
X209550000Y-110236000D01*
X224934999Y-109110999D02*
X210675001Y-109110999D01*
X225044000Y-109220000D02*
X224934999Y-109110999D01*
X209550000Y-110236000D02*
X209550000Y-113030000D01*
X202532999Y-139032999D02*
X183928001Y-139032999D01*
X183928001Y-139032999D02*
X182753000Y-140208000D01*
X204470000Y-140970000D02*
X202532999Y-139032999D01*
X85280001Y-119524999D02*
X86405002Y-120650000D01*
X82359999Y-119524999D02*
X85280001Y-119524999D01*
X81234998Y-120650001D02*
X82359999Y-119524999D01*
X86405002Y-120650000D02*
X91440000Y-120650000D01*
X73660000Y-120650000D02*
X81234998Y-120650001D01*
X105918000Y-114554000D02*
X92546010Y-114554000D01*
D37*
%TO.N,/Points Control/POINTS[B1]-COIL*%
X145071737Y-97437022D02*
X148623054Y-97437022D01*
X148623054Y-97437022D02*
X148923053Y-97737021D01*
X121920000Y-91440000D02*
X126185021Y-95705021D01*
X126185021Y-95705021D02*
X143339736Y-95705021D01*
X143339736Y-95705021D02*
X145071737Y-97437022D01*
%TO.N,/Points Control/POINTS[F1]-COIL*%
X133350000Y-91440000D02*
X133350000Y-92712792D01*
X143163111Y-94397010D02*
X145403112Y-96637011D01*
X135034218Y-94397010D02*
X143163111Y-94397010D01*
X152313972Y-96637011D02*
X152613971Y-96937010D01*
X145403112Y-96637011D02*
X152313972Y-96637011D01*
X133350000Y-92712792D02*
X135034218Y-94397010D01*
%TO.N,/Points Control/POINTS[B2]-COIL*%
X145288000Y-88138000D02*
X144780000Y-88646000D01*
X161544000Y-88138000D02*
X145288000Y-88138000D01*
%TO.N,/Points Control/POINTS[B3]-COIL*%
X167640000Y-95250000D02*
X165100000Y-97790000D01*
X165100000Y-97790000D02*
X162454980Y-97790000D01*
X164549010Y-65830022D02*
X172947825Y-65830022D01*
X172947825Y-65830022D02*
X172987728Y-65869925D01*
%TO.N,/Points Control/POINTS[B5]-COIL*%
X68337011Y-87872989D02*
X83866546Y-87872989D01*
X64770000Y-91440000D02*
X68337011Y-87872989D01*
X83866546Y-87872989D02*
X84166545Y-87572990D01*
%TO.N,/Points Control/POINTS[F5]-COIL*%
X76499991Y-86022977D02*
X84869435Y-86022977D01*
X85345900Y-86499443D02*
X85769276Y-86499443D01*
X84869435Y-86022977D02*
X85345900Y-86499443D01*
X76200000Y-86322968D02*
X76499991Y-86022977D01*
%TO.N,/Points Control/POINTS[B6]-COIL*%
X76200000Y-95250000D02*
X78700011Y-97750011D01*
X78700011Y-97750011D02*
X91911990Y-97750011D01*
%TO.N,/Points Control/POINTS[F6]-COIL*%
X87630000Y-91440000D02*
X89408000Y-93218000D01*
X89408000Y-93218000D02*
X95248012Y-93218000D01*
%TO.N,/Points Control/POINTS[B7]-COIL*%
X101060624Y-98382010D02*
X102616000Y-98382010D01*
X89030001Y-96650001D02*
X99328615Y-96650001D01*
X99328615Y-96650001D02*
X101060624Y-98382010D01*
X87630000Y-95250000D02*
X89030001Y-96650001D01*
%TO.N,/Points Control/POINTS[F7]-COIL*%
X105918000Y-88392000D02*
X99060000Y-88392000D01*
%TO.N,/Points Control/POINTS[B8]-COIL*%
X99060000Y-95250000D02*
X100675999Y-96865999D01*
X105284464Y-96865999D02*
X106591192Y-95559271D01*
X100675999Y-96865999D02*
X105284464Y-96865999D01*
D35*
%TO.N,TRACK+*%
X107950000Y-57150000D02*
X115570000Y-57150000D01*
X115570000Y-57150000D02*
X120650000Y-57150000D01*
X120650000Y-57150000D02*
X128270000Y-57150000D01*
X128270000Y-57150000D02*
X133350000Y-57150000D01*
X133350000Y-57150000D02*
X140970000Y-57150000D01*
X140970000Y-57150000D02*
X146050000Y-57150000D01*
X96850001Y-55549999D02*
X103638001Y-55549999D01*
X105238002Y-57150000D02*
X107950000Y-57150000D01*
X103638001Y-55549999D02*
X105238002Y-57150000D01*
X95250000Y-57150000D02*
X96850001Y-55549999D01*
X153670000Y-57150000D02*
X158750000Y-57150000D01*
X168849988Y-54549988D02*
X171450000Y-57150000D01*
X163769988Y-55967781D02*
X165187781Y-54549988D01*
X158750000Y-57150000D02*
X163513698Y-57150000D01*
X163769988Y-56893710D02*
X163769988Y-55967781D01*
X163513698Y-57150000D02*
X163769988Y-56893710D01*
X165187781Y-54549988D02*
X168849988Y-54549988D01*
X146050000Y-57150000D02*
X147049999Y-56150001D01*
X152670001Y-56150001D02*
X153670000Y-57150000D01*
X147049999Y-56150001D02*
X152670001Y-56150001D01*
X171450000Y-57150000D02*
X173929988Y-54670012D01*
X173929988Y-54670012D02*
X177884217Y-54670012D01*
X181549988Y-54549988D02*
X184150000Y-57150000D01*
X178004241Y-54549988D02*
X181549988Y-54549988D01*
X177884217Y-54670012D02*
X178004241Y-54549988D01*
X69850000Y-99060000D02*
X68961000Y-98171000D01*
X94107000Y-99060000D02*
X69850000Y-99060000D01*
%TO.N,TRACK-*%
X181670012Y-59750012D02*
X189169988Y-59750012D01*
X166370000Y-57150000D02*
X166370000Y-58564213D01*
X189169988Y-59750012D02*
X191770000Y-57150000D01*
X166370000Y-58564213D02*
X167555799Y-59750012D01*
X176469988Y-59750012D02*
X179070000Y-57150000D01*
X167555799Y-59750012D02*
X176469988Y-59750012D01*
X179070000Y-57150000D02*
X181670012Y-59750012D01*
X82550000Y-57150000D02*
X90170000Y-57150000D01*
X95661995Y-59629988D02*
X100390012Y-59629988D01*
X94746239Y-58714232D02*
X95661995Y-59629988D01*
X91734232Y-58714232D02*
X94746239Y-58714232D01*
X100390012Y-59629988D02*
X102870000Y-57150000D01*
X90170000Y-57150000D02*
X91734232Y-58714232D01*
X164314201Y-60620012D02*
X166370000Y-58564213D01*
X151896856Y-60620012D02*
X164314201Y-60620012D01*
X150072446Y-58795602D02*
X151896856Y-60620012D01*
X102870000Y-57150000D02*
X104515602Y-58795602D01*
X104515602Y-58795602D02*
X150072446Y-58795602D01*
X82550000Y-57150000D02*
X79756000Y-59944000D01*
X79756000Y-59944000D02*
X62611000Y-59944000D01*
D36*
%TO.N,ICSPCLK*%
X176308001Y-139032999D02*
X179356001Y-139032999D01*
X175133000Y-140208000D02*
X176308001Y-139032999D01*
X179356001Y-139032999D02*
X181229000Y-137160000D01*
X181229000Y-137160000D02*
X192405000Y-137160000D01*
%TO.N,ICSPDAT*%
X187071000Y-115189000D02*
X189230000Y-113030000D01*
X177673000Y-115189000D02*
X187071000Y-115189000D01*
%TO.N,MCLR*%
X193548000Y-140208000D02*
X194310000Y-140970000D01*
X185293000Y-140208000D02*
X193548000Y-140208000D01*
%TO.N,/PB6*%
X236075010Y-127652990D02*
X237490000Y-126238000D01*
X228884154Y-130529150D02*
X229009163Y-130654159D01*
X236075010Y-129135994D02*
X236075010Y-127652990D01*
X176538710Y-130529150D02*
X228884154Y-130529150D01*
X229009163Y-130654159D02*
X234556845Y-130654159D01*
X175813720Y-129804160D02*
X176538710Y-130529150D01*
X234556845Y-130654159D02*
X236075010Y-129135994D01*
%TO.N,/PB7*%
X231340869Y-131586987D02*
X232036873Y-131586987D01*
X177015801Y-132344160D02*
X177222984Y-132136977D01*
X232036873Y-131586987D02*
X232384291Y-131934405D01*
X235275595Y-131934405D02*
X237490000Y-129720000D01*
X177222984Y-132136977D02*
X230790879Y-132136977D01*
X230790879Y-132136977D02*
X231340869Y-131586987D01*
X175813720Y-132344160D02*
X177015801Y-132344160D01*
X237490000Y-129720000D02*
X237490000Y-128270000D01*
X232384291Y-131934405D02*
X235275595Y-131934405D01*
%TO.N,/PB8*%
X174448721Y-128629159D02*
X177397159Y-128629159D01*
X173273720Y-129804160D02*
X174448721Y-128629159D01*
X178563001Y-129795001D02*
X233424999Y-129795001D01*
X177397159Y-128629159D02*
X178563001Y-129795001D01*
X233424999Y-129795001D02*
X234950000Y-128270000D01*
%TO.N,/PB9*%
X216526005Y-132586988D02*
X231413872Y-132586988D01*
X173273720Y-132344160D02*
X174448721Y-133519161D01*
X216075994Y-133036999D02*
X216526005Y-132586988D01*
X176859883Y-133036999D02*
X216075994Y-133036999D01*
X231413872Y-132586988D02*
X231688871Y-132311989D01*
X174448721Y-133519161D02*
X176377721Y-133519161D01*
X176377721Y-133519161D02*
X176859883Y-133036999D01*
%TO.N,/PB10*%
X228261161Y-130979161D02*
X228600000Y-131318000D01*
X170733720Y-129804160D02*
X171908721Y-130979161D01*
X171908721Y-130979161D02*
X228261161Y-130979161D01*
%TO.N,/PB5*%
X233231001Y-133036999D02*
X233426000Y-132842000D01*
X216907999Y-133036999D02*
X233231001Y-133036999D01*
X215975826Y-133969172D02*
X216907999Y-133036999D01*
X169818732Y-133969172D02*
X215975826Y-133969172D01*
X168193720Y-132344160D02*
X169818732Y-133969172D01*
%TO.N,/PB4*%
X165653720Y-129804160D02*
X167927836Y-127530044D01*
X167927836Y-127530044D02*
X179808546Y-127530044D01*
X179808546Y-127530044D02*
X181043601Y-126294988D01*
X221373327Y-126294988D02*
X221684315Y-125984000D01*
X221684315Y-125984000D02*
X222250000Y-125984000D01*
X181043601Y-126294988D02*
X221373327Y-126294988D01*
%TO.N,/PB3*%
X179622146Y-127080033D02*
X180857201Y-125844977D01*
X165653720Y-132344160D02*
X164478719Y-131169159D01*
X166638845Y-127080033D02*
X179622146Y-127080033D01*
X180857201Y-125844977D02*
X219087023Y-125844977D01*
X219087023Y-125844977D02*
X219710000Y-125222000D01*
X164478719Y-129240159D02*
X166638845Y-127080033D01*
X164478719Y-131169159D02*
X164478719Y-129240159D01*
%TO.N,/PB2*%
X168029913Y-124887967D02*
X190170200Y-124887967D01*
X163113720Y-129804160D02*
X168029913Y-124887967D01*
X190551200Y-125268967D02*
X216361033Y-125268967D01*
X216361033Y-125268967D02*
X217170000Y-124460000D01*
X190170200Y-124887967D02*
X190551200Y-125268967D01*
%TO.N,/PB1*%
X163113720Y-132344160D02*
X162013720Y-132344160D01*
X167009868Y-124169010D02*
X214630000Y-124169010D01*
X161938719Y-129240159D02*
X167009868Y-124169010D01*
X161938719Y-132269159D02*
X161938719Y-129240159D01*
X162013720Y-132344160D02*
X161938719Y-132269159D01*
%TO.N,/Points Control/DATA[OUT]*%
X91440000Y-138430000D02*
X103378000Y-138430000D01*
X113631978Y-134874000D02*
X113792000Y-134713978D01*
X106934000Y-134874000D02*
X113631978Y-134874000D01*
X103378000Y-138430000D02*
X106934000Y-134874000D01*
%TO.N,DCLK*%
X125730000Y-113030000D02*
X125730000Y-111580000D01*
X125805010Y-111504990D02*
X142495010Y-111504990D01*
X125730000Y-111580000D02*
X125805010Y-111504990D01*
X148366893Y-110490000D02*
X148626926Y-110229967D01*
X142495010Y-111504990D02*
X143510000Y-110490000D01*
X143510000Y-110490000D02*
X148366893Y-110490000D01*
X113030000Y-140462000D02*
X95758000Y-140462000D01*
X93726000Y-142494000D02*
X75438000Y-142494000D01*
X95758000Y-140462000D02*
X93726000Y-142494000D01*
X89154000Y-133350000D02*
X88900000Y-133604000D01*
X91440000Y-133350000D02*
X89154000Y-133350000D01*
X227330000Y-136144000D02*
X180086000Y-136144000D01*
X178049340Y-138180660D02*
X153157340Y-138180660D01*
X180086000Y-136144000D02*
X178049340Y-138180660D01*
%TO.N,DLAT*%
X125165021Y-111054979D02*
X142308611Y-111054979D01*
X143598600Y-109764990D02*
X146050000Y-109764990D01*
X123190000Y-113030000D02*
X125165021Y-111054979D01*
X142308611Y-111054979D02*
X143598600Y-109764990D01*
X103853999Y-130446999D02*
X101603997Y-132697001D01*
X101603997Y-132697001D02*
X94898683Y-132697001D01*
X122938540Y-132321300D02*
X121763539Y-131146299D01*
X93726000Y-140970000D02*
X93980000Y-140716000D01*
X77216000Y-140970000D02*
X93726000Y-140970000D01*
X150622000Y-136906000D02*
X151130000Y-137414000D01*
X151130000Y-137414000D02*
X177546000Y-137414000D01*
X224591993Y-135637009D02*
X226117002Y-134112000D01*
X177546000Y-137414000D02*
X179322989Y-135637011D01*
X179322989Y-135637011D02*
X224591993Y-135637009D01*
X226117002Y-134112000D02*
X229870000Y-134112000D01*
X117484537Y-131146299D02*
X121763539Y-131146299D01*
X116785237Y-130446999D02*
X117484537Y-131146299D01*
X103853999Y-130446999D02*
X116785237Y-130446999D01*
X93011682Y-130810000D02*
X91440000Y-130810000D01*
X94898683Y-132697001D02*
X93011682Y-130810000D01*
%TO.N,/AUX1-LED*%
X130558540Y-132321300D02*
X160007300Y-132321300D01*
X160007300Y-132321300D02*
X160020000Y-132334000D01*
X217678000Y-122682000D02*
X227330000Y-113030000D01*
X160020000Y-122682000D02*
X217678000Y-122682000D01*
%TO.N,/AUX2-LED*%
X160635699Y-130956301D02*
X160782000Y-130810000D01*
X128018540Y-129781300D02*
X129193541Y-130956301D01*
X129193541Y-130956301D02*
X160635699Y-130956301D01*
X215900000Y-121920000D02*
X224790000Y-113030000D01*
X160782000Y-121920000D02*
X215900000Y-121920000D01*
D35*
%TO.N,/Feed Relays/FEED[D-]*%
X106172000Y-43688000D02*
X106172000Y-46482000D01*
X106172000Y-46482000D02*
X107442000Y-47752000D01*
X176118916Y-49324720D02*
X175720647Y-49722989D01*
X174244000Y-43688000D02*
X176118916Y-45562916D01*
X170945602Y-47488004D02*
X170097074Y-47488004D01*
X176118916Y-45562916D02*
X176118916Y-49324720D01*
X173180587Y-49722989D02*
X170945602Y-47488004D01*
X175720647Y-49722989D02*
X173180587Y-49722989D01*
X163376001Y-79538989D02*
X107133999Y-79538989D01*
X163666990Y-79248000D02*
X163376001Y-79538989D01*
X107133999Y-79538989D02*
X106934000Y-79338990D01*
%TO.N,/Feed Relays/FEED[D+]*%
X102108000Y-43688000D02*
X102108000Y-46980002D01*
X102108000Y-46980002D02*
X102616000Y-47488002D01*
X159566009Y-78138988D02*
X159766000Y-78338979D01*
X104394000Y-78740000D02*
X104995012Y-78138988D01*
X104995012Y-78138988D02*
X159566009Y-78138988D01*
%TO.N,/Feed Relays/FEED[C-]*%
X132099974Y-50952024D02*
X132581999Y-50469999D01*
X177469999Y-53670001D02*
X179070000Y-52070000D01*
X132581999Y-50469999D02*
X167481997Y-50469999D01*
X167481997Y-50469999D02*
X170681999Y-53670001D01*
X170681999Y-53670001D02*
X177469999Y-53670001D01*
X129038001Y-50469999D02*
X129520026Y-50952024D01*
X101025999Y-50469999D02*
X129038001Y-50469999D01*
X129520026Y-50952024D02*
X132099974Y-50952024D01*
X98044000Y-46472002D02*
X99060000Y-47488002D01*
X98044000Y-43688000D02*
X98044000Y-46472002D01*
X100848000Y-50292000D02*
X101025999Y-50469999D01*
X99314000Y-50292000D02*
X100848000Y-50292000D01*
X170180000Y-43688000D02*
X170180000Y-45188000D01*
X173514979Y-48522979D02*
X174918906Y-48522979D01*
X170180000Y-45188000D02*
X173514979Y-48522979D01*
%TO.N,/Feed Relays/FEED[C+]*%
X93980000Y-43688000D02*
X93980000Y-47498000D01*
X166116000Y-43688000D02*
X166116000Y-45706061D01*
X166116000Y-45706061D02*
X169779928Y-49369989D01*
X169779928Y-49369989D02*
X170628456Y-49369989D01*
X94918977Y-77138977D02*
X169086977Y-77138977D01*
X169086977Y-77138977D02*
X169418000Y-77470000D01*
X93980000Y-76200000D02*
X94918977Y-77138977D01*
%TO.N,/Feed Relays/FEED[A-]*%
X89916000Y-43688000D02*
X89916000Y-47498000D01*
X89916000Y-47498000D02*
X90282002Y-47864002D01*
X90282002Y-47864002D02*
X90300861Y-47864002D01*
X90289188Y-64631308D02*
X90889187Y-64031309D01*
X90889187Y-64031309D02*
X124184689Y-64031309D01*
X127501999Y-63830001D02*
X184918001Y-63830001D01*
X186474086Y-62273916D02*
X189311869Y-62273916D01*
X124184689Y-64031309D02*
X124899999Y-63315999D01*
X124899999Y-63315999D02*
X126987997Y-63315999D01*
X184918001Y-63830001D02*
X186474086Y-62273916D01*
X126987997Y-63315999D02*
X127501999Y-63830001D01*
%TO.N,/Feed Relays/FEED[A+]*%
X153924000Y-43688000D02*
X153162000Y-43688000D01*
X153162000Y-43688000D02*
X151384000Y-45466000D01*
X85852000Y-43688000D02*
X85852000Y-47498000D01*
X170681999Y-58750001D02*
X167481997Y-55549999D01*
X164769999Y-57480001D02*
X162976001Y-59273999D01*
X185750001Y-57918001D02*
X184918001Y-58750001D01*
X164769999Y-56381999D02*
X164769999Y-57480001D01*
X184918001Y-58750001D02*
X183381999Y-58750001D01*
X184150000Y-52070000D02*
X185750001Y-53670001D01*
X175101997Y-58750001D02*
X170681999Y-58750001D01*
X180181997Y-55549999D02*
X178418459Y-55549999D01*
X178418459Y-55549999D02*
X178298435Y-55670023D01*
X85183989Y-60629999D02*
X148903321Y-60629999D01*
X178298435Y-55670023D02*
X178181975Y-55670023D01*
X162976001Y-59273999D02*
X152809816Y-59273999D01*
X148903321Y-60629999D02*
X149536010Y-59997310D01*
X183381999Y-58750001D02*
X180181997Y-55549999D01*
X151134413Y-57598596D02*
X150285885Y-57598596D01*
X152809816Y-59273999D02*
X151134413Y-57598596D01*
X185750001Y-53670001D02*
X185750001Y-57918001D01*
X167481997Y-55549999D02*
X165601999Y-55549999D01*
X165601999Y-55549999D02*
X164769999Y-56381999D01*
X84497990Y-59944000D02*
X85183989Y-60629999D01*
X178181975Y-55670023D02*
X175101997Y-58750001D01*
%TO.N,/Feed Relays/FEED[E+]*%
X121869988Y-49469988D02*
X129452219Y-49469988D01*
X132167781Y-49469988D02*
X145001469Y-49469988D01*
X129452219Y-49469988D02*
X129934244Y-49952013D01*
X129934244Y-49952013D02*
X131685756Y-49952013D01*
X119888000Y-43688000D02*
X119888000Y-47488000D01*
X119888000Y-47488000D02*
X121869988Y-49469988D01*
X131685756Y-49952013D02*
X132167781Y-49469988D01*
X145201472Y-49269985D02*
X146050000Y-49269985D01*
X145001469Y-49469988D02*
X145201472Y-49269985D01*
X146050000Y-52070000D02*
X153670000Y-52070000D01*
%TO.N,/Feed Relays/FEED[F+]*%
X123952000Y-47488000D02*
X124933977Y-48469977D01*
X130954149Y-48952002D02*
X131636173Y-48269978D01*
X129866437Y-48469977D02*
X130348462Y-48952002D01*
X131636173Y-48269978D02*
X132484701Y-48269978D01*
X130348462Y-48952002D02*
X130954149Y-48952002D01*
X124933977Y-48469977D02*
X129866437Y-48469977D01*
X123952000Y-43688000D02*
X123952000Y-47488000D01*
X133350000Y-52070000D02*
X140970000Y-52070000D01*
%TO.N,/Feed Relays/FEED[G+]*%
X130298330Y-47487641D02*
X130555652Y-47487641D01*
X128016000Y-45205311D02*
X130298330Y-47487641D01*
X128016000Y-43688000D02*
X128016000Y-45205311D01*
X128270000Y-52070000D02*
X120650000Y-52070000D01*
%TO.N,/Feed Relays/FEED[H+]*%
X132080000Y-46168205D02*
X133888521Y-47976726D01*
X132080000Y-43688000D02*
X132080000Y-46168205D01*
X115570000Y-52070000D02*
X107950000Y-52070000D01*
X114046000Y-65278000D02*
X114675438Y-65907438D01*
X114675438Y-65907438D02*
X134826979Y-65907438D01*
D38*
%TO.N,/Feed Relays/AUX[1]*%
X77470000Y-52070000D02*
X69850000Y-52070000D01*
X187960000Y-43688000D02*
X187960000Y-47488002D01*
X187802730Y-67086270D02*
X135726990Y-67086270D01*
X75855010Y-64008000D02*
X78933280Y-67086270D01*
X136144000Y-47338866D02*
X135726990Y-47755876D01*
X136144000Y-43688000D02*
X136144000Y-47338866D01*
X187960000Y-66929000D02*
X187802730Y-67086270D01*
X78933280Y-67086270D02*
X135726990Y-67086270D01*
%TO.N,/Feed Relays/AUX[2]*%
X57150000Y-52070000D02*
X64770000Y-52070000D01*
X138430000Y-45466000D02*
X140208000Y-43688000D01*
X138430000Y-48006000D02*
X138430000Y-45466000D01*
X140208000Y-45114002D02*
X140208000Y-43688000D01*
X155320349Y-47238001D02*
X142331999Y-47238001D01*
X167875504Y-49519988D02*
X157602336Y-49519988D01*
X172194001Y-50519999D02*
X168875515Y-50519999D01*
X172347002Y-50673000D02*
X172194001Y-50519999D01*
X177321197Y-50673000D02*
X172347002Y-50673000D01*
X186007995Y-47238001D02*
X180756196Y-47238001D01*
X190773996Y-48638004D02*
X187407998Y-48638004D01*
X192024000Y-47388000D02*
X190773996Y-48638004D01*
X192024000Y-43688000D02*
X192024000Y-47388000D01*
X180756196Y-47238001D02*
X177321197Y-50673000D01*
X168875515Y-50519999D02*
X167875504Y-49519988D01*
X142331999Y-47238001D02*
X140208000Y-45114002D01*
X187407998Y-48638004D02*
X186007995Y-47238001D01*
X157602336Y-49519988D02*
X155320349Y-47238001D01*
X68163999Y-84998001D02*
X85046556Y-84998001D01*
X86321278Y-85349441D02*
X86732847Y-85761010D01*
X85397996Y-85349441D02*
X86321278Y-85349441D01*
X86732847Y-85761010D02*
X137831010Y-85761010D01*
X67564000Y-85598000D02*
X68163999Y-84998001D01*
X85046556Y-84998001D02*
X85397996Y-85349441D01*
D36*
%TO.N,/HALL[G]*%
X143637000Y-86868000D02*
X173482000Y-86868000D01*
X173482000Y-86868000D02*
X173863000Y-87249000D01*
X190244999Y-126744999D02*
X191770000Y-128270000D01*
X179324000Y-128651000D02*
X181230001Y-126744999D01*
X181230001Y-126744999D02*
X190244999Y-126744999D01*
%TO.N,/HALL[F]*%
X142494000Y-105918000D02*
X142893999Y-105518001D01*
X191243001Y-105518001D02*
X191897000Y-106172000D01*
X142893999Y-105518001D02*
X191243001Y-105518001D01*
%TO.N,/HALL[E]*%
X194963999Y-104883001D02*
X195453000Y-104394000D01*
X138321999Y-104883001D02*
X194963999Y-104883001D01*
X137922000Y-105283000D02*
X138321999Y-104883001D01*
D35*
%TO.N,/Feed Relays/FEED[B+]*%
X103172232Y-53670001D02*
X104385944Y-54883713D01*
X156080994Y-54883713D02*
X156680993Y-55483712D01*
X95250000Y-52070000D02*
X96850001Y-53670001D01*
X96850001Y-53670001D02*
X103172232Y-53670001D01*
X104385944Y-54883713D02*
X156080994Y-54883713D01*
X158239482Y-48369978D02*
X159088010Y-48369978D01*
X157988000Y-43688000D02*
X157988000Y-48118496D01*
X157988000Y-48118496D02*
X158239482Y-48369978D01*
%TO.N,/Feed Relays/FEED[B-]*%
X163136185Y-47498000D02*
X163152010Y-47513825D01*
X162052000Y-47498000D02*
X163136185Y-47498000D01*
X162052000Y-43688000D02*
X162052000Y-47498000D01*
X105581998Y-52070000D02*
X107181999Y-53670001D01*
X107181999Y-53670001D02*
X160770733Y-53670001D01*
X160770733Y-53670001D02*
X162646595Y-55545863D01*
X102870000Y-52070000D02*
X105581998Y-52070000D01*
%TO.N,/Feed Relays/FEED[I-]*%
X82550000Y-52070000D02*
X90170000Y-52070000D01*
X178308000Y-43688000D02*
X178308000Y-48059836D01*
X178308000Y-48059836D02*
X177318918Y-49048918D01*
X87663729Y-83910990D02*
X86972740Y-83220001D01*
X176816677Y-83910990D02*
X87663729Y-83910990D01*
X86972740Y-83220001D02*
X80349988Y-83220001D01*
X80349988Y-83220001D02*
X79749989Y-83820000D01*
D36*
%TO.N,Net-(K1-Pad8)*%
X189103000Y-80989010D02*
X136378555Y-80989010D01*
X136378555Y-80989010D02*
X135926990Y-81440575D01*
%TO.N,Net-(K3-Pad8)*%
X138993001Y-71175001D02*
X139192000Y-71374000D01*
X104195001Y-71175001D02*
X138993001Y-71175001D01*
X102870000Y-69850000D02*
X104195001Y-71175001D01*
%TO.N,Net-(K4-Pad8)*%
X90170000Y-69850000D02*
X92124977Y-71804977D01*
X92124977Y-71804977D02*
X112337669Y-71804977D01*
X112337669Y-71804977D02*
X112545595Y-72012903D01*
%TO.N,Net-(K5-Pad8)*%
X176784000Y-86106000D02*
X139736990Y-86106000D01*
X139736990Y-86106000D02*
X139482990Y-86360000D01*
%TO.N,Net-(K6-Pad8)*%
X77470000Y-69850000D02*
X79874989Y-72254989D01*
X111715569Y-72254989D02*
X112198610Y-72738030D01*
X120254558Y-72738030D02*
X120863664Y-72128924D01*
X79874989Y-72254989D02*
X111715569Y-72254989D01*
X120863664Y-72128924D02*
X123296169Y-72128924D01*
X112198610Y-72738030D02*
X120254558Y-72738030D01*
%TO.N,Net-(K7-Pad8)*%
X163830000Y-102108000D02*
X154519392Y-102108000D01*
X154519392Y-102108000D02*
X153810414Y-102816978D01*
X145996978Y-102816978D02*
X143510000Y-100330000D01*
X153810414Y-102816978D02*
X145996978Y-102816978D01*
%TO.N,Net-(K8-Pad8)*%
X146338784Y-102068784D02*
X151539495Y-102068784D01*
X146050000Y-100330000D02*
X146050000Y-101780000D01*
X146050000Y-101780000D02*
X146338784Y-102068784D01*
%TO.N,Net-(K9-Pad8)*%
X120923999Y-72704999D02*
X122799242Y-72704999D01*
X122799242Y-72704999D02*
X123017289Y-72923046D01*
X64770000Y-69850000D02*
X67624999Y-72704999D01*
X67624999Y-72704999D02*
X111529169Y-72705000D01*
X111529169Y-72705000D02*
X112012210Y-73188041D01*
X125721944Y-72923046D02*
X126744979Y-71900011D01*
X123017289Y-72923046D02*
X125721944Y-72923046D01*
X112012210Y-73188041D02*
X120440957Y-73188041D01*
X120440957Y-73188041D02*
X120923999Y-72704999D01*
%TO.N,Net-(K10-Pad8)*%
X146772044Y-98512044D02*
X142417054Y-98512044D01*
X142417054Y-98512044D02*
X141695010Y-97790000D01*
X148590000Y-100330000D02*
X146772044Y-98512044D01*
%TO.N,Net-(K11-Pad8)*%
X148479051Y-98662023D02*
X149462023Y-98662023D01*
X147879061Y-98062033D02*
X148479051Y-98662023D01*
X128270000Y-96774000D02*
X143524816Y-96774000D01*
X143524816Y-96774000D02*
X144812849Y-98062033D01*
X149462023Y-98662023D02*
X151130000Y-100330000D01*
X144812849Y-98062033D02*
X147879061Y-98062033D01*
%TO.N,/Points Control/PB1*%
X94960998Y-94996000D02*
X92301002Y-94996000D01*
X92301002Y-94996000D02*
X91158002Y-93853000D01*
X110236000Y-94996000D02*
X109264999Y-94024999D01*
X91158002Y-93853000D02*
X72517000Y-93853000D01*
X109264999Y-94024999D02*
X95931999Y-94024999D01*
X95931999Y-94024999D02*
X94960998Y-94996000D01*
%TO.N,/Points Control/PF1*%
X110109000Y-123190000D02*
X110236000Y-123317000D01*
X91440000Y-123190000D02*
X110109000Y-123190000D01*
%TO.N,/Points Control/PB2*%
X81723599Y-119524990D02*
X82173598Y-119074991D01*
X157988000Y-117983000D02*
X158039661Y-117931339D01*
X87817578Y-119074991D02*
X88267577Y-119524990D01*
X67165010Y-119524990D02*
X81723599Y-119524990D01*
X157588001Y-117583001D02*
X157988000Y-117983000D01*
X88267577Y-119524990D02*
X96158401Y-119524990D01*
X96158401Y-119524990D02*
X98248390Y-121614979D01*
X155733587Y-117983000D02*
X156133586Y-117583001D01*
X131275994Y-122175010D02*
X135468004Y-117983000D01*
X111970008Y-122175010D02*
X131275994Y-122175010D01*
X82173598Y-119074991D02*
X87817578Y-119074991D01*
X98248390Y-121614979D02*
X111409977Y-121614979D01*
X156133586Y-117583001D02*
X157588001Y-117583001D01*
X66040000Y-120650000D02*
X67165010Y-119524990D01*
X111409977Y-121614979D02*
X111970008Y-122175010D01*
X135468004Y-117983000D02*
X155733587Y-117983000D01*
%TO.N,/Points Control/PF2*%
X83820000Y-104267000D02*
X191389000Y-104267000D01*
X191389000Y-104267000D02*
X192786000Y-102870000D01*
%TO.N,/Points Control/PB3*%
X67165010Y-122064990D02*
X110888990Y-122064990D01*
X66040000Y-123190000D02*
X67165010Y-122064990D01*
X150004990Y-119784006D02*
X150789996Y-118999000D01*
X111449021Y-122625021D02*
X148605983Y-122625021D01*
X110888990Y-122064990D02*
X111449021Y-122625021D01*
X148605983Y-122625021D02*
X150004990Y-121226014D01*
X150004990Y-121226014D02*
X150004990Y-119784006D01*
X157843001Y-118759999D02*
X194803001Y-118759999D01*
X157258001Y-118174999D02*
X157843001Y-118759999D01*
X194803001Y-118759999D02*
X195580000Y-117983000D01*
X156177999Y-118174999D02*
X157258001Y-118174999D01*
X150789996Y-118999000D02*
X155353998Y-118999000D01*
X155353998Y-118999000D02*
X156177999Y-118174999D01*
%TO.N,/Points Control/PF3*%
X185278998Y-84836000D02*
X87108737Y-84836000D01*
X188976000Y-83312000D02*
X187850999Y-84437001D01*
X187850999Y-84437001D02*
X185677997Y-84437001D01*
X185677997Y-84437001D02*
X185278998Y-84836000D01*
X87108737Y-84836000D02*
X86803875Y-84531138D01*
%TO.N,/Points Control/PB4*%
X66040000Y-125730000D02*
X67310000Y-124460000D01*
X67310000Y-124460000D02*
X89154000Y-124460000D01*
X93054010Y-82169000D02*
X92837000Y-82386010D01*
X193675000Y-82169000D02*
X93054010Y-82169000D01*
X195580000Y-80264000D02*
X193675000Y-82169000D01*
%TO.N,/Points Control/PF4*%
X83058000Y-80899000D02*
X83693000Y-80264000D01*
X83693000Y-80264000D02*
X192786000Y-80264000D01*
%TO.N,/Points Control/PB5*%
X53340000Y-62484000D02*
X58039000Y-67183000D01*
X58039000Y-67183000D02*
X77343000Y-67183000D01*
X67165010Y-129395010D02*
X66040000Y-128270000D01*
X74525994Y-129395010D02*
X67165010Y-129395010D01*
X76286004Y-127635000D02*
X74525994Y-129395010D01*
X79375000Y-127635000D02*
X76286004Y-127635000D01*
%TO.N,/Points Control/PF5*%
X83820000Y-128270000D02*
X84255021Y-127834979D01*
X90699997Y-127018999D02*
X105772001Y-127018999D01*
X84255021Y-127834979D02*
X89884017Y-127834979D01*
X105772001Y-127018999D02*
X106172000Y-126619000D01*
X89884017Y-127834979D02*
X90699997Y-127018999D01*
%TO.N,/Points Control/PB6*%
X76581000Y-129880004D02*
X76581000Y-128651000D01*
X74525994Y-131935010D02*
X76581000Y-129880004D01*
X67165010Y-131935010D02*
X74525994Y-131935010D01*
X66040000Y-130810000D02*
X67165010Y-131935010D01*
%TO.N,/Points Control/PF6*%
X94360644Y-133989660D02*
X98175660Y-133989660D01*
X83820000Y-130810000D02*
X84945010Y-131935010D01*
X92305994Y-131935010D02*
X94360644Y-133989660D01*
X84945010Y-131935010D02*
X92305994Y-131935010D01*
%TO.N,/Points Control/PB7*%
X68615010Y-134475010D02*
X74525994Y-134475010D01*
X66040000Y-133350000D02*
X67490000Y-133350000D01*
X78486000Y-130515004D02*
X78486000Y-129794000D01*
X74525994Y-134475010D02*
X78486000Y-130515004D01*
X67490000Y-133350000D02*
X68615010Y-134475010D01*
%TO.N,/Points Control/PF7*%
X59944000Y-79629000D02*
X82296000Y-79629000D01*
%TO.N,/Points Control/PB8*%
X65786000Y-135890000D02*
X66040000Y-135890000D01*
X62992000Y-133096000D02*
X65786000Y-135890000D01*
%TO.N,/Points Control/PF8*%
X96375010Y-134764990D02*
X96393000Y-134747000D01*
X83820000Y-135890000D02*
X84945010Y-134764990D01*
X84945010Y-134764990D02*
X96375010Y-134764990D01*
%TO.N,Net-(U2-Pad9)*%
X92202000Y-141732000D02*
X73623010Y-141732000D01*
X73623010Y-141732000D02*
X73509845Y-141845165D01*
%TO.N,/Points Control/DATA[IN]*%
X128540232Y-124505382D02*
X128940231Y-124905381D01*
X73660000Y-125730000D02*
X73660000Y-126780000D01*
X90673614Y-124505382D02*
X128540232Y-124505382D01*
X73660000Y-126780000D02*
X73735010Y-126855010D01*
X73735010Y-126855010D02*
X88323986Y-126855010D01*
X88323986Y-126855010D02*
X90673614Y-124505382D01*
%TO.N,Net-(U4-Pad7)*%
X151130000Y-122100000D02*
X149879969Y-123350031D01*
X151130000Y-120650000D02*
X151130000Y-122100000D01*
X149879969Y-123350031D02*
X112340586Y-123350031D01*
%TO.N,/Feed Relays/DATA[IN]*%
X167132000Y-134620000D02*
X140462000Y-134620000D01*
X167699001Y-135187001D02*
X167132000Y-134620000D01*
X224790000Y-134366000D02*
X223968999Y-135187001D01*
X223968999Y-135187001D02*
X167699001Y-135187001D01*
%TO.N,Net-(U4-Pad9)*%
X151384000Y-115316000D02*
X153670000Y-113030000D01*
X118110000Y-115316000D02*
X151384000Y-115316000D01*
%TO.N,/Points Control/CHARGE-PUMP*%
X232283000Y-107696000D02*
X229362000Y-107696000D01*
%TO.N,Net-(C7-Pad1)*%
X207916999Y-76563001D02*
X203835000Y-80645000D01*
X216171999Y-76563001D02*
X207916999Y-76563001D01*
X217170000Y-75565000D02*
X216171999Y-76563001D01*
D37*
%TO.N,/Points Control/POINTS[COM]*%
X182372000Y-43688000D02*
X185039000Y-43688000D01*
X200191988Y-64730012D02*
X201930000Y-62992000D01*
X126915191Y-64516000D02*
X127129203Y-64730012D01*
X125603000Y-64516000D02*
X126915191Y-64516000D01*
X127129203Y-64730012D02*
X200191988Y-64730012D01*
X210439000Y-82677000D02*
X212471000Y-80645000D01*
X201930000Y-82677000D02*
X210439000Y-82677000D01*
D36*
%TO.N,Net-(C6-Pad2)*%
X209659001Y-74190001D02*
X208407000Y-72938000D01*
X217710001Y-74190001D02*
X209659001Y-74190001D01*
X219960003Y-71939999D02*
X217710001Y-74190001D01*
X233229999Y-71939999D02*
X219960003Y-71939999D01*
X233680000Y-72390000D02*
X233229999Y-71939999D01*
X208407000Y-72938000D02*
X199517000Y-72938000D01*
%TO.N,Net-(D5-Pad1)*%
X209042000Y-106172000D02*
X206248000Y-106172000D01*
X217678000Y-97536000D02*
X209042000Y-106172000D01*
%TO.N,Net-(D6-Pad1)*%
X201377001Y-104946999D02*
X207346001Y-104946999D01*
X207346001Y-104946999D02*
X214757000Y-97536000D01*
X200152000Y-106172000D02*
X201377001Y-104946999D01*
%TO.N,Net-(D7-Pad1)*%
X197766998Y-106172000D02*
X194056000Y-106172000D01*
X206402998Y-97536000D02*
X197766998Y-106172000D01*
X211836000Y-97536000D02*
X206402998Y-97536000D01*
%TO.N,Net-(Q1-Pad1)*%
X120396000Y-94996000D02*
X118618000Y-96774000D01*
X118618000Y-96774000D02*
X108966000Y-96774000D01*
%TO.N,Net-(Q2-Pad1)*%
X114808000Y-141732000D02*
X115316000Y-141224000D01*
X110998000Y-141732000D02*
X114808000Y-141732000D01*
X112336038Y-103378000D02*
X112172048Y-103541990D01*
X131191000Y-103378000D02*
X112336038Y-103378000D01*
%TO.N,Net-(Q3-Pad3)*%
X228978999Y-74038999D02*
X228219000Y-73279000D01*
X238261001Y-74038999D02*
X228978999Y-74038999D01*
X238760000Y-73540000D02*
X238261001Y-74038999D01*
X238760000Y-72390000D02*
X238760000Y-73540000D01*
%TO.N,Net-(Q4-Pad1)*%
X143465001Y-92665001D02*
X153879001Y-92665001D01*
X153879001Y-92665001D02*
X157988000Y-96774000D01*
X142240000Y-91440000D02*
X143465001Y-92665001D01*
X157988000Y-96774000D02*
X160528000Y-96774000D01*
%TO.N,Net-(Q5-Pad1)*%
X177510998Y-98044000D02*
X186182000Y-98044000D01*
X155345012Y-93115012D02*
X172582010Y-93115012D01*
X172582010Y-93115012D02*
X177510998Y-98044000D01*
X153670000Y-91440000D02*
X155345012Y-93115012D01*
%TO.N,Net-(Q7-Pad1)*%
X188612999Y-99169001D02*
X189738000Y-98044000D01*
X172949001Y-99169001D02*
X188612999Y-99169001D01*
X170180000Y-96400000D02*
X172949001Y-99169001D01*
X170180000Y-95250000D02*
X170180000Y-96400000D01*
%TO.N,Net-(Q8-Pad1)*%
X186182000Y-73152000D02*
X188976000Y-73152000D01*
X185420000Y-72390000D02*
X186182000Y-73152000D01*
X165481000Y-72390000D02*
X185420000Y-72390000D01*
%TO.N,Net-(Q10-Pad1)*%
X194454999Y-92706003D02*
X190278001Y-96883001D01*
X187307001Y-96883001D02*
X186182000Y-95758000D01*
X190278001Y-96883001D02*
X187307001Y-96883001D01*
X194454999Y-91549001D02*
X194454999Y-92706003D01*
X195580000Y-90424000D02*
X194454999Y-91549001D01*
X182118000Y-95758000D02*
X181610000Y-95250000D01*
X186182000Y-95758000D02*
X182118000Y-95758000D01*
%TO.N,Net-(Q11-Pad1)*%
X188004999Y-94024999D02*
X189738000Y-95758000D01*
X177964999Y-94024999D02*
X188004999Y-94024999D01*
X176530000Y-92590000D02*
X177964999Y-94024999D01*
X176530000Y-91440000D02*
X176530000Y-92590000D01*
%TO.N,Net-(Q12-Pad1)*%
X54211001Y-93073001D02*
X57040999Y-93073001D01*
X53086000Y-91948000D02*
X54211001Y-93073001D01*
X58674000Y-91440000D02*
X62230000Y-91440000D01*
X57040999Y-93073001D02*
X58674000Y-91440000D01*
%TO.N,Net-(Q13-Pad1)*%
X98029998Y-120523000D02*
X96233999Y-118727001D01*
X104267000Y-120523000D02*
X98029998Y-120523000D01*
X96233999Y-118727001D02*
X88105999Y-118727001D01*
X88105999Y-118727001D02*
X88003978Y-118624980D01*
X88003978Y-118624980D02*
X81987198Y-118624980D01*
X81987198Y-118624980D02*
X81812198Y-118799980D01*
X81812198Y-118799980D02*
X73405912Y-118799980D01*
%TO.N,Net-(Q14-Pad1)*%
X65532000Y-116840000D02*
X66802000Y-115570000D01*
X66802000Y-115570000D02*
X78359000Y-115570000D01*
%TO.N,Net-(Q15-Pad1)*%
X97790000Y-131572000D02*
X101092000Y-131572000D01*
X95902990Y-129684990D02*
X97790000Y-131572000D01*
X86850010Y-129684990D02*
X95902990Y-129684990D01*
X85979000Y-130556000D02*
X86850010Y-129684990D01*
%TO.N,Net-(Q16-Pad1)*%
X77945999Y-116476999D02*
X87520999Y-116476999D01*
X87520999Y-116476999D02*
X88646000Y-117602000D01*
X66202021Y-118074979D02*
X76348019Y-118074979D01*
X76348019Y-118074979D02*
X77945999Y-116476999D01*
X65532000Y-118745000D02*
X66202021Y-118074979D01*
%TO.N,Net-(Q17-Pad1)*%
X83722543Y-86647988D02*
X84610547Y-86647988D01*
X85091547Y-87295976D02*
X85539000Y-87743429D01*
X85539000Y-87743429D02*
X95490429Y-87743429D01*
X56388000Y-91948000D02*
X61088022Y-87247978D01*
X85091547Y-87128988D02*
X85091547Y-87295976D01*
X84610547Y-86647988D02*
X85091547Y-87128988D01*
X83122553Y-87247978D02*
X83722543Y-86647988D01*
X61088022Y-87247978D02*
X83122553Y-87247978D01*
X95490429Y-87743429D02*
X96520000Y-88773000D01*
%TO.N,Net-(Q18-Pad1)*%
X60452000Y-133096000D02*
X62992000Y-130556000D01*
X52832000Y-133096000D02*
X60452000Y-133096000D01*
X64117001Y-131681001D02*
X62992000Y-130556000D01*
X64117001Y-133418005D02*
X64117001Y-131681001D01*
X66616014Y-134475010D02*
X65174006Y-134475010D01*
X69193003Y-137051999D02*
X66616014Y-134475010D01*
X101073001Y-137051999D02*
X69193003Y-137051999D01*
X101473000Y-136652000D02*
X101073001Y-137051999D01*
X65174006Y-134475010D02*
X64117001Y-133418005D01*
%TO.N,Net-(Q19-Pad1)*%
X98298000Y-119126000D02*
X101092000Y-119126000D01*
%TO.N,/CHG-LVL*%
X223520000Y-97536000D02*
X220599000Y-97536000D01*
X218567000Y-123444000D02*
X199390000Y-123444000D01*
D35*
%TO.N,/TFEED[+]*%
X66707200Y-111167200D02*
X69045800Y-111167200D01*
X66707200Y-111167200D02*
X69807800Y-111167200D01*
X69807800Y-111167200D02*
X70866000Y-110109000D01*
X70866000Y-110109000D02*
X70866000Y-103378000D01*
%TO.N,/TFEED[-]*%
X66720000Y-106680000D02*
X66707200Y-106667200D01*
X68961000Y-101913081D02*
X68961000Y-100711000D01*
X68713080Y-102161001D02*
X68961000Y-101913081D01*
X64970999Y-102041001D02*
X65090999Y-102161001D01*
X64970999Y-97081001D02*
X64970999Y-102041001D01*
X66421000Y-95631000D02*
X64970999Y-97081001D01*
X66707200Y-102181802D02*
X66728001Y-102161001D01*
X66707200Y-106667200D02*
X66707200Y-102181802D01*
X65090999Y-102161001D02*
X66728001Y-102161001D01*
X66728001Y-102161001D02*
X68713080Y-102161001D01*
%TD*%
M02*
