M48
; DRILL file {KiCad (5.1.6)-1} date 08/11/20 14:41:19
; FORMAT={-:-/ absolute / inch / decimal}
; #@! TF.CreationDate,2020-08-11T14:41:19+01:00
; #@! TF.GenerationSoftware,Kicad,Pcbnew,(5.1.6)-1
FMAT,2
INCH
T1C0.0157
T2C0.0315
T3C0.0354
T4C0.0394
T5C0.0472
T6C0.1260
T7C0.1378
%
G90
G05
T1
X2.36Y-3.135
X2.58Y-4.675
X2.855Y-3.695
X2.89Y-4.6772
X2.8941Y-5.5845
X2.97Y-5.61
X3.015Y-5.065
X3.04Y-5.55
X3.045Y-2.645
X3.085Y-4.55
X3.09Y-5.11
X3.125Y-5.025
X3.24Y-3.135
X3.27Y-3.185
X3.3Y-4.105
X3.385Y-5.14
X3.4175Y-3.328
X3.5Y-5.26
X3.5Y-5.61
X3.51Y-4.9
X3.63Y-5.58
X3.6435Y-4.51
X3.655Y-3.2435
X3.7Y-5.54
X3.7362Y-5.2243
X3.795Y-5.305
X3.8Y-3.495
X3.8652Y-5.2752
X3.995Y-5.38
X4.105Y-4.745
X4.18Y-4.985
X4.29Y-3.81
X4.32Y-5.41
X4.34Y-4.855
X4.4162Y-4.0765
X4.4229Y-4.8563
X4.4309Y-2.8352
X4.45Y-5.53
X4.48Y-5.3037
X4.65Y-4.54
X4.8542Y-2.8397
X4.99Y-2.8307
X5.05Y-3.81
X5.0764Y-4.9175
X5.165Y-4.07
X5.3515Y-3.2063
X5.43Y-4.145
X5.48Y-2.81
X5.4915Y-3.4
X5.53Y-5.3
X5.5785Y-3.85
X5.61Y-4.17
X5.655Y-3.42
X5.75Y-4.3215
X5.8515Y-4.3398
X5.93Y-5.39
X5.9661Y-4.0185
X6.0298Y-5.4402
X6.222Y-4.643
X6.3Y-4.83
X6.3Y-5.21
X6.33Y-4.8
X6.33Y-5.15
X6.45Y-4.02
X6.515Y-2.85
X6.845Y-3.435
X6.96Y-3.39
X6.995Y-4.535
X7.06Y-5.065
X7.445Y-3.1885
X7.555Y-4.18
X7.575Y-5.4
X7.695Y-4.11
X7.7Y-4.645
X7.85Y-4.86
X8.45Y-4.8885
X8.55Y-4.9
X8.605Y-4.86
X8.65Y-4.93
X8.75Y-4.96
X8.85Y-5.29
X8.86Y-4.3
X8.95Y-5.36
X9.0Y-5.17
X9.05Y-5.28
X9.1216Y-5.2091
X9.19Y-5.23
X9.35Y-4.97
T2
X2.31Y-3.66
X2.465Y-2.36
X2.66Y-3.37
X2.71Y-5.05
X2.79Y-4.07
X2.9864Y-2.52
X3.0Y-3.3985
X3.09Y-5.45
X3.1398Y-3.3
X3.3136Y-3.4478
X3.3267Y-2.36
X3.3767Y-3.4055
X3.38Y-1.87
X3.4784Y-5.0693
X3.5547Y-2.5445
X3.5552Y-1.8844
X3.6186Y-3.8484
X3.7Y-1.87
X3.7Y-3.0
X3.705Y-3.9
X3.7499Y-3.67
X3.9Y-1.8696
X3.9Y-3.48
X3.91Y-1.98
X4.04Y-1.8696
X4.04Y-3.8733
X4.11Y-3.1
X4.17Y-3.48
X4.1965Y-3.7622
X4.21Y-3.1236
X4.23Y-1.88
X4.3309Y-4.0209
X4.49Y-2.57
X4.61Y-1.73
X4.945Y-2.54
X5.14Y-1.8696
X5.2159Y-1.9004
X5.2712Y-1.8888
X5.3081Y-2.5948
X5.3436Y-1.8802
X5.3436Y-2.6412
X5.4264Y-3.3764
X5.45Y-1.89
X5.7Y-3.49
X5.75Y-1.9398
X5.8631Y-3.8479
X5.8872Y-2.3621
X5.9168Y-2.2677
X5.95Y-1.72
X5.96Y-1.79
X6.0084Y-3.8164
X6.0886Y-4.0686
X6.145Y-5.575
X6.1685Y-2.1844
X6.2633Y-1.9043
X6.29Y-3.0842
X6.36Y-3.47
X6.3959Y-3.85
X6.4034Y-2.1868
X6.4233Y-1.8706
X6.4436Y-3.12
X6.4783Y-2.5917
X6.67Y-3.05
X6.6967Y-1.8696
X6.7177Y-1.9437
X6.8105Y-2.5933
X6.8866Y-1.9104
X6.9613Y-3.3036
X6.9811Y-1.9311
X7.25Y-3.605
X7.285Y-1.72
X7.3096Y-2.55
X7.4Y-1.8696
X7.4Y-2.635
X7.4532Y-2.4517
X7.94Y-1.89
X7.95Y-3.255
X9.1Y-3.77
X8.57Y-3.84
X8.57Y-4.24
X8.6516Y-5.45
X8.75Y-5.45
X4.45Y-3.95
X4.45Y-4.25
X4.55Y-3.95
X4.55Y-4.25
X4.65Y-3.95
X4.65Y-4.25
X4.75Y-3.95
X4.75Y-4.25
X4.85Y-3.95
X4.85Y-4.25
X4.95Y-3.95
X4.95Y-4.25
X5.05Y-3.95
X5.05Y-4.25
X5.15Y-3.95
X5.15Y-4.25
X5.35Y-4.45
X5.35Y-4.75
X5.45Y-4.45
X5.45Y-4.75
X5.55Y-4.45
X5.55Y-4.75
X5.65Y-4.45
X5.65Y-4.75
X5.75Y-4.45
X5.75Y-4.75
X5.85Y-4.45
X5.85Y-4.75
X5.95Y-4.45
X5.95Y-4.75
X6.05Y-4.45
X6.05Y-4.75
X7.65Y-5.55
X8.05Y-5.55
X4.25Y-2.05
X4.25Y-2.25
X4.25Y-2.45
X4.25Y-2.75
X4.55Y-2.05
X4.55Y-2.25
X4.55Y-2.45
X4.55Y-2.75
X7.25Y-2.05
X7.25Y-2.25
X7.25Y-2.45
X7.25Y-2.75
X7.55Y-2.05
X7.55Y-2.25
X7.55Y-2.45
X7.55Y-2.75
X4.37Y-5.18
X4.37Y-5.58
X7.33Y-3.37
X7.33Y-3.77
X2.1Y-2.06
X2.1Y-2.46
X4.24Y-5.18
X4.24Y-5.58
X6.32Y-3.81
X6.32Y-4.21
X8.455Y-3.84
X8.455Y-4.24
X7.855Y-2.8716
X7.855Y-2.97
X2.6Y-4.75
X2.6Y-4.85
X2.6Y-4.95
X2.6Y-5.05
X2.6Y-5.15
X2.6Y-5.25
X2.6Y-5.35
X2.6Y-5.45
X2.9Y-4.75
X2.9Y-4.85
X2.9Y-4.95
X2.9Y-5.05
X2.9Y-5.15
X2.9Y-5.25
X2.9Y-5.35
X2.9Y-5.45
X5.35Y-3.95
X5.35Y-4.25
X5.45Y-3.95
X5.45Y-4.25
X5.55Y-3.95
X5.55Y-4.25
X5.65Y-3.95
X5.65Y-4.25
X5.75Y-3.95
X5.75Y-4.25
X5.85Y-3.95
X5.85Y-4.25
X5.95Y-3.95
X5.95Y-4.25
X6.05Y-3.95
X6.05Y-4.25
X4.17Y-4.2531
X4.17Y-4.45
X2.25Y-2.05
X2.25Y-2.25
X2.25Y-2.45
X2.25Y-2.75
X2.55Y-2.05
X2.55Y-2.25
X2.55Y-2.45
X2.55Y-2.75
X6.22Y-3.81
X6.22Y-4.21
X4.18Y-4.69
X4.18Y-5.09
X7.33Y-3.86
X7.33Y-4.26
X8.205Y-2.8716
X8.205Y-2.97
X4.11Y-5.18
X4.11Y-5.58
X2.22Y-3.22
X2.22Y-3.62
X9.145Y-3.84
X9.145Y-4.24
X6.75Y-2.05
X6.75Y-2.25
X6.75Y-2.45
X6.75Y-2.75
X7.05Y-2.05
X7.05Y-2.25
X7.05Y-2.45
X7.05Y-2.75
X7.45Y-4.45
X7.45Y-5.05
X7.55Y-4.45
X7.55Y-5.05
X7.65Y-4.45
X7.65Y-5.05
X7.75Y-4.45
X7.75Y-5.05
X7.85Y-4.45
X7.85Y-5.05
X7.95Y-4.45
X7.95Y-5.05
X8.05Y-4.45
X8.05Y-5.05
X8.15Y-4.45
X8.15Y-5.05
X8.25Y-4.45
X8.25Y-5.05
X8.35Y-4.45
X8.35Y-5.05
X8.45Y-4.45
X8.45Y-5.05
X8.55Y-4.45
X8.55Y-5.05
X8.65Y-4.45
X8.65Y-5.05
X8.75Y-4.45
X8.75Y-5.05
X8.85Y-4.45
X8.85Y-5.05
X8.95Y-4.45
X8.95Y-5.05
X9.05Y-4.45
X9.05Y-5.05
X9.15Y-4.45
X9.15Y-5.05
X9.25Y-4.45
X9.25Y-5.05
X9.35Y-4.45
X9.35Y-5.05
X7.7Y-3.16
X7.7Y-3.56
X3.85Y-5.18
X3.85Y-5.58
X8.34Y-3.84
X8.34Y-4.24
X8.47Y-5.45
X8.5684Y-5.45
X3.98Y-4.69
X3.98Y-5.09
X8.685Y-3.84
X8.685Y-4.24
X3.75Y-2.05
X3.75Y-2.25
X3.75Y-2.45
X3.75Y-2.75
X4.05Y-2.05
X4.05Y-2.25
X4.05Y-2.45
X4.05Y-2.75
X5.25Y-2.05
X5.25Y-2.25
X5.25Y-2.45
X5.25Y-2.75
X5.55Y-2.05
X5.55Y-2.25
X5.55Y-2.45
X5.55Y-2.75
X4.75Y-2.05
X4.75Y-2.25
X4.75Y-2.45
X4.75Y-2.75
X5.05Y-2.05
X5.05Y-2.25
X5.05Y-2.45
X5.05Y-2.75
X7.59Y-3.65
X7.59Y-4.05
X7.44Y-2.88
X7.44Y-3.28
X2.08Y-5.24
X2.48Y-5.24
X8.55Y-2.8766
X8.55Y-2.975
X8.25Y-4.34
X8.4469Y-4.34
X7.47Y-3.37
X7.47Y-3.77
X4.45Y-4.45
X4.45Y-4.75
X4.55Y-4.45
X4.55Y-4.75
X4.65Y-4.45
X4.65Y-4.75
X4.75Y-4.45
X4.75Y-4.75
X4.85Y-4.45
X4.85Y-4.75
X4.95Y-4.45
X4.95Y-4.75
X5.05Y-4.45
X5.05Y-4.75
X5.15Y-4.45
X5.15Y-4.75
X2.75Y-2.05
X2.75Y-2.25
X2.75Y-2.45
X2.75Y-2.75
X3.05Y-2.05
X3.05Y-2.25
X3.05Y-2.45
X3.05Y-2.75
X2.61Y-5.58
X2.8069Y-5.58
X6.25Y-2.05
X6.25Y-2.25
X6.25Y-2.45
X6.25Y-2.75
X6.55Y-2.05
X6.55Y-2.25
X6.55Y-2.45
X6.55Y-2.75
X7.7Y-3.65
X7.7Y-4.05
X7.59Y-3.16
X7.59Y-3.56
X9.03Y-3.84
X9.03Y-4.24
X7.47Y-3.86
X7.47Y-4.26
X2.09Y-3.22
X2.09Y-3.62
X2.08Y-4.94
X2.48Y-4.94
X2.08Y-5.04
X2.48Y-5.04
X6.17Y-4.5
X6.17Y-4.6969
X5.75Y-2.05
X5.75Y-2.25
X5.75Y-2.45
X5.75Y-2.75
X6.05Y-2.05
X6.05Y-2.25
X6.05Y-2.45
X6.05Y-2.75
X8.985Y-2.685
X8.985Y-2.785
X8.985Y-2.885
X2.58Y-4.6
X2.98Y-4.6
X2.1Y-2.58
X2.1Y-2.98
X4.54Y-5.56
X4.94Y-5.56
X4.34Y-3.74
X4.74Y-3.74
X7.33Y-2.88
X7.33Y-3.28
X2.08Y-5.14
X2.48Y-5.14
X3.3Y-4.75
X3.3Y-4.85
X3.3Y-4.95
X3.3Y-5.05
X3.3Y-5.15
X3.3Y-5.25
X3.3Y-5.35
X3.3Y-5.45
X3.6Y-4.75
X3.6Y-4.85
X3.6Y-4.95
X3.6Y-5.05
X3.6Y-5.15
X3.6Y-5.25
X3.6Y-5.35
X3.6Y-5.45
X3.98Y-5.18
X3.98Y-5.58
X3.25Y-2.05
X3.25Y-2.25
X3.25Y-2.45
X3.25Y-2.75
X3.55Y-2.05
X3.55Y-2.25
X3.55Y-2.45
X3.55Y-2.75
X8.56Y-5.28
X8.7521Y-5.28
X8.8Y-3.84
X8.8Y-4.24
X3.09Y-4.63
X3.49Y-4.63
X3.87Y-4.69
X3.87Y-5.09
X8.915Y-3.84
X8.915Y-4.24
T3
X7.88Y-4.18
X7.88Y-4.28
X7.64Y-4.18
X7.64Y-4.28
X8.12Y-4.18
X8.12Y-4.28
T4
X2.45Y-3.6
X2.55Y-3.6
X2.65Y-3.6
X3.35Y-3.6
X3.45Y-3.6
X3.55Y-3.6
X6.5Y-3.6
X6.6Y-3.6
X6.7Y-3.6
X6.795Y-5.52
X6.895Y-5.52
X6.995Y-5.52
X7.095Y-5.52
X7.195Y-5.52
X7.295Y-5.52
X3.35Y-3.75
X3.45Y-3.75
X3.55Y-3.75
X6.05Y-3.6
X6.15Y-3.6
X6.25Y-3.6
X5.92Y-5.05
X6.1169Y-5.05
X4.6401Y-5.1095
X4.6401Y-5.2095
X4.7401Y-5.1095
X4.7401Y-5.2095
X4.8401Y-5.1095
X4.8401Y-5.2095
X4.9401Y-5.1095
X4.9401Y-5.2095
X5.0401Y-5.1095
X5.0401Y-5.2095
X5.1401Y-5.1095
X5.1401Y-5.2095
X6.4218Y-5.1104
X6.4218Y-5.2104
X6.5218Y-5.1104
X6.5218Y-5.2104
X6.6218Y-5.1104
X6.6218Y-5.2104
X6.7218Y-5.1104
X6.7218Y-5.2104
X6.8218Y-5.1104
X6.8218Y-5.2104
X6.9218Y-5.1104
X6.9218Y-5.2104
X2.615Y-3.765
X2.615Y-3.865
X2.615Y-3.965
X2.715Y-3.765
X2.715Y-3.865
X2.715Y-3.965
X6.95Y-3.75
X7.05Y-3.75
X7.15Y-3.75
X5.15Y-3.6
X5.25Y-3.6
X5.35Y-3.6
X9.2Y-2.7
X9.3Y-2.7
X9.4Y-2.7
X3.8Y-3.6
X3.9Y-3.6
X4.0Y-3.6
X6.95Y-3.6
X7.05Y-3.6
X7.15Y-3.6
X2.95Y-1.75
X3.1469Y-1.75
X3.8Y-3.75
X3.9Y-3.75
X4.0Y-3.75
X2.9Y-3.75
X3.0Y-3.75
X3.1Y-3.75
X6.5Y-3.75
X6.6Y-3.75
X6.7Y-3.75
X4.7Y-3.6
X4.8Y-3.6
X4.9Y-3.6
X5.6Y-3.6
X5.7Y-3.6
X5.8Y-3.6
X9.2Y-2.85
X9.3Y-2.85
X9.4Y-2.85
X2.5Y-1.75
X2.6969Y-1.75
X2.9Y-3.6
X3.0Y-3.6
X3.1Y-3.6
X9.0Y-1.65
X9.0Y-1.75
X9.0Y-1.85
X4.25Y-3.6
X4.35Y-3.6
X4.45Y-3.6
T5
X8.025Y-3.175
X8.025Y-3.675
X5.05Y-5.56
X8.195Y-3.175
X8.195Y-3.675
X8.365Y-3.175
X8.365Y-3.675
X4.52Y-5.41
X4.92Y-5.41
X7.95Y-2.1847
X7.95Y-2.48
X7.855Y-3.175
X7.855Y-3.675
X5.45Y-5.56
T6
X9.298Y-1.699
X9.299Y-5.437
X5.78Y-5.437
X2.223Y-1.699
X2.263Y-5.437
T7
X2.55Y-2.9441
X3.45Y-2.9441
X6.6Y-2.9441
X3.45Y-4.4059
X6.15Y-2.9441
X7.05Y-4.4059
X5.25Y-2.9441
X9.3Y-2.0441
X3.9Y-2.9441
X7.05Y-2.9441
X3.9Y-4.4059
X3.0Y-4.4059
X6.6Y-4.4059
X4.8Y-2.9441
X5.7Y-2.9441
X9.3Y-3.5059
X3.0Y-2.9441
X8.3441Y-1.75
X4.35Y-2.9441
T0
M30
