M48
; DRILL file {KiCad (5.1.4)-1} date 05/27/20 09:38:21
; FORMAT={-:-/ absolute / inch / decimal}
; #@! TF.CreationDate,2020-05-27T09:38:21+01:00
; #@! TF.GenerationSoftware,Kicad,Pcbnew,(5.1.4)-1
FMAT,2
INCH
T1C0.0157
T2C0.0315
T3C0.0354
T4C0.0394
T5C0.0433
T6C0.0472
T7C0.0512
T8C0.0551
T9C0.1260
T10C0.1378
T11C0.1575
%
G90
G05
T1
X1.846Y-3.178
X1.9408Y-2.1895
X1.9951Y-4.068
X2.014Y-5.893
X2.316Y-4.941
X2.562Y-4.575
X2.673Y-3.159
T2
X3.072Y-1.463
X3.072Y-1.563
X3.072Y-1.663
X2.274Y-1.594
X2.374Y-1.594
X2.474Y-1.594
X2.425Y-4.51
X2.425Y-4.6084
X1.395Y-2.16
X1.495Y-2.16
X1.595Y-2.16
X3.251Y-4.894
X3.3494Y-4.894
X2.79Y-1.464
X2.79Y-1.564
X2.79Y-1.664
X2.106Y-6.367
X2.206Y-6.367
X2.306Y-6.367
X1.95Y-2.95
X1.95Y-3.0484
X2.1516Y-3.075
X2.25Y-3.075
X1.844Y-1.642
X1.944Y-1.642
X2.044Y-1.642
X4.247Y-1.844
X4.347Y-1.844
X4.447Y-1.844
X2.122Y-4.407
X2.122Y-4.707
X2.222Y-4.407
X2.222Y-4.707
X2.322Y-4.407
X2.322Y-4.707
X2.422Y-4.407
X2.422Y-4.707
X3.528Y-6.36
X3.628Y-6.36
X3.728Y-6.36
X3.365Y-1.575
X3.465Y-1.575
X3.565Y-1.575
X2.475Y-3.175
X2.475Y-3.2734
X3.808Y-1.631
X3.908Y-1.631
X4.008Y-1.631
X3.959Y-5.033
X3.959Y-5.133
X3.959Y-5.233
X2.743Y-4.412
X2.743Y-4.712
X2.843Y-4.412
X2.843Y-4.712
X2.943Y-4.412
X2.943Y-4.712
X3.043Y-4.412
X3.043Y-4.712
X3.143Y-4.412
X3.143Y-4.712
X3.243Y-4.412
X3.243Y-4.712
X3.343Y-4.412
X3.343Y-4.712
X3.443Y-4.412
X3.443Y-4.712
T3
X3.66Y-1.96
X3.66Y-2.06
X2.94Y-1.96
X2.94Y-2.06
X2.95Y-1.175
X2.95Y-1.275
X2.325Y-1.225
X2.325Y-1.325
X4.02Y-1.96
X4.02Y-2.06
X4.1Y-1.425
X4.1Y-1.525
X4.6063Y-1.75
X4.6063Y-1.85
X1.75Y-1.4
X1.75Y-1.5
X3.3Y-1.96
X3.3Y-2.06
X3.525Y-1.225
X3.525Y-1.325
X1.86Y-1.96
X1.86Y-2.06
X2.22Y-1.96
X2.22Y-2.06
X2.58Y-1.96
X2.58Y-2.06
X1.225Y-1.75
X1.225Y-1.85
T4
X3.552Y-5.888
X3.6504Y-5.6911
X3.7489Y-5.888
X2.025Y-3.25
X2.125Y-3.25
X2.225Y-3.25
X2.519Y-5.69
X2.519Y-5.79
X2.519Y-5.89
X3.361Y-6.164
X3.361Y-6.264
X3.361Y-6.364
X2.132Y-5.886
X2.2304Y-5.6891
X2.3289Y-5.886
X3.359Y-5.69
X3.359Y-5.79
X3.359Y-5.89
X2.519Y-6.164
X2.519Y-6.264
X2.519Y-6.364
T5
X4.298Y-2.188
X4.598Y-2.188
X3.819Y-4.93
X3.819Y-5.23
T6
X4.0395Y-1.2133
X4.481Y-1.448
X3.288Y-2.944
X3.288Y-3.444
X1.175Y-2.1704
X1.558Y-1.849
X2.343Y-2.192
X2.843Y-2.192
X2.013Y-1.1474
X2.496Y-1.018
X2.882Y-5.471
X3.382Y-5.471
X2.957Y-2.192
X3.457Y-2.192
X2.675Y-1.0
X3.175Y-1.0
X3.571Y-2.192
X4.071Y-2.192
X3.366Y-1.019
X3.8511Y-1.14
X2.947Y-2.947
X2.947Y-3.447
X4.037Y-5.433
X4.037Y-5.933
X1.728Y-2.192
X2.228Y-2.192
X1.384Y-1.436
X1.8255Y-1.2013
X3.46Y-2.944
X3.46Y-3.444
X2.175Y-2.95
X2.775Y-2.95
X2.186Y-4.176
X2.686Y-4.176
X4.301Y-2.032
X4.801Y-2.032
X2.51Y-5.301
X3.01Y-5.301
X2.47Y-3.5
X2.47Y-4.0
X2.509Y-5.139
X3.009Y-5.139
X1.793Y-6.082
X2.293Y-6.082
X3.116Y-2.946
X3.116Y-3.446
X1.903Y-5.059
X2.003Y-5.059
X2.103Y-5.059
X3.546Y-6.099
X4.046Y-6.099
X2.253Y-5.471
X2.753Y-5.471
X3.125Y-5.301
X3.625Y-5.301
T7
X2.4409Y-2.7559
X2.7665Y-2.7559
X3.0921Y-2.7559
X3.4177Y-2.7559
T8
X3.91Y-5.353
X3.91Y-6.153
X1.937Y-5.333
X1.937Y-6.133
T9
X1.6Y-2.622
X4.224Y-2.668
X4.013Y-6.343
X1.837Y-6.328
T10
X2.7031Y-5.79
X3.1749Y-6.264
X2.125Y-3.9059
X3.1749Y-5.79
X2.7051Y-6.264
T11
X2.1154Y-2.5984
X3.7433Y-2.5984
T0
M30
