G04 #@! TF.GenerationSoftware,KiCad,Pcbnew,(5.1.6)-1*
G04 #@! TF.CreationDate,2020-08-11T13:40:37+01:00*
G04 #@! TF.ProjectId,controller,636f6e74-726f-46c6-9c65-722e6b696361,rev?*
G04 #@! TF.SameCoordinates,Original*
G04 #@! TF.FileFunction,Copper,L2,Bot*
G04 #@! TF.FilePolarity,Positive*
%FSLAX46Y46*%
G04 Gerber Fmt 4.6, Leading zero omitted, Abs format (unit mm)*
G04 Created by KiCad (PCBNEW (5.1.6)-1) date 2020-08-11 13:40:37*
%MOMM*%
%LPD*%
G01*
G04 APERTURE LIST*
G04 #@! TA.AperFunction,Profile*
%ADD10C,0.200000*%
G04 #@! TD*
G04 #@! TA.AperFunction,ComponentPad*
%ADD11R,1.700000X1.700000*%
G04 #@! TD*
G04 #@! TA.AperFunction,ComponentPad*
%ADD12O,1.700000X1.700000*%
G04 #@! TD*
G04 #@! TA.AperFunction,ComponentPad*
%ADD13C,1.600000*%
G04 #@! TD*
G04 #@! TA.AperFunction,ComponentPad*
%ADD14R,1.600000X1.600000*%
G04 #@! TD*
G04 #@! TA.AperFunction,ComponentPad*
%ADD15C,1.800000*%
G04 #@! TD*
G04 #@! TA.AperFunction,ComponentPad*
%ADD16R,1.800000X1.800000*%
G04 #@! TD*
G04 #@! TA.AperFunction,ComponentPad*
%ADD17O,1.800000X1.800000*%
G04 #@! TD*
G04 #@! TA.AperFunction,ComponentPad*
%ADD18C,3.500000*%
G04 #@! TD*
G04 #@! TA.AperFunction,ComponentPad*
%ADD19C,2.000000*%
G04 #@! TD*
G04 #@! TA.AperFunction,ComponentPad*
%ADD20R,1.520000X1.520000*%
G04 #@! TD*
G04 #@! TA.AperFunction,ComponentPad*
%ADD21C,1.520000*%
G04 #@! TD*
G04 #@! TA.AperFunction,ComponentPad*
%ADD22C,2.400000*%
G04 #@! TD*
G04 #@! TA.AperFunction,ComponentPad*
%ADD23O,2.400000X2.400000*%
G04 #@! TD*
G04 #@! TA.AperFunction,ComponentPad*
%ADD24O,2.400000X1.600000*%
G04 #@! TD*
G04 #@! TA.AperFunction,ComponentPad*
%ADD25R,2.400000X1.600000*%
G04 #@! TD*
G04 #@! TA.AperFunction,ViaPad*
%ADD26C,0.800000*%
G04 #@! TD*
G04 #@! TA.AperFunction,Conductor*
%ADD27C,1.000000*%
G04 #@! TD*
G04 #@! TA.AperFunction,Conductor*
%ADD28C,0.300000*%
G04 #@! TD*
G04 APERTURE END LIST*
D10*
X145686549Y-63057868D02*
X145720763Y-62831959D01*
X145720763Y-62831959D02*
X145745701Y-62604626D01*
X145745701Y-62604626D02*
X145761358Y-62376319D01*
X145761358Y-62376319D02*
X145767730Y-62147490D01*
X145767730Y-62147490D02*
X145764815Y-61918591D01*
X145764815Y-61918591D02*
X145752610Y-61690074D01*
X145752610Y-61690074D02*
X145731109Y-61462390D01*
X145731109Y-61462390D02*
X145700312Y-61235991D01*
X62255540Y-145188824D02*
X62142623Y-145934420D01*
X62142623Y-145934420D02*
X62030322Y-146682999D01*
X62030322Y-146682999D02*
X61918730Y-147434623D01*
X61918730Y-147434623D02*
X61807944Y-148189359D01*
X61807944Y-148189359D02*
X61698058Y-148947271D01*
X61698058Y-148947271D02*
X61589167Y-149708424D01*
X61589167Y-149708424D02*
X61481368Y-150472882D01*
X61481368Y-150472882D02*
X61374755Y-151240711D01*
X61374755Y-151240711D02*
X61269423Y-152011975D01*
X61269423Y-152011975D02*
X61165468Y-152786739D01*
X61165468Y-152786739D02*
X61062985Y-153565068D01*
X61062985Y-153565068D02*
X60962069Y-154347027D01*
X60962069Y-154347027D02*
X60862816Y-155132681D01*
X60862816Y-155132681D02*
X60765320Y-155922094D01*
X60765320Y-155922094D02*
X60669677Y-156715331D01*
X60669677Y-156715331D02*
X60575983Y-157512457D01*
X60575983Y-157512457D02*
X60484331Y-158313537D01*
X60484331Y-158313537D02*
X60394819Y-159118636D01*
X60394819Y-159118636D02*
X60307540Y-159927818D01*
X60307540Y-159927818D02*
X60222591Y-160741148D01*
X60222591Y-160741148D02*
X60140066Y-161558692D01*
X60140066Y-161558692D02*
X60060060Y-162380514D01*
X60060060Y-162380514D02*
X59982670Y-163206678D01*
X59982670Y-163206678D02*
X59907989Y-164037251D01*
X59907989Y-164037251D02*
X59836115Y-164872295D01*
X59836115Y-164872295D02*
X59767140Y-165711877D01*
X59767140Y-165711877D02*
X59701162Y-166556061D01*
X59701162Y-166556061D02*
X59638275Y-167404912D01*
X59638275Y-167404912D02*
X59578574Y-168258494D01*
X59578574Y-168258494D02*
X59522155Y-169116873D01*
X59522155Y-169116873D02*
X59469113Y-169980114D01*
X59469113Y-169980114D02*
X59419543Y-170848281D01*
X39356251Y-58051339D02*
G75*
G02*
X144031637Y-58051339I52337693J-54916904D01*
G01*
X59463003Y-176542790D02*
X59530561Y-176757145D01*
X59530561Y-176757145D02*
X59606786Y-176968792D01*
X59606786Y-176968792D02*
X59691491Y-177177341D01*
X59691491Y-177177341D02*
X59784492Y-177382404D01*
X59784492Y-177382404D02*
X59885601Y-177583593D01*
X59885601Y-177583593D02*
X59994634Y-177780519D01*
X59994634Y-177780519D02*
X60111406Y-177972794D01*
X60111406Y-177972794D02*
X60235731Y-178160030D01*
X59419543Y-170848281D02*
X59406402Y-171090143D01*
X59406402Y-171090143D02*
X59393521Y-171332387D01*
X59393521Y-171332387D02*
X59380898Y-171575013D01*
X59380898Y-171575013D02*
X59368535Y-171818022D01*
X59368535Y-171818022D02*
X59356434Y-172061415D01*
X59356434Y-172061415D02*
X59344594Y-172305191D01*
X59344594Y-172305191D02*
X59333017Y-172549353D01*
X59333017Y-172549353D02*
X59321704Y-172793901D01*
X59321704Y-172793901D02*
X59310656Y-173038836D01*
X59310656Y-173038836D02*
X59299873Y-173284158D01*
X59299873Y-173284158D02*
X59289356Y-173529867D01*
X59289356Y-173529867D02*
X59279107Y-173775966D01*
X59279107Y-173775966D02*
X59269127Y-174022454D01*
X59269127Y-174022454D02*
X59259416Y-174269333D01*
X59259416Y-174269333D02*
X59249974Y-174516603D01*
X59249974Y-174516603D02*
X59240805Y-174764265D01*
X123924885Y-176542790D02*
X123983687Y-176325871D01*
X123983687Y-176325871D02*
X124033731Y-176106560D01*
X124033731Y-176106560D02*
X124074964Y-175885282D01*
X124074964Y-175885282D02*
X124107331Y-175662462D01*
X124107331Y-175662462D02*
X124130780Y-175438525D01*
X124130780Y-175438525D02*
X124145257Y-175213896D01*
X124145257Y-175213896D02*
X124150709Y-174989001D01*
X124150709Y-174989001D02*
X124147083Y-174764265D01*
X39417939Y-66216946D02*
X40264668Y-67006040D01*
X40264668Y-67006040D02*
X41094945Y-67792281D01*
X41094945Y-67792281D02*
X41908874Y-68575709D01*
X41908874Y-68575709D02*
X42706561Y-69356363D01*
X42706561Y-69356363D02*
X43488112Y-70134280D01*
X43488112Y-70134280D02*
X44253633Y-70909501D01*
X44253633Y-70909501D02*
X45003229Y-71682063D01*
X45003229Y-71682063D02*
X45737007Y-72452007D01*
X45737007Y-72452007D02*
X46455072Y-73219371D01*
X46455072Y-73219371D02*
X47157531Y-73984193D01*
X47157531Y-73984193D02*
X47844487Y-74746513D01*
X47844487Y-74746513D02*
X48516049Y-75506371D01*
X48516049Y-75506371D02*
X49172321Y-76263803D01*
X49172321Y-76263803D02*
X49813409Y-77018851D01*
X49813409Y-77018851D02*
X50439420Y-77771552D01*
X50439420Y-77771552D02*
X51050458Y-78521946D01*
X51050458Y-78521946D02*
X51646630Y-79270071D01*
X51646630Y-79270071D02*
X52228041Y-80015966D01*
X52228041Y-80015966D02*
X52794798Y-80759671D01*
X52794798Y-80759671D02*
X53347006Y-81501224D01*
X53347006Y-81501224D02*
X53884771Y-82240664D01*
X53884771Y-82240664D02*
X54408198Y-82978030D01*
X54408198Y-82978030D02*
X54917394Y-83713362D01*
X54917394Y-83713362D02*
X55412464Y-84446698D01*
X55412464Y-84446698D02*
X55893515Y-85178076D01*
X55893515Y-85178076D02*
X56360651Y-85907536D01*
X56360651Y-85907536D02*
X56813979Y-86635118D01*
X56813979Y-86635118D02*
X57253605Y-87360859D01*
X57253605Y-87360859D02*
X57679634Y-88084798D01*
X57679634Y-88084798D02*
X58092172Y-88806976D01*
X58092172Y-88806976D02*
X58491326Y-89527430D01*
X58491326Y-89527430D02*
X58877200Y-90246200D01*
X121908070Y-179450288D02*
X122085182Y-179311923D01*
X122085182Y-179311923D02*
X122256719Y-179166392D01*
X122256719Y-179166392D02*
X122422382Y-179014003D01*
X122422382Y-179014003D02*
X122581874Y-178855067D01*
X122581874Y-178855067D02*
X122734896Y-178689892D01*
X122734896Y-178689892D02*
X122881149Y-178518788D01*
X122881149Y-178518788D02*
X123020335Y-178342064D01*
X123020335Y-178342064D02*
X123152157Y-178160030D01*
X118550799Y-180568242D02*
X118775518Y-180563680D01*
X118775518Y-180563680D02*
X119000066Y-180550040D01*
X119000066Y-180550040D02*
X119224018Y-180527390D01*
X119224018Y-180527390D02*
X119446952Y-180495800D01*
X119446952Y-180495800D02*
X119668445Y-180455338D01*
X119668445Y-180455338D02*
X119888074Y-180406074D01*
X119888074Y-180406074D02*
X120105417Y-180348074D01*
X120105417Y-180348074D02*
X120320050Y-180281410D01*
X61479818Y-179450288D02*
X61662400Y-179581349D01*
X61662400Y-179581349D02*
X61850294Y-179705047D01*
X61850294Y-179705047D02*
X62043118Y-179821181D01*
X62043118Y-179821181D02*
X62240490Y-179929551D01*
X62240490Y-179929551D02*
X62442030Y-180029959D01*
X62442030Y-180029959D02*
X62647355Y-180122204D01*
X62647355Y-180122204D02*
X62856085Y-180206088D01*
X62856085Y-180206088D02*
X63067838Y-180281410D01*
X65354190Y-119223991D02*
X65329556Y-120019837D01*
X65329556Y-120019837D02*
X65297695Y-120815483D01*
X65297695Y-120815483D02*
X65258866Y-121611048D01*
X65258866Y-121611048D02*
X65213323Y-122406652D01*
X65213323Y-122406652D02*
X65161325Y-123202416D01*
X65161325Y-123202416D02*
X65103128Y-123998461D01*
X65103128Y-123998461D02*
X65038989Y-124794906D01*
X65038989Y-124794906D02*
X64969164Y-125591874D01*
X64969164Y-125591874D02*
X64893911Y-126389483D01*
X64893911Y-126389483D02*
X64813486Y-127187855D01*
X64813486Y-127187855D02*
X64728146Y-127987109D01*
X64728146Y-127987109D02*
X64638148Y-128787368D01*
X64638148Y-128787368D02*
X64543750Y-129588750D01*
X64543750Y-129588750D02*
X64445206Y-130391377D01*
X64445206Y-130391377D02*
X64342776Y-131195368D01*
X64342776Y-131195368D02*
X64236715Y-132000846D01*
X64236715Y-132000846D02*
X64127279Y-132807929D01*
X64127279Y-132807929D02*
X64014727Y-133616738D01*
X64014727Y-133616738D02*
X63899315Y-134427395D01*
X63899315Y-134427395D02*
X63781299Y-135240018D01*
X63781299Y-135240018D02*
X63660937Y-136054730D01*
X63660937Y-136054730D02*
X63538485Y-136871650D01*
X63538485Y-136871650D02*
X63414201Y-137690900D01*
X63414201Y-137690900D02*
X63288340Y-138512598D01*
X63288340Y-138512598D02*
X63161160Y-139336867D01*
X63161160Y-139336867D02*
X63032918Y-140163825D01*
X63032918Y-140163825D02*
X62903871Y-140993595D01*
X62903871Y-140993595D02*
X62774274Y-141826296D01*
X62774274Y-141826296D02*
X62644386Y-142662049D01*
X62644386Y-142662049D02*
X62514463Y-143500974D01*
X62514463Y-143500974D02*
X62384762Y-144343192D01*
X62384762Y-144343192D02*
X62255540Y-145188824D01*
X122138302Y-95298900D02*
X122437237Y-94586586D01*
X122437237Y-94586586D02*
X122748557Y-93872817D01*
X122748557Y-93872817D02*
X123072389Y-93157555D01*
X123072389Y-93157555D02*
X123408857Y-92440760D01*
X123408857Y-92440760D02*
X123758089Y-91722391D01*
X123758089Y-91722391D02*
X124120210Y-91002411D01*
X124120210Y-91002411D02*
X124495346Y-90280778D01*
X124495346Y-90280778D02*
X124883623Y-89557455D01*
X124883623Y-89557455D02*
X125285168Y-88832400D01*
X125285168Y-88832400D02*
X125700106Y-88105575D01*
X125700106Y-88105575D02*
X126128564Y-87376940D01*
X126128564Y-87376940D02*
X126570668Y-86646456D01*
X126570668Y-86646456D02*
X127026543Y-85914083D01*
X127026543Y-85914083D02*
X127496316Y-85179782D01*
X127496316Y-85179782D02*
X127980112Y-84443512D01*
X127980112Y-84443512D02*
X128478059Y-83705235D01*
X128478059Y-83705235D02*
X128990281Y-82964912D01*
X128990281Y-82964912D02*
X129516906Y-82222502D01*
X129516906Y-82222502D02*
X130058058Y-81477966D01*
X130058058Y-81477966D02*
X130613865Y-80731264D01*
X130613865Y-80731264D02*
X131184451Y-79982358D01*
X131184451Y-79982358D02*
X131769944Y-79231207D01*
X131769944Y-79231207D02*
X132370470Y-78477772D01*
X132370470Y-78477772D02*
X132986153Y-77722014D01*
X132986153Y-77722014D02*
X133617121Y-76963893D01*
X133617121Y-76963893D02*
X134263499Y-76203369D01*
X134263499Y-76203369D02*
X134925414Y-75440404D01*
X134925414Y-75440404D02*
X135602992Y-74674957D01*
X135602992Y-74674957D02*
X136296358Y-73906989D01*
X136296358Y-73906989D02*
X137005639Y-73136460D01*
X137005639Y-73136460D02*
X137730961Y-72363332D01*
X137730961Y-72363332D02*
X138472450Y-71587564D01*
X120320050Y-180281410D02*
X120531802Y-180206088D01*
X120531802Y-180206088D02*
X120740532Y-180122204D01*
X120740532Y-180122204D02*
X120945857Y-180029959D01*
X120945857Y-180029959D02*
X121147397Y-179929551D01*
X121147397Y-179929551D02*
X121344769Y-179821181D01*
X121344769Y-179821181D02*
X121537593Y-179705047D01*
X121537593Y-179705047D02*
X121725487Y-179581349D01*
X121725487Y-179581349D02*
X121908070Y-179450288D01*
X118155210Y-122056872D02*
X118110681Y-121235843D01*
X118110681Y-121235843D02*
X118073652Y-120414529D01*
X118073652Y-120414529D02*
X118044463Y-119592862D01*
X118044463Y-119592862D02*
X118023454Y-118770772D01*
X118023454Y-118770772D02*
X118010966Y-117948190D01*
X118010966Y-117948190D02*
X118007338Y-117125045D01*
X118007338Y-117125045D02*
X118012911Y-116301270D01*
X118012911Y-116301270D02*
X118028026Y-115476794D01*
X118028026Y-115476794D02*
X118053024Y-114651548D01*
X118053024Y-114651548D02*
X118088243Y-113825463D01*
X118088243Y-113825463D02*
X118134026Y-112998469D01*
X118134026Y-112998469D02*
X118190711Y-112170498D01*
X118190711Y-112170498D02*
X118258640Y-111341479D01*
X118258640Y-111341479D02*
X118338154Y-110511343D01*
X118338154Y-110511343D02*
X118429591Y-109680022D01*
X118429591Y-109680022D02*
X118533294Y-108847445D01*
X118533294Y-108847445D02*
X118649601Y-108013544D01*
X118649601Y-108013544D02*
X118778854Y-107178248D01*
X118778854Y-107178248D02*
X118921393Y-106341489D01*
X118921393Y-106341489D02*
X119077559Y-105503198D01*
X119077559Y-105503198D02*
X119247691Y-104663304D01*
X119247691Y-104663304D02*
X119432130Y-103821739D01*
X119432130Y-103821739D02*
X119631217Y-102978433D01*
X119631217Y-102978433D02*
X119845292Y-102133317D01*
X119845292Y-102133317D02*
X120074695Y-101286321D01*
X120074695Y-101286321D02*
X120319767Y-100437376D01*
X120319767Y-100437376D02*
X120580847Y-99586414D01*
X120580847Y-99586414D02*
X120858278Y-98733363D01*
X120858278Y-98733363D02*
X121152398Y-97878156D01*
X121152398Y-97878156D02*
X121463548Y-97020723D01*
X121463548Y-97020723D02*
X121792069Y-96160994D01*
X121792069Y-96160994D02*
X122138302Y-95298900D01*
X37701339Y-63057868D02*
X37744850Y-63282172D01*
X37744850Y-63282172D02*
X37797579Y-63504710D01*
X37797579Y-63504710D02*
X37859378Y-63725054D01*
X37859378Y-63725054D02*
X37930099Y-63942778D01*
X37930099Y-63942778D02*
X38009593Y-64157454D01*
X38009593Y-64157454D02*
X38097711Y-64368654D01*
X38097711Y-64368654D02*
X38194305Y-64575952D01*
X38194305Y-64575952D02*
X38299226Y-64778921D01*
X121633344Y-148544940D02*
X121505377Y-147674690D01*
X121505377Y-147674690D02*
X121376138Y-146808436D01*
X121376138Y-146808436D02*
X121245879Y-145946053D01*
X121245879Y-145946053D02*
X121114852Y-145087416D01*
X121114852Y-145087416D02*
X120983307Y-144232398D01*
X120983307Y-144232398D02*
X120851497Y-143380875D01*
X120851497Y-143380875D02*
X120719672Y-142532721D01*
X120719672Y-142532721D02*
X120588085Y-141687811D01*
X120588085Y-141687811D02*
X120456988Y-140846018D01*
X120456988Y-140846018D02*
X120326630Y-140007218D01*
X120326630Y-140007218D02*
X120197265Y-139171286D01*
X120197265Y-139171286D02*
X120069143Y-138338095D01*
X120069143Y-138338095D02*
X119942516Y-137507520D01*
X119942516Y-137507520D02*
X119817636Y-136679437D01*
X119817636Y-136679437D02*
X119694754Y-135853719D01*
X119694754Y-135853719D02*
X119574122Y-135030241D01*
X119574122Y-135030241D02*
X119455991Y-134208877D01*
X119455991Y-134208877D02*
X119340613Y-133389503D01*
X119340613Y-133389503D02*
X119228239Y-132571992D01*
X119228239Y-132571992D02*
X119119121Y-131756219D01*
X119119121Y-131756219D02*
X119013510Y-130942060D01*
X119013510Y-130942060D02*
X118911658Y-130129387D01*
X118911658Y-130129387D02*
X118813816Y-129318077D01*
X118813816Y-129318077D02*
X118720236Y-128508003D01*
X118720236Y-128508003D02*
X118631170Y-127699040D01*
X118631170Y-127699040D02*
X118546868Y-126891063D01*
X118546868Y-126891063D02*
X118467583Y-126083946D01*
X118467583Y-126083946D02*
X118393566Y-125277563D01*
X118393566Y-125277563D02*
X118325069Y-124471790D01*
X118325069Y-124471790D02*
X118262343Y-123666501D01*
X118262343Y-123666501D02*
X118205639Y-122861570D01*
X118205639Y-122861570D02*
X118155210Y-122056872D01*
X59240805Y-174764265D02*
X59237178Y-174989001D01*
X59237178Y-174989001D02*
X59242630Y-175213896D01*
X59242630Y-175213896D02*
X59257107Y-175438525D01*
X59257107Y-175438525D02*
X59280556Y-175662462D01*
X59280556Y-175662462D02*
X59312923Y-175885282D01*
X59312923Y-175885282D02*
X59354156Y-176106560D01*
X59354156Y-176106560D02*
X59404200Y-176325871D01*
X59404200Y-176325871D02*
X59463003Y-176542790D01*
X39356251Y-58051339D02*
X39194128Y-58212362D01*
X39194128Y-58212362D02*
X39038611Y-58380054D01*
X39038611Y-58380054D02*
X38889970Y-58554055D01*
X38889970Y-58554055D02*
X38748477Y-58734004D01*
X38748477Y-58734004D02*
X38614401Y-58919543D01*
X38614401Y-58919543D02*
X38488014Y-59110312D01*
X38488014Y-59110312D02*
X38369587Y-59305951D01*
X38369587Y-59305951D02*
X38259391Y-59506101D01*
X138472450Y-71587564D02*
X138632794Y-71421659D01*
X138632794Y-71421659D02*
X138793871Y-71255632D01*
X138793871Y-71255632D02*
X138955681Y-71089485D01*
X138955681Y-71089485D02*
X139118226Y-70923215D01*
X139118226Y-70923215D02*
X139281505Y-70756822D01*
X139281505Y-70756822D02*
X139445519Y-70590308D01*
X139445519Y-70590308D02*
X139610269Y-70423670D01*
X139610269Y-70423670D02*
X139775755Y-70256909D01*
X139775755Y-70256909D02*
X139941979Y-70090025D01*
X139941979Y-70090025D02*
X140108940Y-69923017D01*
X140108940Y-69923017D02*
X140276639Y-69755885D01*
X140276639Y-69755885D02*
X140445077Y-69588629D01*
X140445077Y-69588629D02*
X140614255Y-69421248D01*
X140614255Y-69421248D02*
X140784173Y-69253742D01*
X140784173Y-69253742D02*
X140954831Y-69086111D01*
X140954831Y-69086111D02*
X141126231Y-68918355D01*
X141126231Y-68918355D02*
X141298373Y-68750472D01*
X141298373Y-68750472D02*
X141471258Y-68582464D01*
X141471258Y-68582464D02*
X141644885Y-68414329D01*
X141644885Y-68414329D02*
X141819256Y-68246068D01*
X141819256Y-68246068D02*
X141994372Y-68077680D01*
X141994372Y-68077680D02*
X142170233Y-67909164D01*
X142170233Y-67909164D02*
X142346839Y-67740521D01*
X142346839Y-67740521D02*
X142524191Y-67571750D01*
X142524191Y-67571750D02*
X142702291Y-67402851D01*
X142702291Y-67402851D02*
X142881137Y-67233823D01*
X142881137Y-67233823D02*
X143060732Y-67064667D01*
X143060732Y-67064667D02*
X143241076Y-66895382D01*
X143241076Y-66895382D02*
X143422168Y-66725968D01*
X143422168Y-66725968D02*
X143604011Y-66556424D01*
X143604011Y-66556424D02*
X143786604Y-66386750D01*
X143786604Y-66386750D02*
X143969949Y-66216946D01*
X38299226Y-64778921D02*
X38412433Y-64977383D01*
X38412433Y-64977383D02*
X38533802Y-65171210D01*
X38533802Y-65171210D02*
X38663057Y-65360048D01*
X38663057Y-65360048D02*
X38799920Y-65543540D01*
X38799920Y-65543540D02*
X38944116Y-65721331D01*
X38944116Y-65721331D02*
X39095369Y-65893066D01*
X39095369Y-65893066D02*
X39253402Y-66058390D01*
X39253402Y-66058390D02*
X39417939Y-66216946D01*
X123152157Y-178160030D02*
X123276481Y-177972794D01*
X123276481Y-177972794D02*
X123393253Y-177780519D01*
X123393253Y-177780519D02*
X123502286Y-177583593D01*
X123502286Y-177583593D02*
X123603396Y-177382404D01*
X123603396Y-177382404D02*
X123696396Y-177177341D01*
X123696396Y-177177341D02*
X123781101Y-176968792D01*
X123781101Y-176968792D02*
X123857326Y-176757145D01*
X123857326Y-176757145D02*
X123924885Y-176542790D01*
X145700312Y-61235991D02*
X145660194Y-61011054D01*
X145660194Y-61011054D02*
X145610833Y-60787745D01*
X145610833Y-60787745D02*
X145552370Y-60566492D01*
X145552370Y-60566492D02*
X145484947Y-60347725D01*
X145484947Y-60347725D02*
X145408706Y-60131872D01*
X145408706Y-60131872D02*
X145323789Y-59919365D01*
X145323789Y-59919365D02*
X145230339Y-59710631D01*
X145230339Y-59710631D02*
X145128497Y-59506101D01*
X143969949Y-66216946D02*
X144134485Y-66058390D01*
X144134485Y-66058390D02*
X144292518Y-65893066D01*
X144292518Y-65893066D02*
X144443771Y-65721331D01*
X144443771Y-65721331D02*
X144587967Y-65543540D01*
X144587967Y-65543540D02*
X144724830Y-65360048D01*
X144724830Y-65360048D02*
X144854085Y-65171210D01*
X144854085Y-65171210D02*
X144975454Y-64977383D01*
X144975454Y-64977383D02*
X145088662Y-64778921D01*
X124147083Y-174764265D02*
X124112697Y-173874737D01*
X124112697Y-173874737D02*
X124074630Y-172990324D01*
X124074630Y-172990324D02*
X124032963Y-172110969D01*
X124032963Y-172110969D02*
X123987780Y-171236612D01*
X123987780Y-171236612D02*
X123939164Y-170367193D01*
X123939164Y-170367193D02*
X123887199Y-169502656D01*
X123887199Y-169502656D02*
X123831968Y-168642939D01*
X123831968Y-168642939D02*
X123773554Y-167787986D01*
X123773554Y-167787986D02*
X123712041Y-166937736D01*
X123712041Y-166937736D02*
X123647511Y-166092131D01*
X123647511Y-166092131D02*
X123580048Y-165251113D01*
X123580048Y-165251113D02*
X123509736Y-164414622D01*
X123509736Y-164414622D02*
X123436658Y-163582599D01*
X123436658Y-163582599D02*
X123360896Y-162754986D01*
X123360896Y-162754986D02*
X123282535Y-161931724D01*
X123282535Y-161931724D02*
X123201657Y-161112754D01*
X123201657Y-161112754D02*
X123118346Y-160298017D01*
X123118346Y-160298017D02*
X123032685Y-159487455D01*
X123032685Y-159487455D02*
X122944758Y-158681008D01*
X122944758Y-158681008D02*
X122854647Y-157878617D01*
X122854647Y-157878617D02*
X122762437Y-157080225D01*
X122762437Y-157080225D02*
X122668209Y-156285771D01*
X122668209Y-156285771D02*
X122572049Y-155495198D01*
X122572049Y-155495198D02*
X122474038Y-154708446D01*
X122474038Y-154708446D02*
X122374260Y-153925457D01*
X122374260Y-153925457D02*
X122272799Y-153146171D01*
X122272799Y-153146171D02*
X122169738Y-152370530D01*
X122169738Y-152370530D02*
X122065160Y-151598475D01*
X122065160Y-151598475D02*
X121959148Y-150829948D01*
X121959148Y-150829948D02*
X121851786Y-150064888D01*
X121851786Y-150064888D02*
X121743156Y-149303239D01*
X121743156Y-149303239D02*
X121633344Y-148544940D01*
X145128497Y-59506101D02*
X145018300Y-59305951D01*
X145018300Y-59305951D02*
X144899873Y-59110312D01*
X144899873Y-59110312D02*
X144773486Y-58919543D01*
X144773486Y-58919543D02*
X144639410Y-58734004D01*
X144639410Y-58734004D02*
X144497917Y-58554055D01*
X144497917Y-58554055D02*
X144349276Y-58380054D01*
X144349276Y-58380054D02*
X144193759Y-58212362D01*
X144193759Y-58212362D02*
X144031637Y-58051339D01*
X38259391Y-59506101D02*
X38157548Y-59710631D01*
X38157548Y-59710631D02*
X38064098Y-59919365D01*
X38064098Y-59919365D02*
X37979181Y-60131872D01*
X37979181Y-60131872D02*
X37902940Y-60347725D01*
X37902940Y-60347725D02*
X37835517Y-60566492D01*
X37835517Y-60566492D02*
X37777054Y-60787745D01*
X37777054Y-60787745D02*
X37727693Y-61011054D01*
X37727693Y-61011054D02*
X37687576Y-61235991D01*
X37687576Y-61235991D02*
X37656778Y-61462390D01*
X37656778Y-61462390D02*
X37635277Y-61690074D01*
X37635277Y-61690074D02*
X37623072Y-61918591D01*
X37623072Y-61918591D02*
X37620157Y-62147490D01*
X37620157Y-62147490D02*
X37626529Y-62376319D01*
X37626529Y-62376319D02*
X37642186Y-62604626D01*
X37642186Y-62604626D02*
X37667124Y-62831959D01*
X37667124Y-62831959D02*
X37701339Y-63057868D01*
X64837089Y-180568242D02*
X118550799Y-180568242D01*
X63067838Y-180281410D02*
X63282470Y-180348074D01*
X63282470Y-180348074D02*
X63499813Y-180406074D01*
X63499813Y-180406074D02*
X63719442Y-180455338D01*
X63719442Y-180455338D02*
X63940935Y-180495800D01*
X63940935Y-180495800D02*
X64163869Y-180527390D01*
X64163869Y-180527390D02*
X64387821Y-180550040D01*
X64387821Y-180550040D02*
X64612369Y-180563680D01*
X64612369Y-180563680D02*
X64837089Y-180568242D01*
X145088662Y-64778921D02*
X145193582Y-64575952D01*
X145193582Y-64575952D02*
X145290176Y-64368654D01*
X145290176Y-64368654D02*
X145378294Y-64157454D01*
X145378294Y-64157454D02*
X145457788Y-63942778D01*
X145457788Y-63942778D02*
X145528509Y-63725054D01*
X145528509Y-63725054D02*
X145590308Y-63504710D01*
X145590308Y-63504710D02*
X145643037Y-63282172D01*
X145643037Y-63282172D02*
X145686549Y-63057868D01*
X60235731Y-178160030D02*
X60367552Y-178342064D01*
X60367552Y-178342064D02*
X60506738Y-178518788D01*
X60506738Y-178518788D02*
X60652991Y-178689892D01*
X60652991Y-178689892D02*
X60806013Y-178855067D01*
X60806013Y-178855067D02*
X60965505Y-179014003D01*
X60965505Y-179014003D02*
X61131168Y-179166392D01*
X61131168Y-179166392D02*
X61302705Y-179311923D01*
X61302705Y-179311923D02*
X61479818Y-179450288D01*
X58877200Y-90246200D02*
X59363340Y-91186366D01*
X59363340Y-91186366D02*
X59827105Y-92123562D01*
X59827105Y-92123562D02*
X60268902Y-93057862D01*
X60268902Y-93057862D02*
X60689138Y-93989339D01*
X60689138Y-93989339D02*
X61088220Y-94918068D01*
X61088220Y-94918068D02*
X61466555Y-95844122D01*
X61466555Y-95844122D02*
X61824550Y-96767574D01*
X61824550Y-96767574D02*
X62162611Y-97688498D01*
X62162611Y-97688498D02*
X62481146Y-98606969D01*
X62481146Y-98606969D02*
X62780562Y-99523059D01*
X62780562Y-99523059D02*
X63061265Y-100436842D01*
X63061265Y-100436842D02*
X63323663Y-101348392D01*
X63323663Y-101348392D02*
X63568162Y-102257784D01*
X63568162Y-102257784D02*
X63795170Y-103165090D01*
X63795170Y-103165090D02*
X64005093Y-104070384D01*
X64005093Y-104070384D02*
X64198339Y-104973739D01*
X64198339Y-104973739D02*
X64375314Y-105875231D01*
X64375314Y-105875231D02*
X64536425Y-106774932D01*
X64536425Y-106774932D02*
X64682080Y-107672915D01*
X64682080Y-107672915D02*
X64812684Y-108569256D01*
X64812684Y-108569256D02*
X64928646Y-109464027D01*
X64928646Y-109464027D02*
X65030372Y-110357301D01*
X65030372Y-110357301D02*
X65118269Y-111249154D01*
X65118269Y-111249154D02*
X65192744Y-112139658D01*
X65192744Y-112139658D02*
X65254205Y-113028888D01*
X65254205Y-113028888D02*
X65303057Y-113916916D01*
X65303057Y-113916916D02*
X65339708Y-114803817D01*
X65339708Y-114803817D02*
X65364564Y-115689664D01*
X65364564Y-115689664D02*
X65378034Y-116574532D01*
X65378034Y-116574532D02*
X65380524Y-117458493D01*
X65380524Y-117458493D02*
X65372440Y-118341621D01*
X65372440Y-118341621D02*
X65354190Y-119223991D01*
D11*
X81534000Y-134620000D03*
D12*
X81534000Y-132080000D03*
X81534000Y-129540000D03*
D13*
X73192000Y-121920000D03*
X75692000Y-121920000D03*
D14*
X68072000Y-97028000D03*
D13*
X68072000Y-94528000D03*
X112776000Y-134620000D03*
X112776000Y-137120000D03*
X67056000Y-150836000D03*
D14*
X67056000Y-148336000D03*
D13*
X89368000Y-139192000D03*
X86868000Y-139192000D03*
D15*
X91440000Y-64516000D03*
D16*
X91440000Y-67056000D03*
D17*
X68580000Y-117856000D03*
D16*
X76200000Y-117856000D03*
D15*
X49174400Y-60858400D03*
D16*
X49174400Y-58318400D03*
X62280800Y-50114200D03*
D15*
X62280800Y-52654200D03*
X76885800Y-47523400D03*
D16*
X76885800Y-44983400D03*
D15*
X106502200Y-47599600D03*
D16*
X106502200Y-45059600D03*
X121132600Y-50038000D03*
D15*
X121132600Y-52578000D03*
X134289800Y-60833000D03*
D16*
X134289800Y-58293000D03*
D17*
X92456000Y-99568000D03*
D16*
X92456000Y-91948000D03*
D15*
X114808000Y-64516000D03*
D16*
X114808000Y-67056000D03*
X95504000Y-99568000D03*
D17*
X95504000Y-91948000D03*
D16*
X68072000Y-67056000D03*
D15*
X68072000Y-64516000D03*
D17*
X86360000Y-99568000D03*
D16*
X86360000Y-91948000D03*
X89408000Y-99568000D03*
D17*
X89408000Y-91948000D03*
D16*
X103124000Y-67056000D03*
D15*
X103124000Y-64516000D03*
X91770200Y-45770800D03*
D16*
X91770200Y-43230800D03*
X79756000Y-67056000D03*
D15*
X79756000Y-64516000D03*
D18*
X78740000Y-85344000D03*
X87010000Y-85344000D03*
X95280000Y-85344000D03*
X103550000Y-85344000D03*
D19*
X115316000Y-170688000D03*
X120396000Y-170688000D03*
X117856000Y-170688000D03*
D16*
X77216000Y-160020000D03*
D17*
X74676000Y-160020000D03*
X72136000Y-160020000D03*
X105664000Y-160020000D03*
X108204000Y-160020000D03*
D16*
X110744000Y-160020000D03*
D20*
X67564000Y-168148000D03*
D21*
X62484000Y-168148000D03*
X65024000Y-168148000D03*
X65024000Y-162052000D03*
X62484000Y-162052000D03*
D20*
X67564000Y-162052000D03*
D17*
X94488000Y-160020000D03*
X97028000Y-160020000D03*
D16*
X99568000Y-160020000D03*
X88392000Y-160020000D03*
D17*
X85852000Y-160020000D03*
X83312000Y-160020000D03*
D20*
X62484000Y-85852000D03*
D21*
X62484000Y-80772000D03*
X62484000Y-83312000D03*
D22*
X115570000Y-99568000D03*
D23*
X102870000Y-99568000D03*
D22*
X115570000Y-95504000D03*
D23*
X102870000Y-95504000D03*
X102870000Y-91440000D03*
D22*
X115570000Y-91440000D03*
D23*
X63500000Y-155956000D03*
D22*
X76200000Y-155956000D03*
X93472000Y-155956000D03*
D23*
X80772000Y-155956000D03*
X67564000Y-114300000D03*
D22*
X67564000Y-101600000D03*
D23*
X71628000Y-114300000D03*
D22*
X71628000Y-101600000D03*
X75692000Y-101600000D03*
D23*
X75692000Y-114300000D03*
X106172000Y-118364000D03*
D22*
X106172000Y-105664000D03*
X110236000Y-105664000D03*
D23*
X110236000Y-118364000D03*
X114300000Y-118364000D03*
D22*
X114300000Y-105664000D03*
D23*
X75184000Y-89916000D03*
D22*
X62484000Y-89916000D03*
X79756000Y-101600000D03*
D23*
X79756000Y-114300000D03*
D17*
X70612000Y-125476000D03*
X73152000Y-125476000D03*
D16*
X75692000Y-125476000D03*
D24*
X91948000Y-142240000D03*
X84328000Y-149860000D03*
X91948000Y-144780000D03*
X84328000Y-147320000D03*
X91948000Y-147320000D03*
X84328000Y-144780000D03*
X91948000Y-149860000D03*
D25*
X84328000Y-142240000D03*
D24*
X108712000Y-132080000D03*
X101092000Y-149860000D03*
X108712000Y-134620000D03*
X101092000Y-147320000D03*
X108712000Y-137160000D03*
X101092000Y-144780000D03*
X108712000Y-139700000D03*
X101092000Y-142240000D03*
X108712000Y-142240000D03*
X101092000Y-139700000D03*
X108712000Y-144780000D03*
X101092000Y-137160000D03*
X108712000Y-147320000D03*
X101092000Y-134620000D03*
X108712000Y-149860000D03*
D25*
X101092000Y-132080000D03*
D26*
X66548000Y-140462000D03*
X66040000Y-138430000D03*
X101092000Y-113030000D03*
X99314000Y-114300000D03*
X87376000Y-102362000D03*
X75184000Y-97028000D03*
D27*
X47474399Y-60018401D02*
X49174400Y-58318400D01*
X47474399Y-61674401D02*
X47474399Y-60018401D01*
X62484000Y-76684002D02*
X47474399Y-61674401D01*
X62484000Y-80772000D02*
X62484000Y-76684002D01*
X69128000Y-117856000D02*
X73192000Y-121920000D01*
X68580000Y-117856000D02*
X69128000Y-117856000D01*
X73192000Y-125436000D02*
X73152000Y-125476000D01*
X73192000Y-121920000D02*
X73192000Y-125436000D01*
X106711990Y-141577255D02*
X106711990Y-146440010D01*
X108589245Y-139700000D02*
X106711990Y-141577255D01*
X103292000Y-149860000D02*
X101092000Y-149860000D01*
X106711990Y-146440010D02*
X103292000Y-149860000D01*
X108712000Y-139700000D02*
X108589245Y-139700000D01*
X113815998Y-170688000D02*
X115316000Y-170688000D01*
X94488000Y-160020000D02*
X94488000Y-165608000D01*
X94488000Y-165608000D02*
X99568000Y-170688000D01*
X101268001Y-170610001D02*
X101346000Y-170688000D01*
X101268001Y-150036001D02*
X101268001Y-170610001D01*
X99568000Y-170688000D02*
X101346000Y-170688000D01*
X101092000Y-149860000D02*
X101268001Y-150036001D01*
X101346000Y-170688000D02*
X115316000Y-170688000D01*
D28*
X80965001Y-97911997D02*
X78080999Y-100795999D01*
X80965001Y-84275999D02*
X80965001Y-97911997D01*
X79756000Y-64516000D02*
X78380999Y-65891001D01*
X78080999Y-100795999D02*
X78080999Y-112624999D01*
X78380999Y-81691997D02*
X80965001Y-84275999D01*
X78380999Y-65891001D02*
X78380999Y-81691997D01*
X78080999Y-112624999D02*
X79756000Y-114300000D01*
X111500999Y-144531001D02*
X108712000Y-147320000D01*
X111500999Y-135895001D02*
X111500999Y-144531001D01*
X112776000Y-134620000D02*
X111500999Y-135895001D01*
X120396000Y-157454000D02*
X120396000Y-170688000D01*
X110262000Y-147320000D02*
X120396000Y-157454000D01*
X108712000Y-147320000D02*
X110262000Y-147320000D01*
X81534000Y-139446000D02*
X84328000Y-142240000D01*
X81534000Y-134620000D02*
X81534000Y-139446000D01*
X66364001Y-78048001D02*
X49174400Y-60858400D01*
X66364001Y-100400001D02*
X66364001Y-78048001D01*
X67564000Y-101600000D02*
X66364001Y-100400001D01*
X76859001Y-98735943D02*
X76859001Y-89208255D01*
X75692000Y-99902944D02*
X76859001Y-98735943D01*
X75803989Y-88153243D02*
X75803989Y-48605211D01*
X75985801Y-48423399D02*
X76885800Y-47523400D01*
X75803989Y-48605211D02*
X75985801Y-48423399D01*
X75692000Y-101600000D02*
X75692000Y-99902944D01*
X76859001Y-89208255D02*
X75803989Y-88153243D01*
X109036001Y-64674599D02*
X120232601Y-53477999D01*
X109036001Y-104464001D02*
X109036001Y-64674599D01*
X110236000Y-105664000D02*
X109036001Y-104464001D01*
X120232601Y-53477999D02*
X121132600Y-52578000D01*
X115570000Y-67818000D02*
X114808000Y-67056000D01*
X115570000Y-91440000D02*
X115570000Y-67818000D01*
D27*
X91108001Y-97867999D02*
X89408000Y-99568000D01*
X92100003Y-97867999D02*
X91108001Y-97867999D01*
X97204001Y-87268001D02*
X97204001Y-92764001D01*
X97204001Y-92764001D02*
X92100003Y-97867999D01*
X95280000Y-85344000D02*
X97204001Y-87268001D01*
X86360000Y-99568000D02*
X89408000Y-99568000D01*
X86328010Y-159543990D02*
X85852000Y-160020000D01*
X86328010Y-140800008D02*
X86328010Y-159543990D01*
X86168001Y-140639999D02*
X86328010Y-140800008D01*
X85775999Y-140639999D02*
X86168001Y-140639999D01*
X85267999Y-140131999D02*
X85775999Y-140639999D01*
X85267999Y-100660001D02*
X85267999Y-140131999D01*
X86360000Y-99568000D02*
X85267999Y-100660001D01*
X92456000Y-99568000D02*
X95504000Y-99568000D01*
X97028000Y-104140000D02*
X97028000Y-160020000D01*
X92456000Y-99568000D02*
X97028000Y-104140000D01*
X100869999Y-94202001D02*
X95504000Y-99568000D01*
X100869999Y-88024001D02*
X100869999Y-94202001D01*
X103550000Y-85344000D02*
X100869999Y-88024001D01*
D28*
X66184001Y-166987999D02*
X65024000Y-168148000D01*
X65805999Y-161117197D02*
X66184001Y-161495199D01*
X65805999Y-141204001D02*
X65805999Y-161117197D01*
X66548000Y-140462000D02*
X65805999Y-141204001D01*
X66184001Y-161495199D02*
X66184001Y-166987999D01*
X69088000Y-168148000D02*
X67564000Y-168148000D01*
X77216000Y-160020000D02*
X69088000Y-168148000D01*
X66040000Y-138430000D02*
X65255988Y-139214012D01*
X65255988Y-139214012D02*
X65255988Y-161820012D01*
X65255988Y-161820012D02*
X65024000Y-162052000D01*
X72945001Y-63318401D02*
X62280800Y-52654200D01*
X72945001Y-100282999D02*
X72945001Y-63318401D01*
X71628000Y-101600000D02*
X72945001Y-100282999D01*
X106172000Y-47929800D02*
X106502200Y-47599600D01*
X106172000Y-105664000D02*
X106172000Y-47929800D01*
X117245001Y-77877799D02*
X134289800Y-60833000D01*
X117245001Y-102718999D02*
X117245001Y-77877799D01*
X114300000Y-105664000D02*
X117245001Y-102718999D01*
X81614001Y-161370001D02*
X87041999Y-161370001D01*
X87041999Y-161370001D02*
X88392000Y-160020000D01*
X76200000Y-155956000D02*
X81614001Y-161370001D01*
X102870000Y-91440000D02*
X102870000Y-95504000D01*
X102870000Y-95504000D02*
X102870000Y-99568000D01*
X61248999Y-88680999D02*
X62484000Y-89916000D01*
X61248999Y-84547001D02*
X61248999Y-88680999D01*
X62484000Y-83312000D02*
X61248999Y-84547001D01*
X101092000Y-132080000D02*
X101092000Y-113030000D01*
X101092000Y-134620000D02*
X99592000Y-134620000D01*
X99314000Y-134342000D02*
X99314000Y-114300000D01*
X99592000Y-134620000D02*
X99314000Y-134342000D01*
X102692010Y-121843990D02*
X106172000Y-118364000D01*
X101092000Y-141797070D02*
X102692010Y-140197060D01*
X102692010Y-140197060D02*
X102692010Y-121843990D01*
X101092000Y-142240000D02*
X101092000Y-141797070D01*
X101092000Y-144780000D02*
X102912010Y-142959990D01*
X103242021Y-125357979D02*
X109036001Y-119563999D01*
X102912010Y-142959990D02*
X102912010Y-140754893D01*
X109036001Y-119563999D02*
X110236000Y-118364000D01*
X102912010Y-140754893D02*
X103242021Y-140424882D01*
X103242021Y-140424882D02*
X103242021Y-125357979D01*
X103462021Y-146449979D02*
X103462021Y-140982715D01*
X113100001Y-119563999D02*
X114300000Y-118364000D01*
X101092000Y-147320000D02*
X102592000Y-147320000D01*
X104478022Y-128185978D02*
X113100001Y-119563999D01*
X104478022Y-139966714D02*
X104478022Y-128185978D01*
X102592000Y-147320000D02*
X103462021Y-146449979D01*
X103462021Y-140982715D02*
X104478022Y-139966714D01*
X93623010Y-108609010D02*
X87376000Y-102362000D01*
X91948000Y-144780000D02*
X93623010Y-143104990D01*
X93623010Y-143104990D02*
X93623010Y-108609010D01*
X75184000Y-97028000D02*
X75184000Y-89916000D01*
X81615012Y-55925988D02*
X90870201Y-46670799D01*
X90870201Y-46670799D02*
X91770200Y-45770800D01*
X79756000Y-101600000D02*
X81615012Y-99740988D01*
X81615012Y-99740988D02*
X81615012Y-55925988D01*
D27*
X87010000Y-91298000D02*
X86360000Y-91948000D01*
X87010000Y-85344000D02*
X87010000Y-91298000D01*
X92456000Y-90790000D02*
X87010000Y-85344000D01*
X92456000Y-91948000D02*
X92456000Y-90790000D01*
X73691999Y-115347999D02*
X76200000Y-117856000D01*
X73691999Y-113403997D02*
X73691999Y-115347999D01*
X69564001Y-98520001D02*
X69564001Y-109275999D01*
X69564001Y-109275999D02*
X73691999Y-113403997D01*
X68072000Y-97028000D02*
X69564001Y-98520001D01*
X76200000Y-121412000D02*
X75692000Y-121920000D01*
X76200000Y-117856000D02*
X76200000Y-121412000D01*
X75692000Y-121920000D02*
X75692000Y-125476000D01*
X72136000Y-157059998D02*
X72136000Y-160020000D01*
X75702001Y-153493997D02*
X72136000Y-157059998D01*
X75702001Y-125486001D02*
X75702001Y-153493997D01*
X75692000Y-125476000D02*
X75702001Y-125486001D01*
D28*
X61248999Y-166912999D02*
X62484000Y-168148000D01*
X61248999Y-158207001D02*
X61248999Y-166912999D01*
X63500000Y-155956000D02*
X61248999Y-158207001D01*
X80283999Y-145815999D02*
X84328000Y-149860000D01*
X80283999Y-133330001D02*
X80283999Y-145815999D01*
X81534000Y-132080000D02*
X80283999Y-133330001D01*
M02*
