M48
; DRILL file {KiCad (5.1.6)-1} date 08/11/20 13:40:39
; FORMAT={-:-/ absolute / inch / decimal}
; #@! TF.CreationDate,2020-08-11T13:40:39+01:00
; #@! TF.GenerationSoftware,Kicad,Pcbnew,(5.1.6)-1
FMAT,2
INCH
T1C0.0157
T2C0.0315
T3C0.0354
T4C0.0394
T5C0.0472
T6C0.0512
T7C0.1260
T8C0.1378
T9C0.1575
%
G90
G05
T1
X2.6Y-5.45
X2.62Y-5.53
X2.96Y-3.82
X3.44Y-4.03
X3.91Y-4.5
X3.98Y-4.45
T2
X2.64Y-5.84
X2.64Y-5.9384
X2.46Y-6.38
X2.56Y-6.38
X2.66Y-6.38
X2.46Y-6.62
X2.56Y-6.62
X2.66Y-6.62
X3.98Y-5.2
X3.98Y-5.3
X3.98Y-5.4
X3.98Y-5.5
X3.98Y-5.6
X3.98Y-5.7
X3.98Y-5.8
X3.98Y-5.9
X4.28Y-5.2
X4.28Y-5.3
X4.28Y-5.4
X4.28Y-5.5
X4.28Y-5.6
X4.28Y-5.7
X4.28Y-5.8
X4.28Y-5.9
X2.46Y-3.18
X2.46Y-3.28
X2.46Y-3.38
X4.44Y-5.3
X4.44Y-5.3984
X2.8816Y-4.8
X2.98Y-4.8
X2.68Y-3.7216
X2.68Y-3.82
X3.32Y-5.6
X3.32Y-5.7
X3.32Y-5.8
X3.32Y-5.9
X3.62Y-5.6
X3.62Y-5.7
X3.62Y-5.8
X3.62Y-5.9
X3.42Y-5.48
X3.5184Y-5.48
T3
X2.68Y-2.54
X2.68Y-2.64
X3.027Y-1.771
X3.027Y-1.871
X3.76Y-3.62
X3.76Y-3.92
X4.193Y-1.774
X4.193Y-1.874
X3.64Y-3.62
X3.64Y-3.92
X4.06Y-2.54
X4.06Y-2.64
X3.6Y-2.54
X3.6Y-2.64
X3.4Y-3.62
X3.4Y-3.92
X3.613Y-1.702
X3.613Y-1.802
X3.52Y-3.62
X3.52Y-3.92
X2.452Y-1.973
X2.452Y-2.073
X3.14Y-2.54
X3.14Y-2.64
X5.287Y-2.295
X5.287Y-2.395
X4.769Y-1.97
X4.769Y-2.07
X1.936Y-2.296
X1.936Y-2.396
X4.52Y-2.54
X4.52Y-2.64
X2.7Y-4.64
X3.0Y-4.64
T4
X4.16Y-6.3
X4.26Y-6.3
X4.36Y-6.3
X2.78Y-4.94
X2.88Y-4.94
X2.98Y-4.94
X2.84Y-6.3
X2.94Y-6.3
X3.04Y-6.3
X3.72Y-6.3
X3.82Y-6.3
X3.92Y-6.3
X3.21Y-5.1
X3.21Y-5.2
X3.21Y-5.3
X3.28Y-6.3
X3.38Y-6.3
X3.48Y-6.3
T5
X3.14Y-4.0
X3.14Y-4.5
X4.34Y-4.16
X4.34Y-4.66
X2.5Y-6.14
X3.0Y-6.14
X4.5Y-4.16
X4.5Y-4.66
X4.05Y-3.92
X4.55Y-3.92
X3.18Y-6.14
X3.68Y-6.14
X4.05Y-3.76
X4.55Y-3.76
X4.18Y-4.16
X4.18Y-4.66
X4.54Y-6.72
X4.64Y-6.72
X4.74Y-6.72
X4.05Y-3.6
X4.55Y-3.6
X2.46Y-3.54
X2.96Y-3.54
X2.98Y-4.0
X2.98Y-4.5
X2.66Y-4.0
X2.66Y-4.5
X2.82Y-4.0
X2.82Y-4.5
T6
X3.1Y-3.36
X3.4256Y-3.36
X3.7512Y-3.36
X4.0768Y-3.36
T7
X2.238Y-3.07
X4.982Y-3.07
X4.691Y-6.912
X2.529Y-6.912
T8
X4.26Y-6.9559
X2.88Y-5.5959
X2.94Y-6.9559
X3.82Y-6.9559
X3.38Y-6.9559
T9
X2.7744Y-3.2025
X4.4024Y-3.2025
T0
M30
